{
  "extensionsUsed": [
    "KHR_materials_transmission",
    "KHR_materials_clearcoat",
    "KHR_materials_ior",
    "KHR_materials_specular",
    "KHR_materials_emissive_strength",
    "KHR_texture_transform"
  ],
  "accessors": [
    {
      "bufferView": 0,
      "componentType": 5126,
      "count": 108,
      "type": "VEC3",
      "max": [
        -10.085,
        43.9,
        -16.603218
      ],
      "min": [
        -10.205,
        41.7,
        -17.603218
      ]
    },
    {
      "bufferView": 1,
      "componentType": 5125,
      "count": 120,
      "type": "SCALAR",
      "max": [
        107.0
      ],
      "min": [
        0.0
      ]
    },
    {
      "bufferView": 2,
      "componentType": 5126,
      "count": 108,
      "type": "VEC3",
      "max": [
        1.0,
        1.0,
        1.0
      ],
      "min": [
        -1.0,
        -1.0,
        -1.0
      ]
    },
    {
      "bufferView": 3,
      "componentType": 5126,
      "count": 108,
      "type": "VEC2",
      "max": [
        7.053806,
        7.217848
      ],
      "min": [
        -3.28084,
        -1.323489E-23
      ]
    },
    {
      "bufferView": 4,
      "componentType": 5126,
      "count": 108,
      "type": "VEC3",
      "max": [
        -10.085,
        40.5,
        -16.603218
      ],
      "min": [
        -10.205,
        38.3,
        -17.603218
      ]
    },
    {
      "bufferView": 5,
      "componentType": 5125,
      "count": 120,
      "type": "SCALAR",
      "max": [
        107.0
      ],
      "min": [
        0.0
      ]
    },
    {
      "bufferView": 6,
      "componentType": 5126,
      "count": 108,
      "type": "VEC3",
      "max": [
        1.0,
        1.0,
        1.0
      ],
      "min": [
        -1.0,
        -1.0,
        -1.0
      ]
    },
    {
      "bufferView": 7,
      "componentType": 5126,
      "count": 108,
      "type": "VEC2",
      "max": [
        7.053806,
        7.217848
      ],
      "min": [
        -3.28084,
        -1.323489E-23
      ]
    },
    {
      "bufferView": 8,
      "componentType": 5126,
      "count": 108,
      "type": "VEC3",
      "max": [
        -9.309991,
        40.5,
        -21.43
      ],
      "min": [
        -10.309991,
        38.3,
        -21.550001
      ]
    },
    {
      "bufferView": 9,
      "componentType": 5125,
      "count": 120,
      "type": "SCALAR",
      "max": [
        107.0
      ],
      "min": [
        0.0
      ]
    },
    {
      "bufferView": 10,
      "componentType": 5126,
      "count": 108,
      "type": "VEC3",
      "max": [
        1.0,
        1.0,
        1.0
      ],
      "min": [
        -1.0,
        -1.0,
        -1.0
      ]
    },
    {
      "bufferView": 11,
      "componentType": 5126,
      "count": 108,
      "type": "VEC2",
      "max": [
        7.053806,
        7.217848
      ],
      "min": [
        -3.28084,
        -1.323489E-23
      ]
    },
    {
      "bufferView": 12,
      "componentType": 5126,
      "count": 108,
      "type": "VEC3",
      "max": [
        -9.309991,
        43.9,
        -21.43
      ],
      "min": [
        -10.309991,
        41.7,
        -21.550001
      ]
    },
    {
      "bufferView": 13,
      "componentType": 5125,
      "count": 120,
      "type": "SCALAR",
      "max": [
        107.0
      ],
      "min": [
        0.0
      ]
    },
    {
      "bufferView": 14,
      "componentType": 5126,
      "count": 108,
      "type": "VEC3",
      "max": [
        1.0,
        1.0,
        1.0
      ],
      "min": [
        -1.0,
        -1.0,
        -1.0
      ]
    },
    {
      "bufferView": 15,
      "componentType": 5126,
      "count": 108,
      "type": "VEC2",
      "max": [
        7.053806,
        7.217848
      ],
      "min": [
        -3.28084,
        -1.323489E-23
      ]
    },
    {
      "bufferView": 16,
      "componentType": 5126,
      "count": 108,
      "type": "VEC3",
      "max": [
        -10.085,
        37.1,
        -16.603218
      ],
      "min": [
        -10.205,
        34.9,
        -17.603218
      ]
    },
    {
      "bufferView": 17,
      "componentType": 5125,
      "count": 120,
      "type": "SCALAR",
      "max": [
        107.0
      ],
      "min": [
        0.0
      ]
    },
    {
      "bufferView": 18,
      "componentType": 5126,
      "count": 108,
      "type": "VEC3",
      "max": [
        1.0,
        1.0,
        1.0
      ],
      "min": [
        -1.0,
        -1.0,
        -1.0
      ]
    },
    {
      "bufferView": 19,
      "componentType": 5126,
      "count": 108,
      "type": "VEC2",
      "max": [
        7.053806,
        7.217848
      ],
      "min": [
        -3.28084,
        -1.323489E-23
      ]
    },
    {
      "bufferView": 20,
      "componentType": 5126,
      "count": 108,
      "type": "VEC3",
      "max": [
        -9.309991,
        37.1,
        -21.43
      ],
      "min": [
        -10.309991,
        34.9,
        -21.550001
      ]
    },
    {
      "bufferView": 21,
      "componentType": 5125,
      "count": 120,
      "type": "SCALAR",
      "max": [
        107.0
      ],
      "min": [
        0.0
      ]
    },
    {
      "bufferView": 22,
      "componentType": 5126,
      "count": 108,
      "type": "VEC3",
      "max": [
        1.0,
        1.0,
        1.0
      ],
      "min": [
        -1.0,
        -1.0,
        -1.0
      ]
    },
    {
      "bufferView": 23,
      "componentType": 5126,
      "count": 108,
      "type": "VEC2",
      "max": [
        7.053806,
        7.217848
      ],
      "min": [
        -3.28084,
        -1.323489E-23
      ]
    },
    {
      "bufferView": 24,
      "componentType": 5126,
      "count": 108,
      "type": "VEC3",
      "max": [
        -8.659991,
        43.9,
        -16.6
      ],
      "min": [
        -8.779991,
        41.7,
        -17.6
      ]
    },
    {
      "bufferView": 25,
      "componentType": 5125,
      "count": 120,
      "type": "SCALAR",
      "max": [
        107.0
      ],
      "min": [
        0.0
      ]
    },
    {
      "bufferView": 26,
      "componentType": 5126,
      "count": 108,
      "type": "VEC3",
      "max": [
        1.0,
        1.0,
        1.0
      ],
      "min": [
        -1.0,
        -1.0,
        -1.0
      ]
    },
    {
      "bufferView": 27,
      "componentType": 5126,
      "count": 108,
      "type": "VEC2",
      "max": [
        7.053806,
        7.217848
      ],
      "min": [
        -3.28084,
        -1.323489E-23
      ]
    },
    {
      "bufferView": 28,
      "componentType": 5126,
      "count": 108,
      "type": "VEC3",
      "max": [
        -8.659991,
        40.5,
        -16.6
      ],
      "min": [
        -8.779991,
        38.3,
        -17.6
      ]
    },
    {
      "bufferView": 29,
      "componentType": 5125,
      "count": 120,
      "type": "SCALAR",
      "max": [
        107.0
      ],
      "min": [
        0.0
      ]
    },
    {
      "bufferView": 30,
      "componentType": 5126,
      "count": 108,
      "type": "VEC3",
      "max": [
        1.0,
        1.0,
        1.0
      ],
      "min": [
        -1.0,
        -1.0,
        -1.0
      ]
    },
    {
      "bufferView": 31,
      "componentType": 5126,
      "count": 108,
      "type": "VEC2",
      "max": [
        7.053806,
        7.217848
      ],
      "min": [
        -3.28084,
        -1.323489E-23
      ]
    },
    {
      "bufferView": 32,
      "componentType": 5126,
      "count": 108,
      "type": "VEC3",
      "max": [
        -8.659991,
        37.1,
        -16.6
      ],
      "min": [
        -8.779991,
        34.9,
        -17.6
      ]
    },
    {
      "bufferView": 33,
      "componentType": 5125,
      "count": 120,
      "type": "SCALAR",
      "max": [
        107.0
      ],
      "min": [
        0.0
      ]
    },
    {
      "bufferView": 34,
      "componentType": 5126,
      "count": 108,
      "type": "VEC3",
      "max": [
        1.0,
        1.0,
        1.0
      ],
      "min": [
        -1.0,
        -1.0,
        -1.0
      ]
    },
    {
      "bufferView": 35,
      "componentType": 5126,
      "count": 108,
      "type": "VEC2",
      "max": [
        7.053806,
        7.217848
      ],
      "min": [
        -3.28084,
        -1.323489E-23
      ]
    }
  ],
  "asset": {
    "version": "2.0"
  },
  "buffers": [
    {
      "uri": "data:application/octet-stream;base64,",
      "byteLength": 1296
    },
    {
      "uri": "data:application/octet-stream;base64,",
      "byteLength": 480
    },
    {
      "uri": "data:application/octet-stream;base64,",
      "byteLength": 1296
    },
    {
      "uri": "data:application/octet-stream;base64,",
      "byteLength": 864
    },
    {
      "uri": "data:application/octet-stream;base64,",
      "byteLength": 1296
    },
    {
      "uri": "data:application/octet-stream;base64,",
      "byteLength": 480
    },
    {
      "uri": "data:application/octet-stream;base64,",
      "byteLength": 1296
    },
    {
      "uri": "data:application/octet-stream;base64,",
      "byteLength": 864
    },
    {
      "uri": "data:application/octet-stream;base64,",
      "byteLength": 1296
    },
    {
      "uri": "data:application/octet-stream;base64,",
      "byteLength": 480
    },
    {
      "uri": "data:application/octet-stream;base64,",
      "byteLength": 1296
    },
    {
      "uri": "data:application/octet-stream;base64,",
      "byteLength": 864
    },
    {
      "uri": "data:application/octet-stream;base64,",
      "byteLength": 1296
    },
    {
      "uri": "data:application/octet-stream;base64,",
      "byteLength": 480
    },
    {
      "uri": "data:application/octet-stream;base64,",
      "byteLength": 1296
    },
    {
      "uri": "data:application/octet-stream;base64,",
      "byteLength": 864
    },
    {
      "uri": "data:application/octet-stream;base64,",
      "byteLength": 1296
    },
    {
      "uri": "data:application/octet-stream;base64,",
      "byteLength": 480
    },
    {
      "uri": "data:application/octet-stream;base64,",
      "byteLength": 1296
    },
    {
      "uri": "data:application/octet-stream;base64,",
      "byteLength": 864
    },
    {
      "uri": "data:application/octet-stream;base64,",
      "byteLength": 1296
    },
    {
      "uri": "data:application/octet-stream;base64,",
      "byteLength": 480
    },
    {
      "uri": "data:application/octet-stream;base64,",
      "byteLength": 1296
    },
    {
      "uri": "data:application/octet-stream;base64,",
      "byteLength": 864
    },
    {
      "uri": "data:application/octet-stream;base64,",
      "byteLength": 1296
    },
    {
      "uri": "data:application/octet-stream;base64,",
      "byteLength": 480
    },
    {
      "uri": "data:application/octet-stream;base64,",
      "byteLength": 1296
    },
    {
      "uri": "data:application/octet-stream;base64,",
      "byteLength": 864
    },
    {
      "uri": "data:application/octet-stream;base64,",
      "byteLength": 1296
    },
    {
      "uri": "data:application/octet-stream;base64,",
      "byteLength": 480
    },
    {
      "uri": "data:application/octet-stream;base64,",
      "byteLength": 1296
    },
    {
      "uri": "data:application/octet-stream;base64,",
      "byteLength": 864
    },
    {
      "uri": "data:application/octet-stream;base64,",
      "byteLength": 1296
    },
    {
      "uri": "data:application/octet-stream;base64,",
      "byteLength": 480
    },
    {
      "uri": "data:application/octet-stream;base64,",
      "byteLength": 1296
    },
    {
      "uri": "data:application/octet-stream;base64,",
      "byteLength": 864
    }
  ],
  "bufferViews": [
    {
      "buffer": 0,
      "byteLength": 1296,
      "target": 34962
    },
    {
      "buffer": 1,
      "byteLength": 480,
      "target": 34963
    },
    {
      "buffer": 2,
      "byteLength": 1296,
      "target": 34962
    },
    {
      "buffer": 3,
      "byteLength": 864,
      "target": 34962
    },
    {
      "buffer": 4,
      "byteLength": 1296,
      "target": 34962
    },
    {
      "buffer": 5,
      "byteLength": 480,
      "target": 34963
    },
    {
      "buffer": 6,
      "byteLength": 1296,
      "target": 34962
    },
    {
      "buffer": 7,
      "byteLength": 864,
      "target": 34962
    },
    {
      "buffer": 8,
      "byteLength": 1296,
      "target": 34962
    },
    {
      "buffer": 9,
      "byteLength": 480,
      "target": 34963
    },
    {
      "buffer": 10,
      "byteLength": 1296,
      "target": 34962
    },
    {
      "buffer": 11,
      "byteLength": 864,
      "target": 34962
    },
    {
      "buffer": 12,
      "byteLength": 1296,
      "target": 34962
    },
    {
      "buffer": 13,
      "byteLength": 480,
      "target": 34963
    },
    {
      "buffer": 14,
      "byteLength": 1296,
      "target": 34962
    },
    {
      "buffer": 15,
      "byteLength": 864,
      "target": 34962
    },
    {
      "buffer": 16,
      "byteLength": 1296,
      "target": 34962
    },
    {
      "buffer": 17,
      "byteLength": 480,
      "target": 34963
    },
    {
      "buffer": 18,
      "byteLength": 1296,
      "target": 34962
    },
    {
      "buffer": 19,
      "byteLength": 864,
      "target": 34962
    },
    {
      "buffer": 20,
      "byteLength": 1296,
      "target": 34962
    },
    {
      "buffer": 21,
      "byteLength": 480,
      "target": 34963
    },
    {
      "buffer": 22,
      "byteLength": 1296,
      "target": 34962
    },
    {
      "buffer": 23,
      "byteLength": 864,
      "target": 34962
    },
    {
      "buffer": 24,
      "byteLength": 1296,
      "target": 34962
    },
    {
      "buffer": 25,
      "byteLength": 480,
      "target": 34963
    },
    {
      "buffer": 26,
      "byteLength": 1296,
      "target": 34962
    },
    {
      "buffer": 27,
      "byteLength": 864,
      "target": 34962
    },
    {
      "buffer": 28,
      "byteLength": 1296,
      "target": 34962
    },
    {
      "buffer": 29,
      "byteLength": 480,
      "target": 34963
    },
    {
      "buffer": 30,
      "byteLength": 1296,
      "target": 34962
    },
    {
      "buffer": 31,
      "byteLength": 864,
      "target": 34962
    },
    {
      "buffer": 32,
      "byteLength": 1296,
      "target": 34962
    },
    {
      "buffer": 33,
      "byteLength": 480,
      "target": 34963
    },
    {
      "buffer": 34,
      "byteLength": 1296,
      "target": 34962
    },
    {
      "buffer": 35,
      "byteLength": 864,
      "target": 34962
    }
  ],
  "materials": [
    {
      "pbrMetallicRoughness": {
        "baseColorFactor": [
          0.0,
          0.0,
          0.0,
          1.0
        ]
      }
    }
  ],
  "meshes": [
    {
      "primitives": [
        {
          "attributes": {
            "POSITION": 0,
            "NORMAL": 2,
            "TEXCOORD_0": 3
          },
          "indices": 1,
          "material": 0
        }
      ]
    },
    {
      "primitives": [
        {
          "attributes": {
            "POSITION": 4,
            "NORMAL": 6,
            "TEXCOORD_0": 7
          },
          "indices": 5,
          "material": 0
        }
      ]
    },
    {
      "primitives": [
        {
          "attributes": {
            "POSITION": 8,
            "NORMAL": 10,
            "TEXCOORD_0": 11
          },
          "indices": 9,
          "material": 0
        }
      ]
    },
    {
      "primitives": [
        {
          "attributes": {
            "POSITION": 12,
            "NORMAL": 14,
            "TEXCOORD_0": 15
          },
          "indices": 13,
          "material": 0
        }
      ]
    },
    {
      "primitives": [
        {
          "attributes": {
            "POSITION": 16,
            "NORMAL": 18,
            "TEXCOORD_0": 19
          },
          "indices": 17,
          "material": 0
        }
      ]
    },
    {
      "primitives": [
        {
          "attributes": {
            "POSITION": 20,
            "NORMAL": 22,
            "TEXCOORD_0": 23
          },
          "indices": 21,
          "material": 0
        }
      ]
    },
    {
      "primitives": [
        {
          "attributes": {
            "POSITION": 24,
            "NORMAL": 26,
            "TEXCOORD_0": 27
          },
          "indices": 25,
          "material": 0
        }
      ]
    },
    {
      "primitives": [
        {
          "attributes": {
            "POSITION": 28,
            "NORMAL": 30,
            "TEXCOORD_0": 31
          },
          "indices": 29,
          "material": 0
        }
      ]
    },
    {
      "primitives": [
        {
          "attributes": {
            "POSITION": 32,
            "NORMAL": 34,
            "TEXCOORD_0": 35
          },
          "indices": 33,
          "material": 0
        }
      ]
    }
  ],
  "nodes": [
    {
      "mesh": 0,
      "name": "DOR_鋼板防火門-單開1 標準(1P) [568914]"
    },
    {
      "children": [
        0,
        2,
        3,
        4,
        5,
        6,
        7,
        8,
        9
      ],
      "name": "防火鋼門"
    },
    {
      "mesh": 1,
      "name": "DOR_鋼板防火門-單開1 標準(1P) [568978]"
    },
    {
      "mesh": 2,
      "name": "DOR_鋼板防火門-單開1 標準(1P) [568975]"
    },
    {
      "mesh": 3,
      "name": "DOR_鋼板防火門-單開1 標準(1P) [568911]"
    },
    {
      "mesh": 4,
      "name": "DOR_鋼板防火門-單開1 標準(1P) [567526]"
    },
    {
      "mesh": 5,
      "name": "DOR_鋼板防火門-單開1 標準(1P) [567523]"
    },
    {
      "mesh": 6,
      "name": "DOR_鋼板防火門-單開1 標準(1P) [466896]"
    },
    {
      "mesh": 7,
      "name": "DOR_鋼板防火門-單開1 標準(1P) [466678]"
    },
    {
      "mesh": 8,
      "name": "DOR_鋼板防火門-單開1 標準(1P) [466427]"
    }
  ],
  "samplers": [
    {
      "magFilter": 9729,
      "minFilter": 9729
    }
  ],
  "scene": 0,
  "scenes": [
    {
      "nodes": [
        1
      ],
      "extensions": {}
    }
  ],
  "extensions": {}
}