{
  "extensionsUsed": [
    "KHR_materials_transmission",
    "KHR_materials_clearcoat",
    "KHR_materials_ior",
    "KHR_materials_specular",
    "KHR_materials_emissive_strength",
    "KHR_texture_transform"
  ],
  "accessors": [
    {
      "bufferView": 0,
      "componentType": 5126,
      "count": 4,
      "type": "VEC3",
      "max": [
        0.8899999,
        44.0,
        -16.075
      ],
      "min": [
        0.7899999,
        42.5,
        -16.075
      ]
    },
    {
      "bufferView": 1,
      "componentType": 5125,
      "count": 6,
      "type": "SCALAR",
      "max": [
        3.0
      ],
      "min": [
        0.0
      ]
    },
    {
      "bufferView": 2,
      "componentType": 5126,
      "count": 4,
      "type": "VEC3",
      "max": [
        0.0,
        0.0,
        -1.0
      ],
      "min": [
        0.0,
        0.0,
        -1.0
      ]
    },
    {
      "bufferView": 3,
      "componentType": 5126,
      "count": 4,
      "type": "VEC2",
      "max": [
        0.047116816,
        0.48460206
      ],
      "min": [
        0.02429083,
        0.13845773
      ]
    },
    {
      "bufferView": 4,
      "componentType": 5126,
      "count": 4,
      "type": "VEC3",
      "max": [
        0.8899999,
        42.5,
        -14.275
      ],
      "min": [
        0.7899999,
        42.5,
        -16.075
      ]
    },
    {
      "bufferView": 5,
      "componentType": 5125,
      "count": 6,
      "type": "SCALAR",
      "max": [
        3.0
      ],
      "min": [
        0.0
      ]
    },
    {
      "bufferView": 6,
      "componentType": 5126,
      "count": 4,
      "type": "VEC3",
      "max": [
        0.0,
        -1.0,
        0.0
      ],
      "min": [
        0.0,
        -1.0,
        0.0
      ]
    },
    {
      "bufferView": 7,
      "componentType": 5126,
      "count": 4,
      "type": "VEC2",
      "max": [
        0.4153732,
        0.021611445
      ],
      "min": [
        0.0,
        0.0
      ]
    },
    {
      "bufferView": 8,
      "componentType": 5126,
      "count": 4,
      "type": "VEC3",
      "max": [
        0.8899999,
        44.0,
        -14.275
      ],
      "min": [
        0.7899999,
        42.5,
        -14.275
      ]
    },
    {
      "bufferView": 9,
      "componentType": 5125,
      "count": 6,
      "type": "SCALAR",
      "max": [
        3.0
      ],
      "min": [
        0.0
      ]
    },
    {
      "bufferView": 10,
      "componentType": 5126,
      "count": 4,
      "type": "VEC3",
      "max": [
        0.0,
        0.0,
        1.0
      ],
      "min": [
        0.0,
        0.0,
        1.0
      ]
    },
    {
      "bufferView": 11,
      "componentType": 5126,
      "count": 4,
      "type": "VEC2",
      "max": [
        0.022825986,
        0.48460206
      ],
      "min": [
        0.0,
        0.13845773
      ]
    },
    {
      "bufferView": 12,
      "componentType": 5126,
      "count": 4,
      "type": "VEC3",
      "max": [
        0.8899999,
        42.85,
        -14.325
      ],
      "min": [
        0.7899999,
        42.85,
        -16.025
      ]
    },
    {
      "bufferView": 13,
      "componentType": 5125,
      "count": 6,
      "type": "SCALAR",
      "max": [
        3.0
      ],
      "min": [
        0.0
      ]
    },
    {
      "bufferView": 14,
      "componentType": 5126,
      "count": 4,
      "type": "VEC3",
      "max": [
        0.0,
        -1.0,
        0.0
      ],
      "min": [
        0.0,
        -1.0,
        0.0
      ]
    },
    {
      "bufferView": 15,
      "componentType": 5126,
      "count": 4,
      "type": "VEC2",
      "max": [
        0.095698476,
        0.5307546
      ],
      "min": [
        0.07287249,
        0.13845773
      ]
    },
    {
      "bufferView": 16,
      "componentType": 5126,
      "count": 4,
      "type": "VEC3",
      "max": [
        0.8899999,
        42.85,
        -14.325
      ],
      "min": [
        0.7899999,
        42.55,
        -14.325
      ]
    },
    {
      "bufferView": 17,
      "componentType": 5125,
      "count": 6,
      "type": "SCALAR",
      "max": [
        3.0
      ],
      "min": [
        0.0
      ]
    },
    {
      "bufferView": 18,
      "componentType": 5126,
      "count": 4,
      "type": "VEC3",
      "max": [
        0.0,
        0.0,
        -1.0
      ],
      "min": [
        0.0,
        0.0,
        -1.0
      ]
    },
    {
      "bufferView": 19,
      "componentType": 5126,
      "count": 4,
      "type": "VEC2",
      "max": [
        0.044687733,
        0.13699289
      ],
      "min": [
        0.023076288,
        0.069228865
      ]
    },
    {
      "bufferView": 20,
      "componentType": 5126,
      "count": 4,
      "type": "VEC3",
      "max": [
        0.8899999,
        42.55,
        -14.325
      ],
      "min": [
        0.7899999,
        42.55,
        -16.025
      ]
    },
    {
      "bufferView": 21,
      "componentType": 5125,
      "count": 6,
      "type": "SCALAR",
      "max": [
        3.0
      ],
      "min": [
        0.0
      ]
    },
    {
      "bufferView": 22,
      "componentType": 5126,
      "count": 4,
      "type": "VEC3",
      "max": [
        0.0,
        1.0,
        0.0
      ],
      "min": [
        0.0,
        1.0,
        0.0
      ]
    },
    {
      "bufferView": 23,
      "componentType": 5126,
      "count": 4,
      "type": "VEC2",
      "max": [
        0.071407646,
        0.5307546
      ],
      "min": [
        0.04858166,
        0.13845773
      ]
    },
    {
      "bufferView": 24,
      "componentType": 5126,
      "count": 4,
      "type": "VEC3",
      "max": [
        0.8899999,
        42.85,
        -16.025
      ],
      "min": [
        0.7899999,
        42.55,
        -16.025
      ]
    },
    {
      "bufferView": 25,
      "componentType": 5125,
      "count": 6,
      "type": "SCALAR",
      "max": [
        3.0
      ],
      "min": [
        0.0
      ]
    },
    {
      "bufferView": 26,
      "componentType": 5126,
      "count": 4,
      "type": "VEC3",
      "max": [
        0.0,
        0.0,
        1.0
      ],
      "min": [
        0.0,
        0.0,
        1.0
      ]
    },
    {
      "bufferView": 27,
      "componentType": 5126,
      "count": 4,
      "type": "VEC2",
      "max": [
        0.021611445,
        0.13699289
      ],
      "min": [
        0.0,
        0.069228865
      ]
    },
    {
      "bufferView": 28,
      "componentType": 5126,
      "count": 4,
      "type": "VEC3",
      "max": [
        0.8899999,
        43.95,
        -16.025
      ],
      "min": [
        0.7899999,
        42.9,
        -16.025
      ]
    },
    {
      "bufferView": 29,
      "componentType": 5125,
      "count": 6,
      "type": "SCALAR",
      "max": [
        3.0
      ],
      "min": [
        0.0
      ]
    },
    {
      "bufferView": 30,
      "componentType": 5126,
      "count": 4,
      "type": "VEC3",
      "max": [
        0.0,
        0.0,
        1.0
      ],
      "min": [
        0.0,
        0.0,
        1.0
      ]
    },
    {
      "bufferView": 31,
      "componentType": 5126,
      "count": 4,
      "type": "VEC2",
      "max": [
        0.24230103,
        0.06776402
      ],
      "min": [
        0.0,
        0.046152577
      ]
    },
    {
      "bufferView": 32,
      "componentType": 5126,
      "count": 4,
      "type": "VEC3",
      "max": [
        0.8899999,
        43.95,
        -14.325
      ],
      "min": [
        0.7899999,
        42.9,
        -14.325
      ]
    },
    {
      "bufferView": 33,
      "componentType": 5125,
      "count": 6,
      "type": "SCALAR",
      "max": [
        3.0
      ],
      "min": [
        0.0
      ]
    },
    {
      "bufferView": 34,
      "componentType": 5126,
      "count": 4,
      "type": "VEC3",
      "max": [
        0.0,
        0.0,
        -1.0
      ],
      "min": [
        0.0,
        0.0,
        -1.0
      ]
    },
    {
      "bufferView": 35,
      "componentType": 5126,
      "count": 4,
      "type": "VEC2",
      "max": [
        0.24230103,
        0.044687733
      ],
      "min": [
        0.0,
        0.023076288
      ]
    },
    {
      "bufferView": 36,
      "componentType": 5126,
      "count": 4,
      "type": "VEC3",
      "max": [
        0.8899999,
        42.9,
        -14.325
      ],
      "min": [
        0.7899999,
        42.9,
        -16.025
      ]
    },
    {
      "bufferView": 37,
      "componentType": 5125,
      "count": 6,
      "type": "SCALAR",
      "max": [
        3.0
      ],
      "min": [
        0.0
      ]
    },
    {
      "bufferView": 38,
      "componentType": 5126,
      "count": 4,
      "type": "VEC3",
      "max": [
        0.0,
        1.0,
        0.0
      ],
      "min": [
        0.0,
        1.0,
        0.0
      ]
    },
    {
      "bufferView": 39,
      "componentType": 5126,
      "count": 4,
      "type": "VEC2",
      "max": [
        0.4384495,
        0.09084031
      ],
      "min": [
        0.046152577,
        0.069228865
      ]
    },
    {
      "bufferView": 40,
      "componentType": 5126,
      "count": 4,
      "type": "VEC3",
      "max": [
        0.8899999,
        44.0,
        -14.275
      ],
      "min": [
        0.7899999,
        44.0,
        -16.075
      ]
    },
    {
      "bufferView": 41,
      "componentType": 5125,
      "count": 6,
      "type": "SCALAR",
      "max": [
        3.0
      ],
      "min": [
        0.0
      ]
    },
    {
      "bufferView": 42,
      "componentType": 5126,
      "count": 4,
      "type": "VEC3",
      "max": [
        0.0,
        1.0,
        0.0
      ],
      "min": [
        0.0,
        1.0,
        0.0
      ]
    },
    {
      "bufferView": 43,
      "componentType": 5126,
      "count": 4,
      "type": "VEC2",
      "max": [
        0.46006092,
        0.13699289
      ],
      "min": [
        0.046152577,
        0.11538144
      ]
    },
    {
      "bufferView": 44,
      "componentType": 5126,
      "count": 4,
      "type": "VEC3",
      "max": [
        0.8899999,
        43.95,
        -14.325
      ],
      "min": [
        0.7899999,
        43.95,
        -16.025
      ]
    },
    {
      "bufferView": 45,
      "componentType": 5125,
      "count": 6,
      "type": "SCALAR",
      "max": [
        3.0
      ],
      "min": [
        0.0
      ]
    },
    {
      "bufferView": 46,
      "componentType": 5126,
      "count": 4,
      "type": "VEC3",
      "max": [
        0.0,
        -1.0,
        0.0
      ],
      "min": [
        0.0,
        -1.0,
        0.0
      ]
    },
    {
      "bufferView": 47,
      "componentType": 5126,
      "count": 4,
      "type": "VEC2",
      "max": [
        0.4384495,
        0.1139166
      ],
      "min": [
        0.046152577,
        0.09230515
      ]
    },
    {
      "bufferView": 48,
      "componentType": 5126,
      "count": 12,
      "type": "VEC3",
      "max": [
        0.7899999,
        44.0,
        -14.275
      ],
      "min": [
        0.7899999,
        42.5,
        -16.075
      ]
    },
    {
      "bufferView": 49,
      "componentType": 5125,
      "count": 42,
      "type": "SCALAR",
      "max": [
        11.0
      ],
      "min": [
        0.0
      ]
    },
    {
      "bufferView": 50,
      "componentType": 5126,
      "count": 12,
      "type": "VEC3",
      "max": [
        -1.0,
        1.0302445E-17,
        1.0302445E-17
      ],
      "min": [
        -1.0,
        -1.0302445E-17,
        -1.0302445E-17
      ]
    },
    {
      "bufferView": 51,
      "componentType": 5126,
      "count": 12,
      "type": "VEC2",
      "max": [
        0.99853516,
        0.5384742
      ],
      "min": [
        0.46152577,
        0.0
      ]
    },
    {
      "bufferView": 52,
      "componentType": 5126,
      "count": 12,
      "type": "VEC3",
      "max": [
        0.8899999,
        44.0,
        -14.275
      ],
      "min": [
        0.8899999,
        42.5,
        -16.075
      ]
    },
    {
      "bufferView": 53,
      "componentType": 5125,
      "count": 42,
      "type": "SCALAR",
      "max": [
        11.0
      ],
      "min": [
        0.0
      ]
    },
    {
      "bufferView": 54,
      "componentType": 5126,
      "count": 12,
      "type": "VEC3",
      "max": [
        1.0,
        2.9139713E-17,
        0.0
      ],
      "min": [
        1.0,
        -2.9139713E-17,
        0.0
      ]
    },
    {
      "bufferView": 55,
      "componentType": 5126,
      "count": 12,
      "type": "VEC2",
      "max": [
        0.44330767,
        0.5523661
      ],
      "min": [
        0.09716332,
        0.13845773
      ]
    },
    {
      "bufferView": 56,
      "componentType": 5126,
      "count": 4,
      "type": "VEC3",
      "max": [
        0.8399999,
        43.95,
        -16.025
      ],
      "min": [
        0.7949999,
        42.9,
        -16.025
      ]
    },
    {
      "bufferView": 57,
      "componentType": 5125,
      "count": 6,
      "type": "SCALAR",
      "max": [
        3.0
      ],
      "min": [
        0.0
      ]
    },
    {
      "bufferView": 58,
      "componentType": 5126,
      "count": 4,
      "type": "VEC3",
      "max": [
        0.0,
        0.0,
        -1.0
      ],
      "min": [
        0.0,
        0.0,
        -1.0
      ]
    },
    {
      "bufferView": 59,
      "componentType": 5126,
      "count": 4,
      "type": "VEC2",
      "max": [
        0.13077335,
        0.3856947
      ],
      "min": [
        0.11570842,
        0.0
      ]
    },
    {
      "bufferView": 60,
      "componentType": 5126,
      "count": 4,
      "type": "VEC3",
      "max": [
        0.8399999,
        42.9,
        -15.15
      ],
      "min": [
        0.7949999,
        42.9,
        -16.025
      ]
    },
    {
      "bufferView": 61,
      "componentType": 5125,
      "count": 6,
      "type": "SCALAR",
      "max": [
        3.0
      ],
      "min": [
        0.0
      ]
    },
    {
      "bufferView": 62,
      "componentType": 5126,
      "count": 4,
      "type": "VEC3",
      "max": [
        0.0,
        -1.0,
        0.0
      ],
      "min": [
        0.0,
        -1.0,
        0.0
      ]
    },
    {
      "bufferView": 63,
      "componentType": 5126,
      "count": 4,
      "type": "VEC2",
      "max": [
        0.048124477,
        0.32141227
      ],
      "min": [
        0.03305955,
        0.0
      ]
    },
    {
      "bufferView": 64,
      "componentType": 5126,
      "count": 4,
      "type": "VEC3",
      "max": [
        0.8399999,
        43.95,
        -15.15
      ],
      "min": [
        0.7949999,
        42.9,
        -15.15
      ]
    },
    {
      "bufferView": 65,
      "componentType": 5125,
      "count": 6,
      "type": "SCALAR",
      "max": [
        3.0
      ],
      "min": [
        0.0
      ]
    },
    {
      "bufferView": 66,
      "componentType": 5126,
      "count": 4,
      "type": "VEC3",
      "max": [
        0.0,
        0.0,
        1.0
      ],
      "min": [
        0.0,
        0.0,
        1.0
      ]
    },
    {
      "bufferView": 67,
      "componentType": 5126,
      "count": 4,
      "type": "VEC2",
      "max": [
        0.114243574,
        0.3856947
      ],
      "min": [
        0.09917864,
        0.0
      ]
    },
    {
      "bufferView": 68,
      "componentType": 5126,
      "count": 4,
      "type": "VEC3",
      "max": [
        0.8399999,
        42.95,
        -15.2
      ],
      "min": [
        0.7949999,
        42.95,
        -15.975
      ]
    },
    {
      "bufferView": 69,
      "componentType": 5125,
      "count": 6,
      "type": "SCALAR",
      "max": [
        3.0
      ],
      "min": [
        0.0
      ]
    },
    {
      "bufferView": 70,
      "componentType": 5126,
      "count": 4,
      "type": "VEC3",
      "max": [
        0.0,
        1.0,
        0.0
      ],
      "min": [
        0.0,
        1.0,
        0.0
      ]
    },
    {
      "bufferView": 71,
      "componentType": 5126,
      "count": 4,
      "type": "VEC2",
      "max": [
        0.031594705,
        0.28467944
      ],
      "min": [
        0.016529774,
        0.0
      ]
    },
    {
      "bufferView": 72,
      "componentType": 5126,
      "count": 4,
      "type": "VEC3",
      "max": [
        0.8399999,
        43.9,
        -15.975
      ],
      "min": [
        0.7949999,
        42.95,
        -15.975
      ]
    },
    {
      "bufferView": 73,
      "componentType": 5125,
      "count": 6,
      "type": "SCALAR",
      "max": [
        3.0
      ],
      "min": [
        0.0
      ]
    },
    {
      "bufferView": 74,
      "componentType": 5126,
      "count": 4,
      "type": "VEC3",
      "max": [
        0.0,
        0.0,
        1.0
      ],
      "min": [
        0.0,
        0.0,
        1.0
      ]
    },
    {
      "bufferView": 75,
      "componentType": 5126,
      "count": 4,
      "type": "VEC2",
      "max": [
        0.0977138,
        0.34896168
      ],
      "min": [
        0.082648866,
        0.0
      ]
    },
    {
      "bufferView": 76,
      "componentType": 5126,
      "count": 4,
      "type": "VEC3",
      "max": [
        0.8399999,
        43.9,
        -15.2
      ],
      "min": [
        0.7949999,
        42.95,
        -15.2
      ]
    },
    {
      "bufferView": 77,
      "componentType": 5125,
      "count": 6,
      "type": "SCALAR",
      "max": [
        3.0
      ],
      "min": [
        0.0
      ]
    },
    {
      "bufferView": 78,
      "componentType": 5126,
      "count": 4,
      "type": "VEC3",
      "max": [
        0.0,
        0.0,
        -1.0
      ],
      "min": [
        0.0,
        0.0,
        -1.0
      ]
    },
    {
      "bufferView": 79,
      "componentType": 5126,
      "count": 4,
      "type": "VEC2",
      "max": [
        0.08118402,
        0.34896168
      ],
      "min": [
        0.0661191,
        0.0
      ]
    },
    {
      "bufferView": 80,
      "componentType": 5126,
      "count": 4,
      "type": "VEC3",
      "max": [
        0.8399999,
        43.95,
        -15.15
      ],
      "min": [
        0.7949999,
        43.95,
        -16.025
      ]
    },
    {
      "bufferView": 81,
      "componentType": 5125,
      "count": 6,
      "type": "SCALAR",
      "max": [
        3.0
      ],
      "min": [
        0.0
      ]
    },
    {
      "bufferView": 82,
      "componentType": 5126,
      "count": 4,
      "type": "VEC3",
      "max": [
        0.0,
        1.0,
        0.0
      ],
      "min": [
        0.0,
        1.0,
        0.0
      ]
    },
    {
      "bufferView": 83,
      "componentType": 5126,
      "count": 4,
      "type": "VEC2",
      "max": [
        0.06465425,
        0.32141227
      ],
      "min": [
        0.04958932,
        0.0
      ]
    },
    {
      "bufferView": 84,
      "componentType": 5126,
      "count": 4,
      "type": "VEC3",
      "max": [
        0.8399999,
        43.9,
        -15.2
      ],
      "min": [
        0.7949999,
        43.9,
        -15.975
      ]
    },
    {
      "bufferView": 85,
      "componentType": 5125,
      "count": 6,
      "type": "SCALAR",
      "max": [
        3.0
      ],
      "min": [
        0.0
      ]
    },
    {
      "bufferView": 86,
      "componentType": 5126,
      "count": 4,
      "type": "VEC3",
      "max": [
        0.0,
        -1.0,
        0.0
      ],
      "min": [
        0.0,
        -1.0,
        0.0
      ]
    },
    {
      "bufferView": 87,
      "componentType": 5126,
      "count": 4,
      "type": "VEC2",
      "max": [
        0.01506493,
        0.28467944
      ],
      "min": [
        0.0,
        0.0
      ]
    },
    {
      "bufferView": 88,
      "componentType": 5126,
      "count": 8,
      "type": "VEC3",
      "max": [
        0.7949999,
        43.95,
        -15.15
      ],
      "min": [
        0.7949999,
        42.9,
        -16.025
      ]
    },
    {
      "bufferView": 89,
      "componentType": 5125,
      "count": 24,
      "type": "SCALAR",
      "max": [
        7.0
      ],
      "min": [
        0.0
      ]
    },
    {
      "bufferView": 90,
      "componentType": 5126,
      "count": 8,
      "type": "VEC3",
      "max": [
        -1.0,
        0.0,
        1.0302385E-17
      ],
      "min": [
        -1.0,
        -1.0302504E-17,
        0.0
      ]
    },
    {
      "bufferView": 91,
      "componentType": 5126,
      "count": 8,
      "type": "VEC2",
      "max": [
        0.6307737,
        0.49853504
      ],
      "min": [
        0.1322382,
        0.0
      ]
    },
    {
      "bufferView": 92,
      "componentType": 5126,
      "count": 8,
      "type": "VEC3",
      "max": [
        0.8399999,
        43.95,
        -15.15
      ],
      "min": [
        0.8399999,
        42.9,
        -16.025
      ]
    },
    {
      "bufferView": 93,
      "componentType": 5125,
      "count": 24,
      "type": "SCALAR",
      "max": [
        7.0
      ],
      "min": [
        0.0
      ]
    },
    {
      "bufferView": 94,
      "componentType": 5126,
      "count": 8,
      "type": "VEC3",
      "max": [
        1.0,
        0.0,
        0.0
      ],
      "min": [
        1.0,
        -2.060489E-17,
        -2.060489E-17
      ]
    },
    {
      "bufferView": 95,
      "componentType": 5126,
      "count": 8,
      "type": "VEC2",
      "max": [
        0.6307737,
        0.99853516
      ],
      "min": [
        0.1322382,
        0.49999988
      ]
    },
    {
      "bufferView": 96,
      "componentType": 5126,
      "count": 4,
      "type": "VEC3",
      "max": [
        0.81649995,
        43.9,
        -15.2
      ],
      "min": [
        0.81649995,
        42.95,
        -15.975
      ]
    },
    {
      "bufferView": 97,
      "componentType": 5125,
      "count": 6,
      "type": "SCALAR",
      "max": [
        3.0
      ],
      "min": [
        0.0
      ]
    },
    {
      "bufferView": 98,
      "componentType": 5126,
      "count": 4,
      "type": "VEC3",
      "max": [
        -1.0,
        0.0,
        0.0
      ],
      "min": [
        -1.0,
        0.0,
        0.0
      ]
    },
    {
      "bufferView": 99,
      "componentType": 5126,
      "count": 4,
      "type": "VEC2",
      "max": [
        0.6165993,
        0.99853516
      ],
      "min": [
        0.005161292,
        0.5
      ]
    },
    {
      "bufferView": 100,
      "componentType": 5126,
      "count": 4,
      "type": "VEC3",
      "max": [
        0.8184999,
        43.9,
        -15.975
      ],
      "min": [
        0.81649995,
        42.95,
        -15.975
      ]
    },
    {
      "bufferView": 101,
      "componentType": 5125,
      "count": 6,
      "type": "SCALAR",
      "max": [
        3.0
      ],
      "min": [
        0.0
      ]
    },
    {
      "bufferView": 102,
      "componentType": 5126,
      "count": 4,
      "type": "VEC3",
      "max": [
        0.0,
        0.0,
        -1.0
      ],
      "min": [
        0.0,
        0.0,
        -1.0
      ]
    },
    {
      "bufferView": 103,
      "componentType": 5126,
      "count": 4,
      "type": "VEC2",
      "max": [
        0.0038709687,
        0.6129029
      ],
      "min": [
        0.002580646,
        0.0
      ]
    },
    {
      "bufferView": 104,
      "componentType": 5126,
      "count": 4,
      "type": "VEC3",
      "max": [
        0.8184999,
        42.95,
        -15.2
      ],
      "min": [
        0.81649995,
        42.95,
        -15.975
      ]
    },
    {
      "bufferView": 105,
      "componentType": 5125,
      "count": 6,
      "type": "SCALAR",
      "max": [
        3.0
      ],
      "min": [
        0.0
      ]
    },
    {
      "bufferView": 106,
      "componentType": 5126,
      "count": 4,
      "type": "VEC3",
      "max": [
        0.0,
        -1.0,
        0.0
      ],
      "min": [
        0.0,
        -1.0,
        0.0
      ]
    },
    {
      "bufferView": 107,
      "componentType": 5126,
      "count": 4,
      "type": "VEC2",
      "max": [
        0.002580646,
        0.5
      ],
      "min": [
        0.001290323,
        0.0
      ]
    },
    {
      "bufferView": 108,
      "componentType": 5126,
      "count": 4,
      "type": "VEC3",
      "max": [
        0.8184999,
        43.9,
        -15.2
      ],
      "min": [
        0.81649995,
        42.95,
        -15.2
      ]
    },
    {
      "bufferView": 109,
      "componentType": 5125,
      "count": 6,
      "type": "SCALAR",
      "max": [
        3.0
      ],
      "min": [
        0.0
      ]
    },
    {
      "bufferView": 110,
      "componentType": 5126,
      "count": 4,
      "type": "VEC3",
      "max": [
        0.0,
        0.0,
        1.0
      ],
      "min": [
        0.0,
        0.0,
        1.0
      ]
    },
    {
      "bufferView": 111,
      "componentType": 5126,
      "count": 4,
      "type": "VEC2",
      "max": [
        0.005161292,
        0.6129029
      ],
      "min": [
        0.0038709687,
        0.0
      ]
    },
    {
      "bufferView": 112,
      "componentType": 5126,
      "count": 4,
      "type": "VEC3",
      "max": [
        0.8184999,
        43.9,
        -15.2
      ],
      "min": [
        0.8184999,
        42.95,
        -15.975
      ]
    },
    {
      "bufferView": 113,
      "componentType": 5125,
      "count": 6,
      "type": "SCALAR",
      "max": [
        3.0
      ],
      "min": [
        0.0
      ]
    },
    {
      "bufferView": 114,
      "componentType": 5126,
      "count": 4,
      "type": "VEC3",
      "max": [
        1.0,
        0.0,
        0.0
      ],
      "min": [
        1.0,
        0.0,
        0.0
      ]
    },
    {
      "bufferView": 115,
      "componentType": 5126,
      "count": 4,
      "type": "VEC2",
      "max": [
        0.6165993,
        0.49853516
      ],
      "min": [
        0.005161292,
        0.0
      ]
    },
    {
      "bufferView": 116,
      "componentType": 5126,
      "count": 4,
      "type": "VEC3",
      "max": [
        0.8184999,
        43.9,
        -15.2
      ],
      "min": [
        0.81649995,
        43.9,
        -15.975
      ]
    },
    {
      "bufferView": 117,
      "componentType": 5125,
      "count": 6,
      "type": "SCALAR",
      "max": [
        3.0
      ],
      "min": [
        0.0
      ]
    },
    {
      "bufferView": 118,
      "componentType": 5126,
      "count": 4,
      "type": "VEC3",
      "max": [
        0.0,
        1.0,
        0.0
      ],
      "min": [
        0.0,
        1.0,
        0.0
      ]
    },
    {
      "bufferView": 119,
      "componentType": 5126,
      "count": 4,
      "type": "VEC2",
      "max": [
        0.001290323,
        0.5
      ],
      "min": [
        0.0,
        0.0
      ]
    },
    {
      "bufferView": 120,
      "componentType": 5126,
      "count": 4,
      "type": "VEC3",
      "max": [
        0.8634999,
        43.9,
        -14.375
      ],
      "min": [
        0.8634999,
        42.95,
        -15.15
      ]
    },
    {
      "bufferView": 121,
      "componentType": 5125,
      "count": 6,
      "type": "SCALAR",
      "max": [
        3.0
      ],
      "min": [
        0.0
      ]
    },
    {
      "bufferView": 122,
      "componentType": 5126,
      "count": 4,
      "type": "VEC3",
      "max": [
        1.0,
        0.0,
        0.0
      ],
      "min": [
        1.0,
        0.0,
        0.0
      ]
    },
    {
      "bufferView": 123,
      "componentType": 5126,
      "count": 4,
      "type": "VEC2",
      "max": [
        0.6165993,
        0.99853516
      ],
      "min": [
        0.005161292,
        0.5
      ]
    },
    {
      "bufferView": 124,
      "componentType": 5126,
      "count": 4,
      "type": "VEC3",
      "max": [
        0.8634999,
        43.9,
        -14.375
      ],
      "min": [
        0.86149997,
        42.95,
        -14.375
      ]
    },
    {
      "bufferView": 125,
      "componentType": 5125,
      "count": 6,
      "type": "SCALAR",
      "max": [
        3.0
      ],
      "min": [
        0.0
      ]
    },
    {
      "bufferView": 126,
      "componentType": 5126,
      "count": 4,
      "type": "VEC3",
      "max": [
        0.0,
        0.0,
        1.0
      ],
      "min": [
        0.0,
        0.0,
        1.0
      ]
    },
    {
      "bufferView": 127,
      "componentType": 5126,
      "count": 4,
      "type": "VEC2",
      "max": [
        0.005161292,
        0.6129029
      ],
      "min": [
        0.0038709687,
        0.0
      ]
    },
    {
      "bufferView": 128,
      "componentType": 5126,
      "count": 4,
      "type": "VEC3",
      "max": [
        0.8634999,
        42.95,
        -14.375
      ],
      "min": [
        0.86149997,
        42.95,
        -15.15
      ]
    },
    {
      "bufferView": 129,
      "componentType": 5125,
      "count": 6,
      "type": "SCALAR",
      "max": [
        3.0
      ],
      "min": [
        0.0
      ]
    },
    {
      "bufferView": 130,
      "componentType": 5126,
      "count": 4,
      "type": "VEC3",
      "max": [
        -0.0,
        -1.0,
        -0.0
      ],
      "min": [
        -0.0,
        -1.0,
        -0.0
      ]
    },
    {
      "bufferView": 131,
      "componentType": 5126,
      "count": 4,
      "type": "VEC2",
      "max": [
        0.002580646,
        0.5
      ],
      "min": [
        0.001290323,
        0.0
      ]
    },
    {
      "bufferView": 132,
      "componentType": 5126,
      "count": 4,
      "type": "VEC3",
      "max": [
        0.8634999,
        43.9,
        -15.15
      ],
      "min": [
        0.86149997,
        42.95,
        -15.15
      ]
    },
    {
      "bufferView": 133,
      "componentType": 5125,
      "count": 6,
      "type": "SCALAR",
      "max": [
        3.0
      ],
      "min": [
        0.0
      ]
    },
    {
      "bufferView": 134,
      "componentType": 5126,
      "count": 4,
      "type": "VEC3",
      "max": [
        0.0,
        0.0,
        -1.0
      ],
      "min": [
        0.0,
        0.0,
        -1.0
      ]
    },
    {
      "bufferView": 135,
      "componentType": 5126,
      "count": 4,
      "type": "VEC2",
      "max": [
        0.0038709687,
        0.6129029
      ],
      "min": [
        0.002580646,
        0.0
      ]
    },
    {
      "bufferView": 136,
      "componentType": 5126,
      "count": 4,
      "type": "VEC3",
      "max": [
        0.86149997,
        43.9,
        -14.375
      ],
      "min": [
        0.86149997,
        42.95,
        -15.15
      ]
    },
    {
      "bufferView": 137,
      "componentType": 5125,
      "count": 6,
      "type": "SCALAR",
      "max": [
        3.0
      ],
      "min": [
        0.0
      ]
    },
    {
      "bufferView": 138,
      "componentType": 5126,
      "count": 4,
      "type": "VEC3",
      "max": [
        -1.0,
        0.0,
        0.0
      ],
      "min": [
        -1.0,
        0.0,
        0.0
      ]
    },
    {
      "bufferView": 139,
      "componentType": 5126,
      "count": 4,
      "type": "VEC2",
      "max": [
        0.6165993,
        0.49853516
      ],
      "min": [
        0.005161292,
        0.0
      ]
    },
    {
      "bufferView": 140,
      "componentType": 5126,
      "count": 4,
      "type": "VEC3",
      "max": [
        0.8634999,
        43.9,
        -14.375
      ],
      "min": [
        0.86149997,
        43.9,
        -15.15
      ]
    },
    {
      "bufferView": 141,
      "componentType": 5125,
      "count": 6,
      "type": "SCALAR",
      "max": [
        3.0
      ],
      "min": [
        0.0
      ]
    },
    {
      "bufferView": 142,
      "componentType": 5126,
      "count": 4,
      "type": "VEC3",
      "max": [
        0.0,
        1.0,
        0.0
      ],
      "min": [
        0.0,
        1.0,
        0.0
      ]
    },
    {
      "bufferView": 143,
      "componentType": 5126,
      "count": 4,
      "type": "VEC2",
      "max": [
        0.001290323,
        0.5
      ],
      "min": [
        0.0,
        0.0
      ]
    },
    {
      "bufferView": 144,
      "componentType": 5126,
      "count": 4,
      "type": "VEC3",
      "max": [
        0.8389999,
        42.85,
        -14.325
      ],
      "min": [
        0.8389999,
        42.55,
        -16.025
      ]
    },
    {
      "bufferView": 145,
      "componentType": 5125,
      "count": 6,
      "type": "SCALAR",
      "max": [
        3.0
      ],
      "min": [
        0.0
      ]
    },
    {
      "bufferView": 146,
      "componentType": 5126,
      "count": 4,
      "type": "VEC3",
      "max": [
        -1.0,
        0.0,
        0.0
      ],
      "min": [
        -1.0,
        0.0,
        0.0
      ]
    },
    {
      "bufferView": 147,
      "componentType": 5126,
      "count": 4,
      "type": "VEC2",
      "max": [
        0.99853516,
        0.6781861
      ],
      "min": [
        0.0023474179,
        0.5021298
      ]
    },
    {
      "bufferView": 148,
      "componentType": 5126,
      "count": 4,
      "type": "VEC3",
      "max": [
        0.8409999,
        42.85,
        -14.325
      ],
      "min": [
        0.8409999,
        42.55,
        -16.025
      ]
    },
    {
      "bufferView": 149,
      "componentType": 5125,
      "count": 6,
      "type": "SCALAR",
      "max": [
        3.0
      ],
      "min": [
        0.0
      ]
    },
    {
      "bufferView": 150,
      "componentType": 5126,
      "count": 4,
      "type": "VEC3",
      "max": [
        1.0,
        0.0,
        0.0
      ],
      "min": [
        1.0,
        0.0,
        0.0
      ]
    },
    {
      "bufferView": 151,
      "componentType": 5126,
      "count": 4,
      "type": "VEC2",
      "max": [
        0.99853516,
        0.1826633
      ],
      "min": [
        0.0023474179,
        0.0066069704
      ]
    },
    {
      "bufferView": 152,
      "componentType": 5126,
      "count": 4,
      "type": "VEC3",
      "max": [
        0.8409999,
        42.85,
        -16.025
      ],
      "min": [
        0.8389999,
        42.55,
        -16.025
      ]
    },
    {
      "bufferView": 153,
      "componentType": 5125,
      "count": 6,
      "type": "SCALAR",
      "max": [
        3.0
      ],
      "min": [
        0.0
      ]
    },
    {
      "bufferView": 154,
      "componentType": 5126,
      "count": 4,
      "type": "VEC3",
      "max": [
        0.0,
        0.0,
        -1.0
      ],
      "min": [
        0.0,
        0.0,
        -1.0
      ]
    },
    {
      "bufferView": 155,
      "componentType": 5126,
      "count": 4,
      "type": "VEC2",
      "max": [
        0.17840375,
        0.004477194
      ],
      "min": [
        0.0023474179,
        0.0033034852
      ]
    },
    {
      "bufferView": 156,
      "componentType": 5126,
      "count": 4,
      "type": "VEC3",
      "max": [
        0.8409999,
        42.55,
        -14.325
      ],
      "min": [
        0.8389999,
        42.55,
        -16.025
      ]
    },
    {
      "bufferView": 157,
      "componentType": 5125,
      "count": 6,
      "type": "SCALAR",
      "max": [
        3.0
      ],
      "min": [
        0.0
      ]
    },
    {
      "bufferView": 158,
      "componentType": 5126,
      "count": 4,
      "type": "VEC3",
      "max": [
        0.0,
        -1.0,
        0.0
      ],
      "min": [
        0.0,
        -1.0,
        0.0
      ]
    },
    {
      "bufferView": 159,
      "componentType": 5126,
      "count": 4,
      "type": "VEC2",
      "max": [
        0.0023474179,
        0.99618775
      ],
      "min": [
        0.0011737089,
        0.0
      ]
    },
    {
      "bufferView": 160,
      "componentType": 5126,
      "count": 4,
      "type": "VEC3",
      "max": [
        0.8409999,
        42.85,
        -14.325
      ],
      "min": [
        0.8389999,
        42.55,
        -14.325
      ]
    },
    {
      "bufferView": 161,
      "componentType": 5125,
      "count": 6,
      "type": "SCALAR",
      "max": [
        3.0
      ],
      "min": [
        0.0
      ]
    },
    {
      "bufferView": 162,
      "componentType": 5126,
      "count": 4,
      "type": "VEC3",
      "max": [
        0.0,
        0.0,
        1.0
      ],
      "min": [
        0.0,
        0.0,
        1.0
      ]
    },
    {
      "bufferView": 163,
      "componentType": 5126,
      "count": 4,
      "type": "VEC2",
      "max": [
        0.17840375,
        0.0011737089
      ],
      "min": [
        0.0023474179,
        0.0
      ]
    },
    {
      "bufferView": 164,
      "componentType": 5126,
      "count": 4,
      "type": "VEC3",
      "max": [
        0.8409999,
        42.85,
        -14.325
      ],
      "min": [
        0.8389999,
        42.85,
        -16.025
      ]
    },
    {
      "bufferView": 165,
      "componentType": 5125,
      "count": 6,
      "type": "SCALAR",
      "max": [
        3.0
      ],
      "min": [
        0.0
      ]
    },
    {
      "bufferView": 166,
      "componentType": 5126,
      "count": 4,
      "type": "VEC3",
      "max": [
        0.0,
        1.0,
        0.0
      ],
      "min": [
        0.0,
        1.0,
        0.0
      ]
    },
    {
      "bufferView": 167,
      "componentType": 5126,
      "count": 4,
      "type": "VEC2",
      "max": [
        0.0011737089,
        0.99618775
      ],
      "min": [
        0.0,
        0.0
      ]
    },
    {
      "bufferView": 168,
      "componentType": 5126,
      "count": 4,
      "type": "VEC3",
      "max": [
        0.88499993,
        43.95,
        -15.2
      ],
      "min": [
        0.8399999,
        42.9,
        -15.2
      ]
    },
    {
      "bufferView": 169,
      "componentType": 5125,
      "count": 6,
      "type": "SCALAR",
      "max": [
        3.0
      ],
      "min": [
        0.0
      ]
    },
    {
      "bufferView": 170,
      "componentType": 5126,
      "count": 4,
      "type": "VEC3",
      "max": [
        0.0,
        0.0,
        -1.0
      ],
      "min": [
        0.0,
        0.0,
        -1.0
      ]
    },
    {
      "bufferView": 171,
      "componentType": 5126,
      "count": 4,
      "type": "VEC2",
      "max": [
        0.114243574,
        0.3856947
      ],
      "min": [
        0.09917864,
        0.0
      ]
    },
    {
      "bufferView": 172,
      "componentType": 5126,
      "count": 4,
      "type": "VEC3",
      "max": [
        0.88499993,
        42.9,
        -14.325
      ],
      "min": [
        0.8399999,
        42.9,
        -15.2
      ]
    },
    {
      "bufferView": 173,
      "componentType": 5125,
      "count": 6,
      "type": "SCALAR",
      "max": [
        3.0
      ],
      "min": [
        0.0
      ]
    },
    {
      "bufferView": 174,
      "componentType": 5126,
      "count": 4,
      "type": "VEC3",
      "max": [
        0.0,
        -1.0,
        0.0
      ],
      "min": [
        0.0,
        -1.0,
        0.0
      ]
    },
    {
      "bufferView": 175,
      "componentType": 5126,
      "count": 4,
      "type": "VEC2",
      "max": [
        0.048124477,
        0.32141227
      ],
      "min": [
        0.03305955,
        0.0
      ]
    },
    {
      "bufferView": 176,
      "componentType": 5126,
      "count": 4,
      "type": "VEC3",
      "max": [
        0.88499993,
        43.95,
        -14.325
      ],
      "min": [
        0.8399999,
        42.9,
        -14.325
      ]
    },
    {
      "bufferView": 177,
      "componentType": 5125,
      "count": 6,
      "type": "SCALAR",
      "max": [
        3.0
      ],
      "min": [
        0.0
      ]
    },
    {
      "bufferView": 178,
      "componentType": 5126,
      "count": 4,
      "type": "VEC3",
      "max": [
        0.0,
        0.0,
        1.0
      ],
      "min": [
        0.0,
        0.0,
        1.0
      ]
    },
    {
      "bufferView": 179,
      "componentType": 5126,
      "count": 4,
      "type": "VEC2",
      "max": [
        0.13077335,
        0.3856947
      ],
      "min": [
        0.11570842,
        0.0
      ]
    },
    {
      "bufferView": 180,
      "componentType": 5126,
      "count": 4,
      "type": "VEC3",
      "max": [
        0.88499993,
        42.95,
        -14.375
      ],
      "min": [
        0.8399999,
        42.95,
        -15.15
      ]
    },
    {
      "bufferView": 181,
      "componentType": 5125,
      "count": 6,
      "type": "SCALAR",
      "max": [
        3.0
      ],
      "min": [
        0.0
      ]
    },
    {
      "bufferView": 182,
      "componentType": 5126,
      "count": 4,
      "type": "VEC3",
      "max": [
        0.0,
        1.0,
        0.0
      ],
      "min": [
        0.0,
        1.0,
        0.0
      ]
    },
    {
      "bufferView": 183,
      "componentType": 5126,
      "count": 4,
      "type": "VEC2",
      "max": [
        0.031594705,
        0.28467944
      ],
      "min": [
        0.016529774,
        0.0
      ]
    },
    {
      "bufferView": 184,
      "componentType": 5126,
      "count": 4,
      "type": "VEC3",
      "max": [
        0.88499993,
        43.9,
        -15.15
      ],
      "min": [
        0.8399999,
        42.95,
        -15.15
      ]
    },
    {
      "bufferView": 185,
      "componentType": 5125,
      "count": 6,
      "type": "SCALAR",
      "max": [
        3.0
      ],
      "min": [
        0.0
      ]
    },
    {
      "bufferView": 186,
      "componentType": 5126,
      "count": 4,
      "type": "VEC3",
      "max": [
        0.0,
        0.0,
        1.0
      ],
      "min": [
        0.0,
        0.0,
        1.0
      ]
    },
    {
      "bufferView": 187,
      "componentType": 5126,
      "count": 4,
      "type": "VEC2",
      "max": [
        0.08118402,
        0.34896168
      ],
      "min": [
        0.0661191,
        0.0
      ]
    },
    {
      "bufferView": 188,
      "componentType": 5126,
      "count": 4,
      "type": "VEC3",
      "max": [
        0.88499993,
        43.9,
        -14.375
      ],
      "min": [
        0.8399999,
        42.95,
        -14.375
      ]
    },
    {
      "bufferView": 189,
      "componentType": 5125,
      "count": 6,
      "type": "SCALAR",
      "max": [
        3.0
      ],
      "min": [
        0.0
      ]
    },
    {
      "bufferView": 190,
      "componentType": 5126,
      "count": 4,
      "type": "VEC3",
      "max": [
        0.0,
        0.0,
        -1.0
      ],
      "min": [
        0.0,
        0.0,
        -1.0
      ]
    },
    {
      "bufferView": 191,
      "componentType": 5126,
      "count": 4,
      "type": "VEC2",
      "max": [
        0.0977138,
        0.34896168
      ],
      "min": [
        0.082648866,
        0.0
      ]
    },
    {
      "bufferView": 192,
      "componentType": 5126,
      "count": 4,
      "type": "VEC3",
      "max": [
        0.88499993,
        43.95,
        -14.325
      ],
      "min": [
        0.8399999,
        43.95,
        -15.2
      ]
    },
    {
      "bufferView": 193,
      "componentType": 5125,
      "count": 6,
      "type": "SCALAR",
      "max": [
        3.0
      ],
      "min": [
        0.0
      ]
    },
    {
      "bufferView": 194,
      "componentType": 5126,
      "count": 4,
      "type": "VEC3",
      "max": [
        0.0,
        1.0,
        0.0
      ],
      "min": [
        0.0,
        1.0,
        0.0
      ]
    },
    {
      "bufferView": 195,
      "componentType": 5126,
      "count": 4,
      "type": "VEC2",
      "max": [
        0.06465425,
        0.32141227
      ],
      "min": [
        0.04958932,
        0.0
      ]
    },
    {
      "bufferView": 196,
      "componentType": 5126,
      "count": 4,
      "type": "VEC3",
      "max": [
        0.88499993,
        43.9,
        -14.375
      ],
      "min": [
        0.8399999,
        43.9,
        -15.15
      ]
    },
    {
      "bufferView": 197,
      "componentType": 5125,
      "count": 6,
      "type": "SCALAR",
      "max": [
        3.0
      ],
      "min": [
        0.0
      ]
    },
    {
      "bufferView": 198,
      "componentType": 5126,
      "count": 4,
      "type": "VEC3",
      "max": [
        0.0,
        -1.0,
        0.0
      ],
      "min": [
        0.0,
        -1.0,
        0.0
      ]
    },
    {
      "bufferView": 199,
      "componentType": 5126,
      "count": 4,
      "type": "VEC2",
      "max": [
        0.01506493,
        0.28467944
      ],
      "min": [
        0.0,
        0.0
      ]
    },
    {
      "bufferView": 200,
      "componentType": 5126,
      "count": 8,
      "type": "VEC3",
      "max": [
        0.8399999,
        43.95,
        -14.325
      ],
      "min": [
        0.8399999,
        42.9,
        -15.2
      ]
    },
    {
      "bufferView": 201,
      "componentType": 5125,
      "count": 24,
      "type": "SCALAR",
      "max": [
        7.0
      ],
      "min": [
        0.0
      ]
    },
    {
      "bufferView": 202,
      "componentType": 5126,
      "count": 8,
      "type": "VEC3",
      "max": [
        -1.0,
        1.0302504E-17,
        1.0302385E-17
      ],
      "min": [
        -1.0,
        -1.0302504E-17,
        -1.0302385E-17
      ]
    },
    {
      "bufferView": 203,
      "componentType": 5126,
      "count": 8,
      "type": "VEC2",
      "max": [
        0.6307737,
        0.49853504
      ],
      "min": [
        0.1322382,
        0.0
      ]
    },
    {
      "bufferView": 204,
      "componentType": 5126,
      "count": 8,
      "type": "VEC3",
      "max": [
        0.88499993,
        43.95,
        -14.325
      ],
      "min": [
        0.88499993,
        42.9,
        -15.2
      ]
    },
    {
      "bufferView": 205,
      "componentType": 5125,
      "count": 24,
      "type": "SCALAR",
      "max": [
        7.0
      ],
      "min": [
        0.0
      ]
    },
    {
      "bufferView": 206,
      "componentType": 5126,
      "count": 8,
      "type": "VEC3",
      "max": [
        1.0,
        2.060489E-17,
        2.060489E-17
      ],
      "min": [
        1.0,
        -2.060489E-17,
        -2.060489E-17
      ]
    },
    {
      "bufferView": 207,
      "componentType": 5126,
      "count": 8,
      "type": "VEC2",
      "max": [
        0.6307737,
        0.99853516
      ],
      "min": [
        0.1322382,
        0.49999988
      ]
    }
  ],
  "asset": {
    "version": "2.0"
  },
  "buffers": [
    {
      "uri": "data:application/octet-stream;base64,",
      "byteLength": 48
    },
    {
      "uri": "data:application/octet-stream;base64,",
      "byteLength": 24
    },
    {
      "uri": "data:application/octet-stream;base64,",
      "byteLength": 48
    },
    {
      "uri": "data:application/octet-stream;base64,",
      "byteLength": 32
    },
    {
      "uri": "data:application/octet-stream;base64,",
      "byteLength": 48
    },
    {
      "uri": "data:application/octet-stream;base64,",
      "byteLength": 24
    },
    {
      "uri": "data:application/octet-stream;base64,",
      "byteLength": 48
    },
    {
      "uri": "data:application/octet-stream;base64,",
      "byteLength": 32
    },
    {
      "uri": "data:application/octet-stream;base64,",
      "byteLength": 48
    },
    {
      "uri": "data:application/octet-stream;base64,",
      "byteLength": 24
    },
    {
      "uri": "data:application/octet-stream;base64,",
      "byteLength": 48
    },
    {
      "uri": "data:application/octet-stream;base64,",
      "byteLength": 32
    },
    {
      "uri": "data:application/octet-stream;base64,",
      "byteLength": 48
    },
    {
      "uri": "data:application/octet-stream;base64,",
      "byteLength": 24
    },
    {
      "uri": "data:application/octet-stream;base64,",
      "byteLength": 48
    },
    {
      "uri": "data:application/octet-stream;base64,",
      "byteLength": 32
    },
    {
      "uri": "data:application/octet-stream;base64,",
      "byteLength": 48
    },
    {
      "uri": "data:application/octet-stream;base64,",
      "byteLength": 24
    },
    {
      "uri": "data:application/octet-stream;base64,",
      "byteLength": 48
    },
    {
      "uri": "data:application/octet-stream;base64,",
      "byteLength": 32
    },
    {
      "uri": "data:application/octet-stream;base64,",
      "byteLength": 48
    },
    {
      "uri": "data:application/octet-stream;base64,",
      "byteLength": 24
    },
    {
      "uri": "data:application/octet-stream;base64,",
      "byteLength": 48
    },
    {
      "uri": "data:application/octet-stream;base64,",
      "byteLength": 32
    },
    {
      "uri": "data:application/octet-stream;base64,",
      "byteLength": 48
    },
    {
      "uri": "data:application/octet-stream;base64,",
      "byteLength": 24
    },
    {
      "uri": "data:application/octet-stream;base64,",
      "byteLength": 48
    },
    {
      "uri": "data:application/octet-stream;base64,",
      "byteLength": 32
    },
    {
      "uri": "data:application/octet-stream;base64,",
      "byteLength": 48
    },
    {
      "uri": "data:application/octet-stream;base64,",
      "byteLength": 24
    },
    {
      "uri": "data:application/octet-stream;base64,",
      "byteLength": 48
    },
    {
      "uri": "data:application/octet-stream;base64,",
      "byteLength": 32
    },
    {
      "uri": "data:application/octet-stream;base64,",
      "byteLength": 48
    },
    {
      "uri": "data:application/octet-stream;base64,",
      "byteLength": 24
    },
    {
      "uri": "data:application/octet-stream;base64,",
      "byteLength": 48
    },
    {
      "uri": "data:application/octet-stream;base64,",
      "byteLength": 32
    },
    {
      "uri": "data:application/octet-stream;base64,",
      "byteLength": 48
    },
    {
      "uri": "data:application/octet-stream;base64,",
      "byteLength": 24
    },
    {
      "uri": "data:application/octet-stream;base64,",
      "byteLength": 48
    },
    {
      "uri": "data:application/octet-stream;base64,",
      "byteLength": 32
    },
    {
      "uri": "data:application/octet-stream;base64,",
      "byteLength": 48
    },
    {
      "uri": "data:application/octet-stream;base64,",
      "byteLength": 24
    },
    {
      "uri": "data:application/octet-stream;base64,",
      "byteLength": 48
    },
    {
      "uri": "data:application/octet-stream;base64,",
      "byteLength": 32
    },
    {
      "uri": "data:application/octet-stream;base64,",
      "byteLength": 48
    },
    {
      "uri": "data:application/octet-stream;base64,",
      "byteLength": 24
    },
    {
      "uri": "data:application/octet-stream;base64,",
      "byteLength": 48
    },
    {
      "uri": "data:application/octet-stream;base64,",
      "byteLength": 32
    },
    {
      "uri": "data:application/octet-stream;base64,",
      "byteLength": 144
    },
    {
      "uri": "data:application/octet-stream;base64,",
      "byteLength": 168
    },
    {
      "uri": "data:application/octet-stream;base64,",
      "byteLength": 144
    },
    {
      "uri": "data:application/octet-stream;base64,",
      "byteLength": 96
    },
    {
      "uri": "data:application/octet-stream;base64,",
      "byteLength": 144
    },
    {
      "uri": "data:application/octet-stream;base64,",
      "byteLength": 168
    },
    {
      "uri": "data:application/octet-stream;base64,",
      "byteLength": 144
    },
    {
      "uri": "data:application/octet-stream;base64,",
      "byteLength": 96
    },
    {
      "uri": "data:application/octet-stream;base64,",
      "byteLength": 48
    },
    {
      "uri": "data:application/octet-stream;base64,",
      "byteLength": 24
    },
    {
      "uri": "data:application/octet-stream;base64,",
      "byteLength": 48
    },
    {
      "uri": "data:application/octet-stream;base64,",
      "byteLength": 32
    },
    {
      "uri": "data:application/octet-stream;base64,",
      "byteLength": 48
    },
    {
      "uri": "data:application/octet-stream;base64,",
      "byteLength": 24
    },
    {
      "uri": "data:application/octet-stream;base64,",
      "byteLength": 48
    },
    {
      "uri": "data:application/octet-stream;base64,",
      "byteLength": 32
    },
    {
      "uri": "data:application/octet-stream;base64,",
      "byteLength": 48
    },
    {
      "uri": "data:application/octet-stream;base64,",
      "byteLength": 24
    },
    {
      "uri": "data:application/octet-stream;base64,",
      "byteLength": 48
    },
    {
      "uri": "data:application/octet-stream;base64,",
      "byteLength": 32
    },
    {
      "uri": "data:application/octet-stream;base64,",
      "byteLength": 48
    },
    {
      "uri": "data:application/octet-stream;base64,",
      "byteLength": 24
    },
    {
      "uri": "data:application/octet-stream;base64,",
      "byteLength": 48
    },
    {
      "uri": "data:application/octet-stream;base64,",
      "byteLength": 32
    },
    {
      "uri": "data:application/octet-stream;base64,",
      "byteLength": 48
    },
    {
      "uri": "data:application/octet-stream;base64,",
      "byteLength": 24
    },
    {
      "uri": "data:application/octet-stream;base64,",
      "byteLength": 48
    },
    {
      "uri": "data:application/octet-stream;base64,",
      "byteLength": 32
    },
    {
      "uri": "data:application/octet-stream;base64,",
      "byteLength": 48
    },
    {
      "uri": "data:application/octet-stream;base64,",
      "byteLength": 24
    },
    {
      "uri": "data:application/octet-stream;base64,",
      "byteLength": 48
    },
    {
      "uri": "data:application/octet-stream;base64,",
      "byteLength": 32
    },
    {
      "uri": "data:application/octet-stream;base64,",
      "byteLength": 48
    },
    {
      "uri": "data:application/octet-stream;base64,",
      "byteLength": 24
    },
    {
      "uri": "data:application/octet-stream;base64,",
      "byteLength": 48
    },
    {
      "uri": "data:application/octet-stream;base64,",
      "byteLength": 32
    },
    {
      "uri": "data:application/octet-stream;base64,",
      "byteLength": 48
    },
    {
      "uri": "data:application/octet-stream;base64,",
      "byteLength": 24
    },
    {
      "uri": "data:application/octet-stream;base64,",
      "byteLength": 48
    },
    {
      "uri": "data:application/octet-stream;base64,",
      "byteLength": 32
    },
    {
      "uri": "data:application/octet-stream;base64,",
      "byteLength": 96
    },
    {
      "uri": "data:application/octet-stream;base64,",
      "byteLength": 96
    },
    {
      "uri": "data:application/octet-stream;base64,",
      "byteLength": 96
    },
    {
      "uri": "data:application/octet-stream;base64,",
      "byteLength": 64
    },
    {
      "uri": "data:application/octet-stream;base64,",
      "byteLength": 96
    },
    {
      "uri": "data:application/octet-stream;base64,",
      "byteLength": 96
    },
    {
      "uri": "data:application/octet-stream;base64,",
      "byteLength": 96
    },
    {
      "uri": "data:application/octet-stream;base64,",
      "byteLength": 64
    },
    {
      "uri": "data:application/octet-stream;base64,",
      "byteLength": 48
    },
    {
      "uri": "data:application/octet-stream;base64,",
      "byteLength": 24
    },
    {
      "uri": "data:application/octet-stream;base64,",
      "byteLength": 48
    },
    {
      "uri": "data:application/octet-stream;base64,",
      "byteLength": 32
    },
    {
      "uri": "data:application/octet-stream;base64,",
      "byteLength": 48
    },
    {
      "uri": "data:application/octet-stream;base64,",
      "byteLength": 24
    },
    {
      "uri": "data:application/octet-stream;base64,",
      "byteLength": 48
    },
    {
      "uri": "data:application/octet-stream;base64,",
      "byteLength": 32
    },
    {
      "uri": "data:application/octet-stream;base64,",
      "byteLength": 48
    },
    {
      "uri": "data:application/octet-stream;base64,",
      "byteLength": 24
    },
    {
      "uri": "data:application/octet-stream;base64,",
      "byteLength": 48
    },
    {
      "uri": "data:application/octet-stream;base64,",
      "byteLength": 32
    },
    {
      "uri": "data:application/octet-stream;base64,",
      "byteLength": 48
    },
    {
      "uri": "data:application/octet-stream;base64,",
      "byteLength": 24
    },
    {
      "uri": "data:application/octet-stream;base64,",
      "byteLength": 48
    },
    {
      "uri": "data:application/octet-stream;base64,",
      "byteLength": 32
    },
    {
      "uri": "data:application/octet-stream;base64,",
      "byteLength": 48
    },
    {
      "uri": "data:application/octet-stream;base64,",
      "byteLength": 24
    },
    {
      "uri": "data:application/octet-stream;base64,",
      "byteLength": 48
    },
    {
      "uri": "data:application/octet-stream;base64,",
      "byteLength": 32
    },
    {
      "uri": "data:application/octet-stream;base64,",
      "byteLength": 48
    },
    {
      "uri": "data:application/octet-stream;base64,",
      "byteLength": 24
    },
    {
      "uri": "data:application/octet-stream;base64,",
      "byteLength": 48
    },
    {
      "uri": "data:application/octet-stream;base64,",
      "byteLength": 32
    },
    {
      "uri": "data:application/octet-stream;base64,",
      "byteLength": 48
    },
    {
      "uri": "data:application/octet-stream;base64,",
      "byteLength": 24
    },
    {
      "uri": "data:application/octet-stream;base64,",
      "byteLength": 48
    },
    {
      "uri": "data:application/octet-stream;base64,",
      "byteLength": 32
    },
    {
      "uri": "data:application/octet-stream;base64,",
      "byteLength": 48
    },
    {
      "uri": "data:application/octet-stream;base64,",
      "byteLength": 24
    },
    {
      "uri": "data:application/octet-stream;base64,",
      "byteLength": 48
    },
    {
      "uri": "data:application/octet-stream;base64,",
      "byteLength": 32
    },
    {
      "uri": "data:application/octet-stream;base64,",
      "byteLength": 48
    },
    {
      "uri": "data:application/octet-stream;base64,",
      "byteLength": 24
    },
    {
      "uri": "data:application/octet-stream;base64,",
      "byteLength": 48
    },
    {
      "uri": "data:application/octet-stream;base64,",
      "byteLength": 32
    },
    {
      "uri": "data:application/octet-stream;base64,",
      "byteLength": 48
    },
    {
      "uri": "data:application/octet-stream;base64,",
      "byteLength": 24
    },
    {
      "uri": "data:application/octet-stream;base64,",
      "byteLength": 48
    },
    {
      "uri": "data:application/octet-stream;base64,",
      "byteLength": 32
    },
    {
      "uri": "data:application/octet-stream;base64,",
      "byteLength": 48
    },
    {
      "uri": "data:application/octet-stream;base64,",
      "byteLength": 24
    },
    {
      "uri": "data:application/octet-stream;base64,",
      "byteLength": 48
    },
    {
      "uri": "data:application/octet-stream;base64,",
      "byteLength": 32
    },
    {
      "uri": "data:application/octet-stream;base64,",
      "byteLength": 48
    },
    {
      "uri": "data:application/octet-stream;base64,",
      "byteLength": 24
    },
    {
      "uri": "data:application/octet-stream;base64,",
      "byteLength": 48
    },
    {
      "uri": "data:application/octet-stream;base64,",
      "byteLength": 32
    },
    {
      "uri": "data:application/octet-stream;base64,",
      "byteLength": 48
    },
    {
      "uri": "data:application/octet-stream;base64,",
      "byteLength": 24
    },
    {
      "uri": "data:application/octet-stream;base64,",
      "byteLength": 48
    },
    {
      "uri": "data:application/octet-stream;base64,",
      "byteLength": 32
    },
    {
      "uri": "data:application/octet-stream;base64,",
      "byteLength": 48
    },
    {
      "uri": "data:application/octet-stream;base64,",
      "byteLength": 24
    },
    {
      "uri": "data:application/octet-stream;base64,",
      "byteLength": 48
    },
    {
      "uri": "data:application/octet-stream;base64,",
      "byteLength": 32
    },
    {
      "uri": "data:application/octet-stream;base64,",
      "byteLength": 48
    },
    {
      "uri": "data:application/octet-stream;base64,",
      "byteLength": 24
    },
    {
      "uri": "data:application/octet-stream;base64,",
      "byteLength": 48
    },
    {
      "uri": "data:application/octet-stream;base64,",
      "byteLength": 32
    },
    {
      "uri": "data:application/octet-stream;base64,",
      "byteLength": 48
    },
    {
      "uri": "data:application/octet-stream;base64,",
      "byteLength": 24
    },
    {
      "uri": "data:application/octet-stream;base64,",
      "byteLength": 48
    },
    {
      "uri": "data:application/octet-stream;base64,",
      "byteLength": 32
    },
    {
      "uri": "data:application/octet-stream;base64,",
      "byteLength": 48
    },
    {
      "uri": "data:application/octet-stream;base64,",
      "byteLength": 24
    },
    {
      "uri": "data:application/octet-stream;base64,",
      "byteLength": 48
    },
    {
      "uri": "data:application/octet-stream;base64,",
      "byteLength": 32
    },
    {
      "uri": "data:application/octet-stream;base64,",
      "byteLength": 48
    },
    {
      "uri": "data:application/octet-stream;base64,",
      "byteLength": 24
    },
    {
      "uri": "data:application/octet-stream;base64,",
      "byteLength": 48
    },
    {
      "uri": "data:application/octet-stream;base64,",
      "byteLength": 32
    },
    {
      "uri": "data:application/octet-stream;base64,",
      "byteLength": 48
    },
    {
      "uri": "data:application/octet-stream;base64,",
      "byteLength": 24
    },
    {
      "uri": "data:application/octet-stream;base64,",
      "byteLength": 48
    },
    {
      "uri": "data:application/octet-stream;base64,",
      "byteLength": 32
    },
    {
      "uri": "data:application/octet-stream;base64,",
      "byteLength": 48
    },
    {
      "uri": "data:application/octet-stream;base64,",
      "byteLength": 24
    },
    {
      "uri": "data:application/octet-stream;base64,",
      "byteLength": 48
    },
    {
      "uri": "data:application/octet-stream;base64,",
      "byteLength": 32
    },
    {
      "uri": "data:application/octet-stream;base64,",
      "byteLength": 48
    },
    {
      "uri": "data:application/octet-stream;base64,",
      "byteLength": 24
    },
    {
      "uri": "data:application/octet-stream;base64,",
      "byteLength": 48
    },
    {
      "uri": "data:application/octet-stream;base64,",
      "byteLength": 32
    },
    {
      "uri": "data:application/octet-stream;base64,",
      "byteLength": 48
    },
    {
      "uri": "data:application/octet-stream;base64,",
      "byteLength": 24
    },
    {
      "uri": "data:application/octet-stream;base64,",
      "byteLength": 48
    },
    {
      "uri": "data:application/octet-stream;base64,",
      "byteLength": 32
    },
    {
      "uri": "data:application/octet-stream;base64,",
      "byteLength": 48
    },
    {
      "uri": "data:application/octet-stream;base64,",
      "byteLength": 24
    },
    {
      "uri": "data:application/octet-stream;base64,",
      "byteLength": 48
    },
    {
      "uri": "data:application/octet-stream;base64,",
      "byteLength": 32
    },
    {
      "uri": "data:application/octet-stream;base64,",
      "byteLength": 48
    },
    {
      "uri": "data:application/octet-stream;base64,",
      "byteLength": 24
    },
    {
      "uri": "data:application/octet-stream;base64,",
      "byteLength": 48
    },
    {
      "uri": "data:application/octet-stream;base64,",
      "byteLength": 32
    },
    {
      "uri": "data:application/octet-stream;base64,",
      "byteLength": 48
    },
    {
      "uri": "data:application/octet-stream;base64,",
      "byteLength": 24
    },
    {
      "uri": "data:application/octet-stream;base64,",
      "byteLength": 48
    },
    {
      "uri": "data:application/octet-stream;base64,",
      "byteLength": 32
    },
    {
      "uri": "data:application/octet-stream;base64,",
      "byteLength": 48
    },
    {
      "uri": "data:application/octet-stream;base64,",
      "byteLength": 24
    },
    {
      "uri": "data:application/octet-stream;base64,",
      "byteLength": 48
    },
    {
      "uri": "data:application/octet-stream;base64,",
      "byteLength": 32
    },
    {
      "uri": "data:application/octet-stream;base64,",
      "byteLength": 96
    },
    {
      "uri": "data:application/octet-stream;base64,",
      "byteLength": 96
    },
    {
      "uri": "data:application/octet-stream;base64,",
      "byteLength": 96
    },
    {
      "uri": "data:application/octet-stream;base64,",
      "byteLength": 64
    },
    {
      "uri": "data:application/octet-stream;base64,",
      "byteLength": 96
    },
    {
      "uri": "data:application/octet-stream;base64,",
      "byteLength": 96
    },
    {
      "uri": "data:application/octet-stream;base64,",
      "byteLength": 96
    },
    {
      "uri": "data:application/octet-stream;base64,",
      "byteLength": 64
    }
  ],
  "bufferViews": [
    {
      "buffer": 0,
      "byteLength": 48,
      "target": 34962
    },
    {
      "buffer": 1,
      "byteLength": 24,
      "target": 34963
    },
    {
      "buffer": 2,
      "byteLength": 48,
      "target": 34962
    },
    {
      "buffer": 3,
      "byteLength": 32,
      "target": 34962
    },
    {
      "buffer": 4,
      "byteLength": 48,
      "target": 34962
    },
    {
      "buffer": 5,
      "byteLength": 24,
      "target": 34963
    },
    {
      "buffer": 6,
      "byteLength": 48,
      "target": 34962
    },
    {
      "buffer": 7,
      "byteLength": 32,
      "target": 34962
    },
    {
      "buffer": 8,
      "byteLength": 48,
      "target": 34962
    },
    {
      "buffer": 9,
      "byteLength": 24,
      "target": 34963
    },
    {
      "buffer": 10,
      "byteLength": 48,
      "target": 34962
    },
    {
      "buffer": 11,
      "byteLength": 32,
      "target": 34962
    },
    {
      "buffer": 12,
      "byteLength": 48,
      "target": 34962
    },
    {
      "buffer": 13,
      "byteLength": 24,
      "target": 34963
    },
    {
      "buffer": 14,
      "byteLength": 48,
      "target": 34962
    },
    {
      "buffer": 15,
      "byteLength": 32,
      "target": 34962
    },
    {
      "buffer": 16,
      "byteLength": 48,
      "target": 34962
    },
    {
      "buffer": 17,
      "byteLength": 24,
      "target": 34963
    },
    {
      "buffer": 18,
      "byteLength": 48,
      "target": 34962
    },
    {
      "buffer": 19,
      "byteLength": 32,
      "target": 34962
    },
    {
      "buffer": 20,
      "byteLength": 48,
      "target": 34962
    },
    {
      "buffer": 21,
      "byteLength": 24,
      "target": 34963
    },
    {
      "buffer": 22,
      "byteLength": 48,
      "target": 34962
    },
    {
      "buffer": 23,
      "byteLength": 32,
      "target": 34962
    },
    {
      "buffer": 24,
      "byteLength": 48,
      "target": 34962
    },
    {
      "buffer": 25,
      "byteLength": 24,
      "target": 34963
    },
    {
      "buffer": 26,
      "byteLength": 48,
      "target": 34962
    },
    {
      "buffer": 27,
      "byteLength": 32,
      "target": 34962
    },
    {
      "buffer": 28,
      "byteLength": 48,
      "target": 34962
    },
    {
      "buffer": 29,
      "byteLength": 24,
      "target": 34963
    },
    {
      "buffer": 30,
      "byteLength": 48,
      "target": 34962
    },
    {
      "buffer": 31,
      "byteLength": 32,
      "target": 34962
    },
    {
      "buffer": 32,
      "byteLength": 48,
      "target": 34962
    },
    {
      "buffer": 33,
      "byteLength": 24,
      "target": 34963
    },
    {
      "buffer": 34,
      "byteLength": 48,
      "target": 34962
    },
    {
      "buffer": 35,
      "byteLength": 32,
      "target": 34962
    },
    {
      "buffer": 36,
      "byteLength": 48,
      "target": 34962
    },
    {
      "buffer": 37,
      "byteLength": 24,
      "target": 34963
    },
    {
      "buffer": 38,
      "byteLength": 48,
      "target": 34962
    },
    {
      "buffer": 39,
      "byteLength": 32,
      "target": 34962
    },
    {
      "buffer": 40,
      "byteLength": 48,
      "target": 34962
    },
    {
      "buffer": 41,
      "byteLength": 24,
      "target": 34963
    },
    {
      "buffer": 42,
      "byteLength": 48,
      "target": 34962
    },
    {
      "buffer": 43,
      "byteLength": 32,
      "target": 34962
    },
    {
      "buffer": 44,
      "byteLength": 48,
      "target": 34962
    },
    {
      "buffer": 45,
      "byteLength": 24,
      "target": 34963
    },
    {
      "buffer": 46,
      "byteLength": 48,
      "target": 34962
    },
    {
      "buffer": 47,
      "byteLength": 32,
      "target": 34962
    },
    {
      "buffer": 48,
      "byteLength": 144,
      "target": 34962
    },
    {
      "buffer": 49,
      "byteLength": 168,
      "target": 34963
    },
    {
      "buffer": 50,
      "byteLength": 144,
      "target": 34962
    },
    {
      "buffer": 51,
      "byteLength": 96,
      "target": 34962
    },
    {
      "buffer": 52,
      "byteLength": 144,
      "target": 34962
    },
    {
      "buffer": 53,
      "byteLength": 168,
      "target": 34963
    },
    {
      "buffer": 54,
      "byteLength": 144,
      "target": 34962
    },
    {
      "buffer": 55,
      "byteLength": 96,
      "target": 34962
    },
    {
      "buffer": 56,
      "byteLength": 48,
      "target": 34962
    },
    {
      "buffer": 57,
      "byteLength": 24,
      "target": 34963
    },
    {
      "buffer": 58,
      "byteLength": 48,
      "target": 34962
    },
    {
      "buffer": 59,
      "byteLength": 32,
      "target": 34962
    },
    {
      "buffer": 60,
      "byteLength": 48,
      "target": 34962
    },
    {
      "buffer": 61,
      "byteLength": 24,
      "target": 34963
    },
    {
      "buffer": 62,
      "byteLength": 48,
      "target": 34962
    },
    {
      "buffer": 63,
      "byteLength": 32,
      "target": 34962
    },
    {
      "buffer": 64,
      "byteLength": 48,
      "target": 34962
    },
    {
      "buffer": 65,
      "byteLength": 24,
      "target": 34963
    },
    {
      "buffer": 66,
      "byteLength": 48,
      "target": 34962
    },
    {
      "buffer": 67,
      "byteLength": 32,
      "target": 34962
    },
    {
      "buffer": 68,
      "byteLength": 48,
      "target": 34962
    },
    {
      "buffer": 69,
      "byteLength": 24,
      "target": 34963
    },
    {
      "buffer": 70,
      "byteLength": 48,
      "target": 34962
    },
    {
      "buffer": 71,
      "byteLength": 32,
      "target": 34962
    },
    {
      "buffer": 72,
      "byteLength": 48,
      "target": 34962
    },
    {
      "buffer": 73,
      "byteLength": 24,
      "target": 34963
    },
    {
      "buffer": 74,
      "byteLength": 48,
      "target": 34962
    },
    {
      "buffer": 75,
      "byteLength": 32,
      "target": 34962
    },
    {
      "buffer": 76,
      "byteLength": 48,
      "target": 34962
    },
    {
      "buffer": 77,
      "byteLength": 24,
      "target": 34963
    },
    {
      "buffer": 78,
      "byteLength": 48,
      "target": 34962
    },
    {
      "buffer": 79,
      "byteLength": 32,
      "target": 34962
    },
    {
      "buffer": 80,
      "byteLength": 48,
      "target": 34962
    },
    {
      "buffer": 81,
      "byteLength": 24,
      "target": 34963
    },
    {
      "buffer": 82,
      "byteLength": 48,
      "target": 34962
    },
    {
      "buffer": 83,
      "byteLength": 32,
      "target": 34962
    },
    {
      "buffer": 84,
      "byteLength": 48,
      "target": 34962
    },
    {
      "buffer": 85,
      "byteLength": 24,
      "target": 34963
    },
    {
      "buffer": 86,
      "byteLength": 48,
      "target": 34962
    },
    {
      "buffer": 87,
      "byteLength": 32,
      "target": 34962
    },
    {
      "buffer": 88,
      "byteLength": 96,
      "target": 34962
    },
    {
      "buffer": 89,
      "byteLength": 96,
      "target": 34963
    },
    {
      "buffer": 90,
      "byteLength": 96,
      "target": 34962
    },
    {
      "buffer": 91,
      "byteLength": 64,
      "target": 34962
    },
    {
      "buffer": 92,
      "byteLength": 96,
      "target": 34962
    },
    {
      "buffer": 93,
      "byteLength": 96,
      "target": 34963
    },
    {
      "buffer": 94,
      "byteLength": 96,
      "target": 34962
    },
    {
      "buffer": 95,
      "byteLength": 64,
      "target": 34962
    },
    {
      "buffer": 96,
      "byteLength": 48,
      "target": 34962
    },
    {
      "buffer": 97,
      "byteLength": 24,
      "target": 34963
    },
    {
      "buffer": 98,
      "byteLength": 48,
      "target": 34962
    },
    {
      "buffer": 99,
      "byteLength": 32,
      "target": 34962
    },
    {
      "buffer": 100,
      "byteLength": 48,
      "target": 34962
    },
    {
      "buffer": 101,
      "byteLength": 24,
      "target": 34963
    },
    {
      "buffer": 102,
      "byteLength": 48,
      "target": 34962
    },
    {
      "buffer": 103,
      "byteLength": 32,
      "target": 34962
    },
    {
      "buffer": 104,
      "byteLength": 48,
      "target": 34962
    },
    {
      "buffer": 105,
      "byteLength": 24,
      "target": 34963
    },
    {
      "buffer": 106,
      "byteLength": 48,
      "target": 34962
    },
    {
      "buffer": 107,
      "byteLength": 32,
      "target": 34962
    },
    {
      "buffer": 108,
      "byteLength": 48,
      "target": 34962
    },
    {
      "buffer": 109,
      "byteLength": 24,
      "target": 34963
    },
    {
      "buffer": 110,
      "byteLength": 48,
      "target": 34962
    },
    {
      "buffer": 111,
      "byteLength": 32,
      "target": 34962
    },
    {
      "buffer": 112,
      "byteLength": 48,
      "target": 34962
    },
    {
      "buffer": 113,
      "byteLength": 24,
      "target": 34963
    },
    {
      "buffer": 114,
      "byteLength": 48,
      "target": 34962
    },
    {
      "buffer": 115,
      "byteLength": 32,
      "target": 34962
    },
    {
      "buffer": 116,
      "byteLength": 48,
      "target": 34962
    },
    {
      "buffer": 117,
      "byteLength": 24,
      "target": 34963
    },
    {
      "buffer": 118,
      "byteLength": 48,
      "target": 34962
    },
    {
      "buffer": 119,
      "byteLength": 32,
      "target": 34962
    },
    {
      "buffer": 120,
      "byteLength": 48,
      "target": 34962
    },
    {
      "buffer": 121,
      "byteLength": 24,
      "target": 34963
    },
    {
      "buffer": 122,
      "byteLength": 48,
      "target": 34962
    },
    {
      "buffer": 123,
      "byteLength": 32,
      "target": 34962
    },
    {
      "buffer": 124,
      "byteLength": 48,
      "target": 34962
    },
    {
      "buffer": 125,
      "byteLength": 24,
      "target": 34963
    },
    {
      "buffer": 126,
      "byteLength": 48,
      "target": 34962
    },
    {
      "buffer": 127,
      "byteLength": 32,
      "target": 34962
    },
    {
      "buffer": 128,
      "byteLength": 48,
      "target": 34962
    },
    {
      "buffer": 129,
      "byteLength": 24,
      "target": 34963
    },
    {
      "buffer": 130,
      "byteLength": 48,
      "target": 34962
    },
    {
      "buffer": 131,
      "byteLength": 32,
      "target": 34962
    },
    {
      "buffer": 132,
      "byteLength": 48,
      "target": 34962
    },
    {
      "buffer": 133,
      "byteLength": 24,
      "target": 34963
    },
    {
      "buffer": 134,
      "byteLength": 48,
      "target": 34962
    },
    {
      "buffer": 135,
      "byteLength": 32,
      "target": 34962
    },
    {
      "buffer": 136,
      "byteLength": 48,
      "target": 34962
    },
    {
      "buffer": 137,
      "byteLength": 24,
      "target": 34963
    },
    {
      "buffer": 138,
      "byteLength": 48,
      "target": 34962
    },
    {
      "buffer": 139,
      "byteLength": 32,
      "target": 34962
    },
    {
      "buffer": 140,
      "byteLength": 48,
      "target": 34962
    },
    {
      "buffer": 141,
      "byteLength": 24,
      "target": 34963
    },
    {
      "buffer": 142,
      "byteLength": 48,
      "target": 34962
    },
    {
      "buffer": 143,
      "byteLength": 32,
      "target": 34962
    },
    {
      "buffer": 144,
      "byteLength": 48,
      "target": 34962
    },
    {
      "buffer": 145,
      "byteLength": 24,
      "target": 34963
    },
    {
      "buffer": 146,
      "byteLength": 48,
      "target": 34962
    },
    {
      "buffer": 147,
      "byteLength": 32,
      "target": 34962
    },
    {
      "buffer": 148,
      "byteLength": 48,
      "target": 34962
    },
    {
      "buffer": 149,
      "byteLength": 24,
      "target": 34963
    },
    {
      "buffer": 150,
      "byteLength": 48,
      "target": 34962
    },
    {
      "buffer": 151,
      "byteLength": 32,
      "target": 34962
    },
    {
      "buffer": 152,
      "byteLength": 48,
      "target": 34962
    },
    {
      "buffer": 153,
      "byteLength": 24,
      "target": 34963
    },
    {
      "buffer": 154,
      "byteLength": 48,
      "target": 34962
    },
    {
      "buffer": 155,
      "byteLength": 32,
      "target": 34962
    },
    {
      "buffer": 156,
      "byteLength": 48,
      "target": 34962
    },
    {
      "buffer": 157,
      "byteLength": 24,
      "target": 34963
    },
    {
      "buffer": 158,
      "byteLength": 48,
      "target": 34962
    },
    {
      "buffer": 159,
      "byteLength": 32,
      "target": 34962
    },
    {
      "buffer": 160,
      "byteLength": 48,
      "target": 34962
    },
    {
      "buffer": 161,
      "byteLength": 24,
      "target": 34963
    },
    {
      "buffer": 162,
      "byteLength": 48,
      "target": 34962
    },
    {
      "buffer": 163,
      "byteLength": 32,
      "target": 34962
    },
    {
      "buffer": 164,
      "byteLength": 48,
      "target": 34962
    },
    {
      "buffer": 165,
      "byteLength": 24,
      "target": 34963
    },
    {
      "buffer": 166,
      "byteLength": 48,
      "target": 34962
    },
    {
      "buffer": 167,
      "byteLength": 32,
      "target": 34962
    },
    {
      "buffer": 168,
      "byteLength": 48,
      "target": 34962
    },
    {
      "buffer": 169,
      "byteLength": 24,
      "target": 34963
    },
    {
      "buffer": 170,
      "byteLength": 48,
      "target": 34962
    },
    {
      "buffer": 171,
      "byteLength": 32,
      "target": 34962
    },
    {
      "buffer": 172,
      "byteLength": 48,
      "target": 34962
    },
    {
      "buffer": 173,
      "byteLength": 24,
      "target": 34963
    },
    {
      "buffer": 174,
      "byteLength": 48,
      "target": 34962
    },
    {
      "buffer": 175,
      "byteLength": 32,
      "target": 34962
    },
    {
      "buffer": 176,
      "byteLength": 48,
      "target": 34962
    },
    {
      "buffer": 177,
      "byteLength": 24,
      "target": 34963
    },
    {
      "buffer": 178,
      "byteLength": 48,
      "target": 34962
    },
    {
      "buffer": 179,
      "byteLength": 32,
      "target": 34962
    },
    {
      "buffer": 180,
      "byteLength": 48,
      "target": 34962
    },
    {
      "buffer": 181,
      "byteLength": 24,
      "target": 34963
    },
    {
      "buffer": 182,
      "byteLength": 48,
      "target": 34962
    },
    {
      "buffer": 183,
      "byteLength": 32,
      "target": 34962
    },
    {
      "buffer": 184,
      "byteLength": 48,
      "target": 34962
    },
    {
      "buffer": 185,
      "byteLength": 24,
      "target": 34963
    },
    {
      "buffer": 186,
      "byteLength": 48,
      "target": 34962
    },
    {
      "buffer": 187,
      "byteLength": 32,
      "target": 34962
    },
    {
      "buffer": 188,
      "byteLength": 48,
      "target": 34962
    },
    {
      "buffer": 189,
      "byteLength": 24,
      "target": 34963
    },
    {
      "buffer": 190,
      "byteLength": 48,
      "target": 34962
    },
    {
      "buffer": 191,
      "byteLength": 32,
      "target": 34962
    },
    {
      "buffer": 192,
      "byteLength": 48,
      "target": 34962
    },
    {
      "buffer": 193,
      "byteLength": 24,
      "target": 34963
    },
    {
      "buffer": 194,
      "byteLength": 48,
      "target": 34962
    },
    {
      "buffer": 195,
      "byteLength": 32,
      "target": 34962
    },
    {
      "buffer": 196,
      "byteLength": 48,
      "target": 34962
    },
    {
      "buffer": 197,
      "byteLength": 24,
      "target": 34963
    },
    {
      "buffer": 198,
      "byteLength": 48,
      "target": 34962
    },
    {
      "buffer": 199,
      "byteLength": 32,
      "target": 34962
    },
    {
      "buffer": 200,
      "byteLength": 96,
      "target": 34962
    },
    {
      "buffer": 201,
      "byteLength": 96,
      "target": 34963
    },
    {
      "buffer": 202,
      "byteLength": 96,
      "target": 34962
    },
    {
      "buffer": 203,
      "byteLength": 64,
      "target": 34962
    },
    {
      "buffer": 204,
      "byteLength": 96,
      "target": 34962
    },
    {
      "buffer": 205,
      "byteLength": 96,
      "target": 34963
    },
    {
      "buffer": 206,
      "byteLength": 96,
      "target": 34962
    },
    {
      "buffer": 207,
      "byteLength": 64,
      "target": 34962
    }
  ],
  "materials": [
    {
      "name": "Plaster (9)",
      "extensions": {
        "KHR_materials_transmission": {},
        "KHR_materials_clearcoat": {},
        "KHR_materials_ior": {
          "ior": 1.0
        },
        "KHR_materials_specular": {
          "specularFactor": 0.5,
          "specularColorFactor": [
            1.0,
            1.0,
            1.0
          ]
        }
      },
      "pbrMetallicRoughness": {
        "baseColorFactor": [
          0.04614884,
          0.52952325,
          0.21576439,
          1.0
        ],
        "metallicFactor": 0.0
      }
    },
    {
      "name": "Plaster (10)",
      "extensions": {
        "KHR_materials_transmission": {},
        "KHR_materials_clearcoat": {},
        "KHR_materials_ior": {
          "ior": 1.0
        },
        "KHR_materials_specular": {
          "specularFactor": 0.5,
          "specularColorFactor": [
            1.0,
            1.0,
            1.0
          ]
        }
      },
      "pbrMetallicRoughness": {
        "baseColorFactor": [
          0.18354899,
          0.034230206,
          0.18354899,
          1.0
        ],
        "metallicFactor": 0.0
      }
    }
  ],
  "meshes": [
    {
      "primitives": [
        {
          "attributes": {
            "POSITION": 0,
            "NORMAL": 2,
            "TEXCOORD_0": 3
          },
          "indices": 1,
          "material": 0
        },
        {
          "attributes": {
            "POSITION": 4,
            "NORMAL": 6,
            "TEXCOORD_0": 7
          },
          "indices": 5,
          "material": 0
        },
        {
          "attributes": {
            "POSITION": 8,
            "NORMAL": 10,
            "TEXCOORD_0": 11
          },
          "indices": 9,
          "material": 0
        },
        {
          "attributes": {
            "POSITION": 12,
            "NORMAL": 14,
            "TEXCOORD_0": 15
          },
          "indices": 13,
          "material": 0
        },
        {
          "attributes": {
            "POSITION": 16,
            "NORMAL": 18,
            "TEXCOORD_0": 19
          },
          "indices": 17,
          "material": 0
        },
        {
          "attributes": {
            "POSITION": 20,
            "NORMAL": 22,
            "TEXCOORD_0": 23
          },
          "indices": 21,
          "material": 0
        },
        {
          "attributes": {
            "POSITION": 24,
            "NORMAL": 26,
            "TEXCOORD_0": 27
          },
          "indices": 25,
          "material": 0
        },
        {
          "attributes": {
            "POSITION": 28,
            "NORMAL": 30,
            "TEXCOORD_0": 31
          },
          "indices": 29,
          "material": 0
        },
        {
          "attributes": {
            "POSITION": 32,
            "NORMAL": 34,
            "TEXCOORD_0": 35
          },
          "indices": 33,
          "material": 0
        },
        {
          "attributes": {
            "POSITION": 36,
            "NORMAL": 38,
            "TEXCOORD_0": 39
          },
          "indices": 37,
          "material": 0
        },
        {
          "attributes": {
            "POSITION": 40,
            "NORMAL": 42,
            "TEXCOORD_0": 43
          },
          "indices": 41,
          "material": 0
        },
        {
          "attributes": {
            "POSITION": 44,
            "NORMAL": 46,
            "TEXCOORD_0": 47
          },
          "indices": 45,
          "material": 0
        },
        {
          "attributes": {
            "POSITION": 48,
            "NORMAL": 50,
            "TEXCOORD_0": 51
          },
          "indices": 49,
          "material": 0
        },
        {
          "attributes": {
            "POSITION": 52,
            "NORMAL": 54,
            "TEXCOORD_0": 55
          },
          "indices": 53,
          "material": 0
        }
      ]
    },
    {
      "primitives": [
        {
          "attributes": {
            "POSITION": 56,
            "NORMAL": 58,
            "TEXCOORD_0": 59
          },
          "indices": 57,
          "material": 0
        },
        {
          "attributes": {
            "POSITION": 60,
            "NORMAL": 62,
            "TEXCOORD_0": 63
          },
          "indices": 61,
          "material": 0
        },
        {
          "attributes": {
            "POSITION": 64,
            "NORMAL": 66,
            "TEXCOORD_0": 67
          },
          "indices": 65,
          "material": 0
        },
        {
          "attributes": {
            "POSITION": 68,
            "NORMAL": 70,
            "TEXCOORD_0": 71
          },
          "indices": 69,
          "material": 0
        },
        {
          "attributes": {
            "POSITION": 72,
            "NORMAL": 74,
            "TEXCOORD_0": 75
          },
          "indices": 73,
          "material": 0
        },
        {
          "attributes": {
            "POSITION": 76,
            "NORMAL": 78,
            "TEXCOORD_0": 79
          },
          "indices": 77,
          "material": 0
        },
        {
          "attributes": {
            "POSITION": 80,
            "NORMAL": 82,
            "TEXCOORD_0": 83
          },
          "indices": 81,
          "material": 0
        },
        {
          "attributes": {
            "POSITION": 84,
            "NORMAL": 86,
            "TEXCOORD_0": 87
          },
          "indices": 85,
          "material": 0
        },
        {
          "attributes": {
            "POSITION": 88,
            "NORMAL": 90,
            "TEXCOORD_0": 91
          },
          "indices": 89,
          "material": 0
        },
        {
          "attributes": {
            "POSITION": 92,
            "NORMAL": 94,
            "TEXCOORD_0": 95
          },
          "indices": 93,
          "material": 0
        }
      ]
    },
    {
      "primitives": [
        {
          "attributes": {
            "POSITION": 96,
            "NORMAL": 98,
            "TEXCOORD_0": 99
          },
          "indices": 97,
          "material": 1
        },
        {
          "attributes": {
            "POSITION": 100,
            "NORMAL": 102,
            "TEXCOORD_0": 103
          },
          "indices": 101,
          "material": 1
        },
        {
          "attributes": {
            "POSITION": 104,
            "NORMAL": 106,
            "TEXCOORD_0": 107
          },
          "indices": 105,
          "material": 1
        },
        {
          "attributes": {
            "POSITION": 108,
            "NORMAL": 110,
            "TEXCOORD_0": 111
          },
          "indices": 109,
          "material": 1
        },
        {
          "attributes": {
            "POSITION": 112,
            "NORMAL": 114,
            "TEXCOORD_0": 115
          },
          "indices": 113,
          "material": 1
        },
        {
          "attributes": {
            "POSITION": 116,
            "NORMAL": 118,
            "TEXCOORD_0": 119
          },
          "indices": 117,
          "material": 1
        }
      ]
    },
    {
      "primitives": [
        {
          "attributes": {
            "POSITION": 120,
            "NORMAL": 122,
            "TEXCOORD_0": 123
          },
          "indices": 121,
          "material": 1
        },
        {
          "attributes": {
            "POSITION": 124,
            "NORMAL": 126,
            "TEXCOORD_0": 127
          },
          "indices": 125,
          "material": 1
        },
        {
          "attributes": {
            "POSITION": 128,
            "NORMAL": 130,
            "TEXCOORD_0": 131
          },
          "indices": 129,
          "material": 1
        },
        {
          "attributes": {
            "POSITION": 132,
            "NORMAL": 134,
            "TEXCOORD_0": 135
          },
          "indices": 133,
          "material": 1
        },
        {
          "attributes": {
            "POSITION": 136,
            "NORMAL": 138,
            "TEXCOORD_0": 139
          },
          "indices": 137,
          "material": 1
        },
        {
          "attributes": {
            "POSITION": 140,
            "NORMAL": 142,
            "TEXCOORD_0": 143
          },
          "indices": 141,
          "material": 1
        }
      ]
    },
    {
      "primitives": [
        {
          "attributes": {
            "POSITION": 144,
            "NORMAL": 146,
            "TEXCOORD_0": 147
          },
          "indices": 145,
          "material": 1
        },
        {
          "attributes": {
            "POSITION": 148,
            "NORMAL": 150,
            "TEXCOORD_0": 151
          },
          "indices": 149,
          "material": 1
        },
        {
          "attributes": {
            "POSITION": 152,
            "NORMAL": 154,
            "TEXCOORD_0": 155
          },
          "indices": 153,
          "material": 1
        },
        {
          "attributes": {
            "POSITION": 156,
            "NORMAL": 158,
            "TEXCOORD_0": 159
          },
          "indices": 157,
          "material": 1
        },
        {
          "attributes": {
            "POSITION": 160,
            "NORMAL": 162,
            "TEXCOORD_0": 163
          },
          "indices": 161,
          "material": 1
        },
        {
          "attributes": {
            "POSITION": 164,
            "NORMAL": 166,
            "TEXCOORD_0": 167
          },
          "indices": 165,
          "material": 1
        }
      ]
    },
    {
      "primitives": [
        {
          "attributes": {
            "POSITION": 168,
            "NORMAL": 170,
            "TEXCOORD_0": 171
          },
          "indices": 169,
          "material": 0
        },
        {
          "attributes": {
            "POSITION": 172,
            "NORMAL": 174,
            "TEXCOORD_0": 175
          },
          "indices": 173,
          "material": 0
        },
        {
          "attributes": {
            "POSITION": 176,
            "NORMAL": 178,
            "TEXCOORD_0": 179
          },
          "indices": 177,
          "material": 0
        },
        {
          "attributes": {
            "POSITION": 180,
            "NORMAL": 182,
            "TEXCOORD_0": 183
          },
          "indices": 181,
          "material": 0
        },
        {
          "attributes": {
            "POSITION": 184,
            "NORMAL": 186,
            "TEXCOORD_0": 187
          },
          "indices": 185,
          "material": 0
        },
        {
          "attributes": {
            "POSITION": 188,
            "NORMAL": 190,
            "TEXCOORD_0": 191
          },
          "indices": 189,
          "material": 0
        },
        {
          "attributes": {
            "POSITION": 192,
            "NORMAL": 194,
            "TEXCOORD_0": 195
          },
          "indices": 193,
          "material": 0
        },
        {
          "attributes": {
            "POSITION": 196,
            "NORMAL": 198,
            "TEXCOORD_0": 199
          },
          "indices": 197,
          "material": 0
        },
        {
          "attributes": {
            "POSITION": 200,
            "NORMAL": 202,
            "TEXCOORD_0": 203
          },
          "indices": 201,
          "material": 0
        },
        {
          "attributes": {
            "POSITION": 204,
            "NORMAL": 206,
            "TEXCOORD_0": 207
          },
          "indices": 205,
          "material": 0
        }
      ]
    }
  ],
  "nodes": [
    {
      "mesh": 0
    },
    {
      "children": [
        0,
        2,
        7
      ],
      "name": "窗框"
    },
    {
      "mesh": 1
    },
    {
      "mesh": 2
    },
    {
      "children": [
        3,
        5,
        6
      ],
      "name": "窗戶"
    },
    {
      "mesh": 3
    },
    {
      "mesh": 4
    },
    {
      "mesh": 5
    }
  ],
  "samplers": [
    {
      "magFilter": 9729,
      "minFilter": 9729
    }
  ],
  "scene": 0,
  "scenes": [
    {
      "nodes": [
        1,
        4
      ],
      "extensions": {}
    }
  ],
  "extensions": {}
}