{"asset":{"version":"2.0","generator":"BIM feature edges, 30 degrees"},"scene":0,"scenes":[{"nodes":[1],"extensions":{}}],"nodes":[{"mesh":0},{"children":[0,2,3,4,5,6,7,8,9],"name":"核心筒"},{"mesh":1},{"mesh":2},{"mesh":3},{"mesh":4},{"mesh":5},{"mesh":6},{"mesh":7},{"mesh":8}],"meshes":[{"primitives":[{"attributes":{"POSITION":0},"indices":1,"material":0,"mode":1},{"attributes":{"POSITION":2},"indices":3,"material":0,"mode":1},{"attributes":{"POSITION":4},"indices":5,"material":0,"mode":1},{"attributes":{"POSITION":6},"indices":7,"material":0,"mode":1},{"attributes":{"POSITION":8},"indices":9,"material":0,"mode":1},{"attributes":{"POSITION":10},"indices":11,"material":0,"mode":1},{"attributes":{"POSITION":12},"indices":13,"material":0,"mode":1},{"attributes":{"POSITION":14},"indices":15,"material":0,"mode":1},{"attributes":{"POSITION":16},"indices":17,"material":0,"mode":1},{"attributes":{"POSITION":18},"indices":19,"material":0,"mode":1},{"attributes":{"POSITION":20},"indices":21,"material":0,"mode":1},{"attributes":{"POSITION":22},"indices":23,"material":0,"mode":1},{"attributes":{"POSITION":24},"indices":25,"material":0,"mode":1},{"attributes":{"POSITION":26},"indices":27,"material":0,"mode":1},{"attributes":{"POSITION":28},"indices":29,"material":0,"mode":1},{"attributes":{"POSITION":30},"indices":31,"material":0,"mode":1},{"attributes":{"POSITION":32},"indices":33,"material":0,"mode":1},{"attributes":{"POSITION":34},"indices":35,"material":0,"mode":1},{"attributes":{"POSITION":36},"indices":37,"material":0,"mode":1},{"attributes":{"POSITION":38},"indices":39,"material":0,"mode":1},{"attributes":{"POSITION":40},"indices":41,"material":0,"mode":1},{"attributes":{"POSITION":42},"indices":43,"material":0,"mode":1},{"attributes":{"POSITION":44},"indices":45,"material":0,"mode":1},{"attributes":{"POSITION":46},"indices":47,"material":0,"mode":1},{"attributes":{"POSITION":48},"indices":49,"material":0,"mode":1},{"attributes":{"POSITION":50},"indices":51,"material":0,"mode":1},{"attributes":{"POSITION":52},"indices":53,"material":0,"mode":1},{"attributes":{"POSITION":54},"indices":55,"material":0,"mode":1},{"attributes":{"POSITION":56},"indices":57,"material":0,"mode":1},{"attributes":{"POSITION":58},"indices":59,"material":0,"mode":1},{"attributes":{"POSITION":60},"indices":61,"material":0,"mode":1},{"attributes":{"POSITION":62},"indices":63,"material":0,"mode":1},{"attributes":{"POSITION":64},"indices":65,"material":0,"mode":1},{"attributes":{"POSITION":66},"indices":67,"material":0,"mode":1},{"attributes":{"POSITION":68},"indices":69,"material":0,"mode":1},{"attributes":{"POSITION":70},"indices":71,"material":0,"mode":1},{"attributes":{"POSITION":72},"indices":73,"material":0,"mode":1},{"attributes":{"POSITION":74},"indices":75,"material":0,"mode":1},{"attributes":{"POSITION":76},"indices":77,"material":0,"mode":1},{"attributes":{"POSITION":78},"indices":79,"material":0,"mode":1},{"attributes":{"POSITION":80},"indices":81,"material":0,"mode":1}]},{"primitives":[{"attributes":{"POSITION":82},"indices":83,"material":0,"mode":1},{"attributes":{"POSITION":84},"indices":85,"material":0,"mode":1},{"attributes":{"POSITION":86},"indices":87,"material":0,"mode":1},{"attributes":{"POSITION":88},"indices":89,"material":0,"mode":1},{"attributes":{"POSITION":90},"indices":91,"material":0,"mode":1},{"attributes":{"POSITION":92},"indices":93,"material":0,"mode":1},{"attributes":{"POSITION":94},"indices":95,"material":0,"mode":1},{"attributes":{"POSITION":96},"indices":97,"material":0,"mode":1},{"attributes":{"POSITION":98},"indices":99,"material":0,"mode":1},{"attributes":{"POSITION":100},"indices":101,"material":0,"mode":1},{"attributes":{"POSITION":102},"indices":103,"material":0,"mode":1},{"attributes":{"POSITION":104},"indices":105,"material":0,"mode":1},{"attributes":{"POSITION":106},"indices":107,"material":0,"mode":1},{"attributes":{"POSITION":108},"indices":109,"material":0,"mode":1},{"attributes":{"POSITION":110},"indices":111,"material":0,"mode":1},{"attributes":{"POSITION":112},"indices":113,"material":0,"mode":1},{"attributes":{"POSITION":114},"indices":115,"material":0,"mode":1},{"attributes":{"POSITION":116},"indices":117,"material":0,"mode":1},{"attributes":{"POSITION":118},"indices":119,"material":0,"mode":1},{"attributes":{"POSITION":120},"indices":121,"material":0,"mode":1},{"attributes":{"POSITION":122},"indices":123,"material":0,"mode":1},{"attributes":{"POSITION":124},"indices":125,"material":0,"mode":1},{"attributes":{"POSITION":126},"indices":127,"material":0,"mode":1},{"attributes":{"POSITION":128},"indices":129,"material":0,"mode":1},{"attributes":{"POSITION":130},"indices":131,"material":0,"mode":1}]},{"primitives":[{"attributes":{"POSITION":132},"indices":133,"material":0,"mode":1},{"attributes":{"POSITION":134},"indices":135,"material":0,"mode":1},{"attributes":{"POSITION":136},"indices":137,"material":0,"mode":1},{"attributes":{"POSITION":138},"indices":139,"material":0,"mode":1},{"attributes":{"POSITION":140},"indices":141,"material":0,"mode":1},{"attributes":{"POSITION":142},"indices":143,"material":0,"mode":1}]},{"primitives":[{"attributes":{"POSITION":144},"indices":145,"material":0,"mode":1},{"attributes":{"POSITION":146},"indices":147,"material":0,"mode":1},{"attributes":{"POSITION":148},"indices":149,"material":0,"mode":1},{"attributes":{"POSITION":150},"indices":151,"material":0,"mode":1},{"attributes":{"POSITION":152},"indices":153,"material":0,"mode":1},{"attributes":{"POSITION":154},"indices":155,"material":0,"mode":1}]},{"primitives":[{"attributes":{"POSITION":156},"indices":157,"material":0,"mode":1},{"attributes":{"POSITION":158},"indices":159,"material":0,"mode":1},{"attributes":{"POSITION":160},"indices":161,"material":0,"mode":1},{"attributes":{"POSITION":162},"indices":163,"material":0,"mode":1},{"attributes":{"POSITION":164},"indices":165,"material":0,"mode":1},{"attributes":{"POSITION":166},"indices":167,"material":0,"mode":1},{"attributes":{"POSITION":168},"indices":169,"material":0,"mode":1},{"attributes":{"POSITION":170},"indices":171,"material":0,"mode":1},{"attributes":{"POSITION":172},"indices":173,"material":0,"mode":1},{"attributes":{"POSITION":174},"indices":175,"material":0,"mode":1},{"attributes":{"POSITION":176},"indices":177,"material":0,"mode":1},{"attributes":{"POSITION":178},"indices":179,"material":0,"mode":1},{"attributes":{"POSITION":180},"indices":181,"material":0,"mode":1},{"attributes":{"POSITION":182},"indices":183,"material":0,"mode":1},{"attributes":{"POSITION":184},"indices":185,"material":0,"mode":1},{"attributes":{"POSITION":186},"indices":187,"material":0,"mode":1},{"attributes":{"POSITION":188},"indices":189,"material":0,"mode":1},{"attributes":{"POSITION":190},"indices":191,"material":0,"mode":1},{"attributes":{"POSITION":192},"indices":193,"material":0,"mode":1},{"attributes":{"POSITION":194},"indices":195,"material":0,"mode":1},{"attributes":{"POSITION":196},"indices":197,"material":0,"mode":1},{"attributes":{"POSITION":198},"indices":199,"material":0,"mode":1},{"attributes":{"POSITION":200},"indices":201,"material":0,"mode":1},{"attributes":{"POSITION":202},"indices":203,"material":0,"mode":1},{"attributes":{"POSITION":204},"indices":205,"material":0,"mode":1},{"attributes":{"POSITION":206},"indices":207,"material":0,"mode":1},{"attributes":{"POSITION":208},"indices":209,"material":0,"mode":1},{"attributes":{"POSITION":210},"indices":211,"material":0,"mode":1},{"attributes":{"POSITION":212},"indices":213,"material":0,"mode":1},{"attributes":{"POSITION":214},"indices":215,"material":0,"mode":1},{"attributes":{"POSITION":216},"indices":217,"material":0,"mode":1},{"attributes":{"POSITION":218},"indices":219,"material":0,"mode":1},{"attributes":{"POSITION":220},"indices":221,"material":0,"mode":1},{"attributes":{"POSITION":222},"indices":223,"material":0,"mode":1},{"attributes":{"POSITION":224},"indices":225,"material":0,"mode":1},{"attributes":{"POSITION":226},"indices":227,"material":0,"mode":1},{"attributes":{"POSITION":228},"indices":229,"material":0,"mode":1},{"attributes":{"POSITION":230},"indices":231,"material":0,"mode":1},{"attributes":{"POSITION":232},"indices":233,"material":0,"mode":1},{"attributes":{"POSITION":234},"indices":235,"material":0,"mode":1},{"attributes":{"POSITION":236},"indices":237,"material":0,"mode":1},{"attributes":{"POSITION":238},"indices":239,"material":0,"mode":1},{"attributes":{"POSITION":240},"indices":241,"material":0,"mode":1},{"attributes":{"POSITION":242},"indices":243,"material":0,"mode":1}]},{"primitives":[{"attributes":{"POSITION":244},"indices":245,"material":0,"mode":1},{"attributes":{"POSITION":246},"indices":247,"material":0,"mode":1},{"attributes":{"POSITION":248},"indices":249,"material":0,"mode":1},{"attributes":{"POSITION":250},"indices":251,"material":0,"mode":1},{"attributes":{"POSITION":252},"indices":253,"material":0,"mode":1},{"attributes":{"POSITION":254},"indices":255,"material":0,"mode":1}]},{"primitives":[{"attributes":{"POSITION":256},"indices":257,"material":0,"mode":1},{"attributes":{"POSITION":258},"indices":259,"material":0,"mode":1},{"attributes":{"POSITION":260},"indices":261,"material":0,"mode":1},{"attributes":{"POSITION":262},"indices":263,"material":0,"mode":1},{"attributes":{"POSITION":264},"indices":265,"material":0,"mode":1},{"attributes":{"POSITION":266},"indices":267,"material":0,"mode":1}]},{"primitives":[{"attributes":{"POSITION":268},"indices":269,"material":0,"mode":1},{"attributes":{"POSITION":270},"indices":271,"material":0,"mode":1},{"attributes":{"POSITION":272},"indices":273,"material":0,"mode":1},{"attributes":{"POSITION":274},"indices":275,"material":0,"mode":1},{"attributes":{"POSITION":276},"indices":277,"material":0,"mode":1},{"attributes":{"POSITION":278},"indices":279,"material":0,"mode":1}]},{"primitives":[{"attributes":{"POSITION":280},"indices":281,"material":0,"mode":1},{"attributes":{"POSITION":282},"indices":283,"material":0,"mode":1},{"attributes":{"POSITION":284},"indices":285,"material":0,"mode":1},{"attributes":{"POSITION":286},"indices":287,"material":0,"mode":1},{"attributes":{"POSITION":288},"indices":289,"material":0,"mode":1},{"attributes":{"POSITION":290},"indices":291,"material":0,"mode":1}]}],"materials":[{"name":"白色線稿","pbrMetallicRoughness":{"baseColorFactor":[1,1,1,1],"metallicFactor":0,"roughnessFactor":1},"extensions":{"KHR_materials_unlit":{}}}],"extensionsUsed":["KHR_materials_unlit"],"buffers":[{"byteLength":14960,"uri":"data:application/octet-stream;base64,"}],"bufferViews":[{"buffer":0,"byteOffset":0,"byteLength":96,"target":34962},{"buffer":0,"byteOffset":96,"byteLength":64,"target":34963},{"buffer":0,"byteOffset":160,"byteLength":60,"target":34962},{"buffer":0,"byteOffset":220,"byteLength":40,"target":34963},{"buffer":0,"byteOffset":260,"byteLength":48,"target":34962},{"buffer":0,"byteOffset":308,"byteLength":32,"target":34963},{"buffer":0,"byteOffset":340,"byteLength":48,"target":34962},{"buffer":0,"byteOffset":388,"byteLength":32,"target":34963},{"buffer":0,"byteOffset":420,"byteLength":48,"target":34962},{"buffer":0,"byteOffset":468,"byteLength":32,"target":34963},{"buffer":0,"byteOffset":500,"byteLength":48,"target":34962},{"buffer":0,"byteOffset":548,"byteLength":32,"target":34963},{"buffer":0,"byteOffset":580,"byteLength":72,"target":34962},{"buffer":0,"byteOffset":652,"byteLength":48,"target":34963},{"buffer":0,"byteOffset":700,"byteLength":48,"target":34962},{"buffer":0,"byteOffset":748,"byteLength":32,"target":34963},{"buffer":0,"byteOffset":780,"byteLength":72,"target":34962},{"buffer":0,"byteOffset":852,"byteLength":48,"target":34963},{"buffer":0,"byteOffset":900,"byteLength":48,"target":34962},{"buffer":0,"byteOffset":948,"byteLength":32,"target":34963},{"buffer":0,"byteOffset":980,"byteLength":96,"target":34962},{"buffer":0,"byteOffset":1076,"byteLength":64,"target":34963},{"buffer":0,"byteOffset":1140,"byteLength":60,"target":34962},{"buffer":0,"byteOffset":1200,"byteLength":40,"target":34963},{"buffer":0,"byteOffset":1240,"byteLength":48,"target":34962},{"buffer":0,"byteOffset":1288,"byteLength":32,"target":34963},{"buffer":0,"byteOffset":1320,"byteLength":48,"target":34962},{"buffer":0,"byteOffset":1368,"byteLength":32,"target":34963},{"buffer":0,"byteOffset":1400,"byteLength":48,"target":34962},{"buffer":0,"byteOffset":1448,"byteLength":32,"target":34963},{"buffer":0,"byteOffset":1480,"byteLength":48,"target":34962},{"buffer":0,"byteOffset":1528,"byteLength":32,"target":34963},{"buffer":0,"byteOffset":1560,"byteLength":48,"target":34962},{"buffer":0,"byteOffset":1608,"byteLength":32,"target":34963},{"buffer":0,"byteOffset":1640,"byteLength":72,"target":34962},{"buffer":0,"byteOffset":1712,"byteLength":48,"target":34963},{"buffer":0,"byteOffset":1760,"byteLength":48,"target":34962},{"buffer":0,"byteOffset":1808,"byteLength":32,"target":34963},{"buffer":0,"byteOffset":1840,"byteLength":48,"target":34962},{"buffer":0,"byteOffset":1888,"byteLength":32,"target":34963},{"buffer":0,"byteOffset":1920,"byteLength":96,"target":34962},{"buffer":0,"byteOffset":2016,"byteLength":64,"target":34963},{"buffer":0,"byteOffset":2080,"byteLength":60,"target":34962},{"buffer":0,"byteOffset":2140,"byteLength":40,"target":34963},{"buffer":0,"byteOffset":2180,"byteLength":48,"target":34962},{"buffer":0,"byteOffset":2228,"byteLength":32,"target":34963},{"buffer":0,"byteOffset":2260,"byteLength":48,"target":34962},{"buffer":0,"byteOffset":2308,"byteLength":32,"target":34963},{"buffer":0,"byteOffset":2340,"byteLength":48,"target":34962},{"buffer":0,"byteOffset":2388,"byteLength":32,"target":34963},{"buffer":0,"byteOffset":2420,"byteLength":48,"target":34962},{"buffer":0,"byteOffset":2468,"byteLength":32,"target":34963},{"buffer":0,"byteOffset":2500,"byteLength":72,"target":34962},{"buffer":0,"byteOffset":2572,"byteLength":48,"target":34963},{"buffer":0,"byteOffset":2620,"byteLength":48,"target":34962},{"buffer":0,"byteOffset":2668,"byteLength":32,"target":34963},{"buffer":0,"byteOffset":2700,"byteLength":72,"target":34962},{"buffer":0,"byteOffset":2772,"byteLength":48,"target":34963},{"buffer":0,"byteOffset":2820,"byteLength":48,"target":34962},{"buffer":0,"byteOffset":2868,"byteLength":32,"target":34963},{"buffer":0,"byteOffset":2900,"byteLength":48,"target":34962},{"buffer":0,"byteOffset":2948,"byteLength":32,"target":34963},{"buffer":0,"byteOffset":2980,"byteLength":48,"target":34962},{"buffer":0,"byteOffset":3028,"byteLength":32,"target":34963},{"buffer":0,"byteOffset":3060,"byteLength":144,"target":34962},{"buffer":0,"byteOffset":3204,"byteLength":96,"target":34963},{"buffer":0,"byteOffset":3300,"byteLength":48,"target":34962},{"buffer":0,"byteOffset":3348,"byteLength":32,"target":34963},{"buffer":0,"byteOffset":3380,"byteLength":48,"target":34962},{"buffer":0,"byteOffset":3428,"byteLength":32,"target":34963},{"buffer":0,"byteOffset":3460,"byteLength":48,"target":34962},{"buffer":0,"byteOffset":3508,"byteLength":32,"target":34963},{"buffer":0,"byteOffset":3540,"byteLength":48,"target":34962},{"buffer":0,"byteOffset":3588,"byteLength":32,"target":34963},{"buffer":0,"byteOffset":3620,"byteLength":48,"target":34962},{"buffer":0,"byteOffset":3668,"byteLength":32,"target":34963},{"buffer":0,"byteOffset":3700,"byteLength":108,"target":34962},{"buffer":0,"byteOffset":3808,"byteLength":72,"target":34963},{"buffer":0,"byteOffset":3880,"byteLength":216,"target":34962},{"buffer":0,"byteOffset":4096,"byteLength":144,"target":34963},{"buffer":0,"byteOffset":4240,"byteLength":96,"target":34962},{"buffer":0,"byteOffset":4336,"byteLength":64,"target":34963},{"buffer":0,"byteOffset":4400,"byteLength":48,"target":34962},{"buffer":0,"byteOffset":4448,"byteLength":32,"target":34963},{"buffer":0,"byteOffset":4480,"byteLength":48,"target":34962},{"buffer":0,"byteOffset":4528,"byteLength":32,"target":34963},{"buffer":0,"byteOffset":4560,"byteLength":48,"target":34962},{"buffer":0,"byteOffset":4608,"byteLength":32,"target":34963},{"buffer":0,"byteOffset":4640,"byteLength":48,"target":34962},{"buffer":0,"byteOffset":4688,"byteLength":32,"target":34963},{"buffer":0,"byteOffset":4720,"byteLength":48,"target":34962},{"buffer":0,"byteOffset":4768,"byteLength":32,"target":34963},{"buffer":0,"byteOffset":4800,"byteLength":60,"target":34962},{"buffer":0,"byteOffset":4860,"byteLength":40,"target":34963},{"buffer":0,"byteOffset":4900,"byteLength":48,"target":34962},{"buffer":0,"byteOffset":4948,"byteLength":32,"target":34963},{"buffer":0,"byteOffset":4980,"byteLength":48,"target":34962},{"buffer":0,"byteOffset":5028,"byteLength":32,"target":34963},{"buffer":0,"byteOffset":5060,"byteLength":48,"target":34962},{"buffer":0,"byteOffset":5108,"byteLength":32,"target":34963},{"buffer":0,"byteOffset":5140,"byteLength":48,"target":34962},{"buffer":0,"byteOffset":5188,"byteLength":32,"target":34963},{"buffer":0,"byteOffset":5220,"byteLength":60,"target":34962},{"buffer":0,"byteOffset":5280,"byteLength":40,"target":34963},{"buffer":0,"byteOffset":5320,"byteLength":48,"target":34962},{"buffer":0,"byteOffset":5368,"byteLength":32,"target":34963},{"buffer":0,"byteOffset":5400,"byteLength":60,"target":34962},{"buffer":0,"byteOffset":5460,"byteLength":40,"target":34963},{"buffer":0,"byteOffset":5500,"byteLength":48,"target":34962},{"buffer":0,"byteOffset":5548,"byteLength":32,"target":34963},{"buffer":0,"byteOffset":5580,"byteLength":48,"target":34962},{"buffer":0,"byteOffset":5628,"byteLength":32,"target":34963},{"buffer":0,"byteOffset":5660,"byteLength":96,"target":34962},{"buffer":0,"byteOffset":5756,"byteLength":64,"target":34963},{"buffer":0,"byteOffset":5820,"byteLength":48,"target":34962},{"buffer":0,"byteOffset":5868,"byteLength":32,"target":34963},{"buffer":0,"byteOffset":5900,"byteLength":48,"target":34962},{"buffer":0,"byteOffset":5948,"byteLength":32,"target":34963},{"buffer":0,"byteOffset":5980,"byteLength":192,"target":34962},{"buffer":0,"byteOffset":6172,"byteLength":128,"target":34963},{"buffer":0,"byteOffset":6300,"byteLength":48,"target":34962},{"buffer":0,"byteOffset":6348,"byteLength":32,"target":34963},{"buffer":0,"byteOffset":6380,"byteLength":48,"target":34962},{"buffer":0,"byteOffset":6428,"byteLength":32,"target":34963},{"buffer":0,"byteOffset":6460,"byteLength":48,"target":34962},{"buffer":0,"byteOffset":6508,"byteLength":32,"target":34963},{"buffer":0,"byteOffset":6540,"byteLength":48,"target":34962},{"buffer":0,"byteOffset":6588,"byteLength":32,"target":34963},{"buffer":0,"byteOffset":6620,"byteLength":156,"target":34962},{"buffer":0,"byteOffset":6776,"byteLength":104,"target":34963},{"buffer":0,"byteOffset":6880,"byteLength":96,"target":34962},{"buffer":0,"byteOffset":6976,"byteLength":64,"target":34963},{"buffer":0,"byteOffset":7040,"byteLength":48,"target":34962},{"buffer":0,"byteOffset":7088,"byteLength":32,"target":34963},{"buffer":0,"byteOffset":7120,"byteLength":48,"target":34962},{"buffer":0,"byteOffset":7168,"byteLength":32,"target":34963},{"buffer":0,"byteOffset":7200,"byteLength":48,"target":34962},{"buffer":0,"byteOffset":7248,"byteLength":32,"target":34963},{"buffer":0,"byteOffset":7280,"byteLength":48,"target":34962},{"buffer":0,"byteOffset":7328,"byteLength":32,"target":34963},{"buffer":0,"byteOffset":7360,"byteLength":48,"target":34962},{"buffer":0,"byteOffset":7408,"byteLength":32,"target":34963},{"buffer":0,"byteOffset":7440,"byteLength":48,"target":34962},{"buffer":0,"byteOffset":7488,"byteLength":32,"target":34963},{"buffer":0,"byteOffset":7520,"byteLength":48,"target":34962},{"buffer":0,"byteOffset":7568,"byteLength":32,"target":34963},{"buffer":0,"byteOffset":7600,"byteLength":48,"target":34962},{"buffer":0,"byteOffset":7648,"byteLength":32,"target":34963},{"buffer":0,"byteOffset":7680,"byteLength":48,"target":34962},{"buffer":0,"byteOffset":7728,"byteLength":32,"target":34963},{"buffer":0,"byteOffset":7760,"byteLength":48,"target":34962},{"buffer":0,"byteOffset":7808,"byteLength":32,"target":34963},{"buffer":0,"byteOffset":7840,"byteLength":48,"target":34962},{"buffer":0,"byteOffset":7888,"byteLength":32,"target":34963},{"buffer":0,"byteOffset":7920,"byteLength":48,"target":34962},{"buffer":0,"byteOffset":7968,"byteLength":32,"target":34963},{"buffer":0,"byteOffset":8000,"byteLength":48,"target":34962},{"buffer":0,"byteOffset":8048,"byteLength":32,"target":34963},{"buffer":0,"byteOffset":8080,"byteLength":48,"target":34962},{"buffer":0,"byteOffset":8128,"byteLength":32,"target":34963},{"buffer":0,"byteOffset":8160,"byteLength":48,"target":34962},{"buffer":0,"byteOffset":8208,"byteLength":32,"target":34963},{"buffer":0,"byteOffset":8240,"byteLength":48,"target":34962},{"buffer":0,"byteOffset":8288,"byteLength":32,"target":34963},{"buffer":0,"byteOffset":8320,"byteLength":48,"target":34962},{"buffer":0,"byteOffset":8368,"byteLength":32,"target":34963},{"buffer":0,"byteOffset":8400,"byteLength":48,"target":34962},{"buffer":0,"byteOffset":8448,"byteLength":32,"target":34963},{"buffer":0,"byteOffset":8480,"byteLength":48,"target":34962},{"buffer":0,"byteOffset":8528,"byteLength":32,"target":34963},{"buffer":0,"byteOffset":8560,"byteLength":48,"target":34962},{"buffer":0,"byteOffset":8608,"byteLength":32,"target":34963},{"buffer":0,"byteOffset":8640,"byteLength":48,"target":34962},{"buffer":0,"byteOffset":8688,"byteLength":32,"target":34963},{"buffer":0,"byteOffset":8720,"byteLength":48,"target":34962},{"buffer":0,"byteOffset":8768,"byteLength":32,"target":34963},{"buffer":0,"byteOffset":8800,"byteLength":48,"target":34962},{"buffer":0,"byteOffset":8848,"byteLength":32,"target":34963},{"buffer":0,"byteOffset":8880,"byteLength":48,"target":34962},{"buffer":0,"byteOffset":8928,"byteLength":32,"target":34963},{"buffer":0,"byteOffset":8960,"byteLength":48,"target":34962},{"buffer":0,"byteOffset":9008,"byteLength":32,"target":34963},{"buffer":0,"byteOffset":9040,"byteLength":48,"target":34962},{"buffer":0,"byteOffset":9088,"byteLength":32,"target":34963},{"buffer":0,"byteOffset":9120,"byteLength":48,"target":34962},{"buffer":0,"byteOffset":9168,"byteLength":32,"target":34963},{"buffer":0,"byteOffset":9200,"byteLength":48,"target":34962},{"buffer":0,"byteOffset":9248,"byteLength":32,"target":34963},{"buffer":0,"byteOffset":9280,"byteLength":48,"target":34962},{"buffer":0,"byteOffset":9328,"byteLength":32,"target":34963},{"buffer":0,"byteOffset":9360,"byteLength":48,"target":34962},{"buffer":0,"byteOffset":9408,"byteLength":32,"target":34963},{"buffer":0,"byteOffset":9440,"byteLength":48,"target":34962},{"buffer":0,"byteOffset":9488,"byteLength":32,"target":34963},{"buffer":0,"byteOffset":9520,"byteLength":48,"target":34962},{"buffer":0,"byteOffset":9568,"byteLength":32,"target":34963},{"buffer":0,"byteOffset":9600,"byteLength":48,"target":34962},{"buffer":0,"byteOffset":9648,"byteLength":32,"target":34963},{"buffer":0,"byteOffset":9680,"byteLength":48,"target":34962},{"buffer":0,"byteOffset":9728,"byteLength":32,"target":34963},{"buffer":0,"byteOffset":9760,"byteLength":48,"target":34962},{"buffer":0,"byteOffset":9808,"byteLength":32,"target":34963},{"buffer":0,"byteOffset":9840,"byteLength":48,"target":34962},{"buffer":0,"byteOffset":9888,"byteLength":32,"target":34963},{"buffer":0,"byteOffset":9920,"byteLength":48,"target":34962},{"buffer":0,"byteOffset":9968,"byteLength":32,"target":34963},{"buffer":0,"byteOffset":10000,"byteLength":48,"target":34962},{"buffer":0,"byteOffset":10048,"byteLength":32,"target":34963},{"buffer":0,"byteOffset":10080,"byteLength":48,"target":34962},{"buffer":0,"byteOffset":10128,"byteLength":32,"target":34963},{"buffer":0,"byteOffset":10160,"byteLength":48,"target":34962},{"buffer":0,"byteOffset":10208,"byteLength":32,"target":34963},{"buffer":0,"byteOffset":10240,"byteLength":48,"target":34962},{"buffer":0,"byteOffset":10288,"byteLength":32,"target":34963},{"buffer":0,"byteOffset":10320,"byteLength":48,"target":34962},{"buffer":0,"byteOffset":10368,"byteLength":32,"target":34963},{"buffer":0,"byteOffset":10400,"byteLength":48,"target":34962},{"buffer":0,"byteOffset":10448,"byteLength":32,"target":34963},{"buffer":0,"byteOffset":10480,"byteLength":48,"target":34962},{"buffer":0,"byteOffset":10528,"byteLength":32,"target":34963},{"buffer":0,"byteOffset":10560,"byteLength":48,"target":34962},{"buffer":0,"byteOffset":10608,"byteLength":32,"target":34963},{"buffer":0,"byteOffset":10640,"byteLength":48,"target":34962},{"buffer":0,"byteOffset":10688,"byteLength":32,"target":34963},{"buffer":0,"byteOffset":10720,"byteLength":48,"target":34962},{"buffer":0,"byteOffset":10768,"byteLength":32,"target":34963},{"buffer":0,"byteOffset":10800,"byteLength":48,"target":34962},{"buffer":0,"byteOffset":10848,"byteLength":32,"target":34963},{"buffer":0,"byteOffset":10880,"byteLength":72,"target":34962},{"buffer":0,"byteOffset":10952,"byteLength":48,"target":34963},{"buffer":0,"byteOffset":11000,"byteLength":48,"target":34962},{"buffer":0,"byteOffset":11048,"byteLength":32,"target":34963},{"buffer":0,"byteOffset":11080,"byteLength":48,"target":34962},{"buffer":0,"byteOffset":11128,"byteLength":32,"target":34963},{"buffer":0,"byteOffset":11160,"byteLength":48,"target":34962},{"buffer":0,"byteOffset":11208,"byteLength":32,"target":34963},{"buffer":0,"byteOffset":11240,"byteLength":480,"target":34962},{"buffer":0,"byteOffset":11720,"byteLength":320,"target":34963},{"buffer":0,"byteOffset":12040,"byteLength":480,"target":34962},{"buffer":0,"byteOffset":12520,"byteLength":320,"target":34963},{"buffer":0,"byteOffset":12840,"byteLength":48,"target":34962},{"buffer":0,"byteOffset":12888,"byteLength":32,"target":34963},{"buffer":0,"byteOffset":12920,"byteLength":72,"target":34962},{"buffer":0,"byteOffset":12992,"byteLength":48,"target":34963},{"buffer":0,"byteOffset":13040,"byteLength":48,"target":34962},{"buffer":0,"byteOffset":13088,"byteLength":32,"target":34963},{"buffer":0,"byteOffset":13120,"byteLength":48,"target":34962},{"buffer":0,"byteOffset":13168,"byteLength":32,"target":34963},{"buffer":0,"byteOffset":13200,"byteLength":48,"target":34962},{"buffer":0,"byteOffset":13248,"byteLength":32,"target":34963},{"buffer":0,"byteOffset":13280,"byteLength":48,"target":34962},{"buffer":0,"byteOffset":13328,"byteLength":32,"target":34963},{"buffer":0,"byteOffset":13360,"byteLength":48,"target":34962},{"buffer":0,"byteOffset":13408,"byteLength":32,"target":34963},{"buffer":0,"byteOffset":13440,"byteLength":48,"target":34962},{"buffer":0,"byteOffset":13488,"byteLength":32,"target":34963},{"buffer":0,"byteOffset":13520,"byteLength":48,"target":34962},{"buffer":0,"byteOffset":13568,"byteLength":32,"target":34963},{"buffer":0,"byteOffset":13600,"byteLength":48,"target":34962},{"buffer":0,"byteOffset":13648,"byteLength":32,"target":34963},{"buffer":0,"byteOffset":13680,"byteLength":48,"target":34962},{"buffer":0,"byteOffset":13728,"byteLength":32,"target":34963},{"buffer":0,"byteOffset":13760,"byteLength":48,"target":34962},{"buffer":0,"byteOffset":13808,"byteLength":32,"target":34963},{"buffer":0,"byteOffset":13840,"byteLength":48,"target":34962},{"buffer":0,"byteOffset":13888,"byteLength":32,"target":34963},{"buffer":0,"byteOffset":13920,"byteLength":48,"target":34962},{"buffer":0,"byteOffset":13968,"byteLength":32,"target":34963},{"buffer":0,"byteOffset":14000,"byteLength":48,"target":34962},{"buffer":0,"byteOffset":14048,"byteLength":32,"target":34963},{"buffer":0,"byteOffset":14080,"byteLength":48,"target":34962},{"buffer":0,"byteOffset":14128,"byteLength":32,"target":34963},{"buffer":0,"byteOffset":14160,"byteLength":48,"target":34962},{"buffer":0,"byteOffset":14208,"byteLength":32,"target":34963},{"buffer":0,"byteOffset":14240,"byteLength":48,"target":34962},{"buffer":0,"byteOffset":14288,"byteLength":32,"target":34963},{"buffer":0,"byteOffset":14320,"byteLength":48,"target":34962},{"buffer":0,"byteOffset":14368,"byteLength":32,"target":34963},{"buffer":0,"byteOffset":14400,"byteLength":48,"target":34962},{"buffer":0,"byteOffset":14448,"byteLength":32,"target":34963},{"buffer":0,"byteOffset":14480,"byteLength":48,"target":34962},{"buffer":0,"byteOffset":14528,"byteLength":32,"target":34963},{"buffer":0,"byteOffset":14560,"byteLength":48,"target":34962},{"buffer":0,"byteOffset":14608,"byteLength":32,"target":34963},{"buffer":0,"byteOffset":14640,"byteLength":48,"target":34962},{"buffer":0,"byteOffset":14688,"byteLength":32,"target":34963},{"buffer":0,"byteOffset":14720,"byteLength":48,"target":34962},{"buffer":0,"byteOffset":14768,"byteLength":32,"target":34963},{"buffer":0,"byteOffset":14800,"byteLength":48,"target":34962},{"buffer":0,"byteOffset":14848,"byteLength":32,"target":34963},{"buffer":0,"byteOffset":14880,"byteLength":48,"target":34962},{"buffer":0,"byteOffset":14928,"byteLength":32,"target":34963}],"accessors":[{"bufferView":0,"componentType":5126,"count":8,"type":"VEC3","min":[-10.999991416931152,38.29999923706055,-21.450000762939453],"max":[-8.759991645812988,41.54999923706055,-21.450000762939453]},{"bufferView":1,"componentType":5125,"count":16,"type":"SCALAR"},{"bufferView":2,"componentType":5126,"count":5,"type":"VEC3","min":[-10.999991416931152,38.29999923706055,-21.549999237060547],"max":[-10.309991836547852,38.29999923706055,-21.450000762939453]},{"bufferView":3,"componentType":5125,"count":10,"type":"SCALAR"},{"bufferView":4,"componentType":5126,"count":4,"type":"VEC3","min":[-10.309991836547852,40.499996185302734,-21.549999237060547],"max":[-9.309990882873535,40.499996185302734,-21.450000762939453]},{"bufferView":5,"componentType":5125,"count":8,"type":"SCALAR"},{"bufferView":6,"componentType":5126,"count":4,"type":"VEC3","min":[-9.309990882873535,38.29999923706055,-21.549999237060547],"max":[-9.309990882873535,40.499996185302734,-21.450000762939453]},{"bufferView":7,"componentType":5125,"count":8,"type":"SCALAR"},{"bufferView":8,"componentType":5126,"count":4,"type":"VEC3","min":[-9.309990882873535,38.29999923706055,-21.549999237060547],"max":[-8.759991645812988,38.29999923706055,-21.450000762939453]},{"bufferView":9,"componentType":5125,"count":8,"type":"SCALAR"},{"bufferView":10,"componentType":5126,"count":4,"type":"VEC3","min":[-8.759991645812988,38.29999923706055,-21.549999237060547],"max":[-8.759991645812988,41.54999923706055,-21.450000762939453]},{"bufferView":11,"componentType":5125,"count":8,"type":"SCALAR"},{"bufferView":12,"componentType":5126,"count":6,"type":"VEC3","min":[-10.999991416931152,41.54999923706055,-21.549999237060547],"max":[-8.759991645812988,41.54999923706055,-21.450000762939453]},{"bufferView":13,"componentType":5125,"count":12,"type":"SCALAR"},{"bufferView":14,"componentType":5126,"count":4,"type":"VEC3","min":[-10.999991416931152,38.29999923706055,-21.549999237060547],"max":[-10.999991416931152,41.54999923706055,-21.450000762939453]},{"bufferView":15,"componentType":5125,"count":8,"type":"SCALAR"},{"bufferView":16,"componentType":5126,"count":6,"type":"VEC3","min":[-10.309991836547852,38.29999923706055,-21.549999237060547],"max":[-8.759991645812988,41.54999923706055,-21.549999237060547]},{"bufferView":17,"componentType":5125,"count":12,"type":"SCALAR"},{"bufferView":18,"componentType":5126,"count":4,"type":"VEC3","min":[-10.999991416931152,38.29999923706055,-21.549999237060547],"max":[-10.459991455078125,41.54999923706055,-21.549999237060547]},{"bufferView":19,"componentType":5125,"count":8,"type":"SCALAR"},{"bufferView":20,"componentType":5126,"count":8,"type":"VEC3","min":[-10.999991416931152,41.70000076293945,-21.450000762939453],"max":[-8.759991645812988,44.95000076293945,-21.450000762939453]},{"bufferView":21,"componentType":5125,"count":16,"type":"SCALAR"},{"bufferView":22,"componentType":5126,"count":5,"type":"VEC3","min":[-10.999991416931152,41.70000076293945,-21.549999237060547],"max":[-10.309991836547852,41.70000076293945,-21.450000762939453]},{"bufferView":23,"componentType":5125,"count":10,"type":"SCALAR"},{"bufferView":24,"componentType":5126,"count":4,"type":"VEC3","min":[-10.309991836547852,43.900001525878906,-21.549999237060547],"max":[-9.309990882873535,43.900001525878906,-21.450000762939453]},{"bufferView":25,"componentType":5125,"count":8,"type":"SCALAR"},{"bufferView":26,"componentType":5126,"count":4,"type":"VEC3","min":[-9.309990882873535,41.70000076293945,-21.549999237060547],"max":[-9.309990882873535,43.900001525878906,-21.450000762939453]},{"bufferView":27,"componentType":5125,"count":8,"type":"SCALAR"},{"bufferView":28,"componentType":5126,"count":4,"type":"VEC3","min":[-9.309990882873535,41.70000076293945,-21.549999237060547],"max":[-8.759991645812988,41.70000076293945,-21.450000762939453]},{"bufferView":29,"componentType":5125,"count":8,"type":"SCALAR"},{"bufferView":30,"componentType":5126,"count":4,"type":"VEC3","min":[-8.759991645812988,41.70000076293945,-21.549999237060547],"max":[-8.759991645812988,44.95000076293945,-21.450000762939453]},{"bufferView":31,"componentType":5125,"count":8,"type":"SCALAR"},{"bufferView":32,"componentType":5126,"count":4,"type":"VEC3","min":[-10.999991416931152,41.70000076293945,-21.549999237060547],"max":[-10.999991416931152,44.95000076293945,-21.450000762939453]},{"bufferView":33,"componentType":5125,"count":8,"type":"SCALAR"},{"bufferView":34,"componentType":5126,"count":6,"type":"VEC3","min":[-10.309991836547852,41.70000076293945,-21.549999237060547],"max":[-8.759991645812988,44.95000076293945,-21.549999237060547]},{"bufferView":35,"componentType":5125,"count":12,"type":"SCALAR"},{"bufferView":36,"componentType":5126,"count":4,"type":"VEC3","min":[-10.459991455078125,41.54999923706055,-21.549999237060547],"max":[-10.309991836547852,41.70000076293945,-21.549999237060547]},{"bufferView":37,"componentType":5125,"count":8,"type":"SCALAR"},{"bufferView":38,"componentType":5126,"count":4,"type":"VEC3","min":[-10.999991416931152,41.70000076293945,-21.549999237060547],"max":[-10.459991455078125,44.95000076293945,-21.549999237060547]},{"bufferView":39,"componentType":5125,"count":8,"type":"SCALAR"},{"bufferView":40,"componentType":5126,"count":8,"type":"VEC3","min":[-10.999991416931152,34.900001525878906,-21.450000762939453],"max":[-8.759991645812988,38.150001525878906,-21.450000762939453]},{"bufferView":41,"componentType":5125,"count":16,"type":"SCALAR"},{"bufferView":42,"componentType":5126,"count":5,"type":"VEC3","min":[-10.999991416931152,34.900001525878906,-21.549999237060547],"max":[-10.309991836547852,34.900001525878906,-21.450000762939453]},{"bufferView":43,"componentType":5125,"count":10,"type":"SCALAR"},{"bufferView":44,"componentType":5126,"count":4,"type":"VEC3","min":[-10.309991836547852,37.099998474121094,-21.549999237060547],"max":[-9.309990882873535,37.099998474121094,-21.450000762939453]},{"bufferView":45,"componentType":5125,"count":8,"type":"SCALAR"},{"bufferView":46,"componentType":5126,"count":4,"type":"VEC3","min":[-9.309990882873535,34.900001525878906,-21.549999237060547],"max":[-9.309990882873535,37.099998474121094,-21.450000762939453]},{"bufferView":47,"componentType":5125,"count":8,"type":"SCALAR"},{"bufferView":48,"componentType":5126,"count":4,"type":"VEC3","min":[-9.309990882873535,34.900001525878906,-21.549999237060547],"max":[-8.759991645812988,34.900001525878906,-21.450000762939453]},{"bufferView":49,"componentType":5125,"count":8,"type":"SCALAR"},{"bufferView":50,"componentType":5126,"count":4,"type":"VEC3","min":[-8.759991645812988,34.900001525878906,-21.549999237060547],"max":[-8.759991645812988,38.150001525878906,-21.450000762939453]},{"bufferView":51,"componentType":5125,"count":8,"type":"SCALAR"},{"bufferView":52,"componentType":5126,"count":6,"type":"VEC3","min":[-10.999991416931152,38.150001525878906,-21.549999237060547],"max":[-8.759991645812988,38.150001525878906,-21.450000762939453]},{"bufferView":53,"componentType":5125,"count":12,"type":"SCALAR"},{"bufferView":54,"componentType":5126,"count":4,"type":"VEC3","min":[-10.999991416931152,34.900001525878906,-21.549999237060547],"max":[-10.999991416931152,38.150001525878906,-21.450000762939453]},{"bufferView":55,"componentType":5125,"count":8,"type":"SCALAR"},{"bufferView":56,"componentType":5126,"count":6,"type":"VEC3","min":[-10.309991836547852,34.900001525878906,-21.549999237060547],"max":[-8.759991645812988,38.150001525878906,-21.549999237060547]},{"bufferView":57,"componentType":5125,"count":12,"type":"SCALAR"},{"bufferView":58,"componentType":5126,"count":4,"type":"VEC3","min":[-10.459991455078125,38.150001525878906,-21.549999237060547],"max":[-10.309991836547852,38.29999923706055,-21.549999237060547]},{"bufferView":59,"componentType":5125,"count":8,"type":"SCALAR"},{"bufferView":60,"componentType":5126,"count":4,"type":"VEC3","min":[-10.999991416931152,34.900001525878906,-21.549999237060547],"max":[-10.459991455078125,38.150001525878906,-21.549999237060547]},{"bufferView":61,"componentType":5125,"count":8,"type":"SCALAR"},{"bufferView":62,"componentType":5126,"count":4,"type":"VEC3","min":[-10.459991455078125,34.75,-21.549999237060547],"max":[-10.309991836547852,34.900001525878906,-21.549999237060547]},{"bufferView":63,"componentType":5125,"count":8,"type":"SCALAR"},{"bufferView":64,"componentType":5126,"count":12,"type":"VEC3","min":[-14.634991645812988,44.95000076293945,-22.754657745361328],"max":[-8.759991645812988,44.95000076293945,-21.450000762939453]},{"bufferView":65,"componentType":5125,"count":24,"type":"SCALAR"},{"bufferView":66,"componentType":5126,"count":4,"type":"VEC3","min":[-14.634991645812988,34.749996185302734,-22.754657745361328],"max":[-13.930329322814941,44.95000076293945,-22.049999237060547]},{"bufferView":67,"componentType":5125,"count":8,"type":"SCALAR"},{"bufferView":68,"componentType":5126,"count":4,"type":"VEC3","min":[-14.634991645812988,34.749996185302734,-22.754657745361328],"max":[-14.634991645812988,44.95000076293945,-22.542526245117188]},{"bufferView":69,"componentType":5125,"count":8,"type":"SCALAR"},{"bufferView":70,"componentType":5126,"count":4,"type":"VEC3","min":[-14.634991645812988,34.749996185302734,-22.542526245117188],"max":[-13.992461204528809,44.95000076293945,-21.899999618530273]},{"bufferView":71,"componentType":5125,"count":8,"type":"SCALAR"},{"bufferView":72,"componentType":5126,"count":4,"type":"VEC3","min":[-13.992461204528809,34.749996185302734,-21.899999618530273],"max":[-10.459991455078125,44.95000076293945,-21.899999618530273]},{"bufferView":73,"componentType":5125,"count":8,"type":"SCALAR"},{"bufferView":74,"componentType":5126,"count":4,"type":"VEC3","min":[-13.930329322814941,34.749996185302734,-22.049999237060547],"max":[-10.309991836547852,44.95000076293945,-22.049999237060547]},{"bufferView":75,"componentType":5125,"count":8,"type":"SCALAR"},{"bufferView":76,"componentType":5126,"count":9,"type":"VEC3","min":[-10.459991455078125,34.749996185302734,-21.899999618530273],"max":[-10.459991455078125,44.95000076293945,-21.549999237060547]},{"bufferView":77,"componentType":5125,"count":18,"type":"SCALAR"},{"bufferView":78,"componentType":5126,"count":18,"type":"VEC3","min":[-10.309991836547852,34.749996185302734,-22.049999237060547],"max":[-10.309991836547852,44.95000076293945,-21.450000762939453]},{"bufferView":79,"componentType":5125,"count":36,"type":"SCALAR"},{"bufferView":80,"componentType":5126,"count":8,"type":"VEC3","min":[-14.634991645812988,34.749996185302734,-22.754657745361328],"max":[-10.309991836547852,34.75,-21.549999237060547]},{"bufferView":81,"componentType":5125,"count":16,"type":"SCALAR"},{"bufferView":82,"componentType":5126,"count":4,"type":"VEC3","min":[-14.634991645812988,34.900001525878906,-24.549999237060547],"max":[-14.186762809753418,34.900001525878906,-23.59918975830078]},{"bufferView":83,"componentType":5125,"count":8,"type":"SCALAR"},{"bufferView":84,"componentType":5126,"count":4,"type":"VEC3","min":[-14.634991645812988,36,-24.549999237060547],"max":[-14.320443153381348,38.29999923706055,-23.930509567260742]},{"bufferView":85,"componentType":5125,"count":8,"type":"SCALAR"},{"bufferView":86,"componentType":5126,"count":4,"type":"VEC3","min":[-14.634991645812988,38.29999923706055,-24.549999237060547],"max":[-14.186762809753418,38.29999923706055,-23.59918975830078]},{"bufferView":87,"componentType":5125,"count":8,"type":"SCALAR"},{"bufferView":88,"componentType":5126,"count":4,"type":"VEC3","min":[-14.634991645812988,36,-23.930509567260742],"max":[-14.634991645812988,38.29999923706055,-23.59918975830078]},{"bufferView":89,"componentType":5125,"count":8,"type":"SCALAR"},{"bufferView":90,"componentType":5126,"count":4,"type":"VEC3","min":[-14.634991645812988,36,-24.549999237060547],"max":[-14.186763763427734,36,-23.59918975830078]},{"bufferView":91,"componentType":5125,"count":8,"type":"SCALAR"},{"bufferView":92,"componentType":5126,"count":5,"type":"VEC3","min":[-14.320773124694824,34.900001525878906,-24.549999237060547],"max":[-14.186762809753418,36,-24.481956481933594]},{"bufferView":93,"componentType":5125,"count":10,"type":"SCALAR"},{"bufferView":94,"componentType":5126,"count":4,"type":"VEC3","min":[-14.634991645812988,39.400001525878906,-24.549999237060547],"max":[-14.320443153381348,41.70000076293945,-23.930509567260742]},{"bufferView":95,"componentType":5125,"count":8,"type":"SCALAR"},{"bufferView":96,"componentType":5126,"count":4,"type":"VEC3","min":[-14.634991645812988,41.70000076293945,-24.549999237060547],"max":[-14.186762809753418,41.70000076293945,-23.59918975830078]},{"bufferView":97,"componentType":5125,"count":8,"type":"SCALAR"},{"bufferView":98,"componentType":5126,"count":4,"type":"VEC3","min":[-14.634991645812988,39.400001525878906,-23.930509567260742],"max":[-14.634991645812988,41.70000076293945,-23.59918975830078]},{"bufferView":99,"componentType":5125,"count":8,"type":"SCALAR"},{"bufferView":100,"componentType":5126,"count":4,"type":"VEC3","min":[-14.634991645812988,39.400001525878906,-24.549999237060547],"max":[-14.186763763427734,39.400001525878906,-23.59918975830078]},{"bufferView":101,"componentType":5125,"count":8,"type":"SCALAR"},{"bufferView":102,"componentType":5126,"count":5,"type":"VEC3","min":[-14.320773124694824,38.29999923706055,-24.549999237060547],"max":[-14.186762809753418,39.400001525878906,-24.481956481933594]},{"bufferView":103,"componentType":5125,"count":10,"type":"SCALAR"},{"bufferView":104,"componentType":5126,"count":4,"type":"VEC3","min":[-14.634991645812988,42.79999923706055,-24.549999237060547],"max":[-14.186763763427734,42.79999923706055,-23.59918975830078]},{"bufferView":105,"componentType":5125,"count":8,"type":"SCALAR"},{"bufferView":106,"componentType":5126,"count":5,"type":"VEC3","min":[-14.320773124694824,41.70000076293945,-24.549999237060547],"max":[-14.186762809753418,42.79999923706055,-24.481956481933594]},{"bufferView":107,"componentType":5125,"count":10,"type":"SCALAR"},{"bufferView":108,"componentType":5126,"count":4,"type":"VEC3","min":[-14.634991645812988,42.79999923706055,-24.549999237060547],"max":[-14.320443153381348,44.95000076293945,-23.930509567260742]},{"bufferView":109,"componentType":5125,"count":8,"type":"SCALAR"},{"bufferView":110,"componentType":5126,"count":4,"type":"VEC3","min":[-14.634991645812988,42.79999923706055,-23.930509567260742],"max":[-14.634991645812988,44.95000076293945,-23.59918975830078]},{"bufferView":111,"componentType":5125,"count":8,"type":"SCALAR"},{"bufferView":112,"componentType":5126,"count":8,"type":"VEC3","min":[-14.709991455078125,44.95000076293945,-24.700000762939453],"max":[-8.659991264343262,44.95000076293945,-23.59918975830078]},{"bufferView":113,"componentType":5125,"count":16,"type":"SCALAR"},{"bufferView":114,"componentType":5126,"count":4,"type":"VEC3","min":[-14.634991645812988,34.749996185302734,-24.549999237060547],"max":[-14.320443153381348,34.900001525878906,-23.930509567260742]},{"bufferView":115,"componentType":5125,"count":8,"type":"SCALAR"},{"bufferView":116,"componentType":5126,"count":4,"type":"VEC3","min":[-14.634991645812988,34.749996185302734,-23.930509567260742],"max":[-14.634991645812988,34.900001525878906,-23.59918975830078]},{"bufferView":117,"componentType":5125,"count":8,"type":"SCALAR"},{"bufferView":118,"componentType":5126,"count":16,"type":"VEC3","min":[-14.634991645812988,34.749996185302734,-24.549999237060547],"max":[-14.152214050292969,44.95000076293945,-23.59918975830078]},{"bufferView":119,"componentType":5125,"count":32,"type":"SCALAR"},{"bufferView":120,"componentType":5126,"count":4,"type":"VEC3","min":[-14.709991455078125,34.749996185302734,-24.700000762939453],"max":[-14.709991455078125,44.95000076293945,-24.549999237060547]},{"bufferView":121,"componentType":5125,"count":8,"type":"SCALAR"},{"bufferView":122,"componentType":5126,"count":4,"type":"VEC3","min":[-8.659991264343262,34.749996185302734,-24.700000762939453],"max":[-8.659991264343262,44.95000076293945,-24.549999237060547]},{"bufferView":123,"componentType":5125,"count":8,"type":"SCALAR"},{"bufferView":124,"componentType":5126,"count":4,"type":"VEC3","min":[-14.709991455078125,34.749996185302734,-24.700000762939453],"max":[-8.659991264343262,44.95000076293945,-24.700000762939453]},{"bufferView":125,"componentType":5125,"count":8,"type":"SCALAR"},{"bufferView":126,"componentType":5126,"count":4,"type":"VEC3","min":[-14.152214050292969,34.749996185302734,-24.549999237060547],"max":[-8.659991264343262,44.95000076293945,-24.549999237060547]},{"bufferView":127,"componentType":5125,"count":8,"type":"SCALAR"},{"bufferView":128,"componentType":5126,"count":13,"type":"VEC3","min":[-14.709991455078125,34.749996185302734,-24.549999237060547],"max":[-14.320443153381348,44.95000076293945,-24.549999237060547]},{"bufferView":129,"componentType":5125,"count":26,"type":"SCALAR"},{"bufferView":130,"componentType":5126,"count":8,"type":"VEC3","min":[-14.709991455078125,34.749996185302734,-24.700000762939453],"max":[-8.659991264343262,34.749996185302734,-23.59918975830078]},{"bufferView":131,"componentType":5125,"count":16,"type":"SCALAR"},{"bufferView":132,"componentType":5126,"count":4,"type":"VEC3","min":[-14.634991645812988,44.95000076293945,-17.400985717773438],"max":[-11.284991264343262,44.95000076293945,-17.25098419189453]},{"bufferView":133,"componentType":5125,"count":8,"type":"SCALAR"},{"bufferView":134,"componentType":5126,"count":4,"type":"VEC3","min":[-14.634991645812988,34.749996185302734,-17.400985717773438],"max":[-14.634991645812988,44.95000076293945,-17.25098419189453]},{"bufferView":135,"componentType":5125,"count":8,"type":"SCALAR"},{"bufferView":136,"componentType":5126,"count":4,"type":"VEC3","min":[-11.284991264343262,34.749996185302734,-17.400985717773438],"max":[-11.284991264343262,44.95000076293945,-17.25098419189453]},{"bufferView":137,"componentType":5125,"count":8,"type":"SCALAR"},{"bufferView":138,"componentType":5126,"count":4,"type":"VEC3","min":[-14.634991645812988,34.749996185302734,-17.25098419189453],"max":[-11.284991264343262,44.95000076293945,-17.25098419189453]},{"bufferView":139,"componentType":5125,"count":8,"type":"SCALAR"},{"bufferView":140,"componentType":5126,"count":4,"type":"VEC3","min":[-14.634991645812988,34.749996185302734,-17.400985717773438],"max":[-11.284991264343262,44.95000076293945,-17.400985717773438]},{"bufferView":141,"componentType":5125,"count":8,"type":"SCALAR"},{"bufferView":142,"componentType":5126,"count":4,"type":"VEC3","min":[-14.634991645812988,34.749996185302734,-17.400985717773438],"max":[-11.284991264343262,34.749996185302734,-17.25098419189453]},{"bufferView":143,"componentType":5125,"count":8,"type":"SCALAR"},{"bufferView":144,"componentType":5126,"count":4,"type":"VEC3","min":[-11.284992218017578,44.95000076293945,-17.75],"max":[-8.659991264343262,44.95000076293945,-17.600000381469727]},{"bufferView":145,"componentType":5125,"count":8,"type":"SCALAR"},{"bufferView":146,"componentType":5126,"count":4,"type":"VEC3","min":[-11.284994125366211,34.749996185302734,-17.75],"max":[-11.284992218017578,44.95000076293945,-17.600000381469727]},{"bufferView":147,"componentType":5125,"count":8,"type":"SCALAR"},{"bufferView":148,"componentType":5126,"count":4,"type":"VEC3","min":[-8.659991264343262,34.749996185302734,-17.75],"max":[-8.659991264343262,44.95000076293945,-17.600000381469727]},{"bufferView":149,"componentType":5125,"count":8,"type":"SCALAR"},{"bufferView":150,"componentType":5126,"count":4,"type":"VEC3","min":[-11.284994125366211,34.749996185302734,-17.75],"max":[-8.659991264343262,44.95000076293945,-17.75]},{"bufferView":151,"componentType":5125,"count":8,"type":"SCALAR"},{"bufferView":152,"componentType":5126,"count":4,"type":"VEC3","min":[-11.284994125366211,34.749996185302734,-17.600000381469727],"max":[-8.659991264343262,44.95000076293945,-17.600000381469727]},{"bufferView":153,"componentType":5125,"count":8,"type":"SCALAR"},{"bufferView":154,"componentType":5126,"count":4,"type":"VEC3","min":[-11.284994125366211,34.749996185302734,-17.75],"max":[-8.659991264343262,34.749996185302734,-17.600000381469727]},{"bufferView":155,"componentType":5125,"count":8,"type":"SCALAR"},{"bufferView":156,"componentType":5126,"count":4,"type":"VEC3","min":[-9.634991645812988,34.900001525878906,-19.700000762939453],"max":[-9.634991645812988,37.32500076293945,-19.549999237060547]},{"bufferView":157,"componentType":5125,"count":8,"type":"SCALAR"},{"bufferView":158,"componentType":5126,"count":4,"type":"VEC3","min":[-10.784991264343262,37.32500076293945,-19.700000762939453],"max":[-9.634991645812988,37.32500076293945,-19.549999237060547]},{"bufferView":159,"componentType":5125,"count":8,"type":"SCALAR"},{"bufferView":160,"componentType":5126,"count":4,"type":"VEC3","min":[-10.784991264343262,34.900001525878906,-19.700000762939453],"max":[-10.784991264343262,37.32500076293945,-19.549999237060547]},{"bufferView":161,"componentType":5125,"count":8,"type":"SCALAR"},{"bufferView":162,"componentType":5126,"count":4,"type":"VEC3","min":[-12.064990997314453,34.900001525878906,-19.700000762939453],"max":[-12.064990997314453,37.32500076293945,-19.549999237060547]},{"bufferView":163,"componentType":5125,"count":8,"type":"SCALAR"},{"bufferView":164,"componentType":5126,"count":4,"type":"VEC3","min":[-13.214991569519043,37.32500076293945,-19.700000762939453],"max":[-12.064990997314453,37.32500076293945,-19.549999237060547]},{"bufferView":165,"componentType":5125,"count":8,"type":"SCALAR"},{"bufferView":166,"componentType":5126,"count":4,"type":"VEC3","min":[-13.214991569519043,34.900001525878906,-19.700000762939453],"max":[-13.214991569519043,37.32500076293945,-19.549999237060547]},{"bufferView":167,"componentType":5125,"count":8,"type":"SCALAR"},{"bufferView":168,"componentType":5126,"count":4,"type":"VEC3","min":[-8.659991264343262,37.07500076293945,-19.700000762939453],"max":[-8.659991264343262,38.29999923706055,-19.549999237060547]},{"bufferView":169,"componentType":5125,"count":8,"type":"SCALAR"},{"bufferView":170,"componentType":5126,"count":4,"type":"VEC3","min":[-8.759991645812988,37.07500076293945,-19.700000762939453],"max":[-8.659991264343262,37.07500076293945,-19.549999237060547]},{"bufferView":171,"componentType":5125,"count":8,"type":"SCALAR"},{"bufferView":172,"componentType":5126,"count":4,"type":"VEC3","min":[-8.759991645812988,34.900001525878906,-19.700000762939453],"max":[-8.759991645812988,37.07500076293945,-19.549999237060547]},{"bufferView":173,"componentType":5125,"count":8,"type":"SCALAR"},{"bufferView":174,"componentType":5126,"count":4,"type":"VEC3","min":[-9.634991645812988,38.29999923706055,-19.700000762939453],"max":[-9.634991645812988,40.724998474121094,-19.549999237060547]},{"bufferView":175,"componentType":5125,"count":8,"type":"SCALAR"},{"bufferView":176,"componentType":5126,"count":4,"type":"VEC3","min":[-10.784991264343262,40.724998474121094,-19.700000762939453],"max":[-9.634991645812988,40.724998474121094,-19.549999237060547]},{"bufferView":177,"componentType":5125,"count":8,"type":"SCALAR"},{"bufferView":178,"componentType":5126,"count":4,"type":"VEC3","min":[-10.784991264343262,38.29999923706055,-19.700000762939453],"max":[-10.784991264343262,40.724998474121094,-19.549999237060547]},{"bufferView":179,"componentType":5125,"count":8,"type":"SCALAR"},{"bufferView":180,"componentType":5126,"count":4,"type":"VEC3","min":[-12.064990997314453,38.29999923706055,-19.700000762939453],"max":[-12.064990997314453,40.724998474121094,-19.549999237060547]},{"bufferView":181,"componentType":5125,"count":8,"type":"SCALAR"},{"bufferView":182,"componentType":5126,"count":4,"type":"VEC3","min":[-13.214991569519043,40.724998474121094,-19.700000762939453],"max":[-12.064990997314453,40.724998474121094,-19.549999237060547]},{"bufferView":183,"componentType":5125,"count":8,"type":"SCALAR"},{"bufferView":184,"componentType":5126,"count":4,"type":"VEC3","min":[-13.214991569519043,38.29999923706055,-19.700000762939453],"max":[-13.214991569519043,40.724998474121094,-19.549999237060547]},{"bufferView":185,"componentType":5125,"count":8,"type":"SCALAR"},{"bufferView":186,"componentType":5126,"count":4,"type":"VEC3","min":[-8.659991264343262,40.474998474121094,-19.700000762939453],"max":[-8.659991264343262,41.70000076293945,-19.549999237060547]},{"bufferView":187,"componentType":5125,"count":8,"type":"SCALAR"},{"bufferView":188,"componentType":5126,"count":4,"type":"VEC3","min":[-8.759991645812988,40.474998474121094,-19.700000762939453],"max":[-8.659991264343262,40.474998474121094,-19.549999237060547]},{"bufferView":189,"componentType":5125,"count":8,"type":"SCALAR"},{"bufferView":190,"componentType":5126,"count":4,"type":"VEC3","min":[-8.759991645812988,38.29999923706055,-19.700000762939453],"max":[-8.759991645812988,40.474998474121094,-19.549999237060547]},{"bufferView":191,"componentType":5125,"count":8,"type":"SCALAR"},{"bufferView":192,"componentType":5126,"count":4,"type":"VEC3","min":[-9.634991645812988,41.70000076293945,-19.700000762939453],"max":[-9.634991645812988,44.125,-19.549999237060547]},{"bufferView":193,"componentType":5125,"count":8,"type":"SCALAR"},{"bufferView":194,"componentType":5126,"count":4,"type":"VEC3","min":[-10.784991264343262,44.125,-19.700000762939453],"max":[-9.634991645812988,44.125,-19.549999237060547]},{"bufferView":195,"componentType":5125,"count":8,"type":"SCALAR"},{"bufferView":196,"componentType":5126,"count":4,"type":"VEC3","min":[-10.784991264343262,41.70000076293945,-19.700000762939453],"max":[-10.784991264343262,44.125,-19.549999237060547]},{"bufferView":197,"componentType":5125,"count":8,"type":"SCALAR"},{"bufferView":198,"componentType":5126,"count":4,"type":"VEC3","min":[-12.064990997314453,41.70000076293945,-19.700000762939453],"max":[-12.064990997314453,44.125,-19.549999237060547]},{"bufferView":199,"componentType":5125,"count":8,"type":"SCALAR"},{"bufferView":200,"componentType":5126,"count":4,"type":"VEC3","min":[-13.214991569519043,44.125,-19.700000762939453],"max":[-12.064990997314453,44.125,-19.549999237060547]},{"bufferView":201,"componentType":5125,"count":8,"type":"SCALAR"},{"bufferView":202,"componentType":5126,"count":4,"type":"VEC3","min":[-13.214991569519043,41.70000076293945,-19.700000762939453],"max":[-13.214991569519043,44.125,-19.549999237060547]},{"bufferView":203,"componentType":5125,"count":8,"type":"SCALAR"},{"bufferView":204,"componentType":5126,"count":4,"type":"VEC3","min":[-8.759991645812988,43.875,-19.700000762939453],"max":[-8.659991264343262,43.875,-19.549999237060547]},{"bufferView":205,"componentType":5125,"count":8,"type":"SCALAR"},{"bufferView":206,"componentType":5126,"count":4,"type":"VEC3","min":[-8.759991645812988,41.70000076293945,-19.700000762939453],"max":[-8.759991645812988,43.875,-19.549999237060547]},{"bufferView":207,"componentType":5125,"count":8,"type":"SCALAR"},{"bufferView":208,"componentType":5126,"count":4,"type":"VEC3","min":[-8.759991645812988,41.70000076293945,-19.700000762939453],"max":[-8.659991264343262,41.70000076293945,-19.549999237060547]},{"bufferView":209,"componentType":5125,"count":8,"type":"SCALAR"},{"bufferView":210,"componentType":5126,"count":4,"type":"VEC3","min":[-10.784991264343262,41.70000076293945,-19.700000762939453],"max":[-9.634991645812988,41.70000076293945,-19.549999237060547]},{"bufferView":211,"componentType":5125,"count":8,"type":"SCALAR"},{"bufferView":212,"componentType":5126,"count":4,"type":"VEC3","min":[-13.214991569519043,41.70000076293945,-19.700000762939453],"max":[-12.064990997314453,41.70000076293945,-19.549999237060547]},{"bufferView":213,"componentType":5125,"count":8,"type":"SCALAR"},{"bufferView":214,"componentType":5126,"count":4,"type":"VEC3","min":[-8.759991645812988,38.29999923706055,-19.700000762939453],"max":[-8.659991264343262,38.29999923706055,-19.549999237060547]},{"bufferView":215,"componentType":5125,"count":8,"type":"SCALAR"},{"bufferView":216,"componentType":5126,"count":4,"type":"VEC3","min":[-10.784991264343262,38.29999923706055,-19.700000762939453],"max":[-9.634991645812988,38.29999923706055,-19.549999237060547]},{"bufferView":217,"componentType":5125,"count":8,"type":"SCALAR"},{"bufferView":218,"componentType":5126,"count":4,"type":"VEC3","min":[-13.214991569519043,38.29999923706055,-19.700000762939453],"max":[-12.064990997314453,38.29999923706055,-19.549999237060547]},{"bufferView":219,"componentType":5125,"count":8,"type":"SCALAR"},{"bufferView":220,"componentType":5126,"count":4,"type":"VEC3","min":[-8.759991645812988,34.900001525878906,-19.700000762939453],"max":[-8.659991264343262,34.900001525878906,-19.549999237060547]},{"bufferView":221,"componentType":5125,"count":8,"type":"SCALAR"},{"bufferView":222,"componentType":5126,"count":4,"type":"VEC3","min":[-10.784991264343262,34.900001525878906,-19.700000762939453],"max":[-9.634991645812988,34.900001525878906,-19.549999237060547]},{"bufferView":223,"componentType":5125,"count":8,"type":"SCALAR"},{"bufferView":224,"componentType":5126,"count":4,"type":"VEC3","min":[-13.214991569519043,34.900001525878906,-19.700000762939453],"max":[-12.064990997314453,34.900001525878906,-19.549999237060547]},{"bufferView":225,"componentType":5125,"count":8,"type":"SCALAR"},{"bufferView":226,"componentType":5126,"count":4,"type":"VEC3","min":[-8.659991264343262,43.875,-19.700000762939453],"max":[-8.659991264343262,44.95000076293945,-19.549999237060547]},{"bufferView":227,"componentType":5125,"count":8,"type":"SCALAR"},{"bufferView":228,"componentType":5126,"count":6,"type":"VEC3","min":[-13.934991836547852,44.95000076293945,-19.700000762939453],"max":[-8.659991264343262,44.95000076293945,-17.400001525878906]},{"bufferView":229,"componentType":5125,"count":12,"type":"SCALAR"},{"bufferView":230,"componentType":5126,"count":4,"type":"VEC3","min":[-8.659991264343262,34.749996185302734,-19.700000762939453],"max":[-8.659991264343262,34.900001525878906,-19.549999237060547]},{"bufferView":231,"componentType":5125,"count":8,"type":"SCALAR"},{"bufferView":232,"componentType":5126,"count":4,"type":"VEC3","min":[-13.934991836547852,34.749996185302734,-17.400001525878906],"max":[-13.784990310668945,44.95000076293945,-17.400001525878906]},{"bufferView":233,"componentType":5125,"count":8,"type":"SCALAR"},{"bufferView":234,"componentType":5126,"count":4,"type":"VEC3","min":[-13.934991836547852,34.749996185302734,-19.700000762939453],"max":[-13.934989929199219,44.95000076293945,-17.400001525878906]},{"bufferView":235,"componentType":5125,"count":8,"type":"SCALAR"},{"bufferView":236,"componentType":5126,"count":40,"type":"VEC3","min":[-13.784990310668945,34.749996185302734,-19.549999237060547],"max":[-8.659991264343262,44.95000076293945,-19.549999237060547]},{"bufferView":237,"componentType":5125,"count":80,"type":"SCALAR"},{"bufferView":238,"componentType":5126,"count":40,"type":"VEC3","min":[-13.934989929199219,34.749996185302734,-19.700000762939453],"max":[-8.659991264343262,44.95000076293945,-19.700000762939453]},{"bufferView":239,"componentType":5125,"count":80,"type":"SCALAR"},{"bufferView":240,"componentType":5126,"count":4,"type":"VEC3","min":[-13.784990310668945,34.749996185302734,-19.549999237060547],"max":[-13.784990310668945,44.95000076293945,-17.400001525878906]},{"bufferView":241,"componentType":5125,"count":8,"type":"SCALAR"},{"bufferView":242,"componentType":5126,"count":6,"type":"VEC3","min":[-13.934989929199219,34.749996185302734,-19.700000762939453],"max":[-8.659991264343262,34.749996185302734,-17.400001525878906]},{"bufferView":243,"componentType":5125,"count":12,"type":"SCALAR"},{"bufferView":244,"componentType":5126,"count":4,"type":"VEC3","min":[-11.4350004196167,44.95000076293945,-19.549999237060547],"max":[-11.284992218017578,44.95000076293945,-17.399999618530273]},{"bufferView":245,"componentType":5125,"count":8,"type":"SCALAR"},{"bufferView":246,"componentType":5126,"count":4,"type":"VEC3","min":[-11.4350004196167,34.749996185302734,-17.399999618530273],"max":[-11.28499984741211,44.95000076293945,-17.399999618530273]},{"bufferView":247,"componentType":5125,"count":8,"type":"SCALAR"},{"bufferView":248,"componentType":5126,"count":4,"type":"VEC3","min":[-11.4350004196167,34.749996185302734,-19.549999237060547],"max":[-11.434992790222168,44.95000076293945,-17.399999618530273]},{"bufferView":249,"componentType":5125,"count":8,"type":"SCALAR"},{"bufferView":250,"componentType":5126,"count":4,"type":"VEC3","min":[-11.434993743896484,34.749996185302734,-19.549999237060547],"max":[-11.284992218017578,44.95000076293945,-19.549999237060547]},{"bufferView":251,"componentType":5125,"count":8,"type":"SCALAR"},{"bufferView":252,"componentType":5126,"count":4,"type":"VEC3","min":[-11.28499984741211,34.749996185302734,-19.549999237060547],"max":[-11.284992218017578,44.95000076293945,-17.399999618530273]},{"bufferView":253,"componentType":5125,"count":8,"type":"SCALAR"},{"bufferView":254,"componentType":5126,"count":4,"type":"VEC3","min":[-11.4350004196167,34.749996185302734,-19.549999237060547],"max":[-11.284994125366211,34.749996185302734,-17.399999618530273]},{"bufferView":255,"componentType":5125,"count":8,"type":"SCALAR"},{"bufferView":256,"componentType":5126,"count":4,"type":"VEC3","min":[-14.634991645812988,34.900001525878906,-21.549999237060547],"max":[-11.799991607666016,38.150001525878906,-21.549999237060547]},{"bufferView":257,"componentType":5125,"count":8,"type":"SCALAR"},{"bufferView":258,"componentType":5126,"count":4,"type":"VEC3","min":[-14.634991645812988,34.900001525878906,-21.649999618530273],"max":[-14.634991645812988,38.150001525878906,-21.549999237060547]},{"bufferView":259,"componentType":5125,"count":8,"type":"SCALAR"},{"bufferView":260,"componentType":5126,"count":4,"type":"VEC3","min":[-14.634991645812988,34.900001525878906,-21.649999618530273],"max":[-11.799991607666016,34.900001525878906,-21.549999237060547]},{"bufferView":261,"componentType":5125,"count":8,"type":"SCALAR"},{"bufferView":262,"componentType":5126,"count":4,"type":"VEC3","min":[-11.799991607666016,34.900001525878906,-21.649999618530273],"max":[-11.799991607666016,38.150001525878906,-21.549999237060547]},{"bufferView":263,"componentType":5125,"count":8,"type":"SCALAR"},{"bufferView":264,"componentType":5126,"count":4,"type":"VEC3","min":[-14.634991645812988,38.150001525878906,-21.649999618530273],"max":[-11.799991607666016,38.150001525878906,-21.549999237060547]},{"bufferView":265,"componentType":5125,"count":8,"type":"SCALAR"},{"bufferView":266,"componentType":5126,"count":4,"type":"VEC3","min":[-14.634991645812988,34.900001525878906,-21.649999618530273],"max":[-11.799991607666016,38.150001525878906,-21.649999618530273]},{"bufferView":267,"componentType":5125,"count":8,"type":"SCALAR"},{"bufferView":268,"componentType":5126,"count":4,"type":"VEC3","min":[-14.634991645812988,41.70000076293945,-21.549999237060547],"max":[-11.799991607666016,44.95000076293945,-21.549999237060547]},{"bufferView":269,"componentType":5125,"count":8,"type":"SCALAR"},{"bufferView":270,"componentType":5126,"count":4,"type":"VEC3","min":[-14.634991645812988,41.70000076293945,-21.649999618530273],"max":[-14.634991645812988,44.95000076293945,-21.549999237060547]},{"bufferView":271,"componentType":5125,"count":8,"type":"SCALAR"},{"bufferView":272,"componentType":5126,"count":4,"type":"VEC3","min":[-14.634991645812988,41.70000076293945,-21.649999618530273],"max":[-11.799991607666016,41.70000076293945,-21.549999237060547]},{"bufferView":273,"componentType":5125,"count":8,"type":"SCALAR"},{"bufferView":274,"componentType":5126,"count":4,"type":"VEC3","min":[-11.799991607666016,41.70000076293945,-21.649999618530273],"max":[-11.799991607666016,44.95000076293945,-21.549999237060547]},{"bufferView":275,"componentType":5125,"count":8,"type":"SCALAR"},{"bufferView":276,"componentType":5126,"count":4,"type":"VEC3","min":[-14.634991645812988,44.95000076293945,-21.649999618530273],"max":[-11.799991607666016,44.95000076293945,-21.549999237060547]},{"bufferView":277,"componentType":5125,"count":8,"type":"SCALAR"},{"bufferView":278,"componentType":5126,"count":4,"type":"VEC3","min":[-14.634991645812988,41.70000076293945,-21.649999618530273],"max":[-11.799991607666016,44.95000076293945,-21.649999618530273]},{"bufferView":279,"componentType":5125,"count":8,"type":"SCALAR"},{"bufferView":280,"componentType":5126,"count":4,"type":"VEC3","min":[-14.634991645812988,38.29999923706055,-21.549999237060547],"max":[-11.799991607666016,41.54999923706055,-21.549999237060547]},{"bufferView":281,"componentType":5125,"count":8,"type":"SCALAR"},{"bufferView":282,"componentType":5126,"count":4,"type":"VEC3","min":[-14.634991645812988,38.29999923706055,-21.649999618530273],"max":[-14.634991645812988,41.54999923706055,-21.549999237060547]},{"bufferView":283,"componentType":5125,"count":8,"type":"SCALAR"},{"bufferView":284,"componentType":5126,"count":4,"type":"VEC3","min":[-14.634991645812988,38.29999923706055,-21.649999618530273],"max":[-11.799991607666016,38.29999923706055,-21.549999237060547]},{"bufferView":285,"componentType":5125,"count":8,"type":"SCALAR"},{"bufferView":286,"componentType":5126,"count":4,"type":"VEC3","min":[-11.799991607666016,38.29999923706055,-21.649999618530273],"max":[-11.799991607666016,41.54999923706055,-21.549999237060547]},{"bufferView":287,"componentType":5125,"count":8,"type":"SCALAR"},{"bufferView":288,"componentType":5126,"count":4,"type":"VEC3","min":[-14.634991645812988,41.54999923706055,-21.649999618530273],"max":[-11.799991607666016,41.54999923706055,-21.549999237060547]},{"bufferView":289,"componentType":5125,"count":8,"type":"SCALAR"},{"bufferView":290,"componentType":5126,"count":4,"type":"VEC3","min":[-14.634991645812988,38.29999923706055,-21.649999618530273],"max":[-11.799991607666016,41.54999923706055,-21.649999618530273]},{"bufferView":291,"componentType":5125,"count":8,"type":"SCALAR"}]}