{"asset":{"version":"2.0","generator":"BIM feature edges, 30 degrees"},"scene":0,"scenes":[{"nodes":[1],"extensions":{}}],"nodes":[{"mesh":0,"name":"DOR_鋼板防火門-單開1 標準(1P) [568914]"},{"children":[0,2,3,4,5,6,7,8,9],"name":"防火鋼門"},{"mesh":1,"name":"DOR_鋼板防火門-單開1 標準(1P) [568978]"},{"mesh":2,"name":"DOR_鋼板防火門-單開1 標準(1P) [568975]"},{"mesh":3,"name":"DOR_鋼板防火門-單開1 標準(1P) [568911]"},{"mesh":4,"name":"DOR_鋼板防火門-單開1 標準(1P) [567526]"},{"mesh":5,"name":"DOR_鋼板防火門-單開1 標準(1P) [567523]"},{"mesh":6,"name":"DOR_鋼板防火門-單開1 標準(1P) [466896]"},{"mesh":7,"name":"DOR_鋼板防火門-單開1 標準(1P) [466678]"},{"mesh":8,"name":"DOR_鋼板防火門-單開1 標準(1P) [466427]"}],"meshes":[{"primitives":[{"attributes":{"POSITION":0},"indices":1,"material":0,"mode":1}]},{"primitives":[{"attributes":{"POSITION":2},"indices":3,"material":0,"mode":1}]},{"primitives":[{"attributes":{"POSITION":4},"indices":5,"material":0,"mode":1}]},{"primitives":[{"attributes":{"POSITION":6},"indices":7,"material":0,"mode":1}]},{"primitives":[{"attributes":{"POSITION":8},"indices":9,"material":0,"mode":1}]},{"primitives":[{"attributes":{"POSITION":10},"indices":11,"material":0,"mode":1}]},{"primitives":[{"attributes":{"POSITION":12},"indices":13,"material":0,"mode":1}]},{"primitives":[{"attributes":{"POSITION":14},"indices":15,"material":0,"mode":1}]},{"primitives":[{"attributes":{"POSITION":16},"indices":17,"material":0,"mode":1}]}],"materials":[{"name":"白色線稿","pbrMetallicRoughness":{"baseColorFactor":[1,1,1,1],"metallicFactor":0,"roughnessFactor":1},"extensions":{"KHR_materials_unlit":{}}}],"extensionsUsed":["KHR_materials_unlit"],"buffers":[{"byteLength":4536,"uri":"data:application/octet-stream;base64,"}],"bufferViews":[{"buffer":0,"byteOffset":0,"byteLength":240,"target":34962},{"buffer":0,"byteOffset":240,"byteLength":264,"target":34963},{"buffer":0,"byteOffset":504,"byteLength":240,"target":34962},{"buffer":0,"byteOffset":744,"byteLength":264,"target":34963},{"buffer":0,"byteOffset":1008,"byteLength":240,"target":34962},{"buffer":0,"byteOffset":1248,"byteLength":264,"target":34963},{"buffer":0,"byteOffset":1512,"byteLength":240,"target":34962},{"buffer":0,"byteOffset":1752,"byteLength":264,"target":34963},{"buffer":0,"byteOffset":2016,"byteLength":240,"target":34962},{"buffer":0,"byteOffset":2256,"byteLength":264,"target":34963},{"buffer":0,"byteOffset":2520,"byteLength":240,"target":34962},{"buffer":0,"byteOffset":2760,"byteLength":264,"target":34963},{"buffer":0,"byteOffset":3024,"byteLength":240,"target":34962},{"buffer":0,"byteOffset":3264,"byteLength":264,"target":34963},{"buffer":0,"byteOffset":3528,"byteLength":240,"target":34962},{"buffer":0,"byteOffset":3768,"byteLength":264,"target":34963},{"buffer":0,"byteOffset":4032,"byteLength":240,"target":34962},{"buffer":0,"byteOffset":4272,"byteLength":264,"target":34963}],"accessors":[{"bufferView":0,"componentType":5126,"count":20,"type":"VEC3","min":[-10.204999923706055,41.70000076293945,-17.60321807861328],"max":[-10.085000038146973,43.900001525878906,-16.60321807861328]},{"bufferView":1,"componentType":5125,"count":66,"type":"SCALAR"},{"bufferView":2,"componentType":5126,"count":20,"type":"VEC3","min":[-10.204999923706055,38.29999923706055,-17.60321807861328],"max":[-10.085000038146973,40.5,-16.60321807861328]},{"bufferView":3,"componentType":5125,"count":66,"type":"SCALAR"},{"bufferView":4,"componentType":5126,"count":20,"type":"VEC3","min":[-10.309990882873535,38.29999923706055,-21.55000114440918],"max":[-9.309990882873535,40.5,-21.43000030517578]},{"bufferView":5,"componentType":5125,"count":66,"type":"SCALAR"},{"bufferView":6,"componentType":5126,"count":20,"type":"VEC3","min":[-10.309990882873535,41.70000076293945,-21.55000114440918],"max":[-9.309990882873535,43.900001525878906,-21.43000030517578]},{"bufferView":7,"componentType":5125,"count":66,"type":"SCALAR"},{"bufferView":8,"componentType":5126,"count":20,"type":"VEC3","min":[-10.204999923706055,34.900001525878906,-17.60321807861328],"max":[-10.085000038146973,37.099998474121094,-16.60321807861328]},{"bufferView":9,"componentType":5125,"count":66,"type":"SCALAR"},{"bufferView":10,"componentType":5126,"count":20,"type":"VEC3","min":[-10.309990882873535,34.900001525878906,-21.55000114440918],"max":[-9.309990882873535,37.099998474121094,-21.43000030517578]},{"bufferView":11,"componentType":5125,"count":66,"type":"SCALAR"},{"bufferView":12,"componentType":5126,"count":20,"type":"VEC3","min":[-8.779991149902344,41.70000076293945,-17.600000381469727],"max":[-8.659991264343262,43.900001525878906,-16.600000381469727]},{"bufferView":13,"componentType":5125,"count":66,"type":"SCALAR"},{"bufferView":14,"componentType":5126,"count":20,"type":"VEC3","min":[-8.779991149902344,38.29999923706055,-17.600000381469727],"max":[-8.659991264343262,40.5,-16.600000381469727]},{"bufferView":15,"componentType":5125,"count":66,"type":"SCALAR"},{"bufferView":16,"componentType":5126,"count":20,"type":"VEC3","min":[-8.779991149902344,34.900001525878906,-17.600000381469727],"max":[-8.659991264343262,37.099998474121094,-16.600000381469727]},{"bufferView":17,"componentType":5125,"count":66,"type":"SCALAR"}]}