{"asset":{"version":"2.0","generator":"BIM feature edges, 30 degrees"},"scene":0,"scenes":[{"nodes":[1,14,17],"extensions":{}}],"nodes":[{"mesh":0},{"children":[0,2,3,4,5,6,7,8,9,10,11,12,39,40,41,42,43,44,45,46,47,48],"name":"樓梯"},{"mesh":1},{"mesh":2},{"mesh":3},{"mesh":4},{"mesh":5},{"mesh":6},{"mesh":7},{"mesh":8},{"mesh":9,"name":"樓梯 5 樓梯 1 [842790]"},{"mesh":10,"name":"樓梯 4 樓梯 1 [842770]"},{"mesh":11,"name":"樓梯 3 樓梯 1 [842746]"},{"mesh":12},{"children":[13,15],"name":"樓梯扶手"},{"mesh":13},{"mesh":14},{"children":[16,18,19,20,21,22,23,24,25,26,27,28,29,30,31,32,33,34,35,36,37,38],"name":"欄杆支撐"},{"mesh":15},{"mesh":16},{"mesh":17},{"mesh":18},{"mesh":19},{"mesh":20},{"mesh":21},{"mesh":22},{"mesh":23},{"mesh":24},{"mesh":25},{"mesh":26},{"mesh":27},{"mesh":28},{"mesh":29},{"mesh":30},{"mesh":31},{"mesh":32},{"mesh":33},{"mesh":34},{"mesh":35},{"mesh":36},{"mesh":37},{"mesh":38},{"mesh":39},{"mesh":40},{"mesh":41},{"mesh":42},{"mesh":43},{"mesh":44},{"mesh":45}],"meshes":[{"primitives":[{"attributes":{"POSITION":0},"indices":1,"material":0,"mode":1}]},{"primitives":[{"attributes":{"POSITION":2},"indices":3,"material":0,"mode":1}]},{"primitives":[{"attributes":{"POSITION":4},"indices":5,"material":0,"mode":1}]},{"primitives":[{"attributes":{"POSITION":6},"indices":7,"material":0,"mode":1}]},{"primitives":[{"attributes":{"POSITION":8},"indices":9,"material":0,"mode":1}]},{"primitives":[{"attributes":{"POSITION":10},"indices":11,"material":0,"mode":1}]},{"primitives":[{"attributes":{"POSITION":12},"indices":13,"material":0,"mode":1}]},{"primitives":[{"attributes":{"POSITION":14},"indices":15,"material":0,"mode":1}]},{"primitives":[{"attributes":{"POSITION":16},"indices":17,"material":0,"mode":1}]},{"primitives":[{"attributes":{"POSITION":18},"indices":19,"material":0,"mode":1}]},{"primitives":[{"attributes":{"POSITION":20},"indices":21,"material":0,"mode":1}]},{"primitives":[{"attributes":{"POSITION":22},"indices":23,"material":0,"mode":1}]},{"primitives":[{"attributes":{"POSITION":24},"indices":25,"material":0,"mode":1}]},{"primitives":[{"attributes":{"POSITION":26},"indices":27,"material":0,"mode":1}]},{"primitives":[{"attributes":{"POSITION":28},"indices":29,"material":0,"mode":1}]},{"primitives":[{"attributes":{"POSITION":30},"indices":31,"material":0,"mode":1}]},{"primitives":[{"attributes":{"POSITION":32},"indices":33,"material":0,"mode":1}]},{"primitives":[{"attributes":{"POSITION":34},"indices":35,"material":0,"mode":1}]},{"primitives":[{"attributes":{"POSITION":36},"indices":37,"material":0,"mode":1}]},{"primitives":[{"attributes":{"POSITION":38},"indices":39,"material":0,"mode":1}]},{"primitives":[{"attributes":{"POSITION":40},"indices":41,"material":0,"mode":1}]},{"primitives":[{"attributes":{"POSITION":42},"indices":43,"material":0,"mode":1}]},{"primitives":[{"attributes":{"POSITION":44},"indices":45,"material":0,"mode":1}]},{"primitives":[{"attributes":{"POSITION":46},"indices":47,"material":0,"mode":1}]},{"primitives":[{"attributes":{"POSITION":48},"indices":49,"material":0,"mode":1}]},{"primitives":[{"attributes":{"POSITION":50},"indices":51,"material":0,"mode":1}]},{"primitives":[{"attributes":{"POSITION":52},"indices":53,"material":0,"mode":1}]},{"primitives":[{"attributes":{"POSITION":54},"indices":55,"material":0,"mode":1}]},{"primitives":[{"attributes":{"POSITION":56},"indices":57,"material":0,"mode":1}]},{"primitives":[{"attributes":{"POSITION":58},"indices":59,"material":0,"mode":1}]},{"primitives":[{"attributes":{"POSITION":60},"indices":61,"material":0,"mode":1}]},{"primitives":[{"attributes":{"POSITION":62},"indices":63,"material":0,"mode":1}]},{"primitives":[{"attributes":{"POSITION":64},"indices":65,"material":0,"mode":1}]},{"primitives":[{"attributes":{"POSITION":66},"indices":67,"material":0,"mode":1}]},{"primitives":[{"attributes":{"POSITION":68},"indices":69,"material":0,"mode":1}]},{"primitives":[{"attributes":{"POSITION":70},"indices":71,"material":0,"mode":1}]},{"primitives":[{"attributes":{"POSITION":72},"indices":73,"material":0,"mode":1}]},{"primitives":[{"attributes":{"POSITION":74},"indices":75,"material":0,"mode":1}]},{"primitives":[{"attributes":{"POSITION":76},"indices":77,"material":0,"mode":1}]},{"primitives":[{"attributes":{"POSITION":78},"indices":79,"material":0,"mode":1}]},{"primitives":[{"attributes":{"POSITION":80},"indices":81,"material":0,"mode":1}]},{"primitives":[{"attributes":{"POSITION":82},"indices":83,"material":0,"mode":1}]},{"primitives":[{"attributes":{"POSITION":84},"indices":85,"material":0,"mode":1}]},{"primitives":[{"attributes":{"POSITION":86},"indices":87,"material":0,"mode":1}]},{"primitives":[{"attributes":{"POSITION":88},"indices":89,"material":0,"mode":1}]},{"primitives":[{"attributes":{"POSITION":90},"indices":91,"material":0,"mode":1}]}],"materials":[{"name":"白色線稿","pbrMetallicRoughness":{"baseColorFactor":[1,1,1,1],"metallicFactor":0,"roughnessFactor":1},"extensions":{"KHR_materials_unlit":{}}}],"extensionsUsed":["KHR_materials_unlit"],"buffers":[{"byteLength":37032,"uri":"data:application/octet-stream;base64,"}],"bufferViews":[{"buffer":0,"byteOffset":0,"byteLength":768,"target":34962},{"buffer":0,"byteOffset":768,"byteLength":696,"target":34963},{"buffer":0,"byteOffset":1464,"byteLength":288,"target":34962},{"buffer":0,"byteOffset":1752,"byteLength":264,"target":34963},{"buffer":0,"byteOffset":2016,"byteLength":156,"target":34962},{"buffer":0,"byteOffset":2172,"byteLength":144,"target":34963},{"buffer":0,"byteOffset":2316,"byteLength":156,"target":34962},{"buffer":0,"byteOffset":2472,"byteLength":144,"target":34963},{"buffer":0,"byteOffset":2616,"byteLength":696,"target":34962},{"buffer":0,"byteOffset":3312,"byteLength":632,"target":34963},{"buffer":0,"byteOffset":3944,"byteLength":156,"target":34962},{"buffer":0,"byteOffset":4100,"byteLength":144,"target":34963},{"buffer":0,"byteOffset":4244,"byteLength":768,"target":34962},{"buffer":0,"byteOffset":5012,"byteLength":696,"target":34963},{"buffer":0,"byteOffset":5708,"byteLength":288,"target":34962},{"buffer":0,"byteOffset":5996,"byteLength":264,"target":34963},{"buffer":0,"byteOffset":6260,"byteLength":288,"target":34962},{"buffer":0,"byteOffset":6548,"byteLength":264,"target":34963},{"buffer":0,"byteOffset":6812,"byteLength":72,"target":34962},{"buffer":0,"byteOffset":6884,"byteLength":72,"target":34963},{"buffer":0,"byteOffset":6956,"byteLength":72,"target":34962},{"buffer":0,"byteOffset":7028,"byteLength":72,"target":34963},{"buffer":0,"byteOffset":7100,"byteLength":72,"target":34962},{"buffer":0,"byteOffset":7172,"byteLength":72,"target":34963},{"buffer":0,"byteOffset":7244,"byteLength":2988,"target":34962},{"buffer":0,"byteOffset":10232,"byteLength":1976,"target":34963},{"buffer":0,"byteOffset":12208,"byteLength":4344,"target":34962},{"buffer":0,"byteOffset":16552,"byteLength":2848,"target":34963},{"buffer":0,"byteOffset":19400,"byteLength":96,"target":34962},{"buffer":0,"byteOffset":19496,"byteLength":96,"target":34963},{"buffer":0,"byteOffset":19592,"byteLength":96,"target":34962},{"buffer":0,"byteOffset":19688,"byteLength":96,"target":34963},{"buffer":0,"byteOffset":19784,"byteLength":96,"target":34962},{"buffer":0,"byteOffset":19880,"byteLength":96,"target":34963},{"buffer":0,"byteOffset":19976,"byteLength":96,"target":34962},{"buffer":0,"byteOffset":20072,"byteLength":96,"target":34963},{"buffer":0,"byteOffset":20168,"byteLength":96,"target":34962},{"buffer":0,"byteOffset":20264,"byteLength":96,"target":34963},{"buffer":0,"byteOffset":20360,"byteLength":96,"target":34962},{"buffer":0,"byteOffset":20456,"byteLength":96,"target":34963},{"buffer":0,"byteOffset":20552,"byteLength":96,"target":34962},{"buffer":0,"byteOffset":20648,"byteLength":96,"target":34963},{"buffer":0,"byteOffset":20744,"byteLength":96,"target":34962},{"buffer":0,"byteOffset":20840,"byteLength":96,"target":34963},{"buffer":0,"byteOffset":20936,"byteLength":96,"target":34962},{"buffer":0,"byteOffset":21032,"byteLength":96,"target":34963},{"buffer":0,"byteOffset":21128,"byteLength":96,"target":34962},{"buffer":0,"byteOffset":21224,"byteLength":96,"target":34963},{"buffer":0,"byteOffset":21320,"byteLength":96,"target":34962},{"buffer":0,"byteOffset":21416,"byteLength":96,"target":34963},{"buffer":0,"byteOffset":21512,"byteLength":96,"target":34962},{"buffer":0,"byteOffset":21608,"byteLength":96,"target":34963},{"buffer":0,"byteOffset":21704,"byteLength":96,"target":34962},{"buffer":0,"byteOffset":21800,"byteLength":96,"target":34963},{"buffer":0,"byteOffset":21896,"byteLength":96,"target":34962},{"buffer":0,"byteOffset":21992,"byteLength":96,"target":34963},{"buffer":0,"byteOffset":22088,"byteLength":96,"target":34962},{"buffer":0,"byteOffset":22184,"byteLength":96,"target":34963},{"buffer":0,"byteOffset":22280,"byteLength":96,"target":34962},{"buffer":0,"byteOffset":22376,"byteLength":96,"target":34963},{"buffer":0,"byteOffset":22472,"byteLength":96,"target":34962},{"buffer":0,"byteOffset":22568,"byteLength":96,"target":34963},{"buffer":0,"byteOffset":22664,"byteLength":96,"target":34962},{"buffer":0,"byteOffset":22760,"byteLength":96,"target":34963},{"buffer":0,"byteOffset":22856,"byteLength":96,"target":34962},{"buffer":0,"byteOffset":22952,"byteLength":96,"target":34963},{"buffer":0,"byteOffset":23048,"byteLength":96,"target":34962},{"buffer":0,"byteOffset":23144,"byteLength":96,"target":34963},{"buffer":0,"byteOffset":23240,"byteLength":96,"target":34962},{"buffer":0,"byteOffset":23336,"byteLength":96,"target":34963},{"buffer":0,"byteOffset":23432,"byteLength":96,"target":34962},{"buffer":0,"byteOffset":23528,"byteLength":96,"target":34963},{"buffer":0,"byteOffset":23624,"byteLength":816,"target":34962},{"buffer":0,"byteOffset":24440,"byteLength":728,"target":34963},{"buffer":0,"byteOffset":25168,"byteLength":720,"target":34962},{"buffer":0,"byteOffset":25888,"byteLength":648,"target":34963},{"buffer":0,"byteOffset":26536,"byteLength":696,"target":34962},{"buffer":0,"byteOffset":27232,"byteLength":632,"target":34963},{"buffer":0,"byteOffset":27864,"byteLength":720,"target":34962},{"buffer":0,"byteOffset":28584,"byteLength":648,"target":34963},{"buffer":0,"byteOffset":29232,"byteLength":696,"target":34962},{"buffer":0,"byteOffset":29928,"byteLength":632,"target":34963},{"buffer":0,"byteOffset":30560,"byteLength":720,"target":34962},{"buffer":0,"byteOffset":31280,"byteLength":648,"target":34963},{"buffer":0,"byteOffset":31928,"byteLength":816,"target":34962},{"buffer":0,"byteOffset":32744,"byteLength":728,"target":34963},{"buffer":0,"byteOffset":33472,"byteLength":288,"target":34962},{"buffer":0,"byteOffset":33760,"byteLength":264,"target":34963},{"buffer":0,"byteOffset":34024,"byteLength":816,"target":34962},{"buffer":0,"byteOffset":34840,"byteLength":728,"target":34963},{"buffer":0,"byteOffset":35568,"byteLength":768,"target":34962},{"buffer":0,"byteOffset":36336,"byteLength":696,"target":34963}],"accessors":[{"bufferView":0,"componentType":5126,"count":64,"type":"VEC3","min":[-13.38999080657959,34.75,-23.25],"max":[-10.78999137878418,36.44545364379883,-22.05000114440918]},{"bufferView":1,"componentType":5125,"count":174,"type":"SCALAR"},{"bufferView":2,"componentType":5126,"count":24,"type":"VEC3","min":[-14.634991645812988,36.27095413208008,-24.549999237060547],"max":[-13.12999153137207,36.60000228881836,-22.05000114440918]},{"bufferView":3,"componentType":5125,"count":66,"type":"SCALAR"},{"bufferView":4,"componentType":5126,"count":13,"type":"VEC3","min":[-14.634991645812988,43.250003814697266,-15.950000762939453],"max":[-13.409990310668945,43.400001525878906,-14.649999618530273]},{"bufferView":5,"componentType":5125,"count":36,"type":"SCALAR"},{"bufferView":6,"componentType":5126,"count":13,"type":"VEC3","min":[-14.634991645812988,39.849998474121094,-15.950000762939453],"max":[-13.409990310668945,40,-14.649999618530273]},{"bufferView":7,"componentType":5125,"count":36,"type":"SCALAR"},{"bufferView":8,"componentType":5126,"count":58,"type":"VEC3","min":[-14.634991645812988,34.75,-17.250986099243164],"max":[-11.72999095916748,36.411109924316406,-15.950000762939453]},{"bufferView":9,"componentType":5125,"count":158,"type":"SCALAR"},{"bufferView":10,"componentType":5126,"count":13,"type":"VEC3","min":[-14.634991645812988,36.45000076293945,-15.950000762939453],"max":[-13.409990310668945,36.60000228881836,-14.649999618530273]},{"bufferView":11,"componentType":5125,"count":36,"type":"SCALAR"},{"bufferView":12,"componentType":5126,"count":64,"type":"VEC3","min":[-13.38999080657959,41.54999923706055,-23.25],"max":[-10.78999137878418,43.245452880859375,-22.05000114440918]},{"bufferView":13,"componentType":5125,"count":174,"type":"SCALAR"},{"bufferView":14,"componentType":5126,"count":24,"type":"VEC3","min":[-14.634991645812988,43.07095718383789,-24.549999237060547],"max":[-13.12999153137207,43.400001525878906,-22.05000114440918]},{"bufferView":15,"componentType":5125,"count":66,"type":"SCALAR"},{"bufferView":16,"componentType":5126,"count":24,"type":"VEC3","min":[-14.634991645812988,39.670955657958984,-24.549999237060547],"max":[-13.12999153137207,40,-22.05000114440918]},{"bufferView":17,"componentType":5125,"count":66,"type":"SCALAR"},{"bufferView":18,"componentType":5126,"count":6,"type":"VEC3","min":[-14.709991455078125,36.2611083984375,-15.950000762939453],"max":[-13.409990310668945,36.45000076293945,-15.76111125946045]},{"bufferView":19,"componentType":5125,"count":18,"type":"SCALAR"},{"bufferView":20,"componentType":5126,"count":6,"type":"VEC3","min":[-14.709991455078125,39.661109924316406,-15.950000762939453],"max":[-13.409990310668945,39.85000228881836,-15.76111125946045]},{"bufferView":21,"componentType":5125,"count":18,"type":"SCALAR"},{"bufferView":22,"componentType":5126,"count":6,"type":"VEC3","min":[-14.709991455078125,43.06111145019531,-15.950000762939453],"max":[-13.409990310668945,43.25,-15.76111125946045]},{"bufferView":23,"componentType":5125,"count":18,"type":"SCALAR"},{"bufferView":24,"componentType":5126,"count":249,"type":"VEC3","min":[-13.480391502380371,35.60801315307617,-23.440399169921875],"max":[-10.529991149902344,38.900001525878906,-23.15960121154785]},{"bufferView":25,"componentType":5125,"count":494,"type":"SCALAR"},{"bufferView":26,"componentType":5126,"count":362,"type":"VEC3","min":[-13.41539192199707,34.900001525878906,-23.385616302490234],"max":[-10.479991912841797,39.04999923706055,-23.22460174560547]},{"bufferView":27,"componentType":5125,"count":712,"type":"SCALAR"},{"bufferView":28,"componentType":5126,"count":8,"type":"VEC3","min":[-12.012691497802734,35.672725677490234,-23.254600524902344],"max":[-11.992691040039062,36.48479080200195,-23.234600067138672]},{"bufferView":29,"componentType":5125,"count":24,"type":"SCALAR"},{"bufferView":30,"componentType":5126,"count":8,"type":"VEC3","min":[-12.112690925598145,35.827274322509766,-23.254600524902344],"max":[-12.092691421508789,36.54423141479492,-23.234600067138672]},{"bufferView":31,"componentType":5125,"count":24,"type":"SCALAR"},{"bufferView":32,"componentType":5126,"count":8,"type":"VEC3","min":[-12.212691307067871,35.827274322509766,-23.254600524902344],"max":[-12.1926908493042,36.60367202758789,-23.234600067138672]},{"bufferView":33,"componentType":5125,"count":24,"type":"SCALAR"},{"bufferView":34,"componentType":5126,"count":8,"type":"VEC3","min":[-12.312691688537598,35.827274322509766,-23.254600524902344],"max":[-12.292691230773926,36.66311264038086,-23.234600067138672]},{"bufferView":35,"componentType":5125,"count":24,"type":"SCALAR"},{"bufferView":36,"componentType":5126,"count":8,"type":"VEC3","min":[-12.412691116333008,35.98181915283203,-23.254600524902344],"max":[-12.392691612243652,36.72255325317383,-23.234600067138672]},{"bufferView":37,"componentType":5125,"count":24,"type":"SCALAR"},{"bufferView":38,"componentType":5126,"count":8,"type":"VEC3","min":[-13.012691497802734,36.29090881347656,-23.254600524902344],"max":[-12.992691040039062,37.07919692993164,-23.234600067138672]},{"bufferView":39,"componentType":5125,"count":24,"type":"SCALAR"},{"bufferView":40,"componentType":5126,"count":8,"type":"VEC3","min":[-13.112690925598145,36.29090881347656,-23.254600524902344],"max":[-13.092691421508789,37.13863754272461,-23.234600067138672]},{"bufferView":41,"componentType":5125,"count":24,"type":"SCALAR"},{"bufferView":42,"componentType":5126,"count":8,"type":"VEC3","min":[-13.212691307067871,36.44545364379883,-23.254600524902344],"max":[-13.1926908493042,37.19807815551758,-23.234600067138672]},{"bufferView":43,"componentType":5125,"count":24,"type":"SCALAR"},{"bufferView":44,"componentType":5126,"count":8,"type":"VEC3","min":[-13.312691688537598,36.44545364379883,-23.254600524902344],"max":[-13.292691230773926,37.25751876831055,-23.234600067138672]},{"bufferView":45,"componentType":5125,"count":24,"type":"SCALAR"},{"bufferView":46,"componentType":5126,"count":8,"type":"VEC3","min":[-13.412691116333008,36.599998474121094,-23.254600524902344],"max":[-13.392691612243652,37.316959381103516,-23.234600067138672]},{"bufferView":47,"componentType":5125,"count":24,"type":"SCALAR"},{"bufferView":48,"componentType":5126,"count":8,"type":"VEC3","min":[-13.405391693115234,36.599998474121094,-23.260000228881836],"max":[-13.385391235351562,37.310001373291016,-23.239999771118164]},{"bufferView":49,"componentType":5125,"count":24,"type":"SCALAR"},{"bufferView":50,"componentType":5126,"count":8,"type":"VEC3","min":[-13.405391693115234,36.599998474121094,-23.360000610351562],"max":[-13.385391235351562,37.310001373291016,-23.34000015258789]},{"bufferView":51,"componentType":5125,"count":24,"type":"SCALAR"},{"bufferView":52,"componentType":5126,"count":8,"type":"VEC3","min":[-13.382691383361816,36.599998474121094,-23.365400314331055],"max":[-13.362690925598145,37.31969451904297,-23.345399856567383]},{"bufferView":53,"componentType":5125,"count":24,"type":"SCALAR"},{"bufferView":54,"componentType":5126,"count":8,"type":"VEC3","min":[-13.28269100189209,36.599998474121094,-23.365400314331055],"max":[-13.262691497802734,37.37913513183594,-23.345399856567383]},{"bufferView":55,"componentType":5125,"count":24,"type":"SCALAR"},{"bufferView":56,"componentType":5126,"count":8,"type":"VEC3","min":[-13.18269157409668,36.599998474121094,-23.365400314331055],"max":[-13.162691116333008,37.438575744628906,-23.345399856567383]},{"bufferView":57,"componentType":5125,"count":24,"type":"SCALAR"},{"bufferView":58,"componentType":5126,"count":8,"type":"VEC3","min":[-13.03999137878418,36.754547119140625,-23.365400314331055],"max":[-13.019990921020508,37.52339553833008,-23.345399856567383]},{"bufferView":59,"componentType":5125,"count":24,"type":"SCALAR"},{"bufferView":60,"componentType":5126,"count":8,"type":"VEC3","min":[-12.439990997314453,37.063636779785156,-23.365400314331055],"max":[-12.419991493225098,37.88003921508789,-23.345399856567383]},{"bufferView":61,"componentType":5125,"count":24,"type":"SCALAR"},{"bufferView":62,"componentType":5126,"count":8,"type":"VEC3","min":[-12.339991569519043,37.21818161010742,-23.365400314331055],"max":[-12.319991111755371,37.93947982788086,-23.345399856567383]},{"bufferView":63,"componentType":5125,"count":24,"type":"SCALAR"},{"bufferView":64,"componentType":5126,"count":8,"type":"VEC3","min":[-12.239991188049316,37.21818161010742,-23.365400314331055],"max":[-12.219991683959961,37.99892044067383,-23.345399856567383]},{"bufferView":65,"componentType":5125,"count":24,"type":"SCALAR"},{"bufferView":66,"componentType":5126,"count":8,"type":"VEC3","min":[-12.139991760253906,37.21818161010742,-23.365400314331055],"max":[-12.119991302490234,38.0583610534668,-23.345399856567383]},{"bufferView":67,"componentType":5125,"count":24,"type":"SCALAR"},{"bufferView":68,"componentType":5126,"count":8,"type":"VEC3","min":[-12.03999137878418,37.37272644042969,-23.365400314331055],"max":[-12.019990921020508,38.117801666259766,-23.345399856567383]},{"bufferView":69,"componentType":5125,"count":24,"type":"SCALAR"},{"bufferView":70,"componentType":5126,"count":8,"type":"VEC3","min":[-11.939990997314453,37.37272644042969,-23.365400314331055],"max":[-11.919991493225098,38.177242279052734,-23.345399856567383]},{"bufferView":71,"componentType":5125,"count":24,"type":"SCALAR"},{"bufferView":72,"componentType":5126,"count":68,"type":"VEC3","min":[-13.12999153137207,36.45000076293945,-24.549999237060547],"max":[-10.529991149902344,38.14545440673828,-23.350000381469727]},{"bufferView":73,"componentType":5125,"count":182,"type":"SCALAR"},{"bufferView":74,"componentType":5126,"count":60,"type":"VEC3","min":[-13.409990310668945,43.250003814697266,-15.950000762939453],"max":[-10.504988670349121,44.911109924316406,-14.649999618530273]},{"bufferView":75,"componentType":5125,"count":162,"type":"SCALAR"},{"bufferView":76,"componentType":5126,"count":58,"type":"VEC3","min":[-14.634991645812988,41.54999923706055,-17.250986099243164],"max":[-11.72999095916748,43.21111297607422,-15.950000762939453]},{"bufferView":77,"componentType":5125,"count":158,"type":"SCALAR"},{"bufferView":78,"componentType":5126,"count":60,"type":"VEC3","min":[-13.409990310668945,39.849998474121094,-15.950000762939453],"max":[-10.504988670349121,41.511112213134766,-14.649999618530273]},{"bufferView":79,"componentType":5125,"count":162,"type":"SCALAR"},{"bufferView":80,"componentType":5126,"count":58,"type":"VEC3","min":[-14.634991645812988,38.14999771118164,-17.250986099243164],"max":[-11.72999095916748,39.81110763549805,-15.950000762939453]},{"bufferView":81,"componentType":5125,"count":158,"type":"SCALAR"},{"bufferView":82,"componentType":5126,"count":60,"type":"VEC3","min":[-13.409990310668945,36.45000076293945,-15.950000762939453],"max":[-10.504988670349121,38.11111068725586,-14.649999618530273]},{"bufferView":83,"componentType":5125,"count":162,"type":"SCALAR"},{"bufferView":84,"componentType":5126,"count":68,"type":"VEC3","min":[-13.12999153137207,43.250003814697266,-24.549999237060547],"max":[-10.529991149902344,44.945457458496094,-23.350000381469727]},{"bufferView":85,"componentType":5125,"count":182,"type":"SCALAR"},{"bufferView":86,"componentType":5126,"count":24,"type":"VEC3","min":[-14.634991645812988,39.670955657958984,-24.549999237060547],"max":[-13.12999153137207,40,-22.05000114440918]},{"bufferView":87,"componentType":5125,"count":66,"type":"SCALAR"},{"bufferView":88,"componentType":5126,"count":68,"type":"VEC3","min":[-13.12999153137207,39.849998474121094,-24.549999237060547],"max":[-10.529991149902344,41.54545593261719,-23.350000381469727]},{"bufferView":89,"componentType":5125,"count":182,"type":"SCALAR"},{"bufferView":90,"componentType":5126,"count":64,"type":"VEC3","min":[-13.38999080657959,38.14999771118164,-23.25],"max":[-10.78999137878418,39.845455169677734,-22.05000114440918]},{"bufferView":91,"componentType":5125,"count":174,"type":"SCALAR"}]}