{"asset":{"version":"2.0","generator":"BIM feature edges, 30 degrees"},"scene":0,"scenes":[{"nodes":[1,4],"extensions":{}}],"nodes":[{"mesh":0},{"children":[0,2,7],"name":"窗框"},{"mesh":1},{"mesh":2},{"children":[3,5,6],"name":"窗戶"},{"mesh":3},{"mesh":4},{"mesh":5}],"meshes":[{"primitives":[{"attributes":{"POSITION":0},"indices":1,"material":0,"mode":1},{"attributes":{"POSITION":2},"indices":3,"material":0,"mode":1},{"attributes":{"POSITION":4},"indices":5,"material":0,"mode":1},{"attributes":{"POSITION":6},"indices":7,"material":0,"mode":1},{"attributes":{"POSITION":8},"indices":9,"material":0,"mode":1},{"attributes":{"POSITION":10},"indices":11,"material":0,"mode":1},{"attributes":{"POSITION":12},"indices":13,"material":0,"mode":1},{"attributes":{"POSITION":14},"indices":15,"material":0,"mode":1},{"attributes":{"POSITION":16},"indices":17,"material":0,"mode":1},{"attributes":{"POSITION":18},"indices":19,"material":0,"mode":1},{"attributes":{"POSITION":20},"indices":21,"material":0,"mode":1},{"attributes":{"POSITION":22},"indices":23,"material":0,"mode":1},{"attributes":{"POSITION":24},"indices":25,"material":0,"mode":1},{"attributes":{"POSITION":26},"indices":27,"material":0,"mode":1}]},{"primitives":[{"attributes":{"POSITION":28},"indices":29,"material":0,"mode":1},{"attributes":{"POSITION":30},"indices":31,"material":0,"mode":1},{"attributes":{"POSITION":32},"indices":33,"material":0,"mode":1},{"attributes":{"POSITION":34},"indices":35,"material":0,"mode":1},{"attributes":{"POSITION":36},"indices":37,"material":0,"mode":1},{"attributes":{"POSITION":38},"indices":39,"material":0,"mode":1},{"attributes":{"POSITION":40},"indices":41,"material":0,"mode":1},{"attributes":{"POSITION":42},"indices":43,"material":0,"mode":1},{"attributes":{"POSITION":44},"indices":45,"material":0,"mode":1},{"attributes":{"POSITION":46},"indices":47,"material":0,"mode":1}]},{"primitives":[{"attributes":{"POSITION":48},"indices":49,"material":0,"mode":1},{"attributes":{"POSITION":50},"indices":51,"material":0,"mode":1},{"attributes":{"POSITION":52},"indices":53,"material":0,"mode":1},{"attributes":{"POSITION":54},"indices":55,"material":0,"mode":1},{"attributes":{"POSITION":56},"indices":57,"material":0,"mode":1},{"attributes":{"POSITION":58},"indices":59,"material":0,"mode":1}]},{"primitives":[{"attributes":{"POSITION":60},"indices":61,"material":0,"mode":1},{"attributes":{"POSITION":62},"indices":63,"material":0,"mode":1},{"attributes":{"POSITION":64},"indices":65,"material":0,"mode":1},{"attributes":{"POSITION":66},"indices":67,"material":0,"mode":1},{"attributes":{"POSITION":68},"indices":69,"material":0,"mode":1},{"attributes":{"POSITION":70},"indices":71,"material":0,"mode":1}]},{"primitives":[{"attributes":{"POSITION":72},"indices":73,"material":0,"mode":1},{"attributes":{"POSITION":74},"indices":75,"material":0,"mode":1},{"attributes":{"POSITION":76},"indices":77,"material":0,"mode":1},{"attributes":{"POSITION":78},"indices":79,"material":0,"mode":1},{"attributes":{"POSITION":80},"indices":81,"material":0,"mode":1},{"attributes":{"POSITION":82},"indices":83,"material":0,"mode":1}]},{"primitives":[{"attributes":{"POSITION":84},"indices":85,"material":0,"mode":1},{"attributes":{"POSITION":86},"indices":87,"material":0,"mode":1},{"attributes":{"POSITION":88},"indices":89,"material":0,"mode":1},{"attributes":{"POSITION":90},"indices":91,"material":0,"mode":1},{"attributes":{"POSITION":92},"indices":93,"material":0,"mode":1},{"attributes":{"POSITION":94},"indices":95,"material":0,"mode":1},{"attributes":{"POSITION":96},"indices":97,"material":0,"mode":1},{"attributes":{"POSITION":98},"indices":99,"material":0,"mode":1},{"attributes":{"POSITION":100},"indices":101,"material":0,"mode":1},{"attributes":{"POSITION":102},"indices":103,"material":0,"mode":1}]}],"materials":[{"name":"白色線稿","pbrMetallicRoughness":{"baseColorFactor":[1,1,1,1],"metallicFactor":0,"roughnessFactor":1},"extensions":{"KHR_materials_unlit":{}}}],"extensionsUsed":["KHR_materials_unlit"],"buffers":[{"byteLength":4800,"uri":"data:application/octet-stream;base64,"}],"bufferViews":[{"buffer":0,"byteOffset":0,"byteLength":48,"target":34962},{"buffer":0,"byteOffset":48,"byteLength":32,"target":34963},{"buffer":0,"byteOffset":80,"byteLength":48,"target":34962},{"buffer":0,"byteOffset":128,"byteLength":32,"target":34963},{"buffer":0,"byteOffset":160,"byteLength":48,"target":34962},{"buffer":0,"byteOffset":208,"byteLength":32,"target":34963},{"buffer":0,"byteOffset":240,"byteLength":48,"target":34962},{"buffer":0,"byteOffset":288,"byteLength":32,"target":34963},{"buffer":0,"byteOffset":320,"byteLength":48,"target":34962},{"buffer":0,"byteOffset":368,"byteLength":32,"target":34963},{"buffer":0,"byteOffset":400,"byteLength":48,"target":34962},{"buffer":0,"byteOffset":448,"byteLength":32,"target":34963},{"buffer":0,"byteOffset":480,"byteLength":48,"target":34962},{"buffer":0,"byteOffset":528,"byteLength":32,"target":34963},{"buffer":0,"byteOffset":560,"byteLength":48,"target":34962},{"buffer":0,"byteOffset":608,"byteLength":32,"target":34963},{"buffer":0,"byteOffset":640,"byteLength":48,"target":34962},{"buffer":0,"byteOffset":688,"byteLength":32,"target":34963},{"buffer":0,"byteOffset":720,"byteLength":48,"target":34962},{"buffer":0,"byteOffset":768,"byteLength":32,"target":34963},{"buffer":0,"byteOffset":800,"byteLength":48,"target":34962},{"buffer":0,"byteOffset":848,"byteLength":32,"target":34963},{"buffer":0,"byteOffset":880,"byteLength":48,"target":34962},{"buffer":0,"byteOffset":928,"byteLength":32,"target":34963},{"buffer":0,"byteOffset":960,"byteLength":144,"target":34962},{"buffer":0,"byteOffset":1104,"byteLength":96,"target":34963},{"buffer":0,"byteOffset":1200,"byteLength":144,"target":34962},{"buffer":0,"byteOffset":1344,"byteLength":96,"target":34963},{"buffer":0,"byteOffset":1440,"byteLength":48,"target":34962},{"buffer":0,"byteOffset":1488,"byteLength":32,"target":34963},{"buffer":0,"byteOffset":1520,"byteLength":48,"target":34962},{"buffer":0,"byteOffset":1568,"byteLength":32,"target":34963},{"buffer":0,"byteOffset":1600,"byteLength":48,"target":34962},{"buffer":0,"byteOffset":1648,"byteLength":32,"target":34963},{"buffer":0,"byteOffset":1680,"byteLength":48,"target":34962},{"buffer":0,"byteOffset":1728,"byteLength":32,"target":34963},{"buffer":0,"byteOffset":1760,"byteLength":48,"target":34962},{"buffer":0,"byteOffset":1808,"byteLength":32,"target":34963},{"buffer":0,"byteOffset":1840,"byteLength":48,"target":34962},{"buffer":0,"byteOffset":1888,"byteLength":32,"target":34963},{"buffer":0,"byteOffset":1920,"byteLength":48,"target":34962},{"buffer":0,"byteOffset":1968,"byteLength":32,"target":34963},{"buffer":0,"byteOffset":2000,"byteLength":48,"target":34962},{"buffer":0,"byteOffset":2048,"byteLength":32,"target":34963},{"buffer":0,"byteOffset":2080,"byteLength":96,"target":34962},{"buffer":0,"byteOffset":2176,"byteLength":64,"target":34963},{"buffer":0,"byteOffset":2240,"byteLength":96,"target":34962},{"buffer":0,"byteOffset":2336,"byteLength":64,"target":34963},{"buffer":0,"byteOffset":2400,"byteLength":48,"target":34962},{"buffer":0,"byteOffset":2448,"byteLength":32,"target":34963},{"buffer":0,"byteOffset":2480,"byteLength":48,"target":34962},{"buffer":0,"byteOffset":2528,"byteLength":32,"target":34963},{"buffer":0,"byteOffset":2560,"byteLength":48,"target":34962},{"buffer":0,"byteOffset":2608,"byteLength":32,"target":34963},{"buffer":0,"byteOffset":2640,"byteLength":48,"target":34962},{"buffer":0,"byteOffset":2688,"byteLength":32,"target":34963},{"buffer":0,"byteOffset":2720,"byteLength":48,"target":34962},{"buffer":0,"byteOffset":2768,"byteLength":32,"target":34963},{"buffer":0,"byteOffset":2800,"byteLength":48,"target":34962},{"buffer":0,"byteOffset":2848,"byteLength":32,"target":34963},{"buffer":0,"byteOffset":2880,"byteLength":48,"target":34962},{"buffer":0,"byteOffset":2928,"byteLength":32,"target":34963},{"buffer":0,"byteOffset":2960,"byteLength":48,"target":34962},{"buffer":0,"byteOffset":3008,"byteLength":32,"target":34963},{"buffer":0,"byteOffset":3040,"byteLength":48,"target":34962},{"buffer":0,"byteOffset":3088,"byteLength":32,"target":34963},{"buffer":0,"byteOffset":3120,"byteLength":48,"target":34962},{"buffer":0,"byteOffset":3168,"byteLength":32,"target":34963},{"buffer":0,"byteOffset":3200,"byteLength":48,"target":34962},{"buffer":0,"byteOffset":3248,"byteLength":32,"target":34963},{"buffer":0,"byteOffset":3280,"byteLength":48,"target":34962},{"buffer":0,"byteOffset":3328,"byteLength":32,"target":34963},{"buffer":0,"byteOffset":3360,"byteLength":48,"target":34962},{"buffer":0,"byteOffset":3408,"byteLength":32,"target":34963},{"buffer":0,"byteOffset":3440,"byteLength":48,"target":34962},{"buffer":0,"byteOffset":3488,"byteLength":32,"target":34963},{"buffer":0,"byteOffset":3520,"byteLength":48,"target":34962},{"buffer":0,"byteOffset":3568,"byteLength":32,"target":34963},{"buffer":0,"byteOffset":3600,"byteLength":48,"target":34962},{"buffer":0,"byteOffset":3648,"byteLength":32,"target":34963},{"buffer":0,"byteOffset":3680,"byteLength":48,"target":34962},{"buffer":0,"byteOffset":3728,"byteLength":32,"target":34963},{"buffer":0,"byteOffset":3760,"byteLength":48,"target":34962},{"buffer":0,"byteOffset":3808,"byteLength":32,"target":34963},{"buffer":0,"byteOffset":3840,"byteLength":48,"target":34962},{"buffer":0,"byteOffset":3888,"byteLength":32,"target":34963},{"buffer":0,"byteOffset":3920,"byteLength":48,"target":34962},{"buffer":0,"byteOffset":3968,"byteLength":32,"target":34963},{"buffer":0,"byteOffset":4000,"byteLength":48,"target":34962},{"buffer":0,"byteOffset":4048,"byteLength":32,"target":34963},{"buffer":0,"byteOffset":4080,"byteLength":48,"target":34962},{"buffer":0,"byteOffset":4128,"byteLength":32,"target":34963},{"buffer":0,"byteOffset":4160,"byteLength":48,"target":34962},{"buffer":0,"byteOffset":4208,"byteLength":32,"target":34963},{"buffer":0,"byteOffset":4240,"byteLength":48,"target":34962},{"buffer":0,"byteOffset":4288,"byteLength":32,"target":34963},{"buffer":0,"byteOffset":4320,"byteLength":48,"target":34962},{"buffer":0,"byteOffset":4368,"byteLength":32,"target":34963},{"buffer":0,"byteOffset":4400,"byteLength":48,"target":34962},{"buffer":0,"byteOffset":4448,"byteLength":32,"target":34963},{"buffer":0,"byteOffset":4480,"byteLength":96,"target":34962},{"buffer":0,"byteOffset":4576,"byteLength":64,"target":34963},{"buffer":0,"byteOffset":4640,"byteLength":96,"target":34962},{"buffer":0,"byteOffset":4736,"byteLength":64,"target":34963}],"accessors":[{"bufferView":0,"componentType":5126,"count":4,"type":"VEC3","min":[0.7899999022483826,42.5,-16.075000762939453],"max":[0.8899999260902405,44,-16.075000762939453]},{"bufferView":1,"componentType":5125,"count":8,"type":"SCALAR"},{"bufferView":2,"componentType":5126,"count":4,"type":"VEC3","min":[0.7899999022483826,42.5,-16.075000762939453],"max":[0.8899999260902405,42.5,-14.274999618530273]},{"bufferView":3,"componentType":5125,"count":8,"type":"SCALAR"},{"bufferView":4,"componentType":5126,"count":4,"type":"VEC3","min":[0.7899999022483826,42.5,-14.274999618530273],"max":[0.8899999260902405,44,-14.274999618530273]},{"bufferView":5,"componentType":5125,"count":8,"type":"SCALAR"},{"bufferView":6,"componentType":5126,"count":4,"type":"VEC3","min":[0.7899999022483826,42.849998474121094,-16.024999618530273],"max":[0.8899999260902405,42.849998474121094,-14.324999809265137]},{"bufferView":7,"componentType":5125,"count":8,"type":"SCALAR"},{"bufferView":8,"componentType":5126,"count":4,"type":"VEC3","min":[0.7899999022483826,42.54999923706055,-14.324999809265137],"max":[0.8899999260902405,42.849998474121094,-14.324999809265137]},{"bufferView":9,"componentType":5125,"count":8,"type":"SCALAR"},{"bufferView":10,"componentType":5126,"count":4,"type":"VEC3","min":[0.7899999022483826,42.54999923706055,-16.024999618530273],"max":[0.8899999260902405,42.54999923706055,-14.324999809265137]},{"bufferView":11,"componentType":5125,"count":8,"type":"SCALAR"},{"bufferView":12,"componentType":5126,"count":4,"type":"VEC3","min":[0.7899999022483826,42.54999923706055,-16.024999618530273],"max":[0.8899999260902405,42.849998474121094,-16.024999618530273]},{"bufferView":13,"componentType":5125,"count":8,"type":"SCALAR"},{"bufferView":14,"componentType":5126,"count":4,"type":"VEC3","min":[0.7899999022483826,42.900001525878906,-16.024999618530273],"max":[0.8899999260902405,43.95000076293945,-16.024999618530273]},{"bufferView":15,"componentType":5125,"count":8,"type":"SCALAR"},{"bufferView":16,"componentType":5126,"count":4,"type":"VEC3","min":[0.7899999022483826,42.900001525878906,-14.324999809265137],"max":[0.8899999260902405,43.95000076293945,-14.324999809265137]},{"bufferView":17,"componentType":5125,"count":8,"type":"SCALAR"},{"bufferView":18,"componentType":5126,"count":4,"type":"VEC3","min":[0.7899999022483826,42.900001525878906,-16.024999618530273],"max":[0.8899999260902405,42.900001525878906,-14.324999809265137]},{"bufferView":19,"componentType":5125,"count":8,"type":"SCALAR"},{"bufferView":20,"componentType":5126,"count":4,"type":"VEC3","min":[0.7899999022483826,44,-16.075000762939453],"max":[0.8899999260902405,44,-14.274999618530273]},{"bufferView":21,"componentType":5125,"count":8,"type":"SCALAR"},{"bufferView":22,"componentType":5126,"count":4,"type":"VEC3","min":[0.7899999022483826,43.95000076293945,-16.024999618530273],"max":[0.8899999260902405,43.95000076293945,-14.324999809265137]},{"bufferView":23,"componentType":5125,"count":8,"type":"SCALAR"},{"bufferView":24,"componentType":5126,"count":12,"type":"VEC3","min":[0.7899999022483826,42.5,-16.075000762939453],"max":[0.7899999022483826,44,-14.274999618530273]},{"bufferView":25,"componentType":5125,"count":24,"type":"SCALAR"},{"bufferView":26,"componentType":5126,"count":12,"type":"VEC3","min":[0.8899999260902405,42.5,-16.075000762939453],"max":[0.8899999260902405,44,-14.274999618530273]},{"bufferView":27,"componentType":5125,"count":24,"type":"SCALAR"},{"bufferView":28,"componentType":5126,"count":4,"type":"VEC3","min":[0.794999897480011,42.900001525878906,-16.024999618530273],"max":[0.8399999141693115,43.95000076293945,-16.024999618530273]},{"bufferView":29,"componentType":5125,"count":8,"type":"SCALAR"},{"bufferView":30,"componentType":5126,"count":4,"type":"VEC3","min":[0.794999897480011,42.900001525878906,-16.024999618530273],"max":[0.8399999141693115,42.900001525878906,-15.149999618530273]},{"bufferView":31,"componentType":5125,"count":8,"type":"SCALAR"},{"bufferView":32,"componentType":5126,"count":4,"type":"VEC3","min":[0.794999897480011,42.900001525878906,-15.149999618530273],"max":[0.8399999141693115,43.95000076293945,-15.149999618530273]},{"bufferView":33,"componentType":5125,"count":8,"type":"SCALAR"},{"bufferView":34,"componentType":5126,"count":4,"type":"VEC3","min":[0.794999897480011,42.95000076293945,-15.975000381469727],"max":[0.8399999141693115,42.95000076293945,-15.199999809265137]},{"bufferView":35,"componentType":5125,"count":8,"type":"SCALAR"},{"bufferView":36,"componentType":5126,"count":4,"type":"VEC3","min":[0.794999897480011,42.95000076293945,-15.975000381469727],"max":[0.8399999141693115,43.900001525878906,-15.975000381469727]},{"bufferView":37,"componentType":5125,"count":8,"type":"SCALAR"},{"bufferView":38,"componentType":5126,"count":4,"type":"VEC3","min":[0.794999897480011,42.95000076293945,-15.199999809265137],"max":[0.8399999141693115,43.900001525878906,-15.199999809265137]},{"bufferView":39,"componentType":5125,"count":8,"type":"SCALAR"},{"bufferView":40,"componentType":5126,"count":4,"type":"VEC3","min":[0.794999897480011,43.95000076293945,-16.024999618530273],"max":[0.8399999141693115,43.95000076293945,-15.149999618530273]},{"bufferView":41,"componentType":5125,"count":8,"type":"SCALAR"},{"bufferView":42,"componentType":5126,"count":4,"type":"VEC3","min":[0.794999897480011,43.900001525878906,-15.975000381469727],"max":[0.8399999141693115,43.900001525878906,-15.199999809265137]},{"bufferView":43,"componentType":5125,"count":8,"type":"SCALAR"},{"bufferView":44,"componentType":5126,"count":8,"type":"VEC3","min":[0.794999897480011,42.900001525878906,-16.024999618530273],"max":[0.794999897480011,43.95000076293945,-15.149999618530273]},{"bufferView":45,"componentType":5125,"count":16,"type":"SCALAR"},{"bufferView":46,"componentType":5126,"count":8,"type":"VEC3","min":[0.8399999141693115,42.900001525878906,-16.024999618530273],"max":[0.8399999141693115,43.95000076293945,-15.149999618530273]},{"bufferView":47,"componentType":5125,"count":16,"type":"SCALAR"},{"bufferView":48,"componentType":5126,"count":4,"type":"VEC3","min":[0.8164999485015869,42.95000076293945,-15.975000381469727],"max":[0.8164999485015869,43.900001525878906,-15.199999809265137]},{"bufferView":49,"componentType":5125,"count":8,"type":"SCALAR"},{"bufferView":50,"componentType":5126,"count":4,"type":"VEC3","min":[0.8164999485015869,42.95000076293945,-15.975000381469727],"max":[0.8184999227523804,43.900001525878906,-15.975000381469727]},{"bufferView":51,"componentType":5125,"count":8,"type":"SCALAR"},{"bufferView":52,"componentType":5126,"count":4,"type":"VEC3","min":[0.8164999485015869,42.95000076293945,-15.975000381469727],"max":[0.8184999227523804,42.95000076293945,-15.199999809265137]},{"bufferView":53,"componentType":5125,"count":8,"type":"SCALAR"},{"bufferView":54,"componentType":5126,"count":4,"type":"VEC3","min":[0.8164999485015869,42.95000076293945,-15.199999809265137],"max":[0.8184999227523804,43.900001525878906,-15.199999809265137]},{"bufferView":55,"componentType":5125,"count":8,"type":"SCALAR"},{"bufferView":56,"componentType":5126,"count":4,"type":"VEC3","min":[0.8184999227523804,42.95000076293945,-15.975000381469727],"max":[0.8184999227523804,43.900001525878906,-15.199999809265137]},{"bufferView":57,"componentType":5125,"count":8,"type":"SCALAR"},{"bufferView":58,"componentType":5126,"count":4,"type":"VEC3","min":[0.8164999485015869,43.900001525878906,-15.975000381469727],"max":[0.8184999227523804,43.900001525878906,-15.199999809265137]},{"bufferView":59,"componentType":5125,"count":8,"type":"SCALAR"},{"bufferView":60,"componentType":5126,"count":4,"type":"VEC3","min":[0.8634998798370361,42.95000076293945,-15.149999618530273],"max":[0.8634998798370361,43.900001525878906,-14.375]},{"bufferView":61,"componentType":5125,"count":8,"type":"SCALAR"},{"bufferView":62,"componentType":5126,"count":4,"type":"VEC3","min":[0.8614999651908875,42.95000076293945,-14.375],"max":[0.8634998798370361,43.900001525878906,-14.375]},{"bufferView":63,"componentType":5125,"count":8,"type":"SCALAR"},{"bufferView":64,"componentType":5126,"count":4,"type":"VEC3","min":[0.8614999651908875,42.95000076293945,-15.149999618530273],"max":[0.8634998798370361,42.95000076293945,-14.375]},{"bufferView":65,"componentType":5125,"count":8,"type":"SCALAR"},{"bufferView":66,"componentType":5126,"count":4,"type":"VEC3","min":[0.8614999651908875,42.95000076293945,-15.149999618530273],"max":[0.8634998798370361,43.900001525878906,-15.149999618530273]},{"bufferView":67,"componentType":5125,"count":8,"type":"SCALAR"},{"bufferView":68,"componentType":5126,"count":4,"type":"VEC3","min":[0.8614999651908875,42.95000076293945,-15.149999618530273],"max":[0.8614999651908875,43.900001525878906,-14.375]},{"bufferView":69,"componentType":5125,"count":8,"type":"SCALAR"},{"bufferView":70,"componentType":5126,"count":4,"type":"VEC3","min":[0.8614999651908875,43.900001525878906,-15.149999618530273],"max":[0.8634998798370361,43.900001525878906,-14.375]},{"bufferView":71,"componentType":5125,"count":8,"type":"SCALAR"},{"bufferView":72,"componentType":5126,"count":4,"type":"VEC3","min":[0.8389999270439148,42.54999923706055,-16.024999618530273],"max":[0.8389999270439148,42.849998474121094,-14.324999809265137]},{"bufferView":73,"componentType":5125,"count":8,"type":"SCALAR"},{"bufferView":74,"componentType":5126,"count":4,"type":"VEC3","min":[0.8409999012947083,42.54999923706055,-16.024999618530273],"max":[0.8409999012947083,42.849998474121094,-14.324999809265137]},{"bufferView":75,"componentType":5125,"count":8,"type":"SCALAR"},{"bufferView":76,"componentType":5126,"count":4,"type":"VEC3","min":[0.8389999270439148,42.54999923706055,-16.024999618530273],"max":[0.8409999012947083,42.849998474121094,-16.024999618530273]},{"bufferView":77,"componentType":5125,"count":8,"type":"SCALAR"},{"bufferView":78,"componentType":5126,"count":4,"type":"VEC3","min":[0.8389999270439148,42.54999923706055,-16.024999618530273],"max":[0.8409999012947083,42.54999923706055,-14.324999809265137]},{"bufferView":79,"componentType":5125,"count":8,"type":"SCALAR"},{"bufferView":80,"componentType":5126,"count":4,"type":"VEC3","min":[0.8389999270439148,42.54999923706055,-14.324999809265137],"max":[0.8409999012947083,42.849998474121094,-14.324999809265137]},{"bufferView":81,"componentType":5125,"count":8,"type":"SCALAR"},{"bufferView":82,"componentType":5126,"count":4,"type":"VEC3","min":[0.8389999270439148,42.849998474121094,-16.024999618530273],"max":[0.8409999012947083,42.849998474121094,-14.324999809265137]},{"bufferView":83,"componentType":5125,"count":8,"type":"SCALAR"},{"bufferView":84,"componentType":5126,"count":4,"type":"VEC3","min":[0.8399999141693115,42.900001525878906,-15.199999809265137],"max":[0.8849999308586121,43.95000076293945,-15.199999809265137]},{"bufferView":85,"componentType":5125,"count":8,"type":"SCALAR"},{"bufferView":86,"componentType":5126,"count":4,"type":"VEC3","min":[0.8399999141693115,42.900001525878906,-15.199999809265137],"max":[0.8849999308586121,42.900001525878906,-14.324999809265137]},{"bufferView":87,"componentType":5125,"count":8,"type":"SCALAR"},{"bufferView":88,"componentType":5126,"count":4,"type":"VEC3","min":[0.8399999141693115,42.900001525878906,-14.324999809265137],"max":[0.8849999308586121,43.95000076293945,-14.324999809265137]},{"bufferView":89,"componentType":5125,"count":8,"type":"SCALAR"},{"bufferView":90,"componentType":5126,"count":4,"type":"VEC3","min":[0.8399999141693115,42.95000076293945,-15.149999618530273],"max":[0.8849999308586121,42.95000076293945,-14.375]},{"bufferView":91,"componentType":5125,"count":8,"type":"SCALAR"},{"bufferView":92,"componentType":5126,"count":4,"type":"VEC3","min":[0.8399999141693115,42.95000076293945,-15.149999618530273],"max":[0.8849999308586121,43.900001525878906,-15.149999618530273]},{"bufferView":93,"componentType":5125,"count":8,"type":"SCALAR"},{"bufferView":94,"componentType":5126,"count":4,"type":"VEC3","min":[0.8399999141693115,42.95000076293945,-14.375],"max":[0.8849999308586121,43.900001525878906,-14.375]},{"bufferView":95,"componentType":5125,"count":8,"type":"SCALAR"},{"bufferView":96,"componentType":5126,"count":4,"type":"VEC3","min":[0.8399999141693115,43.95000076293945,-15.199999809265137],"max":[0.8849999308586121,43.95000076293945,-14.324999809265137]},{"bufferView":97,"componentType":5125,"count":8,"type":"SCALAR"},{"bufferView":98,"componentType":5126,"count":4,"type":"VEC3","min":[0.8399999141693115,43.900001525878906,-15.149999618530273],"max":[0.8849999308586121,43.900001525878906,-14.375]},{"bufferView":99,"componentType":5125,"count":8,"type":"SCALAR"},{"bufferView":100,"componentType":5126,"count":8,"type":"VEC3","min":[0.8399999141693115,42.900001525878906,-15.199999809265137],"max":[0.8399999141693115,43.95000076293945,-14.324999809265137]},{"bufferView":101,"componentType":5125,"count":16,"type":"SCALAR"},{"bufferView":102,"componentType":5126,"count":8,"type":"VEC3","min":[0.8849999308586121,42.900001525878906,-15.199999809265137],"max":[0.8849999308586121,43.95000076293945,-14.324999809265137]},{"bufferView":103,"componentType":5125,"count":16,"type":"SCALAR"}]}