{"asset":{"version":"2.0","generator":"BIM feature edges, 30 degrees"},"scene":0,"scenes":[{"nodes":[1],"extensions":{}}],"nodes":[{"mesh":0},{"children":[0,2,3,4,5,6,7,8,9,10,11,12,13,14,15,16,17,18,19,20,21,22,23,24,25,26,27,28,29,30,31],"name":"柱子"},{"mesh":1},{"mesh":2},{"mesh":3},{"mesh":4},{"mesh":5},{"mesh":6},{"mesh":7},{"mesh":8},{"mesh":9},{"mesh":10},{"mesh":11},{"mesh":12},{"mesh":13},{"mesh":14},{"mesh":15},{"mesh":16},{"mesh":17},{"mesh":18},{"mesh":19},{"mesh":20},{"mesh":21},{"mesh":22},{"mesh":23},{"mesh":24},{"mesh":25},{"mesh":26},{"mesh":27},{"mesh":28},{"mesh":29},{"mesh":30}],"meshes":[{"primitives":[{"attributes":{"POSITION":0},"indices":1,"material":0,"mode":1},{"attributes":{"POSITION":2},"indices":3,"material":0,"mode":1},{"attributes":{"POSITION":4},"indices":5,"material":0,"mode":1},{"attributes":{"POSITION":6},"indices":7,"material":0,"mode":1},{"attributes":{"POSITION":8},"indices":9,"material":0,"mode":1},{"attributes":{"POSITION":10},"indices":11,"material":0,"mode":1},{"attributes":{"POSITION":12},"indices":13,"material":0,"mode":1},{"attributes":{"POSITION":14},"indices":15,"material":0,"mode":1}]},{"primitives":[{"attributes":{"POSITION":16},"indices":17,"material":0,"mode":1},{"attributes":{"POSITION":18},"indices":19,"material":0,"mode":1},{"attributes":{"POSITION":20},"indices":21,"material":0,"mode":1},{"attributes":{"POSITION":22},"indices":23,"material":0,"mode":1},{"attributes":{"POSITION":24},"indices":25,"material":0,"mode":1},{"attributes":{"POSITION":26},"indices":27,"material":0,"mode":1}]},{"primitives":[{"attributes":{"POSITION":28},"indices":29,"material":0,"mode":1},{"attributes":{"POSITION":30},"indices":31,"material":0,"mode":1},{"attributes":{"POSITION":32},"indices":33,"material":0,"mode":1},{"attributes":{"POSITION":34},"indices":35,"material":0,"mode":1},{"attributes":{"POSITION":36},"indices":37,"material":0,"mode":1},{"attributes":{"POSITION":38},"indices":39,"material":0,"mode":1}]},{"primitives":[{"attributes":{"POSITION":40},"indices":41,"material":0,"mode":1},{"attributes":{"POSITION":42},"indices":43,"material":0,"mode":1},{"attributes":{"POSITION":44},"indices":45,"material":0,"mode":1},{"attributes":{"POSITION":46},"indices":47,"material":0,"mode":1},{"attributes":{"POSITION":48},"indices":49,"material":0,"mode":1},{"attributes":{"POSITION":50},"indices":51,"material":0,"mode":1}]},{"primitives":[{"attributes":{"POSITION":52},"indices":53,"material":0,"mode":1},{"attributes":{"POSITION":54},"indices":55,"material":0,"mode":1},{"attributes":{"POSITION":56},"indices":57,"material":0,"mode":1},{"attributes":{"POSITION":58},"indices":59,"material":0,"mode":1},{"attributes":{"POSITION":60},"indices":61,"material":0,"mode":1},{"attributes":{"POSITION":62},"indices":63,"material":0,"mode":1}]},{"primitives":[{"attributes":{"POSITION":64},"indices":65,"material":0,"mode":1},{"attributes":{"POSITION":66},"indices":67,"material":0,"mode":1},{"attributes":{"POSITION":68},"indices":69,"material":0,"mode":1},{"attributes":{"POSITION":70},"indices":71,"material":0,"mode":1},{"attributes":{"POSITION":72},"indices":73,"material":0,"mode":1},{"attributes":{"POSITION":74},"indices":75,"material":0,"mode":1}]},{"primitives":[{"attributes":{"POSITION":76},"indices":77,"material":0,"mode":1},{"attributes":{"POSITION":78},"indices":79,"material":0,"mode":1},{"attributes":{"POSITION":80},"indices":81,"material":0,"mode":1},{"attributes":{"POSITION":82},"indices":83,"material":0,"mode":1},{"attributes":{"POSITION":84},"indices":85,"material":0,"mode":1},{"attributes":{"POSITION":86},"indices":87,"material":0,"mode":1}]},{"primitives":[{"attributes":{"POSITION":88},"indices":89,"material":0,"mode":1},{"attributes":{"POSITION":90},"indices":91,"material":0,"mode":1},{"attributes":{"POSITION":92},"indices":93,"material":0,"mode":1},{"attributes":{"POSITION":94},"indices":95,"material":0,"mode":1},{"attributes":{"POSITION":96},"indices":97,"material":0,"mode":1},{"attributes":{"POSITION":98},"indices":99,"material":0,"mode":1}]},{"primitives":[{"attributes":{"POSITION":100},"indices":101,"material":0,"mode":1},{"attributes":{"POSITION":102},"indices":103,"material":0,"mode":1},{"attributes":{"POSITION":104},"indices":105,"material":0,"mode":1},{"attributes":{"POSITION":106},"indices":107,"material":0,"mode":1},{"attributes":{"POSITION":108},"indices":109,"material":0,"mode":1},{"attributes":{"POSITION":110},"indices":111,"material":0,"mode":1}]},{"primitives":[{"attributes":{"POSITION":112},"indices":113,"material":0,"mode":1},{"attributes":{"POSITION":114},"indices":115,"material":0,"mode":1},{"attributes":{"POSITION":116},"indices":117,"material":0,"mode":1},{"attributes":{"POSITION":118},"indices":119,"material":0,"mode":1},{"attributes":{"POSITION":120},"indices":121,"material":0,"mode":1},{"attributes":{"POSITION":122},"indices":123,"material":0,"mode":1}]},{"primitives":[{"attributes":{"POSITION":124},"indices":125,"material":0,"mode":1},{"attributes":{"POSITION":126},"indices":127,"material":0,"mode":1},{"attributes":{"POSITION":128},"indices":129,"material":0,"mode":1},{"attributes":{"POSITION":130},"indices":131,"material":0,"mode":1},{"attributes":{"POSITION":132},"indices":133,"material":0,"mode":1},{"attributes":{"POSITION":134},"indices":135,"material":0,"mode":1}]},{"primitives":[{"attributes":{"POSITION":136},"indices":137,"material":0,"mode":1},{"attributes":{"POSITION":138},"indices":139,"material":0,"mode":1},{"attributes":{"POSITION":140},"indices":141,"material":0,"mode":1},{"attributes":{"POSITION":142},"indices":143,"material":0,"mode":1},{"attributes":{"POSITION":144},"indices":145,"material":0,"mode":1},{"attributes":{"POSITION":146},"indices":147,"material":0,"mode":1}]},{"primitives":[{"attributes":{"POSITION":148},"indices":149,"material":0,"mode":1},{"attributes":{"POSITION":150},"indices":151,"material":0,"mode":1},{"attributes":{"POSITION":152},"indices":153,"material":0,"mode":1},{"attributes":{"POSITION":154},"indices":155,"material":0,"mode":1},{"attributes":{"POSITION":156},"indices":157,"material":0,"mode":1},{"attributes":{"POSITION":158},"indices":159,"material":0,"mode":1}]},{"primitives":[{"attributes":{"POSITION":160},"indices":161,"material":0,"mode":1},{"attributes":{"POSITION":162},"indices":163,"material":0,"mode":1},{"attributes":{"POSITION":164},"indices":165,"material":0,"mode":1},{"attributes":{"POSITION":166},"indices":167,"material":0,"mode":1},{"attributes":{"POSITION":168},"indices":169,"material":0,"mode":1},{"attributes":{"POSITION":170},"indices":171,"material":0,"mode":1}]},{"primitives":[{"attributes":{"POSITION":172},"indices":173,"material":0,"mode":1},{"attributes":{"POSITION":174},"indices":175,"material":0,"mode":1},{"attributes":{"POSITION":176},"indices":177,"material":0,"mode":1},{"attributes":{"POSITION":178},"indices":179,"material":0,"mode":1},{"attributes":{"POSITION":180},"indices":181,"material":0,"mode":1},{"attributes":{"POSITION":182},"indices":183,"material":0,"mode":1}]},{"primitives":[{"attributes":{"POSITION":184},"indices":185,"material":0,"mode":1},{"attributes":{"POSITION":186},"indices":187,"material":0,"mode":1},{"attributes":{"POSITION":188},"indices":189,"material":0,"mode":1},{"attributes":{"POSITION":190},"indices":191,"material":0,"mode":1},{"attributes":{"POSITION":192},"indices":193,"material":0,"mode":1},{"attributes":{"POSITION":194},"indices":195,"material":0,"mode":1}]},{"primitives":[{"attributes":{"POSITION":196},"indices":197,"material":0,"mode":1},{"attributes":{"POSITION":198},"indices":199,"material":0,"mode":1},{"attributes":{"POSITION":200},"indices":201,"material":0,"mode":1},{"attributes":{"POSITION":202},"indices":203,"material":0,"mode":1},{"attributes":{"POSITION":204},"indices":205,"material":0,"mode":1},{"attributes":{"POSITION":206},"indices":207,"material":0,"mode":1}]},{"primitives":[{"attributes":{"POSITION":208},"indices":209,"material":0,"mode":1},{"attributes":{"POSITION":210},"indices":211,"material":0,"mode":1},{"attributes":{"POSITION":212},"indices":213,"material":0,"mode":1},{"attributes":{"POSITION":214},"indices":215,"material":0,"mode":1},{"attributes":{"POSITION":216},"indices":217,"material":0,"mode":1},{"attributes":{"POSITION":218},"indices":219,"material":0,"mode":1}]},{"primitives":[{"attributes":{"POSITION":220},"indices":221,"material":0,"mode":1},{"attributes":{"POSITION":222},"indices":223,"material":0,"mode":1},{"attributes":{"POSITION":224},"indices":225,"material":0,"mode":1},{"attributes":{"POSITION":226},"indices":227,"material":0,"mode":1},{"attributes":{"POSITION":228},"indices":229,"material":0,"mode":1},{"attributes":{"POSITION":230},"indices":231,"material":0,"mode":1}]},{"primitives":[{"attributes":{"POSITION":232},"indices":233,"material":0,"mode":1},{"attributes":{"POSITION":234},"indices":235,"material":0,"mode":1},{"attributes":{"POSITION":236},"indices":237,"material":0,"mode":1},{"attributes":{"POSITION":238},"indices":239,"material":0,"mode":1},{"attributes":{"POSITION":240},"indices":241,"material":0,"mode":1},{"attributes":{"POSITION":242},"indices":243,"material":0,"mode":1}]},{"primitives":[{"attributes":{"POSITION":244},"indices":245,"material":0,"mode":1},{"attributes":{"POSITION":246},"indices":247,"material":0,"mode":1},{"attributes":{"POSITION":248},"indices":249,"material":0,"mode":1},{"attributes":{"POSITION":250},"indices":251,"material":0,"mode":1},{"attributes":{"POSITION":252},"indices":253,"material":0,"mode":1},{"attributes":{"POSITION":254},"indices":255,"material":0,"mode":1}]},{"primitives":[{"attributes":{"POSITION":256},"indices":257,"material":0,"mode":1},{"attributes":{"POSITION":258},"indices":259,"material":0,"mode":1},{"attributes":{"POSITION":260},"indices":261,"material":0,"mode":1},{"attributes":{"POSITION":262},"indices":263,"material":0,"mode":1},{"attributes":{"POSITION":264},"indices":265,"material":0,"mode":1},{"attributes":{"POSITION":266},"indices":267,"material":0,"mode":1}]},{"primitives":[{"attributes":{"POSITION":268},"indices":269,"material":0,"mode":1},{"attributes":{"POSITION":270},"indices":271,"material":0,"mode":1},{"attributes":{"POSITION":272},"indices":273,"material":0,"mode":1},{"attributes":{"POSITION":274},"indices":275,"material":0,"mode":1},{"attributes":{"POSITION":276},"indices":277,"material":0,"mode":1},{"attributes":{"POSITION":278},"indices":279,"material":0,"mode":1}]},{"primitives":[{"attributes":{"POSITION":280},"indices":281,"material":0,"mode":1},{"attributes":{"POSITION":282},"indices":283,"material":0,"mode":1},{"attributes":{"POSITION":284},"indices":285,"material":0,"mode":1},{"attributes":{"POSITION":286},"indices":287,"material":0,"mode":1},{"attributes":{"POSITION":288},"indices":289,"material":0,"mode":1},{"attributes":{"POSITION":290},"indices":291,"material":0,"mode":1}]},{"primitives":[{"attributes":{"POSITION":292},"indices":293,"material":0,"mode":1},{"attributes":{"POSITION":294},"indices":295,"material":0,"mode":1},{"attributes":{"POSITION":296},"indices":297,"material":0,"mode":1},{"attributes":{"POSITION":298},"indices":299,"material":0,"mode":1},{"attributes":{"POSITION":300},"indices":301,"material":0,"mode":1},{"attributes":{"POSITION":302},"indices":303,"material":0,"mode":1}]},{"primitives":[{"attributes":{"POSITION":304},"indices":305,"material":0,"mode":1},{"attributes":{"POSITION":306},"indices":307,"material":0,"mode":1},{"attributes":{"POSITION":308},"indices":309,"material":0,"mode":1},{"attributes":{"POSITION":310},"indices":311,"material":0,"mode":1},{"attributes":{"POSITION":312},"indices":313,"material":0,"mode":1},{"attributes":{"POSITION":314},"indices":315,"material":0,"mode":1}]},{"primitives":[{"attributes":{"POSITION":316},"indices":317,"material":0,"mode":1},{"attributes":{"POSITION":318},"indices":319,"material":0,"mode":1},{"attributes":{"POSITION":320},"indices":321,"material":0,"mode":1},{"attributes":{"POSITION":322},"indices":323,"material":0,"mode":1},{"attributes":{"POSITION":324},"indices":325,"material":0,"mode":1},{"attributes":{"POSITION":326},"indices":327,"material":0,"mode":1}]},{"primitives":[{"attributes":{"POSITION":328},"indices":329,"material":0,"mode":1},{"attributes":{"POSITION":330},"indices":331,"material":0,"mode":1},{"attributes":{"POSITION":332},"indices":333,"material":0,"mode":1},{"attributes":{"POSITION":334},"indices":335,"material":0,"mode":1},{"attributes":{"POSITION":336},"indices":337,"material":0,"mode":1},{"attributes":{"POSITION":338},"indices":339,"material":0,"mode":1}]},{"primitives":[{"attributes":{"POSITION":340},"indices":341,"material":0,"mode":1},{"attributes":{"POSITION":342},"indices":343,"material":0,"mode":1},{"attributes":{"POSITION":344},"indices":345,"material":0,"mode":1},{"attributes":{"POSITION":346},"indices":347,"material":0,"mode":1},{"attributes":{"POSITION":348},"indices":349,"material":0,"mode":1},{"attributes":{"POSITION":350},"indices":351,"material":0,"mode":1}]},{"primitives":[{"attributes":{"POSITION":352},"indices":353,"material":0,"mode":1},{"attributes":{"POSITION":354},"indices":355,"material":0,"mode":1},{"attributes":{"POSITION":356},"indices":357,"material":0,"mode":1},{"attributes":{"POSITION":358},"indices":359,"material":0,"mode":1},{"attributes":{"POSITION":360},"indices":361,"material":0,"mode":1},{"attributes":{"POSITION":362},"indices":363,"material":0,"mode":1}]},{"primitives":[{"attributes":{"POSITION":364},"indices":365,"material":0,"mode":1},{"attributes":{"POSITION":366},"indices":367,"material":0,"mode":1},{"attributes":{"POSITION":368},"indices":369,"material":0,"mode":1},{"attributes":{"POSITION":370},"indices":371,"material":0,"mode":1},{"attributes":{"POSITION":372},"indices":373,"material":0,"mode":1},{"attributes":{"POSITION":374},"indices":375,"material":0,"mode":1}]}],"materials":[{"name":"白色線稿","pbrMetallicRoughness":{"baseColorFactor":[1,1,1,1],"metallicFactor":0,"roughnessFactor":1},"extensions":{"KHR_materials_unlit":{}}}],"extensionsUsed":["KHR_materials_unlit"],"buffers":[{"byteLength":15120,"uri":"data:application/octet-stream;base64,"}],"bufferViews":[{"buffer":0,"byteOffset":0,"byteLength":48,"target":34962},{"buffer":0,"byteOffset":48,"byteLength":32,"target":34963},{"buffer":0,"byteOffset":80,"byteLength":48,"target":34962},{"buffer":0,"byteOffset":128,"byteLength":32,"target":34963},{"buffer":0,"byteOffset":160,"byteLength":48,"target":34962},{"buffer":0,"byteOffset":208,"byteLength":32,"target":34963},{"buffer":0,"byteOffset":240,"byteLength":48,"target":34962},{"buffer":0,"byteOffset":288,"byteLength":32,"target":34963},{"buffer":0,"byteOffset":320,"byteLength":48,"target":34962},{"buffer":0,"byteOffset":368,"byteLength":32,"target":34963},{"buffer":0,"byteOffset":400,"byteLength":48,"target":34962},{"buffer":0,"byteOffset":448,"byteLength":32,"target":34963},{"buffer":0,"byteOffset":480,"byteLength":72,"target":34962},{"buffer":0,"byteOffset":552,"byteLength":48,"target":34963},{"buffer":0,"byteOffset":600,"byteLength":72,"target":34962},{"buffer":0,"byteOffset":672,"byteLength":48,"target":34963},{"buffer":0,"byteOffset":720,"byteLength":48,"target":34962},{"buffer":0,"byteOffset":768,"byteLength":32,"target":34963},{"buffer":0,"byteOffset":800,"byteLength":48,"target":34962},{"buffer":0,"byteOffset":848,"byteLength":32,"target":34963},{"buffer":0,"byteOffset":880,"byteLength":48,"target":34962},{"buffer":0,"byteOffset":928,"byteLength":32,"target":34963},{"buffer":0,"byteOffset":960,"byteLength":48,"target":34962},{"buffer":0,"byteOffset":1008,"byteLength":32,"target":34963},{"buffer":0,"byteOffset":1040,"byteLength":48,"target":34962},{"buffer":0,"byteOffset":1088,"byteLength":32,"target":34963},{"buffer":0,"byteOffset":1120,"byteLength":48,"target":34962},{"buffer":0,"byteOffset":1168,"byteLength":32,"target":34963},{"buffer":0,"byteOffset":1200,"byteLength":48,"target":34962},{"buffer":0,"byteOffset":1248,"byteLength":32,"target":34963},{"buffer":0,"byteOffset":1280,"byteLength":48,"target":34962},{"buffer":0,"byteOffset":1328,"byteLength":32,"target":34963},{"buffer":0,"byteOffset":1360,"byteLength":48,"target":34962},{"buffer":0,"byteOffset":1408,"byteLength":32,"target":34963},{"buffer":0,"byteOffset":1440,"byteLength":48,"target":34962},{"buffer":0,"byteOffset":1488,"byteLength":32,"target":34963},{"buffer":0,"byteOffset":1520,"byteLength":48,"target":34962},{"buffer":0,"byteOffset":1568,"byteLength":32,"target":34963},{"buffer":0,"byteOffset":1600,"byteLength":48,"target":34962},{"buffer":0,"byteOffset":1648,"byteLength":32,"target":34963},{"buffer":0,"byteOffset":1680,"byteLength":48,"target":34962},{"buffer":0,"byteOffset":1728,"byteLength":32,"target":34963},{"buffer":0,"byteOffset":1760,"byteLength":48,"target":34962},{"buffer":0,"byteOffset":1808,"byteLength":32,"target":34963},{"buffer":0,"byteOffset":1840,"byteLength":48,"target":34962},{"buffer":0,"byteOffset":1888,"byteLength":32,"target":34963},{"buffer":0,"byteOffset":1920,"byteLength":48,"target":34962},{"buffer":0,"byteOffset":1968,"byteLength":32,"target":34963},{"buffer":0,"byteOffset":2000,"byteLength":48,"target":34962},{"buffer":0,"byteOffset":2048,"byteLength":32,"target":34963},{"buffer":0,"byteOffset":2080,"byteLength":48,"target":34962},{"buffer":0,"byteOffset":2128,"byteLength":32,"target":34963},{"buffer":0,"byteOffset":2160,"byteLength":48,"target":34962},{"buffer":0,"byteOffset":2208,"byteLength":32,"target":34963},{"buffer":0,"byteOffset":2240,"byteLength":48,"target":34962},{"buffer":0,"byteOffset":2288,"byteLength":32,"target":34963},{"buffer":0,"byteOffset":2320,"byteLength":48,"target":34962},{"buffer":0,"byteOffset":2368,"byteLength":32,"target":34963},{"buffer":0,"byteOffset":2400,"byteLength":48,"target":34962},{"buffer":0,"byteOffset":2448,"byteLength":32,"target":34963},{"buffer":0,"byteOffset":2480,"byteLength":48,"target":34962},{"buffer":0,"byteOffset":2528,"byteLength":32,"target":34963},{"buffer":0,"byteOffset":2560,"byteLength":48,"target":34962},{"buffer":0,"byteOffset":2608,"byteLength":32,"target":34963},{"buffer":0,"byteOffset":2640,"byteLength":48,"target":34962},{"buffer":0,"byteOffset":2688,"byteLength":32,"target":34963},{"buffer":0,"byteOffset":2720,"byteLength":48,"target":34962},{"buffer":0,"byteOffset":2768,"byteLength":32,"target":34963},{"buffer":0,"byteOffset":2800,"byteLength":48,"target":34962},{"buffer":0,"byteOffset":2848,"byteLength":32,"target":34963},{"buffer":0,"byteOffset":2880,"byteLength":48,"target":34962},{"buffer":0,"byteOffset":2928,"byteLength":32,"target":34963},{"buffer":0,"byteOffset":2960,"byteLength":48,"target":34962},{"buffer":0,"byteOffset":3008,"byteLength":32,"target":34963},{"buffer":0,"byteOffset":3040,"byteLength":48,"target":34962},{"buffer":0,"byteOffset":3088,"byteLength":32,"target":34963},{"buffer":0,"byteOffset":3120,"byteLength":48,"target":34962},{"buffer":0,"byteOffset":3168,"byteLength":32,"target":34963},{"buffer":0,"byteOffset":3200,"byteLength":48,"target":34962},{"buffer":0,"byteOffset":3248,"byteLength":32,"target":34963},{"buffer":0,"byteOffset":3280,"byteLength":48,"target":34962},{"buffer":0,"byteOffset":3328,"byteLength":32,"target":34963},{"buffer":0,"byteOffset":3360,"byteLength":48,"target":34962},{"buffer":0,"byteOffset":3408,"byteLength":32,"target":34963},{"buffer":0,"byteOffset":3440,"byteLength":48,"target":34962},{"buffer":0,"byteOffset":3488,"byteLength":32,"target":34963},{"buffer":0,"byteOffset":3520,"byteLength":48,"target":34962},{"buffer":0,"byteOffset":3568,"byteLength":32,"target":34963},{"buffer":0,"byteOffset":3600,"byteLength":48,"target":34962},{"buffer":0,"byteOffset":3648,"byteLength":32,"target":34963},{"buffer":0,"byteOffset":3680,"byteLength":48,"target":34962},{"buffer":0,"byteOffset":3728,"byteLength":32,"target":34963},{"buffer":0,"byteOffset":3760,"byteLength":48,"target":34962},{"buffer":0,"byteOffset":3808,"byteLength":32,"target":34963},{"buffer":0,"byteOffset":3840,"byteLength":48,"target":34962},{"buffer":0,"byteOffset":3888,"byteLength":32,"target":34963},{"buffer":0,"byteOffset":3920,"byteLength":48,"target":34962},{"buffer":0,"byteOffset":3968,"byteLength":32,"target":34963},{"buffer":0,"byteOffset":4000,"byteLength":48,"target":34962},{"buffer":0,"byteOffset":4048,"byteLength":32,"target":34963},{"buffer":0,"byteOffset":4080,"byteLength":48,"target":34962},{"buffer":0,"byteOffset":4128,"byteLength":32,"target":34963},{"buffer":0,"byteOffset":4160,"byteLength":48,"target":34962},{"buffer":0,"byteOffset":4208,"byteLength":32,"target":34963},{"buffer":0,"byteOffset":4240,"byteLength":48,"target":34962},{"buffer":0,"byteOffset":4288,"byteLength":32,"target":34963},{"buffer":0,"byteOffset":4320,"byteLength":48,"target":34962},{"buffer":0,"byteOffset":4368,"byteLength":32,"target":34963},{"buffer":0,"byteOffset":4400,"byteLength":48,"target":34962},{"buffer":0,"byteOffset":4448,"byteLength":32,"target":34963},{"buffer":0,"byteOffset":4480,"byteLength":48,"target":34962},{"buffer":0,"byteOffset":4528,"byteLength":32,"target":34963},{"buffer":0,"byteOffset":4560,"byteLength":48,"target":34962},{"buffer":0,"byteOffset":4608,"byteLength":32,"target":34963},{"buffer":0,"byteOffset":4640,"byteLength":48,"target":34962},{"buffer":0,"byteOffset":4688,"byteLength":32,"target":34963},{"buffer":0,"byteOffset":4720,"byteLength":48,"target":34962},{"buffer":0,"byteOffset":4768,"byteLength":32,"target":34963},{"buffer":0,"byteOffset":4800,"byteLength":48,"target":34962},{"buffer":0,"byteOffset":4848,"byteLength":32,"target":34963},{"buffer":0,"byteOffset":4880,"byteLength":48,"target":34962},{"buffer":0,"byteOffset":4928,"byteLength":32,"target":34963},{"buffer":0,"byteOffset":4960,"byteLength":48,"target":34962},{"buffer":0,"byteOffset":5008,"byteLength":32,"target":34963},{"buffer":0,"byteOffset":5040,"byteLength":48,"target":34962},{"buffer":0,"byteOffset":5088,"byteLength":32,"target":34963},{"buffer":0,"byteOffset":5120,"byteLength":48,"target":34962},{"buffer":0,"byteOffset":5168,"byteLength":32,"target":34963},{"buffer":0,"byteOffset":5200,"byteLength":48,"target":34962},{"buffer":0,"byteOffset":5248,"byteLength":32,"target":34963},{"buffer":0,"byteOffset":5280,"byteLength":48,"target":34962},{"buffer":0,"byteOffset":5328,"byteLength":32,"target":34963},{"buffer":0,"byteOffset":5360,"byteLength":48,"target":34962},{"buffer":0,"byteOffset":5408,"byteLength":32,"target":34963},{"buffer":0,"byteOffset":5440,"byteLength":48,"target":34962},{"buffer":0,"byteOffset":5488,"byteLength":32,"target":34963},{"buffer":0,"byteOffset":5520,"byteLength":48,"target":34962},{"buffer":0,"byteOffset":5568,"byteLength":32,"target":34963},{"buffer":0,"byteOffset":5600,"byteLength":48,"target":34962},{"buffer":0,"byteOffset":5648,"byteLength":32,"target":34963},{"buffer":0,"byteOffset":5680,"byteLength":48,"target":34962},{"buffer":0,"byteOffset":5728,"byteLength":32,"target":34963},{"buffer":0,"byteOffset":5760,"byteLength":48,"target":34962},{"buffer":0,"byteOffset":5808,"byteLength":32,"target":34963},{"buffer":0,"byteOffset":5840,"byteLength":48,"target":34962},{"buffer":0,"byteOffset":5888,"byteLength":32,"target":34963},{"buffer":0,"byteOffset":5920,"byteLength":48,"target":34962},{"buffer":0,"byteOffset":5968,"byteLength":32,"target":34963},{"buffer":0,"byteOffset":6000,"byteLength":48,"target":34962},{"buffer":0,"byteOffset":6048,"byteLength":32,"target":34963},{"buffer":0,"byteOffset":6080,"byteLength":48,"target":34962},{"buffer":0,"byteOffset":6128,"byteLength":32,"target":34963},{"buffer":0,"byteOffset":6160,"byteLength":48,"target":34962},{"buffer":0,"byteOffset":6208,"byteLength":32,"target":34963},{"buffer":0,"byteOffset":6240,"byteLength":48,"target":34962},{"buffer":0,"byteOffset":6288,"byteLength":32,"target":34963},{"buffer":0,"byteOffset":6320,"byteLength":48,"target":34962},{"buffer":0,"byteOffset":6368,"byteLength":32,"target":34963},{"buffer":0,"byteOffset":6400,"byteLength":48,"target":34962},{"buffer":0,"byteOffset":6448,"byteLength":32,"target":34963},{"buffer":0,"byteOffset":6480,"byteLength":48,"target":34962},{"buffer":0,"byteOffset":6528,"byteLength":32,"target":34963},{"buffer":0,"byteOffset":6560,"byteLength":48,"target":34962},{"buffer":0,"byteOffset":6608,"byteLength":32,"target":34963},{"buffer":0,"byteOffset":6640,"byteLength":48,"target":34962},{"buffer":0,"byteOffset":6688,"byteLength":32,"target":34963},{"buffer":0,"byteOffset":6720,"byteLength":48,"target":34962},{"buffer":0,"byteOffset":6768,"byteLength":32,"target":34963},{"buffer":0,"byteOffset":6800,"byteLength":48,"target":34962},{"buffer":0,"byteOffset":6848,"byteLength":32,"target":34963},{"buffer":0,"byteOffset":6880,"byteLength":48,"target":34962},{"buffer":0,"byteOffset":6928,"byteLength":32,"target":34963},{"buffer":0,"byteOffset":6960,"byteLength":48,"target":34962},{"buffer":0,"byteOffset":7008,"byteLength":32,"target":34963},{"buffer":0,"byteOffset":7040,"byteLength":48,"target":34962},{"buffer":0,"byteOffset":7088,"byteLength":32,"target":34963},{"buffer":0,"byteOffset":7120,"byteLength":48,"target":34962},{"buffer":0,"byteOffset":7168,"byteLength":32,"target":34963},{"buffer":0,"byteOffset":7200,"byteLength":48,"target":34962},{"buffer":0,"byteOffset":7248,"byteLength":32,"target":34963},{"buffer":0,"byteOffset":7280,"byteLength":48,"target":34962},{"buffer":0,"byteOffset":7328,"byteLength":32,"target":34963},{"buffer":0,"byteOffset":7360,"byteLength":48,"target":34962},{"buffer":0,"byteOffset":7408,"byteLength":32,"target":34963},{"buffer":0,"byteOffset":7440,"byteLength":48,"target":34962},{"buffer":0,"byteOffset":7488,"byteLength":32,"target":34963},{"buffer":0,"byteOffset":7520,"byteLength":48,"target":34962},{"buffer":0,"byteOffset":7568,"byteLength":32,"target":34963},{"buffer":0,"byteOffset":7600,"byteLength":48,"target":34962},{"buffer":0,"byteOffset":7648,"byteLength":32,"target":34963},{"buffer":0,"byteOffset":7680,"byteLength":48,"target":34962},{"buffer":0,"byteOffset":7728,"byteLength":32,"target":34963},{"buffer":0,"byteOffset":7760,"byteLength":48,"target":34962},{"buffer":0,"byteOffset":7808,"byteLength":32,"target":34963},{"buffer":0,"byteOffset":7840,"byteLength":48,"target":34962},{"buffer":0,"byteOffset":7888,"byteLength":32,"target":34963},{"buffer":0,"byteOffset":7920,"byteLength":48,"target":34962},{"buffer":0,"byteOffset":7968,"byteLength":32,"target":34963},{"buffer":0,"byteOffset":8000,"byteLength":48,"target":34962},{"buffer":0,"byteOffset":8048,"byteLength":32,"target":34963},{"buffer":0,"byteOffset":8080,"byteLength":48,"target":34962},{"buffer":0,"byteOffset":8128,"byteLength":32,"target":34963},{"buffer":0,"byteOffset":8160,"byteLength":48,"target":34962},{"buffer":0,"byteOffset":8208,"byteLength":32,"target":34963},{"buffer":0,"byteOffset":8240,"byteLength":48,"target":34962},{"buffer":0,"byteOffset":8288,"byteLength":32,"target":34963},{"buffer":0,"byteOffset":8320,"byteLength":48,"target":34962},{"buffer":0,"byteOffset":8368,"byteLength":32,"target":34963},{"buffer":0,"byteOffset":8400,"byteLength":48,"target":34962},{"buffer":0,"byteOffset":8448,"byteLength":32,"target":34963},{"buffer":0,"byteOffset":8480,"byteLength":48,"target":34962},{"buffer":0,"byteOffset":8528,"byteLength":32,"target":34963},{"buffer":0,"byteOffset":8560,"byteLength":48,"target":34962},{"buffer":0,"byteOffset":8608,"byteLength":32,"target":34963},{"buffer":0,"byteOffset":8640,"byteLength":48,"target":34962},{"buffer":0,"byteOffset":8688,"byteLength":32,"target":34963},{"buffer":0,"byteOffset":8720,"byteLength":48,"target":34962},{"buffer":0,"byteOffset":8768,"byteLength":32,"target":34963},{"buffer":0,"byteOffset":8800,"byteLength":48,"target":34962},{"buffer":0,"byteOffset":8848,"byteLength":32,"target":34963},{"buffer":0,"byteOffset":8880,"byteLength":48,"target":34962},{"buffer":0,"byteOffset":8928,"byteLength":32,"target":34963},{"buffer":0,"byteOffset":8960,"byteLength":48,"target":34962},{"buffer":0,"byteOffset":9008,"byteLength":32,"target":34963},{"buffer":0,"byteOffset":9040,"byteLength":48,"target":34962},{"buffer":0,"byteOffset":9088,"byteLength":32,"target":34963},{"buffer":0,"byteOffset":9120,"byteLength":48,"target":34962},{"buffer":0,"byteOffset":9168,"byteLength":32,"target":34963},{"buffer":0,"byteOffset":9200,"byteLength":48,"target":34962},{"buffer":0,"byteOffset":9248,"byteLength":32,"target":34963},{"buffer":0,"byteOffset":9280,"byteLength":48,"target":34962},{"buffer":0,"byteOffset":9328,"byteLength":32,"target":34963},{"buffer":0,"byteOffset":9360,"byteLength":48,"target":34962},{"buffer":0,"byteOffset":9408,"byteLength":32,"target":34963},{"buffer":0,"byteOffset":9440,"byteLength":48,"target":34962},{"buffer":0,"byteOffset":9488,"byteLength":32,"target":34963},{"buffer":0,"byteOffset":9520,"byteLength":48,"target":34962},{"buffer":0,"byteOffset":9568,"byteLength":32,"target":34963},{"buffer":0,"byteOffset":9600,"byteLength":48,"target":34962},{"buffer":0,"byteOffset":9648,"byteLength":32,"target":34963},{"buffer":0,"byteOffset":9680,"byteLength":48,"target":34962},{"buffer":0,"byteOffset":9728,"byteLength":32,"target":34963},{"buffer":0,"byteOffset":9760,"byteLength":48,"target":34962},{"buffer":0,"byteOffset":9808,"byteLength":32,"target":34963},{"buffer":0,"byteOffset":9840,"byteLength":48,"target":34962},{"buffer":0,"byteOffset":9888,"byteLength":32,"target":34963},{"buffer":0,"byteOffset":9920,"byteLength":48,"target":34962},{"buffer":0,"byteOffset":9968,"byteLength":32,"target":34963},{"buffer":0,"byteOffset":10000,"byteLength":48,"target":34962},{"buffer":0,"byteOffset":10048,"byteLength":32,"target":34963},{"buffer":0,"byteOffset":10080,"byteLength":48,"target":34962},{"buffer":0,"byteOffset":10128,"byteLength":32,"target":34963},{"buffer":0,"byteOffset":10160,"byteLength":48,"target":34962},{"buffer":0,"byteOffset":10208,"byteLength":32,"target":34963},{"buffer":0,"byteOffset":10240,"byteLength":48,"target":34962},{"buffer":0,"byteOffset":10288,"byteLength":32,"target":34963},{"buffer":0,"byteOffset":10320,"byteLength":48,"target":34962},{"buffer":0,"byteOffset":10368,"byteLength":32,"target":34963},{"buffer":0,"byteOffset":10400,"byteLength":48,"target":34962},{"buffer":0,"byteOffset":10448,"byteLength":32,"target":34963},{"buffer":0,"byteOffset":10480,"byteLength":48,"target":34962},{"buffer":0,"byteOffset":10528,"byteLength":32,"target":34963},{"buffer":0,"byteOffset":10560,"byteLength":48,"target":34962},{"buffer":0,"byteOffset":10608,"byteLength":32,"target":34963},{"buffer":0,"byteOffset":10640,"byteLength":48,"target":34962},{"buffer":0,"byteOffset":10688,"byteLength":32,"target":34963},{"buffer":0,"byteOffset":10720,"byteLength":48,"target":34962},{"buffer":0,"byteOffset":10768,"byteLength":32,"target":34963},{"buffer":0,"byteOffset":10800,"byteLength":48,"target":34962},{"buffer":0,"byteOffset":10848,"byteLength":32,"target":34963},{"buffer":0,"byteOffset":10880,"byteLength":48,"target":34962},{"buffer":0,"byteOffset":10928,"byteLength":32,"target":34963},{"buffer":0,"byteOffset":10960,"byteLength":48,"target":34962},{"buffer":0,"byteOffset":11008,"byteLength":32,"target":34963},{"buffer":0,"byteOffset":11040,"byteLength":48,"target":34962},{"buffer":0,"byteOffset":11088,"byteLength":32,"target":34963},{"buffer":0,"byteOffset":11120,"byteLength":48,"target":34962},{"buffer":0,"byteOffset":11168,"byteLength":32,"target":34963},{"buffer":0,"byteOffset":11200,"byteLength":48,"target":34962},{"buffer":0,"byteOffset":11248,"byteLength":32,"target":34963},{"buffer":0,"byteOffset":11280,"byteLength":48,"target":34962},{"buffer":0,"byteOffset":11328,"byteLength":32,"target":34963},{"buffer":0,"byteOffset":11360,"byteLength":48,"target":34962},{"buffer":0,"byteOffset":11408,"byteLength":32,"target":34963},{"buffer":0,"byteOffset":11440,"byteLength":48,"target":34962},{"buffer":0,"byteOffset":11488,"byteLength":32,"target":34963},{"buffer":0,"byteOffset":11520,"byteLength":48,"target":34962},{"buffer":0,"byteOffset":11568,"byteLength":32,"target":34963},{"buffer":0,"byteOffset":11600,"byteLength":48,"target":34962},{"buffer":0,"byteOffset":11648,"byteLength":32,"target":34963},{"buffer":0,"byteOffset":11680,"byteLength":48,"target":34962},{"buffer":0,"byteOffset":11728,"byteLength":32,"target":34963},{"buffer":0,"byteOffset":11760,"byteLength":48,"target":34962},{"buffer":0,"byteOffset":11808,"byteLength":32,"target":34963},{"buffer":0,"byteOffset":11840,"byteLength":48,"target":34962},{"buffer":0,"byteOffset":11888,"byteLength":32,"target":34963},{"buffer":0,"byteOffset":11920,"byteLength":48,"target":34962},{"buffer":0,"byteOffset":11968,"byteLength":32,"target":34963},{"buffer":0,"byteOffset":12000,"byteLength":48,"target":34962},{"buffer":0,"byteOffset":12048,"byteLength":32,"target":34963},{"buffer":0,"byteOffset":12080,"byteLength":48,"target":34962},{"buffer":0,"byteOffset":12128,"byteLength":32,"target":34963},{"buffer":0,"byteOffset":12160,"byteLength":48,"target":34962},{"buffer":0,"byteOffset":12208,"byteLength":32,"target":34963},{"buffer":0,"byteOffset":12240,"byteLength":48,"target":34962},{"buffer":0,"byteOffset":12288,"byteLength":32,"target":34963},{"buffer":0,"byteOffset":12320,"byteLength":48,"target":34962},{"buffer":0,"byteOffset":12368,"byteLength":32,"target":34963},{"buffer":0,"byteOffset":12400,"byteLength":48,"target":34962},{"buffer":0,"byteOffset":12448,"byteLength":32,"target":34963},{"buffer":0,"byteOffset":12480,"byteLength":48,"target":34962},{"buffer":0,"byteOffset":12528,"byteLength":32,"target":34963},{"buffer":0,"byteOffset":12560,"byteLength":48,"target":34962},{"buffer":0,"byteOffset":12608,"byteLength":32,"target":34963},{"buffer":0,"byteOffset":12640,"byteLength":48,"target":34962},{"buffer":0,"byteOffset":12688,"byteLength":32,"target":34963},{"buffer":0,"byteOffset":12720,"byteLength":48,"target":34962},{"buffer":0,"byteOffset":12768,"byteLength":32,"target":34963},{"buffer":0,"byteOffset":12800,"byteLength":48,"target":34962},{"buffer":0,"byteOffset":12848,"byteLength":32,"target":34963},{"buffer":0,"byteOffset":12880,"byteLength":48,"target":34962},{"buffer":0,"byteOffset":12928,"byteLength":32,"target":34963},{"buffer":0,"byteOffset":12960,"byteLength":48,"target":34962},{"buffer":0,"byteOffset":13008,"byteLength":32,"target":34963},{"buffer":0,"byteOffset":13040,"byteLength":48,"target":34962},{"buffer":0,"byteOffset":13088,"byteLength":32,"target":34963},{"buffer":0,"byteOffset":13120,"byteLength":48,"target":34962},{"buffer":0,"byteOffset":13168,"byteLength":32,"target":34963},{"buffer":0,"byteOffset":13200,"byteLength":48,"target":34962},{"buffer":0,"byteOffset":13248,"byteLength":32,"target":34963},{"buffer":0,"byteOffset":13280,"byteLength":48,"target":34962},{"buffer":0,"byteOffset":13328,"byteLength":32,"target":34963},{"buffer":0,"byteOffset":13360,"byteLength":48,"target":34962},{"buffer":0,"byteOffset":13408,"byteLength":32,"target":34963},{"buffer":0,"byteOffset":13440,"byteLength":48,"target":34962},{"buffer":0,"byteOffset":13488,"byteLength":32,"target":34963},{"buffer":0,"byteOffset":13520,"byteLength":48,"target":34962},{"buffer":0,"byteOffset":13568,"byteLength":32,"target":34963},{"buffer":0,"byteOffset":13600,"byteLength":48,"target":34962},{"buffer":0,"byteOffset":13648,"byteLength":32,"target":34963},{"buffer":0,"byteOffset":13680,"byteLength":48,"target":34962},{"buffer":0,"byteOffset":13728,"byteLength":32,"target":34963},{"buffer":0,"byteOffset":13760,"byteLength":48,"target":34962},{"buffer":0,"byteOffset":13808,"byteLength":32,"target":34963},{"buffer":0,"byteOffset":13840,"byteLength":48,"target":34962},{"buffer":0,"byteOffset":13888,"byteLength":32,"target":34963},{"buffer":0,"byteOffset":13920,"byteLength":48,"target":34962},{"buffer":0,"byteOffset":13968,"byteLength":32,"target":34963},{"buffer":0,"byteOffset":14000,"byteLength":48,"target":34962},{"buffer":0,"byteOffset":14048,"byteLength":32,"target":34963},{"buffer":0,"byteOffset":14080,"byteLength":48,"target":34962},{"buffer":0,"byteOffset":14128,"byteLength":32,"target":34963},{"buffer":0,"byteOffset":14160,"byteLength":48,"target":34962},{"buffer":0,"byteOffset":14208,"byteLength":32,"target":34963},{"buffer":0,"byteOffset":14240,"byteLength":48,"target":34962},{"buffer":0,"byteOffset":14288,"byteLength":32,"target":34963},{"buffer":0,"byteOffset":14320,"byteLength":48,"target":34962},{"buffer":0,"byteOffset":14368,"byteLength":32,"target":34963},{"buffer":0,"byteOffset":14400,"byteLength":48,"target":34962},{"buffer":0,"byteOffset":14448,"byteLength":32,"target":34963},{"buffer":0,"byteOffset":14480,"byteLength":48,"target":34962},{"buffer":0,"byteOffset":14528,"byteLength":32,"target":34963},{"buffer":0,"byteOffset":14560,"byteLength":48,"target":34962},{"buffer":0,"byteOffset":14608,"byteLength":32,"target":34963},{"buffer":0,"byteOffset":14640,"byteLength":48,"target":34962},{"buffer":0,"byteOffset":14688,"byteLength":32,"target":34963},{"buffer":0,"byteOffset":14720,"byteLength":48,"target":34962},{"buffer":0,"byteOffset":14768,"byteLength":32,"target":34963},{"buffer":0,"byteOffset":14800,"byteLength":48,"target":34962},{"buffer":0,"byteOffset":14848,"byteLength":32,"target":34963},{"buffer":0,"byteOffset":14880,"byteLength":48,"target":34962},{"buffer":0,"byteOffset":14928,"byteLength":32,"target":34963},{"buffer":0,"byteOffset":14960,"byteLength":48,"target":34962},{"buffer":0,"byteOffset":15008,"byteLength":32,"target":34963},{"buffer":0,"byteOffset":15040,"byteLength":48,"target":34962},{"buffer":0,"byteOffset":15088,"byteLength":32,"target":34963}],"accessors":[{"bufferView":0,"componentType":5126,"count":4,"type":"VEC3","min":[-14.534991264343262,38.150001525878906,9.43600734115875e-14],"max":[-14.534991264343262,44.95000076293945,0.8500000238418579]},{"bufferView":1,"componentType":5125,"count":8,"type":"SCALAR"},{"bufferView":2,"componentType":5126,"count":4,"type":"VEC3","min":[-15.534991264343262,44.95000076293945,9.265477247206652e-14],"max":[-14.534991264343262,44.95000076293945,0.8500000238418579]},{"bufferView":3,"componentType":5125,"count":8,"type":"SCALAR"},{"bufferView":4,"componentType":5126,"count":4,"type":"VEC3","min":[-14.334991455078125,34.749996185302734,8.659555955333256e-14],"max":[-14.334991455078125,38.150001525878906,0.8500000238418579]},{"bufferView":5,"componentType":5125,"count":8,"type":"SCALAR"},{"bufferView":6,"componentType":5126,"count":4,"type":"VEC3","min":[-15.534991264343262,34.749996185302734,8.659555955333256e-14],"max":[-14.334991455078125,34.749996185302734,0.8500000238418579]},{"bufferView":7,"componentType":5125,"count":8,"type":"SCALAR"},{"bufferView":8,"componentType":5126,"count":4,"type":"VEC3","min":[-14.534991264343262,38.150001525878906,9.43600734115875e-14],"max":[-14.334991455078125,38.150001525878906,0.8500000238418579]},{"bufferView":9,"componentType":5125,"count":8,"type":"SCALAR"},{"bufferView":10,"componentType":5126,"count":4,"type":"VEC3","min":[-15.534991264343262,34.749996185302734,8.659555955333256e-14],"max":[-15.534991264343262,44.95000076293945,0.8500000238418579]},{"bufferView":11,"componentType":5125,"count":8,"type":"SCALAR"},{"bufferView":12,"componentType":5126,"count":6,"type":"VEC3","min":[-15.534991264343262,34.749996185302734,8.659555955333256e-14],"max":[-14.334991455078125,44.95000076293945,9.49285070580945e-14]},{"bufferView":13,"componentType":5125,"count":12,"type":"SCALAR"},{"bufferView":14,"componentType":5126,"count":6,"type":"VEC3","min":[-15.534991264343262,34.749996185302734,0.8500000238418579],"max":[-14.334991455078125,44.95000076293945,0.8500000238418579]},{"bufferView":15,"componentType":5125,"count":12,"type":"SCALAR"},{"bufferView":16,"componentType":5126,"count":4,"type":"VEC3","min":[-9.259991645812988,34.749996185302734,0.22499999403953552],"max":[-8.659991264343262,34.749996185302734,0.7250000238418579]},{"bufferView":17,"componentType":5125,"count":8,"type":"SCALAR"},{"bufferView":18,"componentType":5126,"count":4,"type":"VEC3","min":[-9.259991645812988,34.749996185302734,0.22499999403953552],"max":[-9.259991645812988,44.95000076293945,0.7250000238418579]},{"bufferView":19,"componentType":5125,"count":8,"type":"SCALAR"},{"bufferView":20,"componentType":5126,"count":4,"type":"VEC3","min":[-9.259991645812988,34.749996185302734,0.22499999403953552],"max":[-8.659991264343262,44.95000076293945,0.22499999403953552]},{"bufferView":21,"componentType":5125,"count":8,"type":"SCALAR"},{"bufferView":22,"componentType":5126,"count":4,"type":"VEC3","min":[-8.659991264343262,34.749996185302734,0.22499999403953552],"max":[-8.659991264343262,44.95000076293945,0.7250000238418579]},{"bufferView":23,"componentType":5125,"count":8,"type":"SCALAR"},{"bufferView":24,"componentType":5126,"count":4,"type":"VEC3","min":[-9.259991645812988,34.749996185302734,0.7250000238418579],"max":[-8.659991264343262,44.95000076293945,0.7250000238418579]},{"bufferView":25,"componentType":5125,"count":8,"type":"SCALAR"},{"bufferView":26,"componentType":5126,"count":4,"type":"VEC3","min":[-9.259991645812988,44.95000076293945,0.22499999403953552],"max":[-8.659991264343262,44.95000076293945,0.7250000238418579]},{"bufferView":27,"componentType":5125,"count":8,"type":"SCALAR"},{"bufferView":28,"componentType":5126,"count":4,"type":"VEC3","min":[-12.084991455078125,34.749996185302734,0.22499999403953552],"max":[-11.484990119934082,34.749996185302734,0.7250000238418579]},{"bufferView":29,"componentType":5125,"count":8,"type":"SCALAR"},{"bufferView":30,"componentType":5126,"count":4,"type":"VEC3","min":[-12.084991455078125,34.749996185302734,0.22499999403953552],"max":[-11.484990119934082,44.95000076293945,0.22499999403953552]},{"bufferView":31,"componentType":5125,"count":8,"type":"SCALAR"},{"bufferView":32,"componentType":5126,"count":4,"type":"VEC3","min":[-11.484990119934082,34.749996185302734,0.22499999403953552],"max":[-11.484990119934082,44.95000076293945,0.7250000238418579]},{"bufferView":33,"componentType":5125,"count":8,"type":"SCALAR"},{"bufferView":34,"componentType":5126,"count":4,"type":"VEC3","min":[-12.084991455078125,34.749996185302734,0.7250000238418579],"max":[-11.484990119934082,44.95000076293945,0.7250000238418579]},{"bufferView":35,"componentType":5125,"count":8,"type":"SCALAR"},{"bufferView":36,"componentType":5126,"count":4,"type":"VEC3","min":[-12.084991455078125,34.749996185302734,0.22499999403953552],"max":[-12.084991455078125,44.95000076293945,0.7250000238418579]},{"bufferView":37,"componentType":5125,"count":8,"type":"SCALAR"},{"bufferView":38,"componentType":5126,"count":4,"type":"VEC3","min":[-12.084991455078125,44.95000076293945,0.22499999403953552],"max":[-11.484990119934082,44.95000076293945,0.7250000238418579]},{"bufferView":39,"componentType":5125,"count":8,"type":"SCALAR"},{"bufferView":40,"componentType":5126,"count":4,"type":"VEC3","min":[-6.309990882873535,34.749996185302734,0.05000000819563866],"max":[-5.109991550445557,34.749996185302734,0.8999999761581421]},{"bufferView":41,"componentType":5125,"count":8,"type":"SCALAR"},{"bufferView":42,"componentType":5126,"count":4,"type":"VEC3","min":[-6.309990882873535,34.749996185302734,0.05000000819563866],"max":[-5.109991550445557,44.95000076293945,0.05000000819563866]},{"bufferView":43,"componentType":5125,"count":8,"type":"SCALAR"},{"bufferView":44,"componentType":5126,"count":4,"type":"VEC3","min":[-5.109991550445557,34.749996185302734,0.05000000819563866],"max":[-5.109991550445557,44.95000076293945,0.8999999761581421]},{"bufferView":45,"componentType":5125,"count":8,"type":"SCALAR"},{"bufferView":46,"componentType":5126,"count":4,"type":"VEC3","min":[-6.309990882873535,34.749996185302734,0.8999999761581421],"max":[-5.109991550445557,44.95000076293945,0.8999999761581421]},{"bufferView":47,"componentType":5125,"count":8,"type":"SCALAR"},{"bufferView":48,"componentType":5126,"count":4,"type":"VEC3","min":[-6.309990882873535,34.749996185302734,0.05000000819563866],"max":[-6.309990882873535,44.95000076293945,0.8999999761581421]},{"bufferView":49,"componentType":5125,"count":8,"type":"SCALAR"},{"bufferView":50,"componentType":5126,"count":4,"type":"VEC3","min":[-6.309990882873535,44.95000076293945,0.05000000819563866],"max":[-5.109991550445557,44.95000076293945,0.8999999761581421]},{"bufferView":51,"componentType":5125,"count":8,"type":"SCALAR"},{"bufferView":52,"componentType":5126,"count":4,"type":"VEC3","min":[-9.662328714910018e-9,44.95000076293945,-39.04999923706055],"max":[0.8500000238418579,44.95000076293945,-38.25]},{"bufferView":53,"componentType":5125,"count":8,"type":"SCALAR"},{"bufferView":54,"componentType":5126,"count":4,"type":"VEC3","min":[-9.662328714910018e-9,34.749996185302734,-39.04999923706055],"max":[-9.662326050374759e-9,44.95000076293945,-38.25]},{"bufferView":55,"componentType":5125,"count":8,"type":"SCALAR"},{"bufferView":56,"componentType":5126,"count":4,"type":"VEC3","min":[-9.662328714910018e-9,34.749996185302734,-39.04999923706055],"max":[0.8500000238418579,44.95000076293945,-39.04999923706055]},{"bufferView":57,"componentType":5125,"count":8,"type":"SCALAR"},{"bufferView":58,"componentType":5126,"count":4,"type":"VEC3","min":[0.8500000238418579,34.749996185302734,-39.04999923706055],"max":[0.8500000238418579,44.95000076293945,-38.25]},{"bufferView":59,"componentType":5125,"count":8,"type":"SCALAR"},{"bufferView":60,"componentType":5126,"count":4,"type":"VEC3","min":[-9.662326050374759e-9,34.749996185302734,-38.25],"max":[0.8500000238418579,44.95000076293945,-38.25]},{"bufferView":61,"componentType":5125,"count":8,"type":"SCALAR"},{"bufferView":62,"componentType":5126,"count":4,"type":"VEC3","min":[-9.662326050374759e-9,34.749996185302734,-39.04999923706055],"max":[0.8500000238418579,34.749996185302734,-38.25]},{"bufferView":63,"componentType":5125,"count":8,"type":"SCALAR"},{"bufferView":64,"componentType":5126,"count":4,"type":"VEC3","min":[-3.129995822906494,44.95000076293945,-39],"max":[-2.5299956798553467,44.95000076293945,-38.5]},{"bufferView":65,"componentType":5125,"count":8,"type":"SCALAR"},{"bufferView":66,"componentType":5126,"count":4,"type":"VEC3","min":[-3.129995822906494,34.749996185302734,-39],"max":[-2.5299956798553467,44.95000076293945,-39]},{"bufferView":67,"componentType":5125,"count":8,"type":"SCALAR"},{"bufferView":68,"componentType":5126,"count":4,"type":"VEC3","min":[-2.5299956798553467,34.749996185302734,-39],"max":[-2.5299956798553467,44.95000076293945,-38.5]},{"bufferView":69,"componentType":5125,"count":8,"type":"SCALAR"},{"bufferView":70,"componentType":5126,"count":4,"type":"VEC3","min":[-3.129995822906494,34.749996185302734,-38.5],"max":[-2.5299956798553467,44.95000076293945,-38.5]},{"bufferView":71,"componentType":5125,"count":8,"type":"SCALAR"},{"bufferView":72,"componentType":5126,"count":4,"type":"VEC3","min":[-3.129995822906494,34.749996185302734,-39],"max":[-3.129995822906494,44.95000076293945,-38.5]},{"bufferView":73,"componentType":5125,"count":8,"type":"SCALAR"},{"bufferView":74,"componentType":5126,"count":4,"type":"VEC3","min":[-3.129995822906494,34.749996185302734,-39],"max":[-2.5299956798553467,34.749996185302734,-38.5]},{"bufferView":75,"componentType":5125,"count":8,"type":"SCALAR"},{"bufferView":76,"componentType":5126,"count":4,"type":"VEC3","min":[-6.659991264343262,44.95000076293945,-12.25],"max":[-5.509991645812988,44.95000076293945,-11.350000381469727]},{"bufferView":77,"componentType":5125,"count":8,"type":"SCALAR"},{"bufferView":78,"componentType":5126,"count":4,"type":"VEC3","min":[-6.659991264343262,34.749996185302734,-12.25],"max":[-6.659991264343262,44.95000076293945,-11.350000381469727]},{"bufferView":79,"componentType":5125,"count":8,"type":"SCALAR"},{"bufferView":80,"componentType":5126,"count":4,"type":"VEC3","min":[-6.659991264343262,34.749996185302734,-12.25],"max":[-5.509991645812988,44.95000076293945,-12.25]},{"bufferView":81,"componentType":5125,"count":8,"type":"SCALAR"},{"bufferView":82,"componentType":5126,"count":4,"type":"VEC3","min":[-5.509991645812988,34.749996185302734,-12.25],"max":[-5.509991645812988,44.95000076293945,-11.350000381469727]},{"bufferView":83,"componentType":5125,"count":8,"type":"SCALAR"},{"bufferView":84,"componentType":5126,"count":4,"type":"VEC3","min":[-6.659991264343262,34.749996185302734,-11.350000381469727],"max":[-5.509991645812988,44.95000076293945,-11.350000381469727]},{"bufferView":85,"componentType":5125,"count":8,"type":"SCALAR"},{"bufferView":86,"componentType":5126,"count":4,"type":"VEC3","min":[-6.659991264343262,34.749996185302734,-12.25],"max":[-5.509991645812988,34.749996185302734,-11.350000381469727]},{"bufferView":87,"componentType":5125,"count":8,"type":"SCALAR"},{"bufferView":88,"componentType":5126,"count":4,"type":"VEC3","min":[-3.449991226196289,44.95000076293945,-11.899999618530273],"max":[-2.8499910831451416,44.95000076293945,-11.350000381469727]},{"bufferView":89,"componentType":5125,"count":8,"type":"SCALAR"},{"bufferView":90,"componentType":5126,"count":4,"type":"VEC3","min":[-3.449991226196289,34.749996185302734,-11.899999618530273],"max":[-3.449991226196289,44.95000076293945,-11.350000381469727]},{"bufferView":91,"componentType":5125,"count":8,"type":"SCALAR"},{"bufferView":92,"componentType":5126,"count":4,"type":"VEC3","min":[-3.449991226196289,34.749996185302734,-11.350000381469727],"max":[-2.8499910831451416,44.95000076293945,-11.350000381469727]},{"bufferView":93,"componentType":5125,"count":8,"type":"SCALAR"},{"bufferView":94,"componentType":5126,"count":4,"type":"VEC3","min":[-2.8499910831451416,34.749996185302734,-11.899999618530273],"max":[-2.8499910831451416,44.95000076293945,-11.350000381469727]},{"bufferView":95,"componentType":5125,"count":8,"type":"SCALAR"},{"bufferView":96,"componentType":5126,"count":4,"type":"VEC3","min":[-3.449991226196289,34.749996185302734,-11.899999618530273],"max":[-2.8499910831451416,44.95000076293945,-11.899999618530273]},{"bufferView":97,"componentType":5125,"count":8,"type":"SCALAR"},{"bufferView":98,"componentType":5126,"count":4,"type":"VEC3","min":[-3.449991226196289,34.749996185302734,-11.899999618530273],"max":[-2.8499910831451416,34.749996185302734,-11.350000381469727]},{"bufferView":99,"componentType":5125,"count":8,"type":"SCALAR"},{"bufferView":100,"componentType":5126,"count":4,"type":"VEC3","min":[-6.509991645812988,44.95000076293945,-34.275001525878906],"max":[-6.009991645812988,44.95000076293945,-33.67499923706055]},{"bufferView":101,"componentType":5125,"count":8,"type":"SCALAR"},{"bufferView":102,"componentType":5126,"count":4,"type":"VEC3","min":[-6.509991645812988,34.749996185302734,-34.275001525878906],"max":[-6.009991645812988,44.95000076293945,-34.275001525878906]},{"bufferView":103,"componentType":5125,"count":8,"type":"SCALAR"},{"bufferView":104,"componentType":5126,"count":4,"type":"VEC3","min":[-6.009991645812988,34.749996185302734,-34.275001525878906],"max":[-6.009991645812988,44.95000076293945,-33.67499923706055]},{"bufferView":105,"componentType":5125,"count":8,"type":"SCALAR"},{"bufferView":106,"componentType":5126,"count":4,"type":"VEC3","min":[-6.509991645812988,34.749996185302734,-33.67499923706055],"max":[-6.009991645812988,44.95000076293945,-33.67499923706055]},{"bufferView":107,"componentType":5125,"count":8,"type":"SCALAR"},{"bufferView":108,"componentType":5126,"count":4,"type":"VEC3","min":[-6.509991645812988,34.749996185302734,-34.275001525878906],"max":[-6.509991645812988,44.95000076293945,-33.67499923706055]},{"bufferView":109,"componentType":5125,"count":8,"type":"SCALAR"},{"bufferView":110,"componentType":5126,"count":4,"type":"VEC3","min":[-6.509991645812988,34.749996185302734,-34.275001525878906],"max":[-6.009991645812988,34.749996185302734,-33.67499923706055]},{"bufferView":111,"componentType":5125,"count":8,"type":"SCALAR"},{"bufferView":112,"componentType":5126,"count":4,"type":"VEC3","min":[-12.459991455078125,44.95000076293945,-33.399993896484375],"max":[-11.959991455078125,44.95000076293945,-32.59999084472656]},{"bufferView":113,"componentType":5125,"count":8,"type":"SCALAR"},{"bufferView":114,"componentType":5126,"count":4,"type":"VEC3","min":[-12.459991455078125,34.749996185302734,-33.399993896484375],"max":[-12.459991455078125,44.95000076293945,-32.59999084472656]},{"bufferView":115,"componentType":5125,"count":8,"type":"SCALAR"},{"bufferView":116,"componentType":5126,"count":4,"type":"VEC3","min":[-12.459991455078125,34.749996185302734,-33.399993896484375],"max":[-11.959991455078125,44.95000076293945,-33.399993896484375]},{"bufferView":117,"componentType":5125,"count":8,"type":"SCALAR"},{"bufferView":118,"componentType":5126,"count":4,"type":"VEC3","min":[-11.959991455078125,34.749996185302734,-33.399993896484375],"max":[-11.959991455078125,44.95000076293945,-32.59999084472656]},{"bufferView":119,"componentType":5125,"count":8,"type":"SCALAR"},{"bufferView":120,"componentType":5126,"count":4,"type":"VEC3","min":[-12.459991455078125,34.749996185302734,-32.59999084472656],"max":[-11.959991455078125,44.95000076293945,-32.59999084472656]},{"bufferView":121,"componentType":5125,"count":8,"type":"SCALAR"},{"bufferView":122,"componentType":5126,"count":4,"type":"VEC3","min":[-12.459991455078125,34.749996185302734,-33.399993896484375],"max":[-11.959991455078125,34.749996185302734,-32.59999084472656]},{"bufferView":123,"componentType":5125,"count":8,"type":"SCALAR"},{"bufferView":124,"componentType":5126,"count":4,"type":"VEC3","min":[-9.509990692138672,44.95000076293945,-39],"max":[-8.909991264343262,44.95000076293945,-38.54999923706055]},{"bufferView":125,"componentType":5125,"count":8,"type":"SCALAR"},{"bufferView":126,"componentType":5126,"count":4,"type":"VEC3","min":[-9.509990692138672,34.749996185302734,-39],"max":[-9.509990692138672,44.95000076293945,-38.54999923706055]},{"bufferView":127,"componentType":5125,"count":8,"type":"SCALAR"},{"bufferView":128,"componentType":5126,"count":4,"type":"VEC3","min":[-9.509990692138672,34.749996185302734,-39],"max":[-8.909991264343262,44.95000076293945,-39]},{"bufferView":129,"componentType":5125,"count":8,"type":"SCALAR"},{"bufferView":130,"componentType":5126,"count":4,"type":"VEC3","min":[-8.909991264343262,34.749996185302734,-39],"max":[-8.909991264343262,44.95000076293945,-38.54999923706055]},{"bufferView":131,"componentType":5125,"count":8,"type":"SCALAR"},{"bufferView":132,"componentType":5126,"count":4,"type":"VEC3","min":[-9.509990692138672,34.749996185302734,-38.54999923706055],"max":[-8.909991264343262,44.95000076293945,-38.54999923706055]},{"bufferView":133,"componentType":5125,"count":8,"type":"SCALAR"},{"bufferView":134,"componentType":5126,"count":4,"type":"VEC3","min":[-9.509990692138672,34.749996185302734,-39],"max":[-8.909991264343262,34.749996185302734,-38.54999923706055]},{"bufferView":135,"componentType":5125,"count":8,"type":"SCALAR"},{"bufferView":136,"componentType":5126,"count":4,"type":"VEC3","min":[-10.659991264343262,44.95000076293945,-12.149999618530273],"max":[-10.059991836547852,44.95000076293945,-11.55000114440918]},{"bufferView":137,"componentType":5125,"count":8,"type":"SCALAR"},{"bufferView":138,"componentType":5126,"count":4,"type":"VEC3","min":[-10.659991264343262,34.749996185302734,-12.149999618530273],"max":[-10.059991836547852,44.95000076293945,-12.149999618530273]},{"bufferView":139,"componentType":5125,"count":8,"type":"SCALAR"},{"bufferView":140,"componentType":5126,"count":4,"type":"VEC3","min":[-10.059991836547852,34.749996185302734,-12.149999618530273],"max":[-10.059991836547852,44.95000076293945,-11.55000114440918]},{"bufferView":141,"componentType":5125,"count":8,"type":"SCALAR"},{"bufferView":142,"componentType":5126,"count":4,"type":"VEC3","min":[-10.659991264343262,34.749996185302734,-11.55000114440918],"max":[-10.059991836547852,44.95000076293945,-11.55000114440918]},{"bufferView":143,"componentType":5125,"count":8,"type":"SCALAR"},{"bufferView":144,"componentType":5126,"count":4,"type":"VEC3","min":[-10.659991264343262,34.749996185302734,-12.149999618530273],"max":[-10.659991264343262,44.95000076293945,-11.55000114440918]},{"bufferView":145,"componentType":5125,"count":8,"type":"SCALAR"},{"bufferView":146,"componentType":5126,"count":4,"type":"VEC3","min":[-10.659991264343262,34.749996185302734,-12.149999618530273],"max":[-10.059991836547852,34.749996185302734,-11.55000114440918]},{"bufferView":147,"componentType":5125,"count":8,"type":"SCALAR"},{"bufferView":148,"componentType":5126,"count":4,"type":"VEC3","min":[-11.799991607666016,44.95000076293945,-21.649999618530273],"max":[-10.999991416931152,44.95000076293945,-21.200002670288086]},{"bufferView":149,"componentType":5125,"count":8,"type":"SCALAR"},{"bufferView":150,"componentType":5126,"count":4,"type":"VEC3","min":[-11.799991607666016,34.749996185302734,-21.649999618530273],"max":[-11.799991607666016,44.95000076293945,-21.200002670288086]},{"bufferView":151,"componentType":5125,"count":8,"type":"SCALAR"},{"bufferView":152,"componentType":5126,"count":4,"type":"VEC3","min":[-11.799991607666016,34.749996185302734,-21.649999618530273],"max":[-10.999991416931152,44.95000076293945,-21.649999618530273]},{"bufferView":153,"componentType":5125,"count":8,"type":"SCALAR"},{"bufferView":154,"componentType":5126,"count":4,"type":"VEC3","min":[-10.999991416931152,34.749996185302734,-21.649999618530273],"max":[-10.999991416931152,44.95000076293945,-21.200002670288086]},{"bufferView":155,"componentType":5125,"count":8,"type":"SCALAR"},{"bufferView":156,"componentType":5126,"count":4,"type":"VEC3","min":[-11.799991607666016,34.749996185302734,-21.200002670288086],"max":[-10.999991416931152,44.95000076293945,-21.200002670288086]},{"bufferView":157,"componentType":5125,"count":8,"type":"SCALAR"},{"bufferView":158,"componentType":5126,"count":4,"type":"VEC3","min":[-11.799991607666016,34.749996185302734,-21.649999618530273],"max":[-10.999991416931152,34.749996185302734,-21.200002670288086]},{"bufferView":159,"componentType":5125,"count":8,"type":"SCALAR"},{"bufferView":160,"componentType":5126,"count":4,"type":"VEC3","min":[-12.759991645812988,44.95000076293945,-29.249990463256836],"max":[-11.809989929199219,44.95000076293945,-28.14999008178711]},{"bufferView":161,"componentType":5125,"count":8,"type":"SCALAR"},{"bufferView":162,"componentType":5126,"count":4,"type":"VEC3","min":[-12.759991645812988,34.749996185302734,-29.249990463256836],"max":[-12.759991645812988,44.95000076293945,-28.14999008178711]},{"bufferView":163,"componentType":5125,"count":8,"type":"SCALAR"},{"bufferView":164,"componentType":5126,"count":4,"type":"VEC3","min":[-12.759991645812988,34.749996185302734,-29.249990463256836],"max":[-11.809989929199219,44.95000076293945,-29.249990463256836]},{"bufferView":165,"componentType":5125,"count":8,"type":"SCALAR"},{"bufferView":166,"componentType":5126,"count":4,"type":"VEC3","min":[-11.809989929199219,34.749996185302734,-29.249990463256836],"max":[-11.809989929199219,44.95000076293945,-28.14999008178711]},{"bufferView":167,"componentType":5125,"count":8,"type":"SCALAR"},{"bufferView":168,"componentType":5126,"count":4,"type":"VEC3","min":[-12.759991645812988,34.749996185302734,-28.14999008178711],"max":[-11.809989929199219,44.95000076293945,-28.14999008178711]},{"bufferView":169,"componentType":5125,"count":8,"type":"SCALAR"},{"bufferView":170,"componentType":5126,"count":4,"type":"VEC3","min":[-12.759991645812988,34.749996185302734,-29.249990463256836],"max":[-11.809989929199219,34.749996185302734,-28.14999008178711]},{"bufferView":171,"componentType":5125,"count":8,"type":"SCALAR"},{"bufferView":172,"componentType":5126,"count":4,"type":"VEC3","min":[-16.034992218017578,44.95000076293945,-21.899999618530273],"max":[-14.634991645812988,44.95000076293945,-21.049999237060547]},{"bufferView":173,"componentType":5125,"count":8,"type":"SCALAR"},{"bufferView":174,"componentType":5126,"count":4,"type":"VEC3","min":[-16.034992218017578,34.749996185302734,-21.049999237060547],"max":[-14.634991645812988,44.95000076293945,-21.049999237060547]},{"bufferView":175,"componentType":5125,"count":8,"type":"SCALAR"},{"bufferView":176,"componentType":5126,"count":4,"type":"VEC3","min":[-14.634991645812988,34.749996185302734,-21.899999618530273],"max":[-14.634991645812988,44.95000076293945,-21.049999237060547]},{"bufferView":177,"componentType":5125,"count":8,"type":"SCALAR"},{"bufferView":178,"componentType":5126,"count":4,"type":"VEC3","min":[-16.034992218017578,34.749996185302734,-21.899999618530273],"max":[-14.634991645812988,44.95000076293945,-21.899999618530273]},{"bufferView":179,"componentType":5125,"count":8,"type":"SCALAR"},{"bufferView":180,"componentType":5126,"count":4,"type":"VEC3","min":[-16.034992218017578,34.749996185302734,-21.899999618530273],"max":[-16.034992218017578,44.95000076293945,-21.049999237060547]},{"bufferView":181,"componentType":5125,"count":8,"type":"SCALAR"},{"bufferView":182,"componentType":5126,"count":4,"type":"VEC3","min":[-16.034992218017578,34.749996185302734,-21.899999618530273],"max":[-14.634991645812988,34.749996185302734,-21.049999237060547]},{"bufferView":183,"componentType":5125,"count":8,"type":"SCALAR"},{"bufferView":184,"componentType":5126,"count":4,"type":"VEC3","min":[0.000008704630090505816,44.95000076293945,-12.149999618530273],"max":[0.8500087261199951,44.95000076293945,-11.350000381469727]},{"bufferView":185,"componentType":5125,"count":8,"type":"SCALAR"},{"bufferView":186,"componentType":5126,"count":4,"type":"VEC3","min":[0.000008704630090505816,34.749996185302734,-12.149999618530273],"max":[0.8500087261199951,44.95000076293945,-12.149999618530273]},{"bufferView":187,"componentType":5125,"count":8,"type":"SCALAR"},{"bufferView":188,"componentType":5126,"count":4,"type":"VEC3","min":[0.8500087261199951,34.749996185302734,-12.149999618530273],"max":[0.8500087261199951,44.95000076293945,-11.350000381469727]},{"bufferView":189,"componentType":5125,"count":8,"type":"SCALAR"},{"bufferView":190,"componentType":5126,"count":4,"type":"VEC3","min":[0.000008704630090505816,34.749996185302734,-11.350000381469727],"max":[0.8500087261199951,44.95000076293945,-11.350000381469727]},{"bufferView":191,"componentType":5125,"count":8,"type":"SCALAR"},{"bufferView":192,"componentType":5126,"count":4,"type":"VEC3","min":[0.000008704630090505816,34.749996185302734,-12.149999618530273],"max":[0.000008704630090505816,44.95000076293945,-11.350000381469727]},{"bufferView":193,"componentType":5125,"count":8,"type":"SCALAR"},{"bufferView":194,"componentType":5126,"count":4,"type":"VEC3","min":[0.000008704630090505816,34.749996185302734,-12.149999618530273],"max":[0.8500087261199951,34.749996185302734,-11.350000381469727]},{"bufferView":195,"componentType":5125,"count":8,"type":"SCALAR"},{"bufferView":196,"componentType":5126,"count":4,"type":"VEC3","min":[0.000008704630090505816,44.95000076293945,-21.799999237060547],"max":[0.8500087261199951,44.95000076293945,-21]},{"bufferView":197,"componentType":5125,"count":8,"type":"SCALAR"},{"bufferView":198,"componentType":5126,"count":4,"type":"VEC3","min":[0.000008704630090505816,34.749996185302734,-21.799999237060547],"max":[0.000008704630090505816,44.95000076293945,-21]},{"bufferView":199,"componentType":5125,"count":8,"type":"SCALAR"},{"bufferView":200,"componentType":5126,"count":4,"type":"VEC3","min":[0.000008704630090505816,34.749996185302734,-21.799999237060547],"max":[0.8500087261199951,44.95000076293945,-21.799999237060547]},{"bufferView":201,"componentType":5125,"count":8,"type":"SCALAR"},{"bufferView":202,"componentType":5126,"count":4,"type":"VEC3","min":[0.8500087261199951,34.749996185302734,-21.799999237060547],"max":[0.8500087261199951,44.95000076293945,-21]},{"bufferView":203,"componentType":5125,"count":8,"type":"SCALAR"},{"bufferView":204,"componentType":5126,"count":4,"type":"VEC3","min":[0.000008704630090505816,34.749996185302734,-21],"max":[0.8500087261199951,44.95000076293945,-21]},{"bufferView":205,"componentType":5125,"count":8,"type":"SCALAR"},{"bufferView":206,"componentType":5126,"count":4,"type":"VEC3","min":[0.000008704630090505816,34.749996185302734,-21.799999237060547],"max":[0.8500087261199951,34.749996185302734,-21]},{"bufferView":207,"componentType":5125,"count":8,"type":"SCALAR"},{"bufferView":208,"componentType":5126,"count":4,"type":"VEC3","min":[-9.661743405331435e-9,44.95000076293945,-29.399999618530273],"max":[0.8500000238418579,44.95000076293945,-28.600000381469727]},{"bufferView":209,"componentType":5125,"count":8,"type":"SCALAR"},{"bufferView":210,"componentType":5126,"count":4,"type":"VEC3","min":[-9.661745181688275e-9,34.749996185302734,-29.399999618530273],"max":[-9.661743405331435e-9,44.95000076293945,-28.600000381469727]},{"bufferView":211,"componentType":5125,"count":8,"type":"SCALAR"},{"bufferView":212,"componentType":5126,"count":4,"type":"VEC3","min":[-9.661743405331435e-9,34.749996185302734,-29.399999618530273],"max":[0.8500000238418579,44.95000076293945,-29.399999618530273]},{"bufferView":213,"componentType":5125,"count":8,"type":"SCALAR"},{"bufferView":214,"componentType":5126,"count":4,"type":"VEC3","min":[0.8500000238418579,34.749996185302734,-29.399999618530273],"max":[0.8500000238418579,44.95000076293945,-28.600000381469727]},{"bufferView":215,"componentType":5125,"count":8,"type":"SCALAR"},{"bufferView":216,"componentType":5126,"count":4,"type":"VEC3","min":[-9.661745181688275e-9,34.749996185302734,-28.600000381469727],"max":[0.8500000238418579,44.95000076293945,-28.600000381469727]},{"bufferView":217,"componentType":5125,"count":8,"type":"SCALAR"},{"bufferView":218,"componentType":5126,"count":4,"type":"VEC3","min":[-9.661745181688275e-9,34.749996185302734,-29.399999618530273],"max":[0.8500000238418579,34.749996185302734,-28.600000381469727]},{"bufferView":219,"componentType":5125,"count":8,"type":"SCALAR"},{"bufferView":220,"componentType":5126,"count":4,"type":"VEC3","min":[-6.659991264343262,38.150001525878906,-21.799999237060547],"max":[-5.809991359710693,38.150001525878906,-21]},{"bufferView":221,"componentType":5125,"count":8,"type":"SCALAR"},{"bufferView":222,"componentType":5126,"count":4,"type":"VEC3","min":[-6.659991264343262,38.150001525878906,-21.799999237060547],"max":[-6.659991264343262,44.95000076293945,-21]},{"bufferView":223,"componentType":5125,"count":8,"type":"SCALAR"},{"bufferView":224,"componentType":5126,"count":4,"type":"VEC3","min":[-6.659991264343262,38.150001525878906,-21.799999237060547],"max":[-5.809991359710693,44.95000076293945,-21.799999237060547]},{"bufferView":225,"componentType":5125,"count":8,"type":"SCALAR"},{"bufferView":226,"componentType":5126,"count":4,"type":"VEC3","min":[-5.809991359710693,38.150001525878906,-21.799999237060547],"max":[-5.809991359710693,44.95000076293945,-21]},{"bufferView":227,"componentType":5125,"count":8,"type":"SCALAR"},{"bufferView":228,"componentType":5126,"count":4,"type":"VEC3","min":[-6.659991264343262,38.150001525878906,-21],"max":[-5.809991359710693,44.95000076293945,-21]},{"bufferView":229,"componentType":5125,"count":8,"type":"SCALAR"},{"bufferView":230,"componentType":5126,"count":4,"type":"VEC3","min":[-6.659991264343262,44.95000076293945,-21.799999237060547],"max":[-5.809991359710693,44.95000076293945,-21]},{"bufferView":231,"componentType":5125,"count":8,"type":"SCALAR"},{"bufferView":232,"componentType":5126,"count":4,"type":"VEC3","min":[-6.659999847412109,38.150001525878906,-29.399991989135742],"max":[-5.860000133514404,38.150001525878906,-28.599992752075195]},{"bufferView":233,"componentType":5125,"count":8,"type":"SCALAR"},{"bufferView":234,"componentType":5126,"count":4,"type":"VEC3","min":[-6.659999847412109,38.150001525878906,-29.399991989135742],"max":[-6.659999847412109,44.95000076293945,-28.599992752075195]},{"bufferView":235,"componentType":5125,"count":8,"type":"SCALAR"},{"bufferView":236,"componentType":5126,"count":4,"type":"VEC3","min":[-6.659999847412109,38.150001525878906,-28.599992752075195],"max":[-5.860000133514404,44.95000076293945,-28.599992752075195]},{"bufferView":237,"componentType":5125,"count":8,"type":"SCALAR"},{"bufferView":238,"componentType":5126,"count":4,"type":"VEC3","min":[-5.860000133514404,38.150001525878906,-29.399991989135742],"max":[-5.860000133514404,44.95000076293945,-28.599992752075195]},{"bufferView":239,"componentType":5125,"count":8,"type":"SCALAR"},{"bufferView":240,"componentType":5126,"count":4,"type":"VEC3","min":[-6.659999847412109,38.150001525878906,-29.399991989135742],"max":[-5.860000133514404,44.95000076293945,-29.399991989135742]},{"bufferView":241,"componentType":5125,"count":8,"type":"SCALAR"},{"bufferView":242,"componentType":5126,"count":4,"type":"VEC3","min":[-6.659999847412109,44.95000076293945,-29.399991989135742],"max":[-5.860000133514404,44.95000076293945,-28.599992752075195]},{"bufferView":243,"componentType":5125,"count":8,"type":"SCALAR"},{"bufferView":244,"componentType":5126,"count":4,"type":"VEC3","min":[-6.659991264343262,34.900001525878906,-39.19999694824219],"max":[-5.859991550445557,34.900001525878906,-38.400001525878906]},{"bufferView":245,"componentType":5125,"count":8,"type":"SCALAR"},{"bufferView":246,"componentType":5126,"count":4,"type":"VEC3","min":[-6.659991264343262,34.900001525878906,-39.19999694824219],"max":[-6.659991264343262,44.95000076293945,-38.400001525878906]},{"bufferView":247,"componentType":5125,"count":8,"type":"SCALAR"},{"bufferView":248,"componentType":5126,"count":4,"type":"VEC3","min":[-6.659991264343262,34.900001525878906,-39.19999694824219],"max":[-5.859991073608398,44.95000076293945,-39.19999694824219]},{"bufferView":249,"componentType":5125,"count":8,"type":"SCALAR"},{"bufferView":250,"componentType":5126,"count":4,"type":"VEC3","min":[-5.859991550445557,34.900001525878906,-39.19999694824219],"max":[-5.859991073608398,44.95000076293945,-38.400001525878906]},{"bufferView":251,"componentType":5125,"count":8,"type":"SCALAR"},{"bufferView":252,"componentType":5126,"count":4,"type":"VEC3","min":[-6.659991264343262,34.900001525878906,-38.400001525878906],"max":[-5.859991073608398,44.95000076293945,-38.400001525878906]},{"bufferView":253,"componentType":5125,"count":8,"type":"SCALAR"},{"bufferView":254,"componentType":5126,"count":4,"type":"VEC3","min":[-6.659991264343262,44.95000076293945,-39.19999694824219],"max":[-5.859991073608398,44.95000076293945,-38.400001525878906]},{"bufferView":255,"componentType":5125,"count":8,"type":"SCALAR"},{"bufferView":256,"componentType":5126,"count":4,"type":"VEC3","min":[-12.559991836547852,34.900001525878906,-39.19999694824219],"max":[-11.759991645812988,34.900001525878906,-38.400001525878906]},{"bufferView":257,"componentType":5125,"count":8,"type":"SCALAR"},{"bufferView":258,"componentType":5126,"count":4,"type":"VEC3","min":[-12.559991836547852,34.900001525878906,-39.19999694824219],"max":[-12.559991836547852,44.95000076293945,-38.400001525878906]},{"bufferView":259,"componentType":5125,"count":8,"type":"SCALAR"},{"bufferView":260,"componentType":5126,"count":4,"type":"VEC3","min":[-12.559991836547852,34.900001525878906,-39.19999694824219],"max":[-11.759991645812988,44.95000076293945,-39.19999694824219]},{"bufferView":261,"componentType":5125,"count":8,"type":"SCALAR"},{"bufferView":262,"componentType":5126,"count":4,"type":"VEC3","min":[-11.759991645812988,34.900001525878906,-39.19999694824219],"max":[-11.759991645812988,44.95000076293945,-38.400001525878906]},{"bufferView":263,"componentType":5125,"count":8,"type":"SCALAR"},{"bufferView":264,"componentType":5126,"count":4,"type":"VEC3","min":[-12.559991836547852,34.900001525878906,-38.400001525878906],"max":[-11.759991645812988,44.95000076293945,-38.400001525878906]},{"bufferView":265,"componentType":5125,"count":8,"type":"SCALAR"},{"bufferView":266,"componentType":5126,"count":4,"type":"VEC3","min":[-12.559991836547852,44.95000076293945,-39.19999694824219],"max":[-11.759991645812988,44.95000076293945,-38.400001525878906]},{"bufferView":267,"componentType":5125,"count":8,"type":"SCALAR"},{"bufferView":268,"componentType":5126,"count":4,"type":"VEC3","min":[-15.509991645812988,38.29999923706055,-12.350000381469727],"max":[-14.634991645812988,38.29999923706055,-11.449999809265137]},{"bufferView":269,"componentType":5125,"count":8,"type":"SCALAR"},{"bufferView":270,"componentType":5126,"count":4,"type":"VEC3","min":[-15.509991645812988,38.29999923706055,-12.350000381469727],"max":[-15.509991645812988,44.95000076293945,-11.449999809265137]},{"bufferView":271,"componentType":5125,"count":8,"type":"SCALAR"},{"bufferView":272,"componentType":5126,"count":4,"type":"VEC3","min":[-15.509991645812988,38.29999923706055,-11.449999809265137],"max":[-14.634991645812988,44.95000076293945,-11.449999809265137]},{"bufferView":273,"componentType":5125,"count":8,"type":"SCALAR"},{"bufferView":274,"componentType":5126,"count":4,"type":"VEC3","min":[-14.634991645812988,38.29999923706055,-12.350000381469727],"max":[-14.634991645812988,44.95000076293945,-11.449999809265137]},{"bufferView":275,"componentType":5125,"count":8,"type":"SCALAR"},{"bufferView":276,"componentType":5126,"count":4,"type":"VEC3","min":[-15.509991645812988,38.29999923706055,-12.350000381469727],"max":[-14.634991645812988,44.95000076293945,-12.350000381469727]},{"bufferView":277,"componentType":5125,"count":8,"type":"SCALAR"},{"bufferView":278,"componentType":5126,"count":4,"type":"VEC3","min":[-15.509991645812988,44.95000076293945,-12.350000381469727],"max":[-14.634991645812988,44.95000076293945,-11.449999809265137]},{"bufferView":279,"componentType":5125,"count":8,"type":"SCALAR"},{"bufferView":280,"componentType":5126,"count":4,"type":"VEC3","min":[-6.659991264343262,38.150001525878906,-21.799999237060547],"max":[-5.809991359710693,38.150001525878906,-20.75]},{"bufferView":281,"componentType":5125,"count":8,"type":"SCALAR"},{"bufferView":282,"componentType":5126,"count":4,"type":"VEC3","min":[-6.659991264343262,34.749996185302734,-21.799999237060547],"max":[-5.809991359710693,38.150001525878906,-21.799999237060547]},{"bufferView":283,"componentType":5125,"count":8,"type":"SCALAR"},{"bufferView":284,"componentType":5126,"count":4,"type":"VEC3","min":[-5.809991359710693,34.749996185302734,-21.799999237060547],"max":[-5.809991359710693,38.150001525878906,-20.75]},{"bufferView":285,"componentType":5125,"count":8,"type":"SCALAR"},{"bufferView":286,"componentType":5126,"count":4,"type":"VEC3","min":[-6.659991264343262,34.749996185302734,-20.75],"max":[-5.809991359710693,38.150001525878906,-20.75]},{"bufferView":287,"componentType":5125,"count":8,"type":"SCALAR"},{"bufferView":288,"componentType":5126,"count":4,"type":"VEC3","min":[-6.659991264343262,34.749996185302734,-21.799999237060547],"max":[-6.659991264343262,38.150001525878906,-20.75]},{"bufferView":289,"componentType":5125,"count":8,"type":"SCALAR"},{"bufferView":290,"componentType":5126,"count":4,"type":"VEC3","min":[-6.659991264343262,34.749996185302734,-21.799999237060547],"max":[-5.809991359710693,34.749996185302734,-20.75]},{"bufferView":291,"componentType":5125,"count":8,"type":"SCALAR"},{"bufferView":292,"componentType":5126,"count":4,"type":"VEC3","min":[-6.659999847412109,38.150001525878906,-29.399991989135742],"max":[-5.610000133514404,38.150001525878906,-28.599992752075195]},{"bufferView":293,"componentType":5125,"count":8,"type":"SCALAR"},{"bufferView":294,"componentType":5126,"count":4,"type":"VEC3","min":[-6.659999847412109,34.749996185302734,-28.599992752075195],"max":[-5.610000133514404,38.150001525878906,-28.599992752075195]},{"bufferView":295,"componentType":5125,"count":8,"type":"SCALAR"},{"bufferView":296,"componentType":5126,"count":4,"type":"VEC3","min":[-5.610000133514404,34.749996185302734,-29.399991989135742],"max":[-5.610000133514404,38.150001525878906,-28.599992752075195]},{"bufferView":297,"componentType":5125,"count":8,"type":"SCALAR"},{"bufferView":298,"componentType":5126,"count":4,"type":"VEC3","min":[-6.659999847412109,34.749996185302734,-29.399991989135742],"max":[-5.610000133514404,38.150001525878906,-29.399991989135742]},{"bufferView":299,"componentType":5125,"count":8,"type":"SCALAR"},{"bufferView":300,"componentType":5126,"count":4,"type":"VEC3","min":[-6.659999847412109,34.749996185302734,-29.399991989135742],"max":[-6.659999847412109,38.150001525878906,-28.599992752075195]},{"bufferView":301,"componentType":5125,"count":8,"type":"SCALAR"},{"bufferView":302,"componentType":5126,"count":4,"type":"VEC3","min":[-6.659999847412109,34.749996185302734,-29.399991989135742],"max":[-5.610000133514404,34.749996185302734,-28.599992752075195]},{"bufferView":303,"componentType":5125,"count":8,"type":"SCALAR"},{"bufferView":304,"componentType":5126,"count":4,"type":"VEC3","min":[-15.784991264343262,38.29999923706055,-12.350000381469727],"max":[-14.634991645812988,38.29999923706055,-11.449999809265137]},{"bufferView":305,"componentType":5125,"count":8,"type":"SCALAR"},{"bufferView":306,"componentType":5126,"count":4,"type":"VEC3","min":[-15.784991264343262,34.749996185302734,-12.350000381469727],"max":[-15.784991264343262,38.29999923706055,-11.449999809265137]},{"bufferView":307,"componentType":5125,"count":8,"type":"SCALAR"},{"bufferView":308,"componentType":5126,"count":4,"type":"VEC3","min":[-15.784991264343262,34.749996185302734,-11.449999809265137],"max":[-14.634991645812988,38.29999923706055,-11.449999809265137]},{"bufferView":309,"componentType":5125,"count":8,"type":"SCALAR"},{"bufferView":310,"componentType":5126,"count":4,"type":"VEC3","min":[-14.634991645812988,34.749996185302734,-12.350000381469727],"max":[-14.634991645812988,38.29999923706055,-11.449999809265137]},{"bufferView":311,"componentType":5125,"count":8,"type":"SCALAR"},{"bufferView":312,"componentType":5126,"count":4,"type":"VEC3","min":[-15.784991264343262,34.749996185302734,-12.350000381469727],"max":[-14.634991645812988,38.29999923706055,-12.350000381469727]},{"bufferView":313,"componentType":5125,"count":8,"type":"SCALAR"},{"bufferView":314,"componentType":5126,"count":4,"type":"VEC3","min":[-15.784991264343262,34.749996185302734,-12.350000381469727],"max":[-14.634991645812988,34.749996185302734,-11.449999809265137]},{"bufferView":315,"componentType":5125,"count":8,"type":"SCALAR"},{"bufferView":316,"componentType":5126,"count":4,"type":"VEC3","min":[-9.662326050374759e-9,38.150001525878906,-38.25],"max":[0.8500000238418579,38.150001525878906,-38.099998474121094]},{"bufferView":317,"componentType":5125,"count":8,"type":"SCALAR"},{"bufferView":318,"componentType":5126,"count":4,"type":"VEC3","min":[-9.662333155802116e-9,34.749996185302734,-38.25],"max":[0.8500000238418579,38.150001525878906,-38.25]},{"bufferView":319,"componentType":5125,"count":8,"type":"SCALAR"},{"bufferView":320,"componentType":5126,"count":4,"type":"VEC3","min":[0.8500000238418579,34.749996185302734,-38.25],"max":[0.8500000238418579,38.150001525878906,-38.099998474121094]},{"bufferView":321,"componentType":5125,"count":8,"type":"SCALAR"},{"bufferView":322,"componentType":5126,"count":4,"type":"VEC3","min":[-9.662326050374759e-9,34.749996185302734,-38.099998474121094],"max":[0.8500000238418579,38.150001525878906,-38.099998474121094]},{"bufferView":323,"componentType":5125,"count":8,"type":"SCALAR"},{"bufferView":324,"componentType":5126,"count":4,"type":"VEC3","min":[-9.662333155802116e-9,34.749996185302734,-38.25],"max":[-9.662326050374759e-9,38.150001525878906,-38.099998474121094]},{"bufferView":325,"componentType":5125,"count":8,"type":"SCALAR"},{"bufferView":326,"componentType":5126,"count":4,"type":"VEC3","min":[-9.662333155802116e-9,34.749996185302734,-38.25],"max":[0.8500000238418579,34.749996185302734,-38.099998474121094]},{"bufferView":327,"componentType":5125,"count":8,"type":"SCALAR"},{"bufferView":328,"componentType":5126,"count":4,"type":"VEC3","min":[-9.661743405331435e-9,38.150001525878906,-28.600000381469727],"max":[0.8500000238418579,38.150001525878906,-28.450000762939453]},{"bufferView":329,"componentType":5125,"count":8,"type":"SCALAR"},{"bufferView":330,"componentType":5126,"count":4,"type":"VEC3","min":[-9.661743405331435e-9,34.749996185302734,-28.600000381469727],"max":[0.8500000238418579,38.150001525878906,-28.600000381469727]},{"bufferView":331,"componentType":5125,"count":8,"type":"SCALAR"},{"bufferView":332,"componentType":5126,"count":4,"type":"VEC3","min":[0.8500000238418579,34.749996185302734,-28.600000381469727],"max":[0.8500000238418579,38.150001525878906,-28.450000762939453]},{"bufferView":333,"componentType":5125,"count":8,"type":"SCALAR"},{"bufferView":334,"componentType":5126,"count":4,"type":"VEC3","min":[-9.661743405331435e-9,34.749996185302734,-28.450000762939453],"max":[0.8500000238418579,38.150001525878906,-28.450000762939453]},{"bufferView":335,"componentType":5125,"count":8,"type":"SCALAR"},{"bufferView":336,"componentType":5126,"count":4,"type":"VEC3","min":[-9.661743405331435e-9,34.749996185302734,-28.600000381469727],"max":[-9.661739852617757e-9,38.150001525878906,-28.450000762939453]},{"bufferView":337,"componentType":5125,"count":8,"type":"SCALAR"},{"bufferView":338,"componentType":5126,"count":4,"type":"VEC3","min":[-9.661743405331435e-9,34.749996185302734,-28.600000381469727],"max":[0.8500000238418579,34.749996185302734,-28.450000762939453]},{"bufferView":339,"componentType":5125,"count":8,"type":"SCALAR"},{"bufferView":340,"componentType":5126,"count":4,"type":"VEC3","min":[0.000008704630090505816,38.150001525878906,-21],"max":[0.8500087261199951,38.150001525878906,-20.850000381469727]},{"bufferView":341,"componentType":5125,"count":8,"type":"SCALAR"},{"bufferView":342,"componentType":5126,"count":4,"type":"VEC3","min":[0.000008704630090505816,34.749996185302734,-21],"max":[0.8500087261199951,38.150001525878906,-21]},{"bufferView":343,"componentType":5125,"count":8,"type":"SCALAR"},{"bufferView":344,"componentType":5126,"count":4,"type":"VEC3","min":[0.8500087261199951,34.749996185302734,-21],"max":[0.8500087261199951,38.150001525878906,-20.850000381469727]},{"bufferView":345,"componentType":5125,"count":8,"type":"SCALAR"},{"bufferView":346,"componentType":5126,"count":4,"type":"VEC3","min":[0.000008704630090505816,34.749996185302734,-20.850000381469727],"max":[0.8500087261199951,38.150001525878906,-20.850000381469727]},{"bufferView":347,"componentType":5125,"count":8,"type":"SCALAR"},{"bufferView":348,"componentType":5126,"count":4,"type":"VEC3","min":[0.000008704630090505816,34.749996185302734,-21],"max":[0.000008704630090505816,38.150001525878906,-20.850000381469727]},{"bufferView":349,"componentType":5125,"count":8,"type":"SCALAR"},{"bufferView":350,"componentType":5126,"count":4,"type":"VEC3","min":[0.000008704630090505816,34.749996185302734,-21],"max":[0.8500087261199951,34.749996185302734,-20.850000381469727]},{"bufferView":351,"componentType":5125,"count":8,"type":"SCALAR"},{"bufferView":352,"componentType":5126,"count":4,"type":"VEC3","min":[0.000008704630090505816,38.150001525878906,-12.550000190734863],"max":[0.8500087261199951,38.150001525878906,-12.149999618530273]},{"bufferView":353,"componentType":5125,"count":8,"type":"SCALAR"},{"bufferView":354,"componentType":5126,"count":4,"type":"VEC3","min":[0.000008704630090505816,34.749996185302734,-12.550000190734863],"max":[0.8500087261199951,38.150001525878906,-12.550000190734863]},{"bufferView":355,"componentType":5125,"count":8,"type":"SCALAR"},{"bufferView":356,"componentType":5126,"count":4,"type":"VEC3","min":[0.8500087261199951,34.749996185302734,-12.550000190734863],"max":[0.8500087261199951,38.150001525878906,-12.149999618530273]},{"bufferView":357,"componentType":5125,"count":8,"type":"SCALAR"},{"bufferView":358,"componentType":5126,"count":4,"type":"VEC3","min":[0.000008704630090505816,34.749996185302734,-12.149999618530273],"max":[0.8500087261199951,38.150001525878906,-12.149999618530273]},{"bufferView":359,"componentType":5125,"count":8,"type":"SCALAR"},{"bufferView":360,"componentType":5126,"count":4,"type":"VEC3","min":[0.000008704630090505816,34.749996185302734,-12.550000190734863],"max":[0.000008704630090505816,38.150001525878906,-12.149999618530273]},{"bufferView":361,"componentType":5125,"count":8,"type":"SCALAR"},{"bufferView":362,"componentType":5126,"count":4,"type":"VEC3","min":[0.000008704630090505816,34.749996185302734,-12.550000190734863],"max":[0.8500087261199951,34.749996185302734,-12.149999618530273]},{"bufferView":363,"componentType":5125,"count":8,"type":"SCALAR"},{"bufferView":364,"componentType":5126,"count":4,"type":"VEC3","min":[-6.159999847412109,38.150001525878906,-21],"max":[-6.159999847412109,38.29999923706055,-20.75]},{"bufferView":365,"componentType":5125,"count":8,"type":"SCALAR"},{"bufferView":366,"componentType":5126,"count":4,"type":"VEC3","min":[-6.159999847412109,38.150001525878906,-21],"max":[-5.909999847412109,38.29999923706055,-21]},{"bufferView":367,"componentType":5125,"count":8,"type":"SCALAR"},{"bufferView":368,"componentType":5126,"count":4,"type":"VEC3","min":[-5.909999847412109,38.150001525878906,-21],"max":[-5.909999847412109,38.29999923706055,-20.75]},{"bufferView":369,"componentType":5125,"count":8,"type":"SCALAR"},{"bufferView":370,"componentType":5126,"count":4,"type":"VEC3","min":[-6.159999847412109,38.150001525878906,-20.75],"max":[-5.909999847412109,38.29999923706055,-20.75]},{"bufferView":371,"componentType":5125,"count":8,"type":"SCALAR"},{"bufferView":372,"componentType":5126,"count":4,"type":"VEC3","min":[-6.159999847412109,38.29999923706055,-21],"max":[-5.909999847412109,38.29999923706055,-20.75]},{"bufferView":373,"componentType":5125,"count":8,"type":"SCALAR"},{"bufferView":374,"componentType":5126,"count":4,"type":"VEC3","min":[-6.159999847412109,38.150001525878906,-21],"max":[-5.909999847412109,38.150001525878906,-20.75]},{"bufferView":375,"componentType":5125,"count":8,"type":"SCALAR"}]}