{"asset":{"version":"2.0","generator":"BIM feature edges, 30 degrees"},"scene":0,"scenes":[{"nodes":[1],"extensions":{}}],"nodes":[{"mesh":0},{"children":[0,2,3,4,5,6,7,8,9,10,11,12,13,14],"name":"樑"},{"mesh":1},{"mesh":2},{"mesh":3},{"mesh":4},{"mesh":5},{"mesh":6},{"mesh":7},{"mesh":8},{"mesh":9},{"mesh":10},{"mesh":11},{"mesh":12},{"mesh":13}],"meshes":[{"primitives":[{"attributes":{"POSITION":0},"indices":1,"material":0,"mode":1},{"attributes":{"POSITION":2},"indices":3,"material":0,"mode":1},{"attributes":{"POSITION":4},"indices":5,"material":0,"mode":1},{"attributes":{"POSITION":6},"indices":7,"material":0,"mode":1},{"attributes":{"POSITION":8},"indices":9,"material":0,"mode":1},{"attributes":{"POSITION":10},"indices":11,"material":0,"mode":1},{"attributes":{"POSITION":12},"indices":13,"material":0,"mode":1},{"attributes":{"POSITION":14},"indices":15,"material":0,"mode":1}]},{"primitives":[{"attributes":{"POSITION":16},"indices":17,"material":0,"mode":1},{"attributes":{"POSITION":18},"indices":19,"material":0,"mode":1},{"attributes":{"POSITION":20},"indices":21,"material":0,"mode":1},{"attributes":{"POSITION":22},"indices":23,"material":0,"mode":1},{"attributes":{"POSITION":24},"indices":25,"material":0,"mode":1},{"attributes":{"POSITION":26},"indices":27,"material":0,"mode":1}]},{"primitives":[{"attributes":{"POSITION":28},"indices":29,"material":0,"mode":1},{"attributes":{"POSITION":30},"indices":31,"material":0,"mode":1},{"attributes":{"POSITION":32},"indices":33,"material":0,"mode":1},{"attributes":{"POSITION":34},"indices":35,"material":0,"mode":1},{"attributes":{"POSITION":36},"indices":37,"material":0,"mode":1},{"attributes":{"POSITION":38},"indices":39,"material":0,"mode":1}]},{"primitives":[{"attributes":{"POSITION":40},"indices":41,"material":0,"mode":1},{"attributes":{"POSITION":42},"indices":43,"material":0,"mode":1},{"attributes":{"POSITION":44},"indices":45,"material":0,"mode":1},{"attributes":{"POSITION":46},"indices":47,"material":0,"mode":1},{"attributes":{"POSITION":48},"indices":49,"material":0,"mode":1},{"attributes":{"POSITION":50},"indices":51,"material":0,"mode":1}]},{"primitives":[{"attributes":{"POSITION":52},"indices":53,"material":0,"mode":1},{"attributes":{"POSITION":54},"indices":55,"material":0,"mode":1},{"attributes":{"POSITION":56},"indices":57,"material":0,"mode":1},{"attributes":{"POSITION":58},"indices":59,"material":0,"mode":1},{"attributes":{"POSITION":60},"indices":61,"material":0,"mode":1},{"attributes":{"POSITION":62},"indices":63,"material":0,"mode":1},{"attributes":{"POSITION":64},"indices":65,"material":0,"mode":1},{"attributes":{"POSITION":66},"indices":67,"material":0,"mode":1},{"attributes":{"POSITION":68},"indices":69,"material":0,"mode":1},{"attributes":{"POSITION":70},"indices":71,"material":0,"mode":1}]},{"primitives":[{"attributes":{"POSITION":72},"indices":73,"material":0,"mode":1},{"attributes":{"POSITION":74},"indices":75,"material":0,"mode":1},{"attributes":{"POSITION":76},"indices":77,"material":0,"mode":1},{"attributes":{"POSITION":78},"indices":79,"material":0,"mode":1},{"attributes":{"POSITION":80},"indices":81,"material":0,"mode":1},{"attributes":{"POSITION":82},"indices":83,"material":0,"mode":1},{"attributes":{"POSITION":84},"indices":85,"material":0,"mode":1},{"attributes":{"POSITION":86},"indices":87,"material":0,"mode":1},{"attributes":{"POSITION":88},"indices":89,"material":0,"mode":1},{"attributes":{"POSITION":90},"indices":91,"material":0,"mode":1}]},{"primitives":[{"attributes":{"POSITION":92},"indices":93,"material":0,"mode":1},{"attributes":{"POSITION":94},"indices":95,"material":0,"mode":1},{"attributes":{"POSITION":96},"indices":97,"material":0,"mode":1},{"attributes":{"POSITION":98},"indices":99,"material":0,"mode":1},{"attributes":{"POSITION":100},"indices":101,"material":0,"mode":1},{"attributes":{"POSITION":102},"indices":103,"material":0,"mode":1},{"attributes":{"POSITION":104},"indices":105,"material":0,"mode":1},{"attributes":{"POSITION":106},"indices":107,"material":0,"mode":1},{"attributes":{"POSITION":108},"indices":109,"material":0,"mode":1},{"attributes":{"POSITION":110},"indices":111,"material":0,"mode":1}]},{"primitives":[{"attributes":{"POSITION":112},"indices":113,"material":0,"mode":1},{"attributes":{"POSITION":114},"indices":115,"material":0,"mode":1},{"attributes":{"POSITION":116},"indices":117,"material":0,"mode":1},{"attributes":{"POSITION":118},"indices":119,"material":0,"mode":1},{"attributes":{"POSITION":120},"indices":121,"material":0,"mode":1},{"attributes":{"POSITION":122},"indices":123,"material":0,"mode":1},{"attributes":{"POSITION":124},"indices":125,"material":0,"mode":1},{"attributes":{"POSITION":126},"indices":127,"material":0,"mode":1}]},{"primitives":[{"attributes":{"POSITION":128},"indices":129,"material":0,"mode":1},{"attributes":{"POSITION":130},"indices":131,"material":0,"mode":1},{"attributes":{"POSITION":132},"indices":133,"material":0,"mode":1},{"attributes":{"POSITION":134},"indices":135,"material":0,"mode":1},{"attributes":{"POSITION":136},"indices":137,"material":0,"mode":1},{"attributes":{"POSITION":138},"indices":139,"material":0,"mode":1}]},{"primitives":[{"attributes":{"POSITION":140},"indices":141,"material":0,"mode":1},{"attributes":{"POSITION":142},"indices":143,"material":0,"mode":1},{"attributes":{"POSITION":144},"indices":145,"material":0,"mode":1},{"attributes":{"POSITION":146},"indices":147,"material":0,"mode":1},{"attributes":{"POSITION":148},"indices":149,"material":0,"mode":1},{"attributes":{"POSITION":150},"indices":151,"material":0,"mode":1}]},{"primitives":[{"attributes":{"POSITION":152},"indices":153,"material":0,"mode":1},{"attributes":{"POSITION":154},"indices":155,"material":0,"mode":1},{"attributes":{"POSITION":156},"indices":157,"material":0,"mode":1},{"attributes":{"POSITION":158},"indices":159,"material":0,"mode":1},{"attributes":{"POSITION":160},"indices":161,"material":0,"mode":1},{"attributes":{"POSITION":162},"indices":163,"material":0,"mode":1}]},{"primitives":[{"attributes":{"POSITION":164},"indices":165,"material":0,"mode":1},{"attributes":{"POSITION":166},"indices":167,"material":0,"mode":1},{"attributes":{"POSITION":168},"indices":169,"material":0,"mode":1},{"attributes":{"POSITION":170},"indices":171,"material":0,"mode":1},{"attributes":{"POSITION":172},"indices":173,"material":0,"mode":1},{"attributes":{"POSITION":174},"indices":175,"material":0,"mode":1},{"attributes":{"POSITION":176},"indices":177,"material":0,"mode":1},{"attributes":{"POSITION":178},"indices":179,"material":0,"mode":1},{"attributes":{"POSITION":180},"indices":181,"material":0,"mode":1},{"attributes":{"POSITION":182},"indices":183,"material":0,"mode":1}]},{"primitives":[{"attributes":{"POSITION":184},"indices":185,"material":0,"mode":1},{"attributes":{"POSITION":186},"indices":187,"material":0,"mode":1},{"attributes":{"POSITION":188},"indices":189,"material":0,"mode":1},{"attributes":{"POSITION":190},"indices":191,"material":0,"mode":1},{"attributes":{"POSITION":192},"indices":193,"material":0,"mode":1},{"attributes":{"POSITION":194},"indices":195,"material":0,"mode":1},{"attributes":{"POSITION":196},"indices":197,"material":0,"mode":1},{"attributes":{"POSITION":198},"indices":199,"material":0,"mode":1},{"attributes":{"POSITION":200},"indices":201,"material":0,"mode":1},{"attributes":{"POSITION":202},"indices":203,"material":0,"mode":1}]},{"primitives":[{"attributes":{"POSITION":204},"indices":205,"material":0,"mode":1},{"attributes":{"POSITION":206},"indices":207,"material":0,"mode":1},{"attributes":{"POSITION":208},"indices":209,"material":0,"mode":1},{"attributes":{"POSITION":210},"indices":211,"material":0,"mode":1},{"attributes":{"POSITION":212},"indices":213,"material":0,"mode":1},{"attributes":{"POSITION":214},"indices":215,"material":0,"mode":1},{"attributes":{"POSITION":216},"indices":217,"material":0,"mode":1},{"attributes":{"POSITION":218},"indices":219,"material":0,"mode":1},{"attributes":{"POSITION":220},"indices":221,"material":0,"mode":1},{"attributes":{"POSITION":222},"indices":223,"material":0,"mode":1}]}],"materials":[{"name":"白色線稿","pbrMetallicRoughness":{"baseColorFactor":[1,1,1,1],"metallicFactor":0,"roughnessFactor":1},"extensions":{"KHR_materials_unlit":{}}}],"extensionsUsed":["KHR_materials_unlit"],"buffers":[{"byteLength":10080,"uri":"data:application/octet-stream;base64,"}],"bufferViews":[{"buffer":0,"byteOffset":0,"byteLength":48,"target":34962},{"buffer":0,"byteOffset":48,"byteLength":32,"target":34963},{"buffer":0,"byteOffset":80,"byteLength":48,"target":34962},{"buffer":0,"byteOffset":128,"byteLength":32,"target":34963},{"buffer":0,"byteOffset":160,"byteLength":48,"target":34962},{"buffer":0,"byteOffset":208,"byteLength":32,"target":34963},{"buffer":0,"byteOffset":240,"byteLength":36,"target":34962},{"buffer":0,"byteOffset":276,"byteLength":24,"target":34963},{"buffer":0,"byteOffset":300,"byteLength":60,"target":34962},{"buffer":0,"byteOffset":360,"byteLength":40,"target":34963},{"buffer":0,"byteOffset":400,"byteLength":72,"target":34962},{"buffer":0,"byteOffset":472,"byteLength":48,"target":34963},{"buffer":0,"byteOffset":520,"byteLength":72,"target":34962},{"buffer":0,"byteOffset":592,"byteLength":48,"target":34963},{"buffer":0,"byteOffset":640,"byteLength":48,"target":34962},{"buffer":0,"byteOffset":688,"byteLength":32,"target":34963},{"buffer":0,"byteOffset":720,"byteLength":48,"target":34962},{"buffer":0,"byteOffset":768,"byteLength":32,"target":34963},{"buffer":0,"byteOffset":800,"byteLength":48,"target":34962},{"buffer":0,"byteOffset":848,"byteLength":32,"target":34963},{"buffer":0,"byteOffset":880,"byteLength":48,"target":34962},{"buffer":0,"byteOffset":928,"byteLength":32,"target":34963},{"buffer":0,"byteOffset":960,"byteLength":48,"target":34962},{"buffer":0,"byteOffset":1008,"byteLength":32,"target":34963},{"buffer":0,"byteOffset":1040,"byteLength":48,"target":34962},{"buffer":0,"byteOffset":1088,"byteLength":32,"target":34963},{"buffer":0,"byteOffset":1120,"byteLength":48,"target":34962},{"buffer":0,"byteOffset":1168,"byteLength":32,"target":34963},{"buffer":0,"byteOffset":1200,"byteLength":48,"target":34962},{"buffer":0,"byteOffset":1248,"byteLength":32,"target":34963},{"buffer":0,"byteOffset":1280,"byteLength":48,"target":34962},{"buffer":0,"byteOffset":1328,"byteLength":32,"target":34963},{"buffer":0,"byteOffset":1360,"byteLength":48,"target":34962},{"buffer":0,"byteOffset":1408,"byteLength":32,"target":34963},{"buffer":0,"byteOffset":1440,"byteLength":48,"target":34962},{"buffer":0,"byteOffset":1488,"byteLength":32,"target":34963},{"buffer":0,"byteOffset":1520,"byteLength":48,"target":34962},{"buffer":0,"byteOffset":1568,"byteLength":32,"target":34963},{"buffer":0,"byteOffset":1600,"byteLength":48,"target":34962},{"buffer":0,"byteOffset":1648,"byteLength":32,"target":34963},{"buffer":0,"byteOffset":1680,"byteLength":48,"target":34962},{"buffer":0,"byteOffset":1728,"byteLength":32,"target":34963},{"buffer":0,"byteOffset":1760,"byteLength":48,"target":34962},{"buffer":0,"byteOffset":1808,"byteLength":32,"target":34963},{"buffer":0,"byteOffset":1840,"byteLength":48,"target":34962},{"buffer":0,"byteOffset":1888,"byteLength":32,"target":34963},{"buffer":0,"byteOffset":1920,"byteLength":48,"target":34962},{"buffer":0,"byteOffset":1968,"byteLength":32,"target":34963},{"buffer":0,"byteOffset":2000,"byteLength":48,"target":34962},{"buffer":0,"byteOffset":2048,"byteLength":32,"target":34963},{"buffer":0,"byteOffset":2080,"byteLength":48,"target":34962},{"buffer":0,"byteOffset":2128,"byteLength":32,"target":34963},{"buffer":0,"byteOffset":2160,"byteLength":96,"target":34962},{"buffer":0,"byteOffset":2256,"byteLength":64,"target":34963},{"buffer":0,"byteOffset":2320,"byteLength":48,"target":34962},{"buffer":0,"byteOffset":2368,"byteLength":32,"target":34963},{"buffer":0,"byteOffset":2400,"byteLength":48,"target":34962},{"buffer":0,"byteOffset":2448,"byteLength":32,"target":34963},{"buffer":0,"byteOffset":2480,"byteLength":48,"target":34962},{"buffer":0,"byteOffset":2528,"byteLength":32,"target":34963},{"buffer":0,"byteOffset":2560,"byteLength":48,"target":34962},{"buffer":0,"byteOffset":2608,"byteLength":32,"target":34963},{"buffer":0,"byteOffset":2640,"byteLength":48,"target":34962},{"buffer":0,"byteOffset":2688,"byteLength":32,"target":34963},{"buffer":0,"byteOffset":2720,"byteLength":48,"target":34962},{"buffer":0,"byteOffset":2768,"byteLength":32,"target":34963},{"buffer":0,"byteOffset":2800,"byteLength":48,"target":34962},{"buffer":0,"byteOffset":2848,"byteLength":32,"target":34963},{"buffer":0,"byteOffset":2880,"byteLength":48,"target":34962},{"buffer":0,"byteOffset":2928,"byteLength":32,"target":34963},{"buffer":0,"byteOffset":2960,"byteLength":96,"target":34962},{"buffer":0,"byteOffset":3056,"byteLength":64,"target":34963},{"buffer":0,"byteOffset":3120,"byteLength":96,"target":34962},{"buffer":0,"byteOffset":3216,"byteLength":64,"target":34963},{"buffer":0,"byteOffset":3280,"byteLength":48,"target":34962},{"buffer":0,"byteOffset":3328,"byteLength":32,"target":34963},{"buffer":0,"byteOffset":3360,"byteLength":48,"target":34962},{"buffer":0,"byteOffset":3408,"byteLength":32,"target":34963},{"buffer":0,"byteOffset":3440,"byteLength":48,"target":34962},{"buffer":0,"byteOffset":3488,"byteLength":32,"target":34963},{"buffer":0,"byteOffset":3520,"byteLength":48,"target":34962},{"buffer":0,"byteOffset":3568,"byteLength":32,"target":34963},{"buffer":0,"byteOffset":3600,"byteLength":48,"target":34962},{"buffer":0,"byteOffset":3648,"byteLength":32,"target":34963},{"buffer":0,"byteOffset":3680,"byteLength":48,"target":34962},{"buffer":0,"byteOffset":3728,"byteLength":32,"target":34963},{"buffer":0,"byteOffset":3760,"byteLength":48,"target":34962},{"buffer":0,"byteOffset":3808,"byteLength":32,"target":34963},{"buffer":0,"byteOffset":3840,"byteLength":48,"target":34962},{"buffer":0,"byteOffset":3888,"byteLength":32,"target":34963},{"buffer":0,"byteOffset":3920,"byteLength":96,"target":34962},{"buffer":0,"byteOffset":4016,"byteLength":64,"target":34963},{"buffer":0,"byteOffset":4080,"byteLength":96,"target":34962},{"buffer":0,"byteOffset":4176,"byteLength":64,"target":34963},{"buffer":0,"byteOffset":4240,"byteLength":48,"target":34962},{"buffer":0,"byteOffset":4288,"byteLength":32,"target":34963},{"buffer":0,"byteOffset":4320,"byteLength":48,"target":34962},{"buffer":0,"byteOffset":4368,"byteLength":32,"target":34963},{"buffer":0,"byteOffset":4400,"byteLength":48,"target":34962},{"buffer":0,"byteOffset":4448,"byteLength":32,"target":34963},{"buffer":0,"byteOffset":4480,"byteLength":48,"target":34962},{"buffer":0,"byteOffset":4528,"byteLength":32,"target":34963},{"buffer":0,"byteOffset":4560,"byteLength":48,"target":34962},{"buffer":0,"byteOffset":4608,"byteLength":32,"target":34963},{"buffer":0,"byteOffset":4640,"byteLength":48,"target":34962},{"buffer":0,"byteOffset":4688,"byteLength":32,"target":34963},{"buffer":0,"byteOffset":4720,"byteLength":48,"target":34962},{"buffer":0,"byteOffset":4768,"byteLength":32,"target":34963},{"buffer":0,"byteOffset":4800,"byteLength":48,"target":34962},{"buffer":0,"byteOffset":4848,"byteLength":32,"target":34963},{"buffer":0,"byteOffset":4880,"byteLength":96,"target":34962},{"buffer":0,"byteOffset":4976,"byteLength":64,"target":34963},{"buffer":0,"byteOffset":5040,"byteLength":48,"target":34962},{"buffer":0,"byteOffset":5088,"byteLength":32,"target":34963},{"buffer":0,"byteOffset":5120,"byteLength":48,"target":34962},{"buffer":0,"byteOffset":5168,"byteLength":32,"target":34963},{"buffer":0,"byteOffset":5200,"byteLength":48,"target":34962},{"buffer":0,"byteOffset":5248,"byteLength":32,"target":34963},{"buffer":0,"byteOffset":5280,"byteLength":36,"target":34962},{"buffer":0,"byteOffset":5316,"byteLength":24,"target":34963},{"buffer":0,"byteOffset":5340,"byteLength":60,"target":34962},{"buffer":0,"byteOffset":5400,"byteLength":40,"target":34963},{"buffer":0,"byteOffset":5440,"byteLength":72,"target":34962},{"buffer":0,"byteOffset":5512,"byteLength":48,"target":34963},{"buffer":0,"byteOffset":5560,"byteLength":72,"target":34962},{"buffer":0,"byteOffset":5632,"byteLength":48,"target":34963},{"buffer":0,"byteOffset":5680,"byteLength":48,"target":34962},{"buffer":0,"byteOffset":5728,"byteLength":32,"target":34963},{"buffer":0,"byteOffset":5760,"byteLength":48,"target":34962},{"buffer":0,"byteOffset":5808,"byteLength":32,"target":34963},{"buffer":0,"byteOffset":5840,"byteLength":48,"target":34962},{"buffer":0,"byteOffset":5888,"byteLength":32,"target":34963},{"buffer":0,"byteOffset":5920,"byteLength":48,"target":34962},{"buffer":0,"byteOffset":5968,"byteLength":32,"target":34963},{"buffer":0,"byteOffset":6000,"byteLength":48,"target":34962},{"buffer":0,"byteOffset":6048,"byteLength":32,"target":34963},{"buffer":0,"byteOffset":6080,"byteLength":48,"target":34962},{"buffer":0,"byteOffset":6128,"byteLength":32,"target":34963},{"buffer":0,"byteOffset":6160,"byteLength":48,"target":34962},{"buffer":0,"byteOffset":6208,"byteLength":32,"target":34963},{"buffer":0,"byteOffset":6240,"byteLength":48,"target":34962},{"buffer":0,"byteOffset":6288,"byteLength":32,"target":34963},{"buffer":0,"byteOffset":6320,"byteLength":48,"target":34962},{"buffer":0,"byteOffset":6368,"byteLength":32,"target":34963},{"buffer":0,"byteOffset":6400,"byteLength":48,"target":34962},{"buffer":0,"byteOffset":6448,"byteLength":32,"target":34963},{"buffer":0,"byteOffset":6480,"byteLength":48,"target":34962},{"buffer":0,"byteOffset":6528,"byteLength":32,"target":34963},{"buffer":0,"byteOffset":6560,"byteLength":48,"target":34962},{"buffer":0,"byteOffset":6608,"byteLength":32,"target":34963},{"buffer":0,"byteOffset":6640,"byteLength":48,"target":34962},{"buffer":0,"byteOffset":6688,"byteLength":32,"target":34963},{"buffer":0,"byteOffset":6720,"byteLength":48,"target":34962},{"buffer":0,"byteOffset":6768,"byteLength":32,"target":34963},{"buffer":0,"byteOffset":6800,"byteLength":48,"target":34962},{"buffer":0,"byteOffset":6848,"byteLength":32,"target":34963},{"buffer":0,"byteOffset":6880,"byteLength":48,"target":34962},{"buffer":0,"byteOffset":6928,"byteLength":32,"target":34963},{"buffer":0,"byteOffset":6960,"byteLength":48,"target":34962},{"buffer":0,"byteOffset":7008,"byteLength":32,"target":34963},{"buffer":0,"byteOffset":7040,"byteLength":48,"target":34962},{"buffer":0,"byteOffset":7088,"byteLength":32,"target":34963},{"buffer":0,"byteOffset":7120,"byteLength":48,"target":34962},{"buffer":0,"byteOffset":7168,"byteLength":32,"target":34963},{"buffer":0,"byteOffset":7200,"byteLength":96,"target":34962},{"buffer":0,"byteOffset":7296,"byteLength":64,"target":34963},{"buffer":0,"byteOffset":7360,"byteLength":48,"target":34962},{"buffer":0,"byteOffset":7408,"byteLength":32,"target":34963},{"buffer":0,"byteOffset":7440,"byteLength":48,"target":34962},{"buffer":0,"byteOffset":7488,"byteLength":32,"target":34963},{"buffer":0,"byteOffset":7520,"byteLength":48,"target":34962},{"buffer":0,"byteOffset":7568,"byteLength":32,"target":34963},{"buffer":0,"byteOffset":7600,"byteLength":48,"target":34962},{"buffer":0,"byteOffset":7648,"byteLength":32,"target":34963},{"buffer":0,"byteOffset":7680,"byteLength":48,"target":34962},{"buffer":0,"byteOffset":7728,"byteLength":32,"target":34963},{"buffer":0,"byteOffset":7760,"byteLength":48,"target":34962},{"buffer":0,"byteOffset":7808,"byteLength":32,"target":34963},{"buffer":0,"byteOffset":7840,"byteLength":48,"target":34962},{"buffer":0,"byteOffset":7888,"byteLength":32,"target":34963},{"buffer":0,"byteOffset":7920,"byteLength":48,"target":34962},{"buffer":0,"byteOffset":7968,"byteLength":32,"target":34963},{"buffer":0,"byteOffset":8000,"byteLength":96,"target":34962},{"buffer":0,"byteOffset":8096,"byteLength":64,"target":34963},{"buffer":0,"byteOffset":8160,"byteLength":96,"target":34962},{"buffer":0,"byteOffset":8256,"byteLength":64,"target":34963},{"buffer":0,"byteOffset":8320,"byteLength":48,"target":34962},{"buffer":0,"byteOffset":8368,"byteLength":32,"target":34963},{"buffer":0,"byteOffset":8400,"byteLength":48,"target":34962},{"buffer":0,"byteOffset":8448,"byteLength":32,"target":34963},{"buffer":0,"byteOffset":8480,"byteLength":48,"target":34962},{"buffer":0,"byteOffset":8528,"byteLength":32,"target":34963},{"buffer":0,"byteOffset":8560,"byteLength":48,"target":34962},{"buffer":0,"byteOffset":8608,"byteLength":32,"target":34963},{"buffer":0,"byteOffset":8640,"byteLength":48,"target":34962},{"buffer":0,"byteOffset":8688,"byteLength":32,"target":34963},{"buffer":0,"byteOffset":8720,"byteLength":48,"target":34962},{"buffer":0,"byteOffset":8768,"byteLength":32,"target":34963},{"buffer":0,"byteOffset":8800,"byteLength":48,"target":34962},{"buffer":0,"byteOffset":8848,"byteLength":32,"target":34963},{"buffer":0,"byteOffset":8880,"byteLength":48,"target":34962},{"buffer":0,"byteOffset":8928,"byteLength":32,"target":34963},{"buffer":0,"byteOffset":8960,"byteLength":96,"target":34962},{"buffer":0,"byteOffset":9056,"byteLength":64,"target":34963},{"buffer":0,"byteOffset":9120,"byteLength":96,"target":34962},{"buffer":0,"byteOffset":9216,"byteLength":64,"target":34963},{"buffer":0,"byteOffset":9280,"byteLength":48,"target":34962},{"buffer":0,"byteOffset":9328,"byteLength":32,"target":34963},{"buffer":0,"byteOffset":9360,"byteLength":48,"target":34962},{"buffer":0,"byteOffset":9408,"byteLength":32,"target":34963},{"buffer":0,"byteOffset":9440,"byteLength":48,"target":34962},{"buffer":0,"byteOffset":9488,"byteLength":32,"target":34963},{"buffer":0,"byteOffset":9520,"byteLength":48,"target":34962},{"buffer":0,"byteOffset":9568,"byteLength":32,"target":34963},{"buffer":0,"byteOffset":9600,"byteLength":48,"target":34962},{"buffer":0,"byteOffset":9648,"byteLength":32,"target":34963},{"buffer":0,"byteOffset":9680,"byteLength":48,"target":34962},{"buffer":0,"byteOffset":9728,"byteLength":32,"target":34963},{"buffer":0,"byteOffset":9760,"byteLength":48,"target":34962},{"buffer":0,"byteOffset":9808,"byteLength":32,"target":34963},{"buffer":0,"byteOffset":9840,"byteLength":48,"target":34962},{"buffer":0,"byteOffset":9888,"byteLength":32,"target":34963},{"buffer":0,"byteOffset":9920,"byteLength":96,"target":34962},{"buffer":0,"byteOffset":10016,"byteLength":64,"target":34963}],"accessors":[{"bufferView":0,"componentType":5126,"count":4,"type":"VEC3","min":[-15.94637680053711,37.329994201660156,-24.663183212280273],"max":[-14.097539901733398,37.329994201660156,-21.899999618530273]},{"bufferView":1,"componentType":5125,"count":8,"type":"SCALAR"},{"bufferView":2,"componentType":5126,"count":4,"type":"VEC3","min":[-15.385615348815918,37.329994201660156,-24.436817169189453],"max":[-14.097539901733398,38.299991607666016,-21.899999618530273]},{"bufferView":3,"componentType":5125,"count":8,"type":"SCALAR"},{"bufferView":4,"componentType":5126,"count":4,"type":"VEC3","min":[-15.94637680053711,37.329994201660156,-21.899999618530273],"max":[-15.385615348815918,38.299991607666016,-21.899999618530273]},{"bufferView":5,"componentType":5125,"count":8,"type":"SCALAR"},{"bufferView":6,"componentType":5126,"count":3,"type":"VEC3","min":[-14.60083293914795,38.14999771118164,-24.663183212280273],"max":[-14.320451736450195,38.14999771118164,-24.549999237060547]},{"bufferView":7,"componentType":5125,"count":6,"type":"SCALAR"},{"bufferView":8,"componentType":5126,"count":5,"type":"VEC3","min":[-15.94637680053711,38.299991607666016,-24.549999237060547],"max":[-14.097539901733398,38.299991607666016,-21.899999618530273]},{"bufferView":9,"componentType":5125,"count":10,"type":"SCALAR"},{"bufferView":10,"componentType":5126,"count":6,"type":"VEC3","min":[-15.94637680053711,37.329994201660156,-24.663183212280273],"max":[-14.54336166381836,38.299991607666016,-21.899999618530273]},{"bufferView":11,"componentType":5125,"count":12,"type":"SCALAR"},{"bufferView":12,"componentType":5126,"count":6,"type":"VEC3","min":[-14.54336166381836,37.329994201660156,-24.663183212280273],"max":[-14.097539901733398,38.299991607666016,-24.436817169189453]},{"bufferView":13,"componentType":5125,"count":12,"type":"SCALAR"},{"bufferView":14,"componentType":5126,"count":4,"type":"VEC3","min":[-14.60083293914795,38.14999771118164,-24.549999237060547],"max":[-14.320451736450195,38.299991607666016,-24.549999237060547]},{"bufferView":15,"componentType":5125,"count":8,"type":"SCALAR"},{"bufferView":16,"componentType":5126,"count":4,"type":"VEC3","min":[-15.28499984741211,38.14999771118164,-21.049999237060547],"max":[-14.78499984741211,38.14999771118164,-12.350000381469727]},{"bufferView":17,"componentType":5125,"count":8,"type":"SCALAR"},{"bufferView":18,"componentType":5126,"count":4,"type":"VEC3","min":[-15.28499984741211,37.329994201660156,-12.350000381469727],"max":[-14.78499984741211,38.14999771118164,-12.350000381469727]},{"bufferView":19,"componentType":5125,"count":8,"type":"SCALAR"},{"bufferView":20,"componentType":5126,"count":4,"type":"VEC3","min":[-14.78499984741211,37.329994201660156,-21.049999237060547],"max":[-14.78499984741211,38.14999771118164,-12.350000381469727]},{"bufferView":21,"componentType":5125,"count":8,"type":"SCALAR"},{"bufferView":22,"componentType":5126,"count":4,"type":"VEC3","min":[-15.28499984741211,37.329994201660156,-21.049999237060547],"max":[-14.78499984741211,38.14999771118164,-21.049999237060547]},{"bufferView":23,"componentType":5125,"count":8,"type":"SCALAR"},{"bufferView":24,"componentType":5126,"count":4,"type":"VEC3","min":[-15.28499984741211,37.329994201660156,-21.049999237060547],"max":[-15.28499984741211,38.14999771118164,-12.350000381469727]},{"bufferView":25,"componentType":5125,"count":8,"type":"SCALAR"},{"bufferView":26,"componentType":5126,"count":4,"type":"VEC3","min":[-15.28499984741211,37.329994201660156,-21.049999237060547],"max":[-14.78499984741211,37.329994201660156,-12.350000381469727]},{"bufferView":27,"componentType":5125,"count":8,"type":"SCALAR"},{"bufferView":28,"componentType":5126,"count":4,"type":"VEC3","min":[-12.459991455078125,38.14999771118164,-32.59999084472656],"max":[-11.959991455078125,38.14999771118164,-29.249990463256836]},{"bufferView":29,"componentType":5125,"count":8,"type":"SCALAR"},{"bufferView":30,"componentType":5126,"count":4,"type":"VEC3","min":[-12.459991455078125,37.299991607666016,-29.249990463256836],"max":[-11.959991455078125,38.14999771118164,-29.249990463256836]},{"bufferView":31,"componentType":5125,"count":8,"type":"SCALAR"},{"bufferView":32,"componentType":5126,"count":4,"type":"VEC3","min":[-11.959991455078125,37.299991607666016,-32.59999084472656],"max":[-11.959991455078125,38.14999771118164,-29.249990463256836]},{"bufferView":33,"componentType":5125,"count":8,"type":"SCALAR"},{"bufferView":34,"componentType":5126,"count":4,"type":"VEC3","min":[-12.459991455078125,37.299991607666016,-32.59999084472656],"max":[-11.959991455078125,38.14999771118164,-32.59999084472656]},{"bufferView":35,"componentType":5125,"count":8,"type":"SCALAR"},{"bufferView":36,"componentType":5126,"count":4,"type":"VEC3","min":[-12.459991455078125,37.299991607666016,-32.59999084472656],"max":[-12.459991455078125,38.14999771118164,-29.249990463256836]},{"bufferView":37,"componentType":5125,"count":8,"type":"SCALAR"},{"bufferView":38,"componentType":5126,"count":4,"type":"VEC3","min":[-12.459991455078125,37.299991607666016,-32.59999084472656],"max":[-11.959991455078125,37.299991607666016,-29.249990463256836]},{"bufferView":39,"componentType":5125,"count":8,"type":"SCALAR"},{"bufferView":40,"componentType":5126,"count":4,"type":"VEC3","min":[-12.460000038146973,38.14999771118164,-38.400001525878906],"max":[-11.960000038146973,38.14999771118164,-33.399993896484375]},{"bufferView":41,"componentType":5125,"count":8,"type":"SCALAR"},{"bufferView":42,"componentType":5126,"count":4,"type":"VEC3","min":[-12.460000038146973,37.299991607666016,-33.399993896484375],"max":[-11.960000038146973,38.14999771118164,-33.399993896484375]},{"bufferView":43,"componentType":5125,"count":8,"type":"SCALAR"},{"bufferView":44,"componentType":5126,"count":4,"type":"VEC3","min":[-11.960000038146973,37.299991607666016,-38.400001525878906],"max":[-11.960000038146973,38.14999771118164,-33.399993896484375]},{"bufferView":45,"componentType":5125,"count":8,"type":"SCALAR"},{"bufferView":46,"componentType":5126,"count":4,"type":"VEC3","min":[-12.460000038146973,37.299991607666016,-38.400001525878906],"max":[-11.960000038146973,38.14999771118164,-38.400001525878906]},{"bufferView":47,"componentType":5125,"count":8,"type":"SCALAR"},{"bufferView":48,"componentType":5126,"count":4,"type":"VEC3","min":[-12.460000038146973,37.299991607666016,-38.400001525878906],"max":[-12.460000038146973,38.14999771118164,-33.399993896484375]},{"bufferView":49,"componentType":5125,"count":8,"type":"SCALAR"},{"bufferView":50,"componentType":5126,"count":4,"type":"VEC3","min":[-12.460000038146973,37.299991607666016,-38.400001525878906],"max":[-11.960000038146973,37.299991607666016,-33.399993896484375]},{"bufferView":51,"componentType":5125,"count":8,"type":"SCALAR"},{"bufferView":52,"componentType":5126,"count":8,"type":"VEC3","min":[-11.759991645812988,38.14999771118164,-39],"max":[-6.659999847412109,38.14999771118164,-38.45000076293945]},{"bufferView":53,"componentType":5125,"count":16,"type":"SCALAR"},{"bufferView":54,"componentType":5126,"count":4,"type":"VEC3","min":[-8.909991264343262,37.299991607666016,-39],"max":[-6.659999847412109,38.14999771118164,-39]},{"bufferView":55,"componentType":5125,"count":8,"type":"SCALAR"},{"bufferView":56,"componentType":5126,"count":4,"type":"VEC3","min":[-8.909991264343262,37.299991607666016,-39],"max":[-8.909991264343262,38.14999771118164,-38.54999923706055]},{"bufferView":57,"componentType":5125,"count":8,"type":"SCALAR"},{"bufferView":58,"componentType":5126,"count":4,"type":"VEC3","min":[-9.509990692138672,37.299991607666016,-38.54999923706055],"max":[-8.909991264343262,38.14999771118164,-38.54999923706055]},{"bufferView":59,"componentType":5125,"count":8,"type":"SCALAR"},{"bufferView":60,"componentType":5126,"count":4,"type":"VEC3","min":[-9.509990692138672,37.299991607666016,-39],"max":[-9.509990692138672,38.14999771118164,-38.54999923706055]},{"bufferView":61,"componentType":5125,"count":8,"type":"SCALAR"},{"bufferView":62,"componentType":5126,"count":4,"type":"VEC3","min":[-11.759991645812988,37.299991607666016,-39],"max":[-9.509990692138672,38.14999771118164,-39]},{"bufferView":63,"componentType":5125,"count":8,"type":"SCALAR"},{"bufferView":64,"componentType":5126,"count":4,"type":"VEC3","min":[-11.759991645812988,37.299991607666016,-39],"max":[-11.759991645812988,38.14999771118164,-38.45000076293945]},{"bufferView":65,"componentType":5125,"count":8,"type":"SCALAR"},{"bufferView":66,"componentType":5126,"count":4,"type":"VEC3","min":[-11.759991645812988,37.299991607666016,-38.45000076293945],"max":[-6.659999847412109,38.14999771118164,-38.45000076293945]},{"bufferView":67,"componentType":5125,"count":8,"type":"SCALAR"},{"bufferView":68,"componentType":5126,"count":4,"type":"VEC3","min":[-6.659999847412109,37.299991607666016,-39],"max":[-6.659999847412109,38.14999771118164,-38.45000076293945]},{"bufferView":69,"componentType":5125,"count":8,"type":"SCALAR"},{"bufferView":70,"componentType":5126,"count":8,"type":"VEC3","min":[-11.759991645812988,37.299991607666016,-39],"max":[-6.659999847412109,37.299991607666016,-38.45000076293945]},{"bufferView":71,"componentType":5125,"count":16,"type":"SCALAR"},{"bufferView":72,"componentType":5126,"count":8,"type":"VEC3","min":[-5.659982204437256,38.14999771118164,-39],"max":[-9.66232427401792e-9,38.14999771118164,-38.45000076293945]},{"bufferView":73,"componentType":5125,"count":16,"type":"SCALAR"},{"bufferView":74,"componentType":5126,"count":4,"type":"VEC3","min":[-2.5299956798553467,37.299991607666016,-39],"max":[-9.662328714910018e-9,38.14999771118164,-39]},{"bufferView":75,"componentType":5125,"count":8,"type":"SCALAR"},{"bufferView":76,"componentType":5126,"count":4,"type":"VEC3","min":[-2.5299956798553467,37.299991607666016,-39],"max":[-2.5299956798553467,38.14999771118164,-38.5]},{"bufferView":77,"componentType":5125,"count":8,"type":"SCALAR"},{"bufferView":78,"componentType":5126,"count":4,"type":"VEC3","min":[-3.129995822906494,37.299991607666016,-38.5],"max":[-2.5299956798553467,38.14999771118164,-38.5]},{"bufferView":79,"componentType":5125,"count":8,"type":"SCALAR"},{"bufferView":80,"componentType":5126,"count":4,"type":"VEC3","min":[-3.129995822906494,37.299991607666016,-39],"max":[-3.129995822906494,38.14999771118164,-38.5]},{"bufferView":81,"componentType":5125,"count":8,"type":"SCALAR"},{"bufferView":82,"componentType":5126,"count":4,"type":"VEC3","min":[-5.659982204437256,37.299991607666016,-39],"max":[-3.129995822906494,38.14999771118164,-39]},{"bufferView":83,"componentType":5125,"count":8,"type":"SCALAR"},{"bufferView":84,"componentType":5126,"count":4,"type":"VEC3","min":[-5.659982204437256,37.299991607666016,-39],"max":[-5.659982204437256,38.14999771118164,-38.45000076293945]},{"bufferView":85,"componentType":5125,"count":8,"type":"SCALAR"},{"bufferView":86,"componentType":5126,"count":4,"type":"VEC3","min":[-5.659982204437256,37.299991607666016,-38.45000076293945],"max":[-9.66232427401792e-9,38.14999771118164,-38.45000076293945]},{"bufferView":87,"componentType":5125,"count":8,"type":"SCALAR"},{"bufferView":88,"componentType":5126,"count":4,"type":"VEC3","min":[-9.662328714910018e-9,37.299991607666016,-39],"max":[-9.66232427401792e-9,38.14999771118164,-38.45000076293945]},{"bufferView":89,"componentType":5125,"count":8,"type":"SCALAR"},{"bufferView":90,"componentType":5126,"count":8,"type":"VEC3","min":[-5.659982204437256,37.299991607666016,-39],"max":[-9.66232427401792e-9,37.299991607666016,-38.45000076293945]},{"bufferView":91,"componentType":5125,"count":16,"type":"SCALAR"},{"bufferView":92,"componentType":5126,"count":8,"type":"VEC3","min":[-15.28499984741211,38.14999771118164,-11.449999809265137],"max":[-14.78499984741211,38.14999771118164,-4.331468570726053e-15]},{"bufferView":93,"componentType":5125,"count":16,"type":"SCALAR"},{"bufferView":94,"componentType":5126,"count":4,"type":"VEC3","min":[-14.78499984741211,37.299991607666016,-4.300000190734863],"max":[-14.78499984741211,38.14999771118164,-4.331468570726053e-15]},{"bufferView":95,"componentType":5125,"count":8,"type":"SCALAR"},{"bufferView":96,"componentType":5126,"count":4,"type":"VEC3","min":[-15.234991073608398,37.299991607666016,-4.300000190734863],"max":[-14.78499984741211,38.14999771118164,-4.300000190734863]},{"bufferView":97,"componentType":5125,"count":8,"type":"SCALAR"},{"bufferView":98,"componentType":5126,"count":4,"type":"VEC3","min":[-15.234991073608398,37.299991607666016,-5.199999809265137],"max":[-15.234991073608398,38.14999771118164,-4.300000190734863]},{"bufferView":99,"componentType":5125,"count":8,"type":"SCALAR"},{"bufferView":100,"componentType":5126,"count":4,"type":"VEC3","min":[-15.234991073608398,37.299991607666016,-5.199999809265137],"max":[-14.78499984741211,38.14999771118164,-5.199999809265137]},{"bufferView":101,"componentType":5125,"count":8,"type":"SCALAR"},{"bufferView":102,"componentType":5126,"count":4,"type":"VEC3","min":[-14.78499984741211,37.299991607666016,-11.449999809265137],"max":[-14.78499984741211,38.14999771118164,-5.199999809265137]},{"bufferView":103,"componentType":5125,"count":8,"type":"SCALAR"},{"bufferView":104,"componentType":5126,"count":4,"type":"VEC3","min":[-15.28499984741211,37.299991607666016,-11.449999809265137],"max":[-14.78499984741211,38.14999771118164,-11.449999809265137]},{"bufferView":105,"componentType":5125,"count":8,"type":"SCALAR"},{"bufferView":106,"componentType":5126,"count":4,"type":"VEC3","min":[-15.28499984741211,37.299991607666016,-11.449999809265137],"max":[-15.28499984741211,38.14999771118164,-5.198608386082276e-15]},{"bufferView":107,"componentType":5125,"count":8,"type":"SCALAR"},{"bufferView":108,"componentType":5126,"count":4,"type":"VEC3","min":[-15.28499984741211,37.299991607666016,-5.414335395770211e-15],"max":[-14.78499984741211,38.14999771118164,-4.331468570726053e-15]},{"bufferView":109,"componentType":5125,"count":8,"type":"SCALAR"},{"bufferView":110,"componentType":5126,"count":8,"type":"VEC3","min":[-15.28499984741211,37.299991607666016,-11.449999809265137],"max":[-14.78499984741211,37.299991607666016,-4.331468570726053e-15]},{"bufferView":111,"componentType":5125,"count":16,"type":"SCALAR"},{"bufferView":112,"componentType":5126,"count":4,"type":"VEC3","min":[-15.94637680053711,40.72999572753906,-24.663183212280273],"max":[-14.097539901733398,40.72999572753906,-21.899999618530273]},{"bufferView":113,"componentType":5125,"count":8,"type":"SCALAR"},{"bufferView":114,"componentType":5126,"count":4,"type":"VEC3","min":[-15.385615348815918,40.72999572753906,-24.436817169189453],"max":[-14.097539901733398,41.69999694824219,-21.899999618530273]},{"bufferView":115,"componentType":5125,"count":8,"type":"SCALAR"},{"bufferView":116,"componentType":5126,"count":4,"type":"VEC3","min":[-15.94637680053711,40.72999572753906,-21.899999618530273],"max":[-15.385615348815918,41.69999694824219,-21.899999618530273]},{"bufferView":117,"componentType":5125,"count":8,"type":"SCALAR"},{"bufferView":118,"componentType":5126,"count":3,"type":"VEC3","min":[-14.60083293914795,41.54999923706055,-24.663183212280273],"max":[-14.320451736450195,41.54999923706055,-24.549999237060547]},{"bufferView":119,"componentType":5125,"count":6,"type":"SCALAR"},{"bufferView":120,"componentType":5126,"count":5,"type":"VEC3","min":[-15.94637680053711,41.69999694824219,-24.549999237060547],"max":[-14.097539901733398,41.69999694824219,-21.899999618530273]},{"bufferView":121,"componentType":5125,"count":10,"type":"SCALAR"},{"bufferView":122,"componentType":5126,"count":6,"type":"VEC3","min":[-15.94637680053711,40.72999572753906,-24.663183212280273],"max":[-14.54336166381836,41.69999694824219,-21.899999618530273]},{"bufferView":123,"componentType":5125,"count":12,"type":"SCALAR"},{"bufferView":124,"componentType":5126,"count":6,"type":"VEC3","min":[-14.54336166381836,40.72999572753906,-24.663183212280273],"max":[-14.097539901733398,41.69999694824219,-24.436817169189453]},{"bufferView":125,"componentType":5125,"count":12,"type":"SCALAR"},{"bufferView":126,"componentType":5126,"count":4,"type":"VEC3","min":[-14.60083293914795,41.54999923706055,-24.549999237060547],"max":[-14.320451736450195,41.69999694824219,-24.549999237060547]},{"bufferView":127,"componentType":5125,"count":8,"type":"SCALAR"},{"bufferView":128,"componentType":5126,"count":4,"type":"VEC3","min":[-15.28499984741211,41.54999923706055,-21.049999237060547],"max":[-14.78499984741211,41.54999923706055,-12.350000381469727]},{"bufferView":129,"componentType":5125,"count":8,"type":"SCALAR"},{"bufferView":130,"componentType":5126,"count":4,"type":"VEC3","min":[-15.28499984741211,40.72999572753906,-12.350000381469727],"max":[-14.78499984741211,41.54999923706055,-12.350000381469727]},{"bufferView":131,"componentType":5125,"count":8,"type":"SCALAR"},{"bufferView":132,"componentType":5126,"count":4,"type":"VEC3","min":[-14.78499984741211,40.72999572753906,-21.049999237060547],"max":[-14.78499984741211,41.54999923706055,-12.350000381469727]},{"bufferView":133,"componentType":5125,"count":8,"type":"SCALAR"},{"bufferView":134,"componentType":5126,"count":4,"type":"VEC3","min":[-15.28499984741211,40.72999572753906,-21.049999237060547],"max":[-14.78499984741211,41.54999923706055,-21.049999237060547]},{"bufferView":135,"componentType":5125,"count":8,"type":"SCALAR"},{"bufferView":136,"componentType":5126,"count":4,"type":"VEC3","min":[-15.28499984741211,40.72999572753906,-21.049999237060547],"max":[-15.28499984741211,41.54999923706055,-12.350000381469727]},{"bufferView":137,"componentType":5125,"count":8,"type":"SCALAR"},{"bufferView":138,"componentType":5126,"count":4,"type":"VEC3","min":[-15.28499984741211,40.72999572753906,-21.049999237060547],"max":[-14.78499984741211,40.72999572753906,-12.350000381469727]},{"bufferView":139,"componentType":5125,"count":8,"type":"SCALAR"},{"bufferView":140,"componentType":5126,"count":4,"type":"VEC3","min":[-12.459991455078125,41.54999923706055,-32.59999084472656],"max":[-11.959991455078125,41.54999923706055,-29.249990463256836]},{"bufferView":141,"componentType":5125,"count":8,"type":"SCALAR"},{"bufferView":142,"componentType":5126,"count":4,"type":"VEC3","min":[-12.459991455078125,40.69999694824219,-29.249990463256836],"max":[-11.959991455078125,41.54999923706055,-29.249990463256836]},{"bufferView":143,"componentType":5125,"count":8,"type":"SCALAR"},{"bufferView":144,"componentType":5126,"count":4,"type":"VEC3","min":[-11.959991455078125,40.69999694824219,-32.59999084472656],"max":[-11.959991455078125,41.54999923706055,-29.249990463256836]},{"bufferView":145,"componentType":5125,"count":8,"type":"SCALAR"},{"bufferView":146,"componentType":5126,"count":4,"type":"VEC3","min":[-12.459991455078125,40.69999694824219,-32.59999084472656],"max":[-11.959991455078125,41.54999923706055,-32.59999084472656]},{"bufferView":147,"componentType":5125,"count":8,"type":"SCALAR"},{"bufferView":148,"componentType":5126,"count":4,"type":"VEC3","min":[-12.459991455078125,40.69999694824219,-32.59999084472656],"max":[-12.459991455078125,41.54999923706055,-29.249990463256836]},{"bufferView":149,"componentType":5125,"count":8,"type":"SCALAR"},{"bufferView":150,"componentType":5126,"count":4,"type":"VEC3","min":[-12.459991455078125,40.69999694824219,-32.59999084472656],"max":[-11.959991455078125,40.69999694824219,-29.249990463256836]},{"bufferView":151,"componentType":5125,"count":8,"type":"SCALAR"},{"bufferView":152,"componentType":5126,"count":4,"type":"VEC3","min":[-12.460000038146973,41.54999923706055,-38.400001525878906],"max":[-11.960000038146973,41.54999923706055,-33.399993896484375]},{"bufferView":153,"componentType":5125,"count":8,"type":"SCALAR"},{"bufferView":154,"componentType":5126,"count":4,"type":"VEC3","min":[-12.460000038146973,40.69999694824219,-33.399993896484375],"max":[-11.960000038146973,41.54999923706055,-33.399993896484375]},{"bufferView":155,"componentType":5125,"count":8,"type":"SCALAR"},{"bufferView":156,"componentType":5126,"count":4,"type":"VEC3","min":[-11.960000038146973,40.69999694824219,-38.400001525878906],"max":[-11.960000038146973,41.54999923706055,-33.399993896484375]},{"bufferView":157,"componentType":5125,"count":8,"type":"SCALAR"},{"bufferView":158,"componentType":5126,"count":4,"type":"VEC3","min":[-12.460000038146973,40.69999694824219,-38.400001525878906],"max":[-11.960000038146973,41.54999923706055,-38.400001525878906]},{"bufferView":159,"componentType":5125,"count":8,"type":"SCALAR"},{"bufferView":160,"componentType":5126,"count":4,"type":"VEC3","min":[-12.460000038146973,40.69999694824219,-38.400001525878906],"max":[-12.460000038146973,41.54999923706055,-33.399993896484375]},{"bufferView":161,"componentType":5125,"count":8,"type":"SCALAR"},{"bufferView":162,"componentType":5126,"count":4,"type":"VEC3","min":[-12.460000038146973,40.69999694824219,-38.400001525878906],"max":[-11.960000038146973,40.69999694824219,-33.399993896484375]},{"bufferView":163,"componentType":5125,"count":8,"type":"SCALAR"},{"bufferView":164,"componentType":5126,"count":8,"type":"VEC3","min":[-11.759991645812988,41.54999923706055,-39],"max":[-6.659999847412109,41.54999923706055,-38.45000076293945]},{"bufferView":165,"componentType":5125,"count":16,"type":"SCALAR"},{"bufferView":166,"componentType":5126,"count":4,"type":"VEC3","min":[-8.909991264343262,40.69999694824219,-39],"max":[-6.659999847412109,41.54999923706055,-39]},{"bufferView":167,"componentType":5125,"count":8,"type":"SCALAR"},{"bufferView":168,"componentType":5126,"count":4,"type":"VEC3","min":[-8.909991264343262,40.69999694824219,-39],"max":[-8.909991264343262,41.54999923706055,-38.54999923706055]},{"bufferView":169,"componentType":5125,"count":8,"type":"SCALAR"},{"bufferView":170,"componentType":5126,"count":4,"type":"VEC3","min":[-9.509990692138672,40.69999694824219,-38.54999923706055],"max":[-8.909991264343262,41.54999923706055,-38.54999923706055]},{"bufferView":171,"componentType":5125,"count":8,"type":"SCALAR"},{"bufferView":172,"componentType":5126,"count":4,"type":"VEC3","min":[-9.509990692138672,40.69999694824219,-39],"max":[-9.509990692138672,41.54999923706055,-38.54999923706055]},{"bufferView":173,"componentType":5125,"count":8,"type":"SCALAR"},{"bufferView":174,"componentType":5126,"count":4,"type":"VEC3","min":[-11.759991645812988,40.69999694824219,-39],"max":[-9.509990692138672,41.54999923706055,-39]},{"bufferView":175,"componentType":5125,"count":8,"type":"SCALAR"},{"bufferView":176,"componentType":5126,"count":4,"type":"VEC3","min":[-11.759991645812988,40.69999694824219,-39],"max":[-11.759991645812988,41.54999923706055,-38.45000076293945]},{"bufferView":177,"componentType":5125,"count":8,"type":"SCALAR"},{"bufferView":178,"componentType":5126,"count":4,"type":"VEC3","min":[-11.759991645812988,40.69999694824219,-38.45000076293945],"max":[-6.659999847412109,41.54999923706055,-38.45000076293945]},{"bufferView":179,"componentType":5125,"count":8,"type":"SCALAR"},{"bufferView":180,"componentType":5126,"count":4,"type":"VEC3","min":[-6.659999847412109,40.69999694824219,-39],"max":[-6.659999847412109,41.54999923706055,-38.45000076293945]},{"bufferView":181,"componentType":5125,"count":8,"type":"SCALAR"},{"bufferView":182,"componentType":5126,"count":8,"type":"VEC3","min":[-11.759991645812988,40.69999694824219,-39],"max":[-6.659999847412109,40.69999694824219,-38.45000076293945]},{"bufferView":183,"componentType":5125,"count":16,"type":"SCALAR"},{"bufferView":184,"componentType":5126,"count":8,"type":"VEC3","min":[-5.659982204437256,41.54999923706055,-39],"max":[-9.66232427401792e-9,41.54999923706055,-38.45000076293945]},{"bufferView":185,"componentType":5125,"count":16,"type":"SCALAR"},{"bufferView":186,"componentType":5126,"count":4,"type":"VEC3","min":[-2.5299956798553467,40.69999694824219,-39],"max":[-9.662328714910018e-9,41.54999923706055,-39]},{"bufferView":187,"componentType":5125,"count":8,"type":"SCALAR"},{"bufferView":188,"componentType":5126,"count":4,"type":"VEC3","min":[-2.5299956798553467,40.69999694824219,-39],"max":[-2.5299956798553467,41.54999923706055,-38.5]},{"bufferView":189,"componentType":5125,"count":8,"type":"SCALAR"},{"bufferView":190,"componentType":5126,"count":4,"type":"VEC3","min":[-3.129995822906494,40.69999694824219,-38.5],"max":[-2.5299956798553467,41.54999923706055,-38.5]},{"bufferView":191,"componentType":5125,"count":8,"type":"SCALAR"},{"bufferView":192,"componentType":5126,"count":4,"type":"VEC3","min":[-3.129995822906494,40.69999694824219,-39],"max":[-3.129995822906494,41.54999923706055,-38.5]},{"bufferView":193,"componentType":5125,"count":8,"type":"SCALAR"},{"bufferView":194,"componentType":5126,"count":4,"type":"VEC3","min":[-5.659982204437256,40.69999694824219,-39],"max":[-3.129995822906494,41.54999923706055,-39]},{"bufferView":195,"componentType":5125,"count":8,"type":"SCALAR"},{"bufferView":196,"componentType":5126,"count":4,"type":"VEC3","min":[-5.659982204437256,40.69999694824219,-39],"max":[-5.659982204437256,41.54999923706055,-38.45000076293945]},{"bufferView":197,"componentType":5125,"count":8,"type":"SCALAR"},{"bufferView":198,"componentType":5126,"count":4,"type":"VEC3","min":[-5.659982204437256,40.69999694824219,-38.45000076293945],"max":[-9.66232427401792e-9,41.54999923706055,-38.45000076293945]},{"bufferView":199,"componentType":5125,"count":8,"type":"SCALAR"},{"bufferView":200,"componentType":5126,"count":4,"type":"VEC3","min":[-9.662328714910018e-9,40.69999694824219,-39],"max":[-9.66232427401792e-9,41.54999923706055,-38.45000076293945]},{"bufferView":201,"componentType":5125,"count":8,"type":"SCALAR"},{"bufferView":202,"componentType":5126,"count":8,"type":"VEC3","min":[-5.659982204437256,40.69999694824219,-39],"max":[-9.66232427401792e-9,40.69999694824219,-38.45000076293945]},{"bufferView":203,"componentType":5125,"count":16,"type":"SCALAR"},{"bufferView":204,"componentType":5126,"count":8,"type":"VEC3","min":[-15.28499984741211,41.54999923706055,-11.449999809265137],"max":[-14.78499984741211,41.54999923706055,-4.331468570726053e-15]},{"bufferView":205,"componentType":5125,"count":16,"type":"SCALAR"},{"bufferView":206,"componentType":5126,"count":4,"type":"VEC3","min":[-14.78499984741211,40.69999694824219,-4.300000190734863],"max":[-14.78499984741211,41.54999923706055,-4.331468570726053e-15]},{"bufferView":207,"componentType":5125,"count":8,"type":"SCALAR"},{"bufferView":208,"componentType":5126,"count":4,"type":"VEC3","min":[-15.234991073608398,40.69999694824219,-4.300000190734863],"max":[-14.78499984741211,41.54999923706055,-4.300000190734863]},{"bufferView":209,"componentType":5125,"count":8,"type":"SCALAR"},{"bufferView":210,"componentType":5126,"count":4,"type":"VEC3","min":[-15.234991073608398,40.69999694824219,-5.199999809265137],"max":[-15.234991073608398,41.54999923706055,-4.300000190734863]},{"bufferView":211,"componentType":5125,"count":8,"type":"SCALAR"},{"bufferView":212,"componentType":5126,"count":4,"type":"VEC3","min":[-15.234991073608398,40.69999694824219,-5.199999809265137],"max":[-14.78499984741211,41.54999923706055,-5.199999809265137]},{"bufferView":213,"componentType":5125,"count":8,"type":"SCALAR"},{"bufferView":214,"componentType":5126,"count":4,"type":"VEC3","min":[-14.78499984741211,40.69999694824219,-11.449999809265137],"max":[-14.78499984741211,41.54999923706055,-5.199999809265137]},{"bufferView":215,"componentType":5125,"count":8,"type":"SCALAR"},{"bufferView":216,"componentType":5126,"count":4,"type":"VEC3","min":[-15.28499984741211,40.69999694824219,-11.449999809265137],"max":[-14.78499984741211,41.54999923706055,-11.449999809265137]},{"bufferView":217,"componentType":5125,"count":8,"type":"SCALAR"},{"bufferView":218,"componentType":5126,"count":4,"type":"VEC3","min":[-15.28499984741211,40.69999694824219,-11.449999809265137],"max":[-15.28499984741211,41.54999923706055,-5.198608386082276e-15]},{"bufferView":219,"componentType":5125,"count":8,"type":"SCALAR"},{"bufferView":220,"componentType":5126,"count":4,"type":"VEC3","min":[-15.28499984741211,40.69999694824219,-5.414335395770211e-15],"max":[-14.78499984741211,41.54999923706055,-4.331468570726053e-15]},{"bufferView":221,"componentType":5125,"count":8,"type":"SCALAR"},{"bufferView":222,"componentType":5126,"count":8,"type":"VEC3","min":[-15.28499984741211,40.69999694824219,-11.449999809265137],"max":[-14.78499984741211,40.69999694824219,-4.331468570726053e-15]},{"bufferView":223,"componentType":5125,"count":16,"type":"SCALAR"}]}